<?xml version="1.0" encoding="utf-8" standalone="no"?>
<!DOCTYPE svg PUBLIC "-//W3C//DTD SVG 1.1//EN"
  "http://www.w3.org/Graphics/SVG/1.1/DTD/svg11.dtd">
<svg xmlns:xlink="http://www.w3.org/1999/xlink" width="690.294886pt" height="369.153136pt" viewBox="0 0 690.294886 369.153136" xmlns="http://www.w3.org/2000/svg" version="1.1">
 <metadata>
  <rdf:RDF xmlns:dc="http://purl.org/dc/elements/1.1/" xmlns:cc="http://creativecommons.org/ns#" xmlns:rdf="http://www.w3.org/1999/02/22-rdf-syntax-ns#">
   <cc:Work>
    <dc:type rdf:resource="http://purl.org/dc/dcmitype/StillImage"/>
    <dc:format>image/svg+xml</dc:format>
    <dc:creator>
     <cc:Agent>
      <dc:title>Matplotlib v3.9.4, https://matplotlib.org/</dc:title>
     </cc:Agent>
    </dc:creator>
   </cc:Work>
  </rdf:RDF>
 </metadata>
 <defs>
  <style type="text/css">*{stroke-linejoin: round; stroke-linecap: butt}</style>
 </defs>
 <g id="figure_1">
  <g id="patch_1">
   <path d="M 0 369.153136 
L 690.294886 369.153136 
L 690.294886 0 
L 0 0 
z
" style="fill: #ffffff"/>
  </g>
  <g id="axes_1">
   <g id="patch_2">
    <path d="M 37.77125 327.673136 
L 329.574886 327.673136 
L 329.574886 35.8695 
L 37.77125 35.8695 
z
" style="fill: #ffffff"/>
   </g>
   <g id="patch_3">
    <path d="M 37.77125 327.673136 
L 110.722159 327.673136 
L 110.722159 254.722227 
L 37.77125 254.722227 
z
" clip-path="url(#p1c044aeda3)" style="fill: #7da7d9; stroke: #000000; stroke-width: 1.2; stroke-linejoin: miter"/>
   </g>
   <g id="patch_4">
    <path d="M 37.77125 254.722227 
L 110.722159 254.722227 
L 110.722159 181.771318 
L 37.77125 181.771318 
z
" clip-path="url(#p1c044aeda3)" style="fill: #7da7d9; stroke: #000000; stroke-width: 1.2; stroke-linejoin: miter"/>
   </g>
   <g id="patch_5">
    <path d="M 37.77125 181.771318 
L 110.722159 181.771318 
L 110.722159 108.820409 
L 37.77125 108.820409 
z
" clip-path="url(#p1c044aeda3)" style="fill: #7da7d9; stroke: #000000; stroke-width: 1.2; stroke-linejoin: miter"/>
   </g>
   <g id="patch_6">
    <path d="M 37.77125 108.820409 
L 110.722159 108.820409 
L 110.722159 35.8695 
L 37.77125 35.8695 
z
" clip-path="url(#p1c044aeda3)" style="fill: #7da7d9; stroke: #000000; stroke-width: 1.2; stroke-linejoin: miter"/>
   </g>
   <g id="patch_7">
    <path d="M 110.722159 327.673136 
L 183.673068 327.673136 
L 183.673068 254.722227 
L 110.722159 254.722227 
z
" clip-path="url(#p1c044aeda3)" style="fill: #ffffff; stroke: #000000; stroke-width: 1.2; stroke-linejoin: miter"/>
   </g>
   <g id="patch_8">
    <path d="M 110.722159 254.722227 
L 183.673068 254.722227 
L 183.673068 181.771318 
L 110.722159 181.771318 
z
" clip-path="url(#p1c044aeda3)" style="fill: #ffffff; stroke: #000000; stroke-width: 1.2; stroke-linejoin: miter"/>
   </g>
   <g id="patch_9">
    <path d="M 110.722159 181.771318 
L 183.673068 181.771318 
L 183.673068 108.820409 
L 110.722159 108.820409 
z
" clip-path="url(#p1c044aeda3)" style="fill: #ffffff; stroke: #000000; stroke-width: 1.2; stroke-linejoin: miter"/>
   </g>
   <g id="patch_10">
    <path d="M 110.722159 108.820409 
L 183.673068 108.820409 
L 183.673068 35.8695 
L 110.722159 35.8695 
z
" clip-path="url(#p1c044aeda3)" style="fill: #ffffff; stroke: #000000; stroke-width: 1.2; stroke-linejoin: miter"/>
   </g>
   <g id="patch_11">
    <path d="M 183.673068 327.673136 
L 256.623977 327.673136 
L 256.623977 254.722227 
L 183.673068 254.722227 
z
" clip-path="url(#p1c044aeda3)" style="fill: #ffffff; stroke: #000000; stroke-width: 1.2; stroke-linejoin: miter"/>
   </g>
   <g id="patch_12">
    <path d="M 183.673068 254.722227 
L 256.623977 254.722227 
L 256.623977 181.771318 
L 183.673068 181.771318 
z
" clip-path="url(#p1c044aeda3)" style="fill: #ffffff; stroke: #000000; stroke-width: 1.2; stroke-linejoin: miter"/>
   </g>
   <g id="patch_13">
    <path d="M 183.673068 181.771318 
L 256.623977 181.771318 
L 256.623977 108.820409 
L 183.673068 108.820409 
z
" clip-path="url(#p1c044aeda3)" style="fill: #ffffff; stroke: #000000; stroke-width: 1.2; stroke-linejoin: miter"/>
   </g>
   <g id="patch_14">
    <path d="M 183.673068 108.820409 
L 256.623977 108.820409 
L 256.623977 35.8695 
L 183.673068 35.8695 
z
" clip-path="url(#p1c044aeda3)" style="fill: #ffffff; stroke: #000000; stroke-width: 1.2; stroke-linejoin: miter"/>
   </g>
   <g id="patch_15">
    <path d="M 256.623977 327.673136 
L 329.574886 327.673136 
L 329.574886 254.722227 
L 256.623977 254.722227 
z
" clip-path="url(#p1c044aeda3)" style="fill: #ffffff; stroke: #000000; stroke-width: 1.2; stroke-linejoin: miter"/>
   </g>
   <g id="patch_16">
    <path d="M 256.623977 254.722227 
L 329.574886 254.722227 
L 329.574886 181.771318 
L 256.623977 181.771318 
z
" clip-path="url(#p1c044aeda3)" style="fill: #ffffff; stroke: #000000; stroke-width: 1.2; stroke-linejoin: miter"/>
   </g>
   <g id="patch_17">
    <path d="M 256.623977 181.771318 
L 329.574886 181.771318 
L 329.574886 108.820409 
L 256.623977 108.820409 
z
" clip-path="url(#p1c044aeda3)" style="fill: #ffffff; stroke: #000000; stroke-width: 1.2; stroke-linejoin: miter"/>
   </g>
   <g id="patch_18">
    <path d="M 256.623977 108.820409 
L 329.574886 108.820409 
L 329.574886 35.8695 
L 256.623977 35.8695 
z
" clip-path="url(#p1c044aeda3)" style="fill: #ffffff; stroke: #000000; stroke-width: 1.2; stroke-linejoin: miter"/>
   </g>
   <g id="matplotlib.axis_1">
    <g id="xtick_1">
     <g id="line2d_1">
      <defs>
       <path id="mbc1c3fbf6b" d="M 0 0 
L 0 3.5 
" style="stroke: #000000; stroke-width: 0.8"/>
      </defs>
      <g>
       <use xlink:href="#mbc1c3fbf6b" x="74.246705" y="327.673136" style="stroke: #000000; stroke-width: 0.8"/>
      </g>
     </g>
     <g id="text_1">
      <!-- 1 -->
      <g transform="translate(70.304517 343.864386) scale(0.12 -0.12)">
       <defs>
        <path id="HiraginoSansGB-W3-31" d="M 1030 4429 
C 1216 4454 1382 4467 1587 4467 
L 1933 4467 
L 1933 762 
C 1933 467 1920 262 1882 38 
L 2490 38 
C 2451 275 2438 461 2438 762 
L 2438 3872 
C 2438 4218 2458 4544 2496 4934 
C 2285 4909 2182 4902 1965 4902 
L 1562 4902 
C 1318 4902 1197 4909 1030 4934 
L 1030 4429 
z
" transform="scale(0.015625)"/>
       </defs>
       <use xlink:href="#HiraginoSansGB-W3-31"/>
      </g>
     </g>
    </g>
    <g id="xtick_2">
     <g id="line2d_2">
      <g>
       <use xlink:href="#mbc1c3fbf6b" x="147.197614" y="327.673136" style="stroke: #000000; stroke-width: 0.8"/>
      </g>
     </g>
     <g id="text_2">
      <!-- 2 -->
      <g transform="translate(143.255426 343.864386) scale(0.12 -0.12)">
       <defs>
        <path id="HiraginoSansGB-W3-32" d="M 3027 38 
C 3347 38 3558 26 3814 0 
L 3814 538 
C 3571 506 3354 493 3034 493 
L 992 493 
C 1069 800 1158 973 1357 1235 
C 1568 1504 1773 1683 2278 2022 
C 3008 2509 3174 2630 3366 2848 
C 3616 3123 3744 3430 3744 3757 
C 3744 4512 3123 4998 2157 4998 
C 1594 4998 1158 4832 870 4506 
C 659 4269 563 4045 467 3584 
L 1005 3494 
C 1050 3814 1107 3968 1229 4141 
C 1421 4416 1734 4557 2157 4557 
C 2810 4557 3219 4243 3219 3757 
C 3219 3366 3008 3085 2374 2656 
C 1632 2150 1619 2144 1395 1952 
C 992 1606 723 1254 563 851 
C 467 608 448 512 378 6 
C 582 32 678 38 1082 38 
L 3027 38 
z
" transform="scale(0.015625)"/>
       </defs>
       <use xlink:href="#HiraginoSansGB-W3-32"/>
      </g>
     </g>
    </g>
    <g id="xtick_3">
     <g id="line2d_3">
      <g>
       <use xlink:href="#mbc1c3fbf6b" x="220.148523" y="327.673136" style="stroke: #000000; stroke-width: 0.8"/>
      </g>
     </g>
     <g id="text_3">
      <!-- 3 -->
      <g transform="translate(216.206335 343.864386) scale(0.12 -0.12)">
       <defs>
        <path id="HiraginoSansGB-W3-33" d="M 288 1088 
C 403 762 480 621 614 467 
C 922 122 1402 -58 2048 -58 
C 3117 -58 3782 480 3782 1344 
C 3782 1754 3635 2093 3354 2310 
C 3136 2477 2938 2547 2566 2586 
C 2861 2643 3002 2694 3168 2816 
C 3450 3014 3616 3360 3616 3750 
C 3616 4518 3027 5005 2099 5005 
C 1542 5005 1107 4845 826 4538 
C 666 4371 589 4224 480 3898 
L 1011 3782 
C 1082 4019 1126 4122 1216 4237 
C 1395 4467 1677 4576 2067 4576 
C 2714 4576 3098 4256 3098 3706 
C 3098 3475 3002 3238 2842 3085 
C 2643 2886 2330 2790 1907 2790 
C 1734 2790 1581 2803 1434 2829 
L 1434 2323 
C 1606 2342 1766 2355 1946 2355 
C 2797 2355 3251 2010 3251 1376 
C 3251 768 2784 384 2042 384 
C 1715 384 1434 461 1216 614 
C 1018 755 928 890 826 1222 
L 288 1088 
z
" transform="scale(0.015625)"/>
       </defs>
       <use xlink:href="#HiraginoSansGB-W3-33"/>
      </g>
     </g>
    </g>
    <g id="xtick_4">
     <g id="line2d_4">
      <g>
       <use xlink:href="#mbc1c3fbf6b" x="293.099432" y="327.673136" style="stroke: #000000; stroke-width: 0.8"/>
      </g>
     </g>
     <g id="text_4">
      <!-- 4 -->
      <g transform="translate(289.133807 343.864386) scale(0.12 -0.12)">
       <defs>
        <path id="HiraginoSansGB-W3-34" d="M 198 1254 
C 410 1274 602 1280 960 1280 
L 2675 1280 
L 2675 730 
C 2675 442 2662 262 2624 38 
L 3206 38 
C 3168 275 3155 422 3155 730 
L 3155 1280 
L 3392 1280 
C 3667 1280 3827 1267 4064 1235 
L 4064 1766 
C 3834 1734 3667 1722 3398 1722 
L 3155 1722 
L 3155 3821 
C 3155 4326 3162 4525 3194 4902 
L 2714 4902 
C 2566 4678 2451 4518 2234 4250 
L 614 2227 
C 480 2067 333 1888 198 1734 
L 198 1254 
z
M 2682 1715 
L 768 1715 
L 2240 3571 
C 2426 3808 2586 4019 2720 4211 
C 2688 3885 2682 3680 2682 3341 
L 2682 1715 
z
" transform="scale(0.015625)"/>
       </defs>
       <use xlink:href="#HiraginoSansGB-W3-34"/>
      </g>
     </g>
    </g>
    <g id="text_5">
     <!-- X = first roll -->
     <g transform="translate(148.213068 359.504386) scale(0.12 -0.12)">
      <defs>
       <path id="HiraginoSansGB-W3-58" d="M 2304 2266 
L 3360 685 
C 3501 480 3571 358 3757 38 
L 4493 38 
C 4179 435 4026 640 3904 813 
L 2624 2611 
L 3750 4205 
C 3942 4474 4102 4685 4282 4902 
L 3558 4902 
C 3488 4730 3430 4634 3206 4294 
L 2323 2944 
L 1408 4294 
C 1235 4544 1126 4730 1050 4902 
L 333 4902 
C 531 4653 678 4454 858 4211 
L 1990 2611 
L 704 800 
C 570 614 486 493 134 38 
L 864 38 
C 973 250 1094 454 1248 691 
L 2304 2266 
z
" transform="scale(0.015625)"/>
       <path id="HiraginoSansGB-W3-20" transform="scale(0.015625)"/>
       <path id="HiraginoSansGB-W3-3d" d="M 339 2656 
L 339 2221 
L 3859 2221 
L 3859 2656 
L 339 2656 
z
M 339 1363 
L 339 928 
L 3859 928 
L 3859 1363 
L 339 1363 
z
" transform="scale(0.015625)"/>
       <path id="HiraginoSansGB-W3-66" d="M 915 3078 
L 915 762 
C 915 493 902 275 870 38 
L 1446 38 
C 1414 275 1402 454 1402 755 
L 1402 3078 
L 1722 3078 
C 2035 3078 2182 3072 2400 3040 
L 2400 3526 
C 2163 3494 1997 3488 1722 3488 
L 1402 3488 
L 1402 3840 
C 1402 4141 1427 4275 1498 4378 
C 1581 4493 1728 4550 1933 4550 
C 2131 4550 2291 4506 2464 4403 
L 2598 4832 
C 2368 4922 2170 4960 1920 4960 
C 1562 4960 1267 4845 1114 4646 
C 966 4461 915 4256 915 3866 
L 915 3488 
L 653 3488 
C 397 3488 243 3501 70 3526 
L 70 3040 
C 269 3066 429 3078 653 3078 
L 915 3078 
z
" transform="scale(0.015625)"/>
       <path id="HiraginoSansGB-W3-69" d="M 448 4902 
L 448 4333 
L 1069 4333 
L 1069 4902 
L 448 4902 
z
M 467 3488 
C 499 3264 512 3072 512 2765 
L 512 762 
C 512 493 499 314 467 38 
L 1043 38 
C 1011 288 998 467 998 762 
L 998 2765 
C 998 3085 1011 3264 1043 3488 
L 467 3488 
z
" transform="scale(0.015625)"/>
       <path id="HiraginoSansGB-W3-72" d="M 2669 3488 
C 2400 3533 2291 3546 2099 3546 
C 1792 3546 1574 3482 1331 3322 
C 1197 3232 1101 3130 979 2931 
C 986 2976 986 3072 986 3123 
L 986 3488 
L 454 3488 
C 486 3258 499 3085 499 2765 
L 499 762 
C 499 499 486 333 454 38 
L 1030 38 
C 998 288 986 467 986 755 
L 986 2061 
C 1011 2349 1069 2502 1222 2701 
C 1414 2957 1683 3091 2010 3091 
C 2170 3091 2285 3072 2528 2995 
L 2669 3488 
z
" transform="scale(0.015625)"/>
       <path id="HiraginoSansGB-W3-73" d="M 269 973 
C 333 710 378 602 474 467 
C 710 141 1158 -32 1741 -32 
C 2618 -32 3162 365 3162 1005 
C 3162 1267 3053 1510 2854 1670 
C 2662 1818 2458 1894 1837 2035 
C 1440 2118 1274 2170 1126 2253 
C 986 2330 909 2458 909 2605 
C 909 2944 1242 3181 1709 3181 
C 1997 3181 2227 3098 2374 2938 
C 2464 2848 2496 2771 2534 2598 
L 3040 2682 
C 2957 2976 2867 3123 2701 3264 
C 2470 3469 2131 3571 1696 3571 
C 1267 3571 922 3456 698 3238 
C 518 3066 422 2848 422 2618 
C 422 2336 544 2099 768 1946 
C 986 1798 1203 1722 1715 1613 
C 2189 1517 2317 1478 2470 1382 
C 2605 1299 2669 1165 2669 986 
C 2669 608 2317 371 1760 371 
C 1434 371 1178 448 1018 595 
C 890 710 838 826 794 1062 
L 269 973 
z
" transform="scale(0.015625)"/>
       <path id="HiraginoSansGB-W3-74" d="M 858 4442 
C 890 4230 902 3987 902 3731 
L 902 3488 
L 646 3488 
C 378 3488 250 3494 70 3526 
L 70 3040 
C 282 3066 429 3078 646 3078 
L 902 3078 
L 902 787 
C 902 486 954 301 1082 173 
C 1210 45 1427 -26 1709 -26 
C 1971 -26 2170 13 2432 122 
L 2291 570 
C 2080 442 1952 403 1786 403 
C 1651 403 1542 442 1472 512 
C 1414 570 1389 666 1389 851 
L 1389 3078 
L 1696 3078 
C 1984 3078 2144 3072 2349 3040 
L 2349 3526 
C 2125 3494 1990 3488 1696 3488 
L 1389 3488 
L 1389 3731 
C 1389 4006 1402 4237 1434 4442 
L 858 4442 
z
" transform="scale(0.015625)"/>
       <path id="HiraginoSansGB-W3-6f" d="M 2010 -45 
C 3040 -45 3706 672 3706 1766 
C 3706 2867 3046 3571 2003 3571 
C 960 3571 294 2867 294 1760 
C 294 653 960 -45 2010 -45 
z
M 2016 3168 
C 2752 3168 3213 2630 3213 1766 
C 3213 902 2752 371 2003 371 
C 1254 371 787 902 787 1773 
C 787 2637 1254 3168 2016 3168 
z
" transform="scale(0.015625)"/>
       <path id="HiraginoSansGB-W3-6c" d="M 454 4902 
C 486 4672 499 4499 499 4186 
L 499 755 
C 499 467 486 269 454 38 
L 1030 38 
C 998 294 986 467 986 755 
L 986 4179 
C 986 4499 998 4672 1030 4902 
L 454 4902 
z
" transform="scale(0.015625)"/>
      </defs>
      <use xlink:href="#HiraginoSansGB-W3-58"/>
      <use xlink:href="#HiraginoSansGB-W3-20" x="72.199982"/>
      <use xlink:href="#HiraginoSansGB-W3-3d" x="105.499969"/>
      <use xlink:href="#HiraginoSansGB-W3-20" x="171.09996"/>
      <use xlink:href="#HiraginoSansGB-W3-66" x="204.399948"/>
      <use xlink:href="#HiraginoSansGB-W3-69" x="246.099945"/>
      <use xlink:href="#HiraginoSansGB-W3-72" x="269.899933"/>
      <use xlink:href="#HiraginoSansGB-W3-73" x="312.899918"/>
      <use xlink:href="#HiraginoSansGB-W3-74" x="366.599915"/>
      <use xlink:href="#HiraginoSansGB-W3-20" x="405.799911"/>
      <use xlink:href="#HiraginoSansGB-W3-72" x="439.099899"/>
      <use xlink:href="#HiraginoSansGB-W3-6f" x="482.099884"/>
      <use xlink:href="#HiraginoSansGB-W3-6c" x="544.599869"/>
      <use xlink:href="#HiraginoSansGB-W3-6c" x="567.799866"/>
     </g>
    </g>
   </g>
   <g id="matplotlib.axis_2">
    <g id="ytick_1">
     <g id="line2d_5">
      <defs>
       <path id="m8ddfac53c4" d="M 0 0 
L -3.5 0 
" style="stroke: #000000; stroke-width: 0.8"/>
      </defs>
      <g>
       <use xlink:href="#m8ddfac53c4" x="37.77125" y="291.197682" style="stroke: #000000; stroke-width: 0.8"/>
      </g>
     </g>
     <g id="text_6">
      <!-- 1 -->
      <g transform="translate(22.886875 295.793307) scale(0.12 -0.12)">
       <use xlink:href="#HiraginoSansGB-W3-31"/>
      </g>
     </g>
    </g>
    <g id="ytick_2">
     <g id="line2d_6">
      <g>
       <use xlink:href="#m8ddfac53c4" x="37.77125" y="218.246773" style="stroke: #000000; stroke-width: 0.8"/>
      </g>
     </g>
     <g id="text_7">
      <!-- 2 -->
      <g transform="translate(22.886875 222.842398) scale(0.12 -0.12)">
       <use xlink:href="#HiraginoSansGB-W3-32"/>
      </g>
     </g>
    </g>
    <g id="ytick_3">
     <g id="line2d_7">
      <g>
       <use xlink:href="#m8ddfac53c4" x="37.77125" y="145.295864" style="stroke: #000000; stroke-width: 0.8"/>
      </g>
     </g>
     <g id="text_8">
      <!-- 3 -->
      <g transform="translate(22.886875 149.891489) scale(0.12 -0.12)">
       <use xlink:href="#HiraginoSansGB-W3-33"/>
      </g>
     </g>
    </g>
    <g id="ytick_4">
     <g id="line2d_8">
      <g>
       <use xlink:href="#m8ddfac53c4" x="37.77125" y="72.344955" style="stroke: #000000; stroke-width: 0.8"/>
      </g>
     </g>
     <g id="text_9">
      <!-- 4 -->
      <g transform="translate(22.84 76.94058) scale(0.12 -0.12)">
       <use xlink:href="#HiraginoSansGB-W3-34"/>
      </g>
     </g>
    </g>
    <g id="text_10">
     <!-- Y = second roll -->
     <g transform="translate(16.39125 226.493818) rotate(-90) scale(0.12 -0.12)">
      <defs>
       <path id="HiraginoSansGB-W3-59" d="M 2509 38 
C 2470 269 2458 448 2458 755 
L 2458 2074 
L 3930 4346 
C 4096 4614 4224 4794 4320 4902 
L 3616 4902 
C 3571 4749 3494 4608 3315 4314 
L 2208 2534 
L 1101 4314 
C 902 4627 838 4749 787 4902 
L 90 4902 
C 218 4736 326 4582 474 4346 
L 1946 2080 
L 1946 755 
C 1946 461 1933 275 1894 38 
L 2509 38 
z
" transform="scale(0.015625)"/>
       <path id="HiraginoSansGB-W3-65" d="M 3475 1690 
C 3462 1862 3437 2112 3430 2182 
C 3302 3040 2707 3571 1882 3571 
C 922 3571 294 2854 294 1760 
C 294 653 928 -51 1933 -51 
C 2400 -51 2790 102 3091 397 
C 3238 544 3322 659 3443 928 
L 2995 1107 
C 2816 614 2458 358 1939 358 
C 1555 358 1242 512 1037 794 
C 864 1024 800 1261 781 1690 
L 3475 1690 
z
M 800 2093 
C 838 2336 870 2451 960 2611 
C 1152 2970 1478 3168 1869 3168 
C 2176 3168 2426 3072 2624 2880 
C 2829 2682 2925 2451 2963 2093 
L 800 2093 
z
" transform="scale(0.015625)"/>
       <path id="HiraginoSansGB-W3-63" d="M 3373 2579 
C 3296 2765 3238 2867 3149 2989 
C 2874 3373 2445 3578 1914 3578 
C 934 3578 294 2854 294 1747 
C 294 653 941 -45 1946 -45 
C 2464 -45 2874 141 3155 493 
C 3264 634 3328 755 3418 986 
L 2938 1114 
C 2893 960 2861 883 2797 787 
C 2630 525 2330 378 1965 378 
C 1248 378 787 915 787 1760 
C 787 2618 1235 3168 1939 3168 
C 2413 3168 2720 2931 2906 2432 
L 3373 2579 
z
" transform="scale(0.015625)"/>
       <path id="HiraginoSansGB-W3-6e" d="M 1030 38 
C 998 288 986 480 986 762 
L 986 1997 
C 1037 2253 1114 2413 1280 2630 
C 1549 2976 1837 3136 2195 3136 
C 2701 3136 2976 2829 2976 2253 
L 2976 762 
C 2976 480 2963 288 2931 38 
L 3507 38 
C 3475 250 3462 429 3462 755 
L 3462 2336 
C 3462 2650 3405 2886 3283 3072 
C 3078 3386 2720 3552 2259 3552 
C 1683 3552 1267 3302 966 2778 
C 986 2925 986 2976 986 3053 
L 986 3488 
L 454 3488 
C 493 3232 506 3053 506 2765 
L 506 762 
C 506 454 493 282 454 38 
L 1030 38 
z
" transform="scale(0.015625)"/>
       <path id="HiraginoSansGB-W3-64" d="M 3162 38 
L 3674 38 
C 3642 288 3629 454 3629 774 
L 3629 4179 
C 3629 4461 3642 4646 3674 4902 
L 3110 4902 
C 3142 4659 3155 4474 3155 4173 
L 3155 3315 
C 3155 3168 3155 3110 3174 2976 
L 3181 2880 
C 2899 3322 2451 3558 1869 3558 
C 909 3558 294 2861 294 1766 
C 294 653 896 -26 1882 -26 
C 2464 -26 2880 198 3181 666 
C 3168 557 3162 442 3162 352 
L 3162 38 
z
M 1920 3142 
C 2259 3142 2566 3021 2790 2803 
C 3021 2579 3149 2208 3149 1786 
C 3149 941 2669 397 1920 397 
C 1562 397 1261 531 1062 781 
C 896 992 800 1357 800 1779 
C 800 2630 1222 3142 1920 3142 
z
" transform="scale(0.015625)"/>
      </defs>
      <use xlink:href="#HiraginoSansGB-W3-59"/>
      <use xlink:href="#HiraginoSansGB-W3-20" x="68.799988"/>
      <use xlink:href="#HiraginoSansGB-W3-3d" x="102.099976"/>
      <use xlink:href="#HiraginoSansGB-W3-20" x="167.699966"/>
      <use xlink:href="#HiraginoSansGB-W3-73" x="200.999954"/>
      <use xlink:href="#HiraginoSansGB-W3-65" x="254.699951"/>
      <use xlink:href="#HiraginoSansGB-W3-63" x="313.499939"/>
      <use xlink:href="#HiraginoSansGB-W3-6f" x="371.299927"/>
      <use xlink:href="#HiraginoSansGB-W3-6e" x="433.799911"/>
      <use xlink:href="#HiraginoSansGB-W3-64" x="495.599899"/>
      <use xlink:href="#HiraginoSansGB-W3-20" x="560.19989"/>
      <use xlink:href="#HiraginoSansGB-W3-72" x="593.499878"/>
      <use xlink:href="#HiraginoSansGB-W3-6f" x="636.499863"/>
      <use xlink:href="#HiraginoSansGB-W3-6c" x="698.999847"/>
      <use xlink:href="#HiraginoSansGB-W3-6c" x="722.199844"/>
     </g>
    </g>
   </g>
   <g id="patch_19">
    <path d="M 37.77125 327.673136 
L 37.77125 35.8695 
" style="fill: none; stroke: #000000; stroke-width: 0.8; stroke-linejoin: miter; stroke-linecap: square"/>
   </g>
   <g id="patch_20">
    <path d="M 37.77125 327.673136 
L 329.574886 327.673136 
" style="fill: none; stroke: #000000; stroke-width: 0.8; stroke-linejoin: miter; stroke-linecap: square"/>
   </g>
   <g id="text_11">
    <!-- 1,1 -->
    <g transform="translate(65.699361 294.287994) scale(0.11 -0.11)">
     <defs>
      <path id="HiraginoSansGB-W3-2c" d="M 1088 672 
L 448 672 
L 448 38 
L 819 38 
C 819 -358 774 -454 512 -576 
L 685 -787 
C 1011 -589 1088 -435 1088 38 
L 1088 672 
z
" transform="scale(0.015625)"/>
     </defs>
     <use xlink:href="#HiraginoSansGB-W3-31"/>
     <use xlink:href="#HiraginoSansGB-W3-2c" x="65.699997"/>
     <use xlink:href="#HiraginoSansGB-W3-31" x="89.699982"/>
    </g>
   </g>
   <g id="text_12">
    <!-- 1,2 -->
    <g transform="translate(65.699361 221.337085) scale(0.11 -0.11)">
     <use xlink:href="#HiraginoSansGB-W3-31"/>
     <use xlink:href="#HiraginoSansGB-W3-2c" x="65.699997"/>
     <use xlink:href="#HiraginoSansGB-W3-32" x="89.699982"/>
    </g>
   </g>
   <g id="text_13">
    <!-- 1,3 -->
    <g transform="translate(65.699361 148.386176) scale(0.11 -0.11)">
     <use xlink:href="#HiraginoSansGB-W3-31"/>
     <use xlink:href="#HiraginoSansGB-W3-2c" x="65.699997"/>
     <use xlink:href="#HiraginoSansGB-W3-33" x="89.699982"/>
    </g>
   </g>
   <g id="text_14">
    <!-- 1,4 -->
    <g transform="translate(65.677876 75.435267) scale(0.11 -0.11)">
     <use xlink:href="#HiraginoSansGB-W3-31"/>
     <use xlink:href="#HiraginoSansGB-W3-2c" x="65.699997"/>
     <use xlink:href="#HiraginoSansGB-W3-34" x="89.699982"/>
    </g>
   </g>
   <g id="text_15">
    <!-- 2,1 -->
    <g style="fill: #8c8c8c" transform="translate(138.65027 294.287994) scale(0.11 -0.11)">
     <use xlink:href="#HiraginoSansGB-W3-32"/>
     <use xlink:href="#HiraginoSansGB-W3-2c" x="65.699997"/>
     <use xlink:href="#HiraginoSansGB-W3-31" x="89.699982"/>
    </g>
   </g>
   <g id="text_16">
    <!-- 2,2 -->
    <g style="fill: #8c8c8c" transform="translate(138.65027 221.337085) scale(0.11 -0.11)">
     <use xlink:href="#HiraginoSansGB-W3-32"/>
     <use xlink:href="#HiraginoSansGB-W3-2c" x="65.699997"/>
     <use xlink:href="#HiraginoSansGB-W3-32" x="89.699982"/>
    </g>
   </g>
   <g id="text_17">
    <!-- 2,3 -->
    <g style="fill: #8c8c8c" transform="translate(138.65027 148.386176) scale(0.11 -0.11)">
     <use xlink:href="#HiraginoSansGB-W3-32"/>
     <use xlink:href="#HiraginoSansGB-W3-2c" x="65.699997"/>
     <use xlink:href="#HiraginoSansGB-W3-33" x="89.699982"/>
    </g>
   </g>
   <g id="text_18">
    <!-- 2,4 -->
    <g style="fill: #8c8c8c" transform="translate(138.628786 75.435267) scale(0.11 -0.11)">
     <use xlink:href="#HiraginoSansGB-W3-32"/>
     <use xlink:href="#HiraginoSansGB-W3-2c" x="65.699997"/>
     <use xlink:href="#HiraginoSansGB-W3-34" x="89.699982"/>
    </g>
   </g>
   <g id="text_19">
    <!-- 3,1 -->
    <g style="fill: #8c8c8c" transform="translate(211.601179 294.287994) scale(0.11 -0.11)">
     <use xlink:href="#HiraginoSansGB-W3-33"/>
     <use xlink:href="#HiraginoSansGB-W3-2c" x="65.699997"/>
     <use xlink:href="#HiraginoSansGB-W3-31" x="89.699982"/>
    </g>
   </g>
   <g id="text_20">
    <!-- 3,2 -->
    <g style="fill: #8c8c8c" transform="translate(211.601179 221.337085) scale(0.11 -0.11)">
     <use xlink:href="#HiraginoSansGB-W3-33"/>
     <use xlink:href="#HiraginoSansGB-W3-2c" x="65.699997"/>
     <use xlink:href="#HiraginoSansGB-W3-32" x="89.699982"/>
    </g>
   </g>
   <g id="text_21">
    <!-- 3,3 -->
    <g style="fill: #8c8c8c" transform="translate(211.601179 148.386176) scale(0.11 -0.11)">
     <use xlink:href="#HiraginoSansGB-W3-33"/>
     <use xlink:href="#HiraginoSansGB-W3-2c" x="65.699997"/>
     <use xlink:href="#HiraginoSansGB-W3-33" x="89.699982"/>
    </g>
   </g>
   <g id="text_22">
    <!-- 3,4 -->
    <g style="fill: #8c8c8c" transform="translate(211.579695 75.435267) scale(0.11 -0.11)">
     <use xlink:href="#HiraginoSansGB-W3-33"/>
     <use xlink:href="#HiraginoSansGB-W3-2c" x="65.699997"/>
     <use xlink:href="#HiraginoSansGB-W3-34" x="89.699982"/>
    </g>
   </g>
   <g id="text_23">
    <!-- 4,1 -->
    <g style="fill: #8c8c8c" transform="translate(284.530604 294.287994) scale(0.11 -0.11)">
     <use xlink:href="#HiraginoSansGB-W3-34"/>
     <use xlink:href="#HiraginoSansGB-W3-2c" x="66.099991"/>
     <use xlink:href="#HiraginoSansGB-W3-31" x="90.099976"/>
    </g>
   </g>
   <g id="text_24">
    <!-- 4,2 -->
    <g style="fill: #8c8c8c" transform="translate(284.530604 221.337085) scale(0.11 -0.11)">
     <use xlink:href="#HiraginoSansGB-W3-34"/>
     <use xlink:href="#HiraginoSansGB-W3-2c" x="66.099991"/>
     <use xlink:href="#HiraginoSansGB-W3-32" x="90.099976"/>
    </g>
   </g>
   <g id="text_25">
    <!-- 4,3 -->
    <g style="fill: #8c8c8c" transform="translate(284.530604 148.386176) scale(0.11 -0.11)">
     <use xlink:href="#HiraginoSansGB-W3-34"/>
     <use xlink:href="#HiraginoSansGB-W3-2c" x="66.099991"/>
     <use xlink:href="#HiraginoSansGB-W3-33" x="90.099976"/>
    </g>
   </g>
   <g id="text_26">
    <!-- 4,4 -->
    <g style="fill: #8c8c8c" transform="translate(284.509119 75.435267) scale(0.11 -0.11)">
     <use xlink:href="#HiraginoSansGB-W3-34"/>
     <use xlink:href="#HiraginoSansGB-W3-2c" x="66.099991"/>
     <use xlink:href="#HiraginoSansGB-W3-34" x="90.099976"/>
    </g>
   </g>
   <g id="text_27">
    <!-- Event $\{X = 1\}$ -->
    <g transform="translate(142.033068 16.39125) scale(0.12 -0.12)">
     <defs>
      <path id="HiraginoSansGB-W3-45" d="M 3789 531 
C 3552 499 3373 486 3078 486 
L 1050 486 
L 1050 2368 
L 2733 2368 
C 3066 2368 3232 2355 3450 2323 
L 3450 2861 
C 3206 2829 3014 2816 2733 2816 
L 1050 2816 
L 1050 4454 
L 3021 4454 
C 3341 4454 3514 4442 3738 4410 
L 3738 4947 
C 3520 4915 3302 4902 3021 4902 
L 1197 4902 
C 890 4902 717 4909 493 4922 
C 531 4640 544 4467 544 4192 
L 544 781 
C 544 454 531 262 493 19 
C 710 32 890 38 1197 38 
L 3072 38 
C 3411 38 3584 26 3789 -6 
L 3789 531 
z
" transform="scale(0.015625)"/>
      <path id="HiraginoSansGB-W3-76" d="M 70 3488 
C 205 3206 269 3066 390 2784 
L 1280 627 
C 1408 314 1453 198 1491 38 
L 1997 38 
C 2042 237 2061 275 2202 627 
L 3098 2784 
C 3309 3283 3328 3334 3411 3488 
L 2810 3488 
C 2778 3309 2733 3149 2618 2861 
L 1888 973 
C 1830 832 1792 723 1741 563 
C 1702 691 1632 896 1600 979 
L 870 2861 
C 768 3110 704 3322 672 3488 
L 70 3488 
z
" transform="scale(0.015625)"/>
      <path id="DejaVuSans-7b" d="M 3272 -594 
L 3272 -1044 
L 3078 -1044 
Q 2300 -1044 2036 -812 
Q 1772 -581 1772 109 
L 1772 856 
Q 1772 1328 1603 1509 
Q 1434 1691 991 1691 
L 800 1691 
L 800 2138 
L 991 2138 
Q 1438 2138 1605 2317 
Q 1772 2497 1772 2963 
L 1772 3713 
Q 1772 4403 2036 4633 
Q 2300 4863 3078 4863 
L 3272 4863 
L 3272 4416 
L 3059 4416 
Q 2619 4416 2484 4278 
Q 2350 4141 2350 3700 
L 2350 2925 
Q 2350 2434 2208 2212 
Q 2066 1991 1722 1913 
Q 2069 1828 2209 1606 
Q 2350 1384 2350 897 
L 2350 122 
Q 2350 -319 2484 -456 
Q 2619 -594 3059 -594 
L 3272 -594 
z
" transform="scale(0.015625)"/>
      <path id="DejaVuSans-Oblique-58" d="M 878 4666 
L 1516 4666 
L 2316 2981 
L 3763 4666 
L 4500 4666 
L 2578 2438 
L 3738 0 
L 3103 0 
L 2163 1966 
L 459 0 
L -275 0 
L 1906 2509 
L 878 4666 
z
" transform="scale(0.015625)"/>
      <path id="DejaVuSans-3d" d="M 678 2906 
L 4684 2906 
L 4684 2381 
L 678 2381 
L 678 2906 
z
M 678 1631 
L 4684 1631 
L 4684 1100 
L 678 1100 
L 678 1631 
z
" transform="scale(0.015625)"/>
      <path id="DejaVuSans-31" d="M 794 531 
L 1825 531 
L 1825 4091 
L 703 3866 
L 703 4441 
L 1819 4666 
L 2450 4666 
L 2450 531 
L 3481 531 
L 3481 0 
L 794 0 
L 794 531 
z
" transform="scale(0.015625)"/>
      <path id="DejaVuSans-7d" d="M 800 -594 
L 1019 -594 
Q 1456 -594 1589 -459 
Q 1722 -325 1722 122 
L 1722 897 
Q 1722 1384 1862 1606 
Q 2003 1828 2350 1913 
Q 2003 1991 1862 2212 
Q 1722 2434 1722 2925 
L 1722 3700 
Q 1722 4144 1589 4280 
Q 1456 4416 1019 4416 
L 800 4416 
L 800 4863 
L 997 4863 
Q 1775 4863 2036 4633 
Q 2297 4403 2297 3713 
L 2297 2963 
Q 2297 2497 2465 2317 
Q 2634 2138 3078 2138 
L 3272 2138 
L 3272 1691 
L 3078 1691 
Q 2634 1691 2465 1509 
Q 2297 1328 2297 856 
L 2297 109 
Q 2297 -581 2036 -812 
Q 1775 -1044 997 -1044 
L 800 -1044 
L 800 -594 
z
" transform="scale(0.015625)"/>
     </defs>
     <use xlink:href="#HiraginoSansGB-W3-45" transform="translate(0 0.703125)"/>
     <use xlink:href="#HiraginoSansGB-W3-76" transform="translate(64.299988 0.703125)"/>
     <use xlink:href="#HiraginoSansGB-W3-65" transform="translate(118.699982 0.703125)"/>
     <use xlink:href="#HiraginoSansGB-W3-6e" transform="translate(177.499969 0.703125)"/>
     <use xlink:href="#HiraginoSansGB-W3-74" transform="translate(239.299957 0.703125)"/>
     <use xlink:href="#HiraginoSansGB-W3-20" transform="translate(278.499954 0.703125)"/>
     <use xlink:href="#DejaVuSans-7b" transform="translate(311.799942 0.703125)"/>
     <use xlink:href="#DejaVuSans-Oblique-58" transform="translate(375.422989 0.703125)"/>
     <use xlink:href="#DejaVuSans-3d" transform="translate(463.41127 0.703125)"/>
     <use xlink:href="#DejaVuSans-31" transform="translate(566.682755 0.703125)"/>
     <use xlink:href="#DejaVuSans-7d" transform="translate(630.305801 0.703125)"/>
    </g>
    <!-- P = $4/16 = 1/4$ -->
    <g transform="translate(141.253068 29.8695) scale(0.12 -0.12)">
     <defs>
      <path id="HiraginoSansGB-W3-50" d="M 1094 38 
C 1056 256 1043 454 1043 762 
L 1043 2022 
L 2470 2022 
C 3469 2022 4045 2566 4045 3507 
C 4045 4397 3488 4902 2502 4902 
L 1197 4902 
C 902 4902 723 4909 493 4922 
C 531 4653 544 4454 544 4192 
L 544 755 
C 544 454 531 269 493 38 
L 1094 38 
z
M 1043 2464 
L 1043 4461 
L 2470 4461 
C 3162 4461 3533 4122 3533 3482 
C 3533 2829 3149 2464 2470 2464 
L 1043 2464 
z
" transform="scale(0.015625)"/>
      <path id="DejaVuSans-34" d="M 2419 4116 
L 825 1625 
L 2419 1625 
L 2419 4116 
z
M 2253 4666 
L 3047 4666 
L 3047 1625 
L 3713 1625 
L 3713 1100 
L 3047 1100 
L 3047 0 
L 2419 0 
L 2419 1100 
L 313 1100 
L 313 1709 
L 2253 4666 
z
" transform="scale(0.015625)"/>
      <path id="DejaVuSans-2f" d="M 1625 4666 
L 2156 4666 
L 531 -594 
L 0 -594 
L 1625 4666 
z
" transform="scale(0.015625)"/>
      <path id="DejaVuSans-36" d="M 2113 2584 
Q 1688 2584 1439 2293 
Q 1191 2003 1191 1497 
Q 1191 994 1439 701 
Q 1688 409 2113 409 
Q 2538 409 2786 701 
Q 3034 994 3034 1497 
Q 3034 2003 2786 2293 
Q 2538 2584 2113 2584 
z
M 3366 4563 
L 3366 3988 
Q 3128 4100 2886 4159 
Q 2644 4219 2406 4219 
Q 1781 4219 1451 3797 
Q 1122 3375 1075 2522 
Q 1259 2794 1537 2939 
Q 1816 3084 2150 3084 
Q 2853 3084 3261 2657 
Q 3669 2231 3669 1497 
Q 3669 778 3244 343 
Q 2819 -91 2113 -91 
Q 1303 -91 875 529 
Q 447 1150 447 2328 
Q 447 3434 972 4092 
Q 1497 4750 2381 4750 
Q 2619 4750 2861 4703 
Q 3103 4656 3366 4563 
z
" transform="scale(0.015625)"/>
     </defs>
     <use xlink:href="#HiraginoSansGB-W3-50" transform="translate(0 0.09375)"/>
     <use xlink:href="#HiraginoSansGB-W3-20" transform="translate(66.199997 0.09375)"/>
     <use xlink:href="#HiraginoSansGB-W3-3d" transform="translate(99.499985 0.09375)"/>
     <use xlink:href="#HiraginoSansGB-W3-20" transform="translate(165.099976 0.09375)"/>
     <use xlink:href="#DejaVuSans-34" transform="translate(198.399963 0.09375)"/>
     <use xlink:href="#DejaVuSans-2f" transform="translate(262.02301 0.09375)"/>
     <use xlink:href="#DejaVuSans-31" transform="translate(295.714417 0.09375)"/>
     <use xlink:href="#DejaVuSans-36" transform="translate(359.337463 0.09375)"/>
     <use xlink:href="#DejaVuSans-3d" transform="translate(442.442932 0.09375)"/>
     <use xlink:href="#DejaVuSans-31" transform="translate(545.714417 0.09375)"/>
     <use xlink:href="#DejaVuSans-2f" transform="translate(609.337463 0.09375)"/>
     <use xlink:href="#DejaVuSans-34" transform="translate(643.02887 0.09375)"/>
    </g>
   </g>
  </g>
  <g id="axes_2">
   <g id="patch_21">
    <path d="M 391.29125 327.673136 
L 683.094886 327.673136 
L 683.094886 35.8695 
L 391.29125 35.8695 
z
" style="fill: #ffffff"/>
   </g>
   <g id="patch_22">
    <path d="M 391.29125 327.673136 
L 464.242159 327.673136 
L 464.242159 254.722227 
L 391.29125 254.722227 
z
" clip-path="url(#p044edf9f03)" style="fill: #ffffff; stroke: #000000; stroke-width: 1.2; stroke-linejoin: miter"/>
   </g>
   <g id="patch_23">
    <path d="M 391.29125 254.722227 
L 464.242159 254.722227 
L 464.242159 181.771318 
L 391.29125 181.771318 
z
" clip-path="url(#p044edf9f03)" style="fill: #ffffff; stroke: #000000; stroke-width: 1.2; stroke-linejoin: miter"/>
   </g>
   <g id="patch_24">
    <path d="M 391.29125 181.771318 
L 464.242159 181.771318 
L 464.242159 108.820409 
L 391.29125 108.820409 
z
" clip-path="url(#p044edf9f03)" style="fill: #ffffff; stroke: #000000; stroke-width: 1.2; stroke-linejoin: miter"/>
   </g>
   <g id="patch_25">
    <path d="M 391.29125 108.820409 
L 464.242159 108.820409 
L 464.242159 35.8695 
L 391.29125 35.8695 
z
" clip-path="url(#p044edf9f03)" style="fill: #ffffff; stroke: #000000; stroke-width: 1.2; stroke-linejoin: miter"/>
   </g>
   <g id="patch_26">
    <path d="M 464.242159 327.673136 
L 537.193068 327.673136 
L 537.193068 254.722227 
L 464.242159 254.722227 
z
" clip-path="url(#p044edf9f03)" style="fill: #ffffff; stroke: #000000; stroke-width: 1.2; stroke-linejoin: miter"/>
   </g>
   <g id="patch_27">
    <path d="M 464.242159 254.722227 
L 537.193068 254.722227 
L 537.193068 181.771318 
L 464.242159 181.771318 
z
" clip-path="url(#p044edf9f03)" style="fill: #8fd19e; stroke: #000000; stroke-width: 1.2; stroke-linejoin: miter"/>
   </g>
   <g id="patch_28">
    <path d="M 464.242159 181.771318 
L 537.193068 181.771318 
L 537.193068 108.820409 
L 464.242159 108.820409 
z
" clip-path="url(#p044edf9f03)" style="fill: #8fd19e; stroke: #000000; stroke-width: 1.2; stroke-linejoin: miter"/>
   </g>
   <g id="patch_29">
    <path d="M 464.242159 108.820409 
L 537.193068 108.820409 
L 537.193068 35.8695 
L 464.242159 35.8695 
z
" clip-path="url(#p044edf9f03)" style="fill: #8fd19e; stroke: #000000; stroke-width: 1.2; stroke-linejoin: miter"/>
   </g>
   <g id="patch_30">
    <path d="M 537.193068 327.673136 
L 610.143977 327.673136 
L 610.143977 254.722227 
L 537.193068 254.722227 
z
" clip-path="url(#p044edf9f03)" style="fill: #ffffff; stroke: #000000; stroke-width: 1.2; stroke-linejoin: miter"/>
   </g>
   <g id="patch_31">
    <path d="M 537.193068 254.722227 
L 610.143977 254.722227 
L 610.143977 181.771318 
L 537.193068 181.771318 
z
" clip-path="url(#p044edf9f03)" style="fill: #8fd19e; stroke: #000000; stroke-width: 1.2; stroke-linejoin: miter"/>
   </g>
   <g id="patch_32">
    <path d="M 537.193068 181.771318 
L 610.143977 181.771318 
L 610.143977 108.820409 
L 537.193068 108.820409 
z
" clip-path="url(#p044edf9f03)" style="fill: #ffffff; stroke: #000000; stroke-width: 1.2; stroke-linejoin: miter"/>
   </g>
   <g id="patch_33">
    <path d="M 537.193068 108.820409 
L 610.143977 108.820409 
L 610.143977 35.8695 
L 537.193068 35.8695 
z
" clip-path="url(#p044edf9f03)" style="fill: #ffffff; stroke: #000000; stroke-width: 1.2; stroke-linejoin: miter"/>
   </g>
   <g id="patch_34">
    <path d="M 610.143977 327.673136 
L 683.094886 327.673136 
L 683.094886 254.722227 
L 610.143977 254.722227 
z
" clip-path="url(#p044edf9f03)" style="fill: #ffffff; stroke: #000000; stroke-width: 1.2; stroke-linejoin: miter"/>
   </g>
   <g id="patch_35">
    <path d="M 610.143977 254.722227 
L 683.094886 254.722227 
L 683.094886 181.771318 
L 610.143977 181.771318 
z
" clip-path="url(#p044edf9f03)" style="fill: #8fd19e; stroke: #000000; stroke-width: 1.2; stroke-linejoin: miter"/>
   </g>
   <g id="patch_36">
    <path d="M 610.143977 181.771318 
L 683.094886 181.771318 
L 683.094886 108.820409 
L 610.143977 108.820409 
z
" clip-path="url(#p044edf9f03)" style="fill: #ffffff; stroke: #000000; stroke-width: 1.2; stroke-linejoin: miter"/>
   </g>
   <g id="patch_37">
    <path d="M 610.143977 108.820409 
L 683.094886 108.820409 
L 683.094886 35.8695 
L 610.143977 35.8695 
z
" clip-path="url(#p044edf9f03)" style="fill: #ffffff; stroke: #000000; stroke-width: 1.2; stroke-linejoin: miter"/>
   </g>
   <g id="matplotlib.axis_3">
    <g id="xtick_5">
     <g id="line2d_9">
      <g>
       <use xlink:href="#mbc1c3fbf6b" x="427.766705" y="327.673136" style="stroke: #000000; stroke-width: 0.8"/>
      </g>
     </g>
     <g id="text_28">
      <!-- 1 -->
      <g transform="translate(423.824517 343.864386) scale(0.12 -0.12)">
       <use xlink:href="#HiraginoSansGB-W3-31"/>
      </g>
     </g>
    </g>
    <g id="xtick_6">
     <g id="line2d_10">
      <g>
       <use xlink:href="#mbc1c3fbf6b" x="500.717614" y="327.673136" style="stroke: #000000; stroke-width: 0.8"/>
      </g>
     </g>
     <g id="text_29">
      <!-- 2 -->
      <g transform="translate(496.775426 343.864386) scale(0.12 -0.12)">
       <use xlink:href="#HiraginoSansGB-W3-32"/>
      </g>
     </g>
    </g>
    <g id="xtick_7">
     <g id="line2d_11">
      <g>
       <use xlink:href="#mbc1c3fbf6b" x="573.668523" y="327.673136" style="stroke: #000000; stroke-width: 0.8"/>
      </g>
     </g>
     <g id="text_30">
      <!-- 3 -->
      <g transform="translate(569.726335 343.864386) scale(0.12 -0.12)">
       <use xlink:href="#HiraginoSansGB-W3-33"/>
      </g>
     </g>
    </g>
    <g id="xtick_8">
     <g id="line2d_12">
      <g>
       <use xlink:href="#mbc1c3fbf6b" x="646.619432" y="327.673136" style="stroke: #000000; stroke-width: 0.8"/>
      </g>
     </g>
     <g id="text_31">
      <!-- 4 -->
      <g transform="translate(642.653807 343.864386) scale(0.12 -0.12)">
       <use xlink:href="#HiraginoSansGB-W3-34"/>
      </g>
     </g>
    </g>
    <g id="text_32">
     <!-- X = first roll -->
     <g transform="translate(501.733068 359.504386) scale(0.12 -0.12)">
      <use xlink:href="#HiraginoSansGB-W3-58"/>
      <use xlink:href="#HiraginoSansGB-W3-20" x="72.199982"/>
      <use xlink:href="#HiraginoSansGB-W3-3d" x="105.499969"/>
      <use xlink:href="#HiraginoSansGB-W3-20" x="171.09996"/>
      <use xlink:href="#HiraginoSansGB-W3-66" x="204.399948"/>
      <use xlink:href="#HiraginoSansGB-W3-69" x="246.099945"/>
      <use xlink:href="#HiraginoSansGB-W3-72" x="269.899933"/>
      <use xlink:href="#HiraginoSansGB-W3-73" x="312.899918"/>
      <use xlink:href="#HiraginoSansGB-W3-74" x="366.599915"/>
      <use xlink:href="#HiraginoSansGB-W3-20" x="405.799911"/>
      <use xlink:href="#HiraginoSansGB-W3-72" x="439.099899"/>
      <use xlink:href="#HiraginoSansGB-W3-6f" x="482.099884"/>
      <use xlink:href="#HiraginoSansGB-W3-6c" x="544.599869"/>
      <use xlink:href="#HiraginoSansGB-W3-6c" x="567.799866"/>
     </g>
    </g>
   </g>
   <g id="matplotlib.axis_4">
    <g id="ytick_5">
     <g id="line2d_13">
      <g>
       <use xlink:href="#m8ddfac53c4" x="391.29125" y="291.197682" style="stroke: #000000; stroke-width: 0.8"/>
      </g>
     </g>
     <g id="text_33">
      <!-- 1 -->
      <g transform="translate(376.406875 295.793307) scale(0.12 -0.12)">
       <use xlink:href="#HiraginoSansGB-W3-31"/>
      </g>
     </g>
    </g>
    <g id="ytick_6">
     <g id="line2d_14">
      <g>
       <use xlink:href="#m8ddfac53c4" x="391.29125" y="218.246773" style="stroke: #000000; stroke-width: 0.8"/>
      </g>
     </g>
     <g id="text_34">
      <!-- 2 -->
      <g transform="translate(376.406875 222.842398) scale(0.12 -0.12)">
       <use xlink:href="#HiraginoSansGB-W3-32"/>
      </g>
     </g>
    </g>
    <g id="ytick_7">
     <g id="line2d_15">
      <g>
       <use xlink:href="#m8ddfac53c4" x="391.29125" y="145.295864" style="stroke: #000000; stroke-width: 0.8"/>
      </g>
     </g>
     <g id="text_35">
      <!-- 3 -->
      <g transform="translate(376.406875 149.891489) scale(0.12 -0.12)">
       <use xlink:href="#HiraginoSansGB-W3-33"/>
      </g>
     </g>
    </g>
    <g id="ytick_8">
     <g id="line2d_16">
      <g>
       <use xlink:href="#m8ddfac53c4" x="391.29125" y="72.344955" style="stroke: #000000; stroke-width: 0.8"/>
      </g>
     </g>
     <g id="text_36">
      <!-- 4 -->
      <g transform="translate(376.36 76.94058) scale(0.12 -0.12)">
       <use xlink:href="#HiraginoSansGB-W3-34"/>
      </g>
     </g>
    </g>
    <g id="text_37">
     <!-- Y = second roll -->
     <g transform="translate(369.91125 226.493818) rotate(-90) scale(0.12 -0.12)">
      <use xlink:href="#HiraginoSansGB-W3-59"/>
      <use xlink:href="#HiraginoSansGB-W3-20" x="68.799988"/>
      <use xlink:href="#HiraginoSansGB-W3-3d" x="102.099976"/>
      <use xlink:href="#HiraginoSansGB-W3-20" x="167.699966"/>
      <use xlink:href="#HiraginoSansGB-W3-73" x="200.999954"/>
      <use xlink:href="#HiraginoSansGB-W3-65" x="254.699951"/>
      <use xlink:href="#HiraginoSansGB-W3-63" x="313.499939"/>
      <use xlink:href="#HiraginoSansGB-W3-6f" x="371.299927"/>
      <use xlink:href="#HiraginoSansGB-W3-6e" x="433.799911"/>
      <use xlink:href="#HiraginoSansGB-W3-64" x="495.599899"/>
      <use xlink:href="#HiraginoSansGB-W3-20" x="560.19989"/>
      <use xlink:href="#HiraginoSansGB-W3-72" x="593.499878"/>
      <use xlink:href="#HiraginoSansGB-W3-6f" x="636.499863"/>
      <use xlink:href="#HiraginoSansGB-W3-6c" x="698.999847"/>
      <use xlink:href="#HiraginoSansGB-W3-6c" x="722.199844"/>
     </g>
    </g>
   </g>
   <g id="patch_38">
    <path d="M 391.29125 327.673136 
L 391.29125 35.8695 
" style="fill: none; stroke: #000000; stroke-width: 0.8; stroke-linejoin: miter; stroke-linecap: square"/>
   </g>
   <g id="patch_39">
    <path d="M 391.29125 327.673136 
L 683.094886 327.673136 
" style="fill: none; stroke: #000000; stroke-width: 0.8; stroke-linejoin: miter; stroke-linecap: square"/>
   </g>
   <g id="text_38">
    <!-- 1,1 -->
    <g style="fill: #8c8c8c" transform="translate(419.219361 294.287994) scale(0.11 -0.11)">
     <use xlink:href="#HiraginoSansGB-W3-31"/>
     <use xlink:href="#HiraginoSansGB-W3-2c" x="65.699997"/>
     <use xlink:href="#HiraginoSansGB-W3-31" x="89.699982"/>
    </g>
   </g>
   <g id="text_39">
    <!-- 1,2 -->
    <g style="fill: #8c8c8c" transform="translate(419.219361 221.337085) scale(0.11 -0.11)">
     <use xlink:href="#HiraginoSansGB-W3-31"/>
     <use xlink:href="#HiraginoSansGB-W3-2c" x="65.699997"/>
     <use xlink:href="#HiraginoSansGB-W3-32" x="89.699982"/>
    </g>
   </g>
   <g id="text_40">
    <!-- 1,3 -->
    <g style="fill: #8c8c8c" transform="translate(419.219361 148.386176) scale(0.11 -0.11)">
     <use xlink:href="#HiraginoSansGB-W3-31"/>
     <use xlink:href="#HiraginoSansGB-W3-2c" x="65.699997"/>
     <use xlink:href="#HiraginoSansGB-W3-33" x="89.699982"/>
    </g>
   </g>
   <g id="text_41">
    <!-- 1,4 -->
    <g style="fill: #8c8c8c" transform="translate(419.197876 75.435267) scale(0.11 -0.11)">
     <use xlink:href="#HiraginoSansGB-W3-31"/>
     <use xlink:href="#HiraginoSansGB-W3-2c" x="65.699997"/>
     <use xlink:href="#HiraginoSansGB-W3-34" x="89.699982"/>
    </g>
   </g>
   <g id="text_42">
    <!-- 2,1 -->
    <g style="fill: #8c8c8c" transform="translate(492.17027 294.287994) scale(0.11 -0.11)">
     <use xlink:href="#HiraginoSansGB-W3-32"/>
     <use xlink:href="#HiraginoSansGB-W3-2c" x="65.699997"/>
     <use xlink:href="#HiraginoSansGB-W3-31" x="89.699982"/>
    </g>
   </g>
   <g id="text_43">
    <!-- 2,2 -->
    <g transform="translate(492.17027 221.337085) scale(0.11 -0.11)">
     <use xlink:href="#HiraginoSansGB-W3-32"/>
     <use xlink:href="#HiraginoSansGB-W3-2c" x="65.699997"/>
     <use xlink:href="#HiraginoSansGB-W3-32" x="89.699982"/>
    </g>
   </g>
   <g id="text_44">
    <!-- 2,3 -->
    <g transform="translate(492.17027 148.386176) scale(0.11 -0.11)">
     <use xlink:href="#HiraginoSansGB-W3-32"/>
     <use xlink:href="#HiraginoSansGB-W3-2c" x="65.699997"/>
     <use xlink:href="#HiraginoSansGB-W3-33" x="89.699982"/>
    </g>
   </g>
   <g id="text_45">
    <!-- 2,4 -->
    <g transform="translate(492.148786 75.435267) scale(0.11 -0.11)">
     <use xlink:href="#HiraginoSansGB-W3-32"/>
     <use xlink:href="#HiraginoSansGB-W3-2c" x="65.699997"/>
     <use xlink:href="#HiraginoSansGB-W3-34" x="89.699982"/>
    </g>
   </g>
   <g id="text_46">
    <!-- 3,1 -->
    <g style="fill: #8c8c8c" transform="translate(565.121179 294.287994) scale(0.11 -0.11)">
     <use xlink:href="#HiraginoSansGB-W3-33"/>
     <use xlink:href="#HiraginoSansGB-W3-2c" x="65.699997"/>
     <use xlink:href="#HiraginoSansGB-W3-31" x="89.699982"/>
    </g>
   </g>
   <g id="text_47">
    <!-- 3,2 -->
    <g transform="translate(565.121179 221.337085) scale(0.11 -0.11)">
     <use xlink:href="#HiraginoSansGB-W3-33"/>
     <use xlink:href="#HiraginoSansGB-W3-2c" x="65.699997"/>
     <use xlink:href="#HiraginoSansGB-W3-32" x="89.699982"/>
    </g>
   </g>
   <g id="text_48">
    <!-- 3,3 -->
    <g style="fill: #8c8c8c" transform="translate(565.121179 148.386176) scale(0.11 -0.11)">
     <use xlink:href="#HiraginoSansGB-W3-33"/>
     <use xlink:href="#HiraginoSansGB-W3-2c" x="65.699997"/>
     <use xlink:href="#HiraginoSansGB-W3-33" x="89.699982"/>
    </g>
   </g>
   <g id="text_49">
    <!-- 3,4 -->
    <g style="fill: #8c8c8c" transform="translate(565.099695 75.435267) scale(0.11 -0.11)">
     <use xlink:href="#HiraginoSansGB-W3-33"/>
     <use xlink:href="#HiraginoSansGB-W3-2c" x="65.699997"/>
     <use xlink:href="#HiraginoSansGB-W3-34" x="89.699982"/>
    </g>
   </g>
   <g id="text_50">
    <!-- 4,1 -->
    <g style="fill: #8c8c8c" transform="translate(638.050604 294.287994) scale(0.11 -0.11)">
     <use xlink:href="#HiraginoSansGB-W3-34"/>
     <use xlink:href="#HiraginoSansGB-W3-2c" x="66.099991"/>
     <use xlink:href="#HiraginoSansGB-W3-31" x="90.099976"/>
    </g>
   </g>
   <g id="text_51">
    <!-- 4,2 -->
    <g transform="translate(638.050604 221.337085) scale(0.11 -0.11)">
     <use xlink:href="#HiraginoSansGB-W3-34"/>
     <use xlink:href="#HiraginoSansGB-W3-2c" x="66.099991"/>
     <use xlink:href="#HiraginoSansGB-W3-32" x="90.099976"/>
    </g>
   </g>
   <g id="text_52">
    <!-- 4,3 -->
    <g style="fill: #8c8c8c" transform="translate(638.050604 148.386176) scale(0.11 -0.11)">
     <use xlink:href="#HiraginoSansGB-W3-34"/>
     <use xlink:href="#HiraginoSansGB-W3-2c" x="66.099991"/>
     <use xlink:href="#HiraginoSansGB-W3-33" x="90.099976"/>
    </g>
   </g>
   <g id="text_53">
    <!-- 4,4 -->
    <g style="fill: #8c8c8c" transform="translate(638.029119 75.435267) scale(0.11 -0.11)">
     <use xlink:href="#HiraginoSansGB-W3-34"/>
     <use xlink:href="#HiraginoSansGB-W3-2c" x="66.099991"/>
     <use xlink:href="#HiraginoSansGB-W3-34" x="90.099976"/>
    </g>
   </g>
   <g id="text_54">
    <!-- Event $\{\min(X,Y) = 2\}$ -->
    <g transform="translate(472.813068 16.39125) scale(0.12 -0.12)">
     <defs>
      <path id="DejaVuSans-6d" d="M 3328 2828 
Q 3544 3216 3844 3400 
Q 4144 3584 4550 3584 
Q 5097 3584 5394 3201 
Q 5691 2819 5691 2113 
L 5691 0 
L 5113 0 
L 5113 2094 
Q 5113 2597 4934 2840 
Q 4756 3084 4391 3084 
Q 3944 3084 3684 2787 
Q 3425 2491 3425 1978 
L 3425 0 
L 2847 0 
L 2847 2094 
Q 2847 2600 2669 2842 
Q 2491 3084 2119 3084 
Q 1678 3084 1418 2786 
Q 1159 2488 1159 1978 
L 1159 0 
L 581 0 
L 581 3500 
L 1159 3500 
L 1159 2956 
Q 1356 3278 1631 3431 
Q 1906 3584 2284 3584 
Q 2666 3584 2933 3390 
Q 3200 3197 3328 2828 
z
" transform="scale(0.015625)"/>
      <path id="DejaVuSans-69" d="M 603 3500 
L 1178 3500 
L 1178 0 
L 603 0 
L 603 3500 
z
M 603 4863 
L 1178 4863 
L 1178 4134 
L 603 4134 
L 603 4863 
z
" transform="scale(0.015625)"/>
      <path id="DejaVuSans-6e" d="M 3513 2113 
L 3513 0 
L 2938 0 
L 2938 2094 
Q 2938 2591 2744 2837 
Q 2550 3084 2163 3084 
Q 1697 3084 1428 2787 
Q 1159 2491 1159 1978 
L 1159 0 
L 581 0 
L 581 3500 
L 1159 3500 
L 1159 2956 
Q 1366 3272 1645 3428 
Q 1925 3584 2291 3584 
Q 2894 3584 3203 3211 
Q 3513 2838 3513 2113 
z
" transform="scale(0.015625)"/>
      <path id="DejaVuSans-28" d="M 1984 4856 
Q 1566 4138 1362 3434 
Q 1159 2731 1159 2009 
Q 1159 1288 1364 580 
Q 1569 -128 1984 -844 
L 1484 -844 
Q 1016 -109 783 600 
Q 550 1309 550 2009 
Q 550 2706 781 3412 
Q 1013 4119 1484 4856 
L 1984 4856 
z
" transform="scale(0.015625)"/>
      <path id="DejaVuSans-2c" d="M 750 794 
L 1409 794 
L 1409 256 
L 897 -744 
L 494 -744 
L 750 256 
L 750 794 
z
" transform="scale(0.015625)"/>
      <path id="DejaVuSans-Oblique-59" d="M 403 4666 
L 1081 4666 
L 1953 2747 
L 3616 4666 
L 4325 4666 
L 2209 2222 
L 1778 0 
L 1147 0 
L 1575 2222 
L 403 4666 
z
" transform="scale(0.015625)"/>
      <path id="DejaVuSans-29" d="M 513 4856 
L 1013 4856 
Q 1481 4119 1714 3412 
Q 1947 2706 1947 2009 
Q 1947 1309 1714 600 
Q 1481 -109 1013 -844 
L 513 -844 
Q 928 -128 1133 580 
Q 1338 1288 1338 2009 
Q 1338 2731 1133 3434 
Q 928 4138 513 4856 
z
" transform="scale(0.015625)"/>
      <path id="DejaVuSans-32" d="M 1228 531 
L 3431 531 
L 3431 0 
L 469 0 
L 469 531 
Q 828 903 1448 1529 
Q 2069 2156 2228 2338 
Q 2531 2678 2651 2914 
Q 2772 3150 2772 3378 
Q 2772 3750 2511 3984 
Q 2250 4219 1831 4219 
Q 1534 4219 1204 4116 
Q 875 4013 500 3803 
L 500 4441 
Q 881 4594 1212 4672 
Q 1544 4750 1819 4750 
Q 2544 4750 2975 4387 
Q 3406 4025 3406 3419 
Q 3406 3131 3298 2873 
Q 3191 2616 2906 2266 
Q 2828 2175 2409 1742 
Q 1991 1309 1228 531 
z
" transform="scale(0.015625)"/>
     </defs>
     <use xlink:href="#HiraginoSansGB-W3-45" transform="translate(0 0.703125)"/>
     <use xlink:href="#HiraginoSansGB-W3-76" transform="translate(64.299988 0.703125)"/>
     <use xlink:href="#HiraginoSansGB-W3-65" transform="translate(118.699982 0.703125)"/>
     <use xlink:href="#HiraginoSansGB-W3-6e" transform="translate(177.499969 0.703125)"/>
     <use xlink:href="#HiraginoSansGB-W3-74" transform="translate(239.299957 0.703125)"/>
     <use xlink:href="#HiraginoSansGB-W3-20" transform="translate(278.499954 0.703125)"/>
     <use xlink:href="#DejaVuSans-7b" transform="translate(311.799942 0.703125)"/>
     <use xlink:href="#DejaVuSans-6d" transform="translate(375.422989 0.703125)"/>
     <use xlink:href="#DejaVuSans-69" transform="translate(472.835098 0.703125)"/>
     <use xlink:href="#DejaVuSans-6e" transform="translate(500.618301 0.703125)"/>
     <use xlink:href="#DejaVuSans-28" transform="translate(563.997208 0.703125)"/>
     <use xlink:href="#DejaVuSans-Oblique-58" transform="translate(603.01088 0.703125)"/>
     <use xlink:href="#DejaVuSans-2c" transform="translate(671.516739 0.703125)"/>
     <use xlink:href="#DejaVuSans-Oblique-59" transform="translate(722.78627 0.703125)"/>
     <use xlink:href="#DejaVuSans-29" transform="translate(783.870255 0.703125)"/>
     <use xlink:href="#DejaVuSans-3d" transform="translate(842.366348 0.703125)"/>
     <use xlink:href="#DejaVuSans-32" transform="translate(945.637833 0.703125)"/>
     <use xlink:href="#DejaVuSans-7d" transform="translate(1009.26088 0.703125)"/>
    </g>
    <!-- P = $5/16$ -->
    <g transform="translate(511.813068 29.8695) scale(0.12 -0.12)">
     <defs>
      <path id="DejaVuSans-35" d="M 691 4666 
L 3169 4666 
L 3169 4134 
L 1269 4134 
L 1269 2991 
Q 1406 3038 1543 3061 
Q 1681 3084 1819 3084 
Q 2600 3084 3056 2656 
Q 3513 2228 3513 1497 
Q 3513 744 3044 326 
Q 2575 -91 1722 -91 
Q 1428 -91 1123 -41 
Q 819 9 494 109 
L 494 744 
Q 775 591 1075 516 
Q 1375 441 1709 441 
Q 2250 441 2565 725 
Q 2881 1009 2881 1497 
Q 2881 1984 2565 2268 
Q 2250 2553 1709 2553 
Q 1456 2553 1204 2497 
Q 953 2441 691 2322 
L 691 4666 
z
" transform="scale(0.015625)"/>
     </defs>
     <use xlink:href="#HiraginoSansGB-W3-50" transform="translate(0 0.09375)"/>
     <use xlink:href="#HiraginoSansGB-W3-20" transform="translate(66.199997 0.09375)"/>
     <use xlink:href="#HiraginoSansGB-W3-3d" transform="translate(99.499985 0.09375)"/>
     <use xlink:href="#HiraginoSansGB-W3-20" transform="translate(165.099976 0.09375)"/>
     <use xlink:href="#DejaVuSans-35" transform="translate(198.399963 0.09375)"/>
     <use xlink:href="#DejaVuSans-2f" transform="translate(262.02301 0.09375)"/>
     <use xlink:href="#DejaVuSans-31" transform="translate(295.714417 0.09375)"/>
     <use xlink:href="#DejaVuSans-36" transform="translate(359.337463 0.09375)"/>
    </g>
   </g>
  </g>
 </g>
 <defs>
  <clipPath id="p1c044aeda3">
   <rect x="37.77125" y="35.8695" width="291.803636" height="291.803636"/>
  </clipPath>
  <clipPath id="p044edf9f03">
   <rect x="391.29125" y="35.8695" width="291.803636" height="291.803636"/>
  </clipPath>
 </defs>
</svg>
