<?xml version="1.0" encoding="utf-8" standalone="no"?>
<!DOCTYPE svg PUBLIC "-//W3C//DTD SVG 1.1//EN"
  "http://www.w3.org/Graphics/SVG/1.1/DTD/svg11.dtd">
<svg xmlns:xlink="http://www.w3.org/1999/xlink" width="388.32875pt" height="397.47125pt" viewBox="0 0 388.32875 397.47125" xmlns="http://www.w3.org/2000/svg" version="1.1">
 <metadata>
  <rdf:RDF xmlns:dc="http://purl.org/dc/elements/1.1/" xmlns:cc="http://creativecommons.org/ns#" xmlns:rdf="http://www.w3.org/1999/02/22-rdf-syntax-ns#">
   <cc:Work>
    <dc:type rdf:resource="http://purl.org/dc/dcmitype/StillImage"/>
    <dc:format>image/svg+xml</dc:format>
    <dc:creator>
     <cc:Agent>
      <dc:title>Matplotlib v3.9.4, https://matplotlib.org/</dc:title>
     </cc:Agent>
    </dc:creator>
   </cc:Work>
  </rdf:RDF>
 </metadata>
 <defs>
  <style type="text/css">*{stroke-linejoin: round; stroke-linecap: butt}</style>
 </defs>
 <g id="figure_1">
  <g id="patch_1">
   <path d="M 0 397.47125 
L 388.32875 397.47125 
L 388.32875 0 
L 0 0 
z
" style="fill: #ffffff"/>
  </g>
  <g id="axes_1">
   <g id="patch_2">
    <path d="M 48.48875 355.99125 
L 381.12875 355.99125 
L 381.12875 23.35125 
L 48.48875 23.35125 
z
" style="fill: #ffffff"/>
   </g>
   <g id="patch_3">
    <path d="M 62.951359 341.528641 
L 352.203533 341.528641 
L 352.203533 52.276467 
L 62.951359 52.276467 
z
" clip-path="url(#p7a56aa84d4)" style="fill: #ffffff; stroke: #000000; stroke-width: 1.5; stroke-linejoin: miter"/>
   </g>
   <g id="patch_4">
    <path d="M 62.951359 341.528641 
L 207.577446 341.528641 
L 62.951359 196.902554 
z
" clip-path="url(#p7a56aa84d4)" style="fill: #e8a0a0; opacity: 0.8; stroke: #c0392b; stroke-width: 1.5; stroke-linejoin: miter"/>
   </g>
   <g id="matplotlib.axis_1">
    <g id="xtick_1">
     <g id="line2d_1">
      <defs>
       <path id="mbc1c3fbf6b" d="M 0 0 
L 0 3.5 
" style="stroke: #000000; stroke-width: 0.8"/>
      </defs>
      <g>
       <use xlink:href="#mbc1c3fbf6b" x="62.951359" y="355.99125" style="stroke: #000000; stroke-width: 0.8"/>
      </g>
     </g>
     <g id="text_1">
      <!-- 0.0 -->
      <g transform="translate(53.626984 372.1825) scale(0.12 -0.12)">
       <defs>
        <path id="HiraginoSansGB-W3-30" d="M 2099 -58 
C 2688 -58 3136 166 3456 614 
C 3738 1005 3904 1690 3904 2464 
C 3904 2995 3821 3507 3661 3949 
C 3584 4160 3456 4358 3277 4538 
C 2989 4838 2579 4992 2106 4992 
C 1472 4992 979 4723 672 4205 
C 448 3834 301 3142 301 2464 
C 301 1939 384 1434 544 986 
C 621 768 755 570 928 397 
C 1229 96 1626 -58 2099 -58 
z
M 2099 4550 
C 2547 4550 2893 4352 3104 3968 
C 3270 3667 3392 3034 3392 2477 
C 3392 2003 3328 1581 3194 1184 
C 3136 998 3034 832 2893 685 
C 2701 486 2426 384 2106 384 
C 1670 384 1338 570 1114 941 
C 941 1242 813 1869 813 2464 
C 813 2931 877 3366 1011 3757 
C 1062 3917 1165 4077 1299 4224 
C 1504 4442 1766 4550 2099 4550 
z
" transform="scale(0.015625)"/>
        <path id="HiraginoSansGB-W3-2e" d="M 448 672 
L 448 38 
L 1082 38 
L 1082 672 
L 448 672 
z
" transform="scale(0.015625)"/>
       </defs>
       <use xlink:href="#HiraginoSansGB-W3-30"/>
       <use xlink:href="#HiraginoSansGB-W3-2e" x="65.699997"/>
       <use xlink:href="#HiraginoSansGB-W3-30" x="89.699982"/>
      </g>
     </g>
    </g>
    <g id="xtick_2">
     <g id="line2d_2">
      <g>
       <use xlink:href="#mbc1c3fbf6b" x="207.577446" y="355.99125" style="stroke: #000000; stroke-width: 0.8"/>
      </g>
     </g>
     <g id="text_2">
      <!-- 0.5 -->
      <g transform="translate(198.253071 372.1825) scale(0.12 -0.12)">
       <defs>
        <path id="HiraginoSansGB-W3-35" d="M 1261 4461 
L 2765 4461 
C 3066 4461 3270 4448 3514 4410 
L 3514 4954 
C 3258 4915 3110 4902 2765 4902 
L 1446 4902 
C 1069 4902 966 4909 768 4934 
C 781 4774 781 4749 781 4659 
C 781 4538 774 4461 762 4275 
L 621 2829 
C 595 2554 576 2419 525 2170 
L 1005 2125 
C 1075 2298 1146 2387 1299 2509 
C 1530 2688 1811 2778 2138 2778 
C 2816 2778 3258 2317 3258 1613 
C 3258 877 2778 390 2061 390 
C 1690 390 1370 525 1152 768 
C 1056 877 1011 960 947 1139 
L 422 986 
C 576 678 666 544 826 384 
C 1133 96 1549 -51 2048 -51 
C 3104 -51 3776 608 3776 1638 
C 3776 2112 3635 2490 3347 2765 
C 3059 3046 2662 3200 2195 3200 
C 1754 3200 1382 3053 1075 2758 
C 1114 2931 1114 2931 1126 3046 
L 1261 4461 
z
" transform="scale(0.015625)"/>
       </defs>
       <use xlink:href="#HiraginoSansGB-W3-30"/>
       <use xlink:href="#HiraginoSansGB-W3-2e" x="65.699997"/>
       <use xlink:href="#HiraginoSansGB-W3-35" x="89.699982"/>
      </g>
     </g>
    </g>
    <g id="xtick_3">
     <g id="line2d_3">
      <g>
       <use xlink:href="#mbc1c3fbf6b" x="352.203533" y="355.99125" style="stroke: #000000; stroke-width: 0.8"/>
      </g>
     </g>
     <g id="text_3">
      <!-- 1.0 -->
      <g transform="translate(342.879158 372.1825) scale(0.12 -0.12)">
       <defs>
        <path id="HiraginoSansGB-W3-31" d="M 1030 4429 
C 1216 4454 1382 4467 1587 4467 
L 1933 4467 
L 1933 762 
C 1933 467 1920 262 1882 38 
L 2490 38 
C 2451 275 2438 461 2438 762 
L 2438 3872 
C 2438 4218 2458 4544 2496 4934 
C 2285 4909 2182 4902 1965 4902 
L 1562 4902 
C 1318 4902 1197 4909 1030 4934 
L 1030 4429 
z
" transform="scale(0.015625)"/>
       </defs>
       <use xlink:href="#HiraginoSansGB-W3-31"/>
       <use xlink:href="#HiraginoSansGB-W3-2e" x="65.699997"/>
       <use xlink:href="#HiraginoSansGB-W3-30" x="89.699982"/>
      </g>
     </g>
    </g>
    <g id="text_4">
     <!-- x -->
     <g transform="translate(211.593125 387.8225) scale(0.12 -0.12)">
      <defs>
       <path id="HiraginoSansGB-W3-78" d="M 3315 38 
C 2918 563 2918 563 2854 646 
L 2010 1824 
L 2816 2957 
C 2925 3110 3059 3283 3206 3488 
L 2592 3488 
C 2534 3360 2451 3219 2342 3059 
L 1722 2157 
L 1094 3059 
C 973 3232 909 3341 845 3488 
L 218 3488 
C 512 3098 563 3034 602 2976 
L 1427 1824 
L 538 595 
C 397 390 224 166 122 38 
L 755 38 
C 851 218 902 314 1005 454 
L 1715 1491 
L 2394 512 
C 2528 307 2592 205 2682 38 
L 3315 38 
z
" transform="scale(0.015625)"/>
      </defs>
      <use xlink:href="#HiraginoSansGB-W3-78"/>
     </g>
    </g>
   </g>
   <g id="matplotlib.axis_2">
    <g id="ytick_1">
     <g id="line2d_4">
      <defs>
       <path id="m8ddfac53c4" d="M 0 0 
L -3.5 0 
" style="stroke: #000000; stroke-width: 0.8"/>
      </defs>
      <g>
       <use xlink:href="#m8ddfac53c4" x="48.48875" y="341.528641" style="stroke: #000000; stroke-width: 0.8"/>
      </g>
     </g>
     <g id="text_5">
      <!-- 0.0 -->
      <g transform="translate(22.84 346.124266) scale(0.12 -0.12)">
       <use xlink:href="#HiraginoSansGB-W3-30"/>
       <use xlink:href="#HiraginoSansGB-W3-2e" x="65.699997"/>
       <use xlink:href="#HiraginoSansGB-W3-30" x="89.699982"/>
      </g>
     </g>
    </g>
    <g id="ytick_2">
     <g id="line2d_5">
      <g>
       <use xlink:href="#m8ddfac53c4" x="48.48875" y="196.902554" style="stroke: #000000; stroke-width: 0.8"/>
      </g>
     </g>
     <g id="text_6">
      <!-- 0.5 -->
      <g transform="translate(22.84 201.498179) scale(0.12 -0.12)">
       <use xlink:href="#HiraginoSansGB-W3-30"/>
       <use xlink:href="#HiraginoSansGB-W3-2e" x="65.699997"/>
       <use xlink:href="#HiraginoSansGB-W3-35" x="89.699982"/>
      </g>
     </g>
    </g>
    <g id="ytick_3">
     <g id="line2d_6">
      <g>
       <use xlink:href="#m8ddfac53c4" x="48.48875" y="52.276467" style="stroke: #000000; stroke-width: 0.8"/>
      </g>
     </g>
     <g id="text_7">
      <!-- 1.0 -->
      <g transform="translate(22.84 56.872092) scale(0.12 -0.12)">
       <use xlink:href="#HiraginoSansGB-W3-31"/>
       <use xlink:href="#HiraginoSansGB-W3-2e" x="65.699997"/>
       <use xlink:href="#HiraginoSansGB-W3-30" x="89.699982"/>
      </g>
     </g>
    </g>
    <g id="text_8">
     <!-- y -->
     <g transform="translate(16.30875 192.995625) rotate(-90) scale(0.12 -0.12)">
      <defs>
       <path id="HiraginoSansGB-W3-79" d="M 1587 141 
L 1293 -563 
C 1190 -800 1037 -915 819 -915 
C 698 -915 608 -890 429 -806 
L 294 -1280 
C 538 -1331 678 -1350 819 -1350 
C 1274 -1350 1555 -1165 1722 -755 
L 3155 2739 
C 3322 3142 3430 3392 3469 3488 
L 2874 3488 
C 2848 3309 2790 3136 2662 2810 
L 1837 659 
L 909 2810 
C 806 3053 723 3309 691 3488 
L 64 3488 
C 128 3373 128 3373 416 2739 
L 1587 141 
z
" transform="scale(0.015625)"/>
      </defs>
      <use xlink:href="#HiraginoSansGB-W3-79"/>
     </g>
    </g>
   </g>
   <g id="line2d_7">
    <path d="M 207.577446 341.528641 
L 62.951359 196.902554 
" clip-path="url(#p7a56aa84d4)" style="fill: none; stroke: #c0392b; stroke-width: 1.5; stroke-linecap: square"/>
   </g>
   <g id="line2d_8">
    <defs>
     <path id="m9c71f71446" d="M 0 3.5 
C 0.928211 3.5 1.81853 3.131218 2.474874 2.474874 
C 3.131218 1.81853 3.5 0.928211 3.5 0 
C 3.5 -0.928211 3.131218 -1.81853 2.474874 -2.474874 
C 1.81853 -3.131218 0.928211 -3.5 0 -3.5 
C -0.928211 -3.5 -1.81853 -3.131218 -2.474874 -2.474874 
C -3.131218 -1.81853 -3.5 -0.928211 -3.5 0 
C -3.5 0.928211 -3.131218 1.81853 -2.474874 2.474874 
C -1.81853 3.131218 -0.928211 3.5 0 3.5 
z
" style="stroke: #000000"/>
    </defs>
    <g clip-path="url(#p7a56aa84d4)">
     <use xlink:href="#m9c71f71446" x="207.577446" y="254.752989" style="stroke: #000000"/>
    </g>
   </g>
   <g id="patch_5">
    <path d="M 48.48875 355.99125 
L 48.48875 23.35125 
" style="fill: none; stroke: #000000; stroke-width: 0.8; stroke-linejoin: miter; stroke-linecap: square"/>
   </g>
   <g id="patch_6">
    <path d="M 48.48875 355.99125 
L 381.12875 355.99125 
" style="fill: none; stroke: #000000; stroke-width: 0.8; stroke-linejoin: miter; stroke-linecap: square"/>
   </g>
   <g id="text_9">
    <!-- $x+y\leq\frac{1}{2}$ -->
    <g transform="translate(75.294141 297.925859) scale(0.12 -0.12)">
     <defs>
      <path id="DejaVuSans-Oblique-78" d="M 3841 3500 
L 2234 1784 
L 3219 0 
L 2559 0 
L 1819 1388 
L 531 0 
L -166 0 
L 1556 1844 
L 641 3500 
L 1300 3500 
L 1972 2234 
L 3144 3500 
L 3841 3500 
z
" transform="scale(0.015625)"/>
      <path id="DejaVuSans-2b" d="M 2944 4013 
L 2944 2272 
L 4684 2272 
L 4684 1741 
L 2944 1741 
L 2944 0 
L 2419 0 
L 2419 1741 
L 678 1741 
L 678 2272 
L 2419 2272 
L 2419 4013 
L 2944 4013 
z
" transform="scale(0.015625)"/>
      <path id="DejaVuSans-Oblique-79" d="M 1588 -325 
Q 1188 -997 936 -1164 
Q 684 -1331 294 -1331 
L -159 -1331 
L -63 -850 
L 269 -850 
Q 509 -850 678 -719 
Q 847 -588 1056 -206 
L 1234 128 
L 459 3500 
L 1069 3500 
L 1650 819 
L 3256 3500 
L 3859 3500 
L 1588 -325 
z
" transform="scale(0.015625)"/>
      <path id="DejaVuSans-2264" d="M 4684 3175 
L 1684 2309 
L 4684 1453 
L 4684 897 
L 678 2047 
L 678 2578 
L 4684 3725 
L 4684 3175 
z
M 678 531 
L 4684 531 
L 4684 0 
L 678 0 
L 678 531 
z
" transform="scale(0.015625)"/>
      <path id="DejaVuSans-31" d="M 794 531 
L 1825 531 
L 1825 4091 
L 703 3866 
L 703 4441 
L 1819 4666 
L 2450 4666 
L 2450 531 
L 3481 531 
L 3481 0 
L 794 0 
L 794 531 
z
" transform="scale(0.015625)"/>
      <path id="DejaVuSans-32" d="M 1228 531 
L 3431 531 
L 3431 0 
L 469 0 
L 469 531 
Q 828 903 1448 1529 
Q 2069 2156 2228 2338 
Q 2531 2678 2651 2914 
Q 2772 3150 2772 3378 
Q 2772 3750 2511 3984 
Q 2250 4219 1831 4219 
Q 1534 4219 1204 4116 
Q 875 4013 500 3803 
L 500 4441 
Q 881 4594 1212 4672 
Q 1544 4750 1819 4750 
Q 2544 4750 2975 4387 
Q 3406 4025 3406 3419 
Q 3406 3131 3298 2873 
Q 3191 2616 2906 2266 
Q 2828 2175 2409 1742 
Q 1991 1309 1228 531 
z
" transform="scale(0.015625)"/>
     </defs>
     <use xlink:href="#DejaVuSans-Oblique-78" transform="translate(0 0.16875)"/>
     <use xlink:href="#DejaVuSans-2b" transform="translate(78.662109 0.16875)"/>
     <use xlink:href="#DejaVuSans-Oblique-79" transform="translate(181.933594 0.16875)"/>
     <use xlink:href="#DejaVuSans-2264" transform="translate(260.595703 0.16875)"/>
     <use xlink:href="#DejaVuSans-31" transform="translate(363.867188 43.965625) scale(0.7)"/>
     <use xlink:href="#DejaVuSans-32" transform="translate(363.867188 -39.2375) scale(0.7)"/>
     <path d="M 363.867188 18.965625 
L 363.867188 25.215625 
L 408.40332 25.215625 
L 408.40332 18.965625 
L 363.867188 18.965625 
z
"/>
    </g>
    <!-- area $=\frac{1}{8}$ -->
    <g transform="translate(74.754141 316.405859) scale(0.12 -0.12)">
     <defs>
      <path id="HiraginoSansGB-W3-61" d="M 2733 38 
L 3251 38 
C 3213 294 3200 454 3200 742 
L 3200 2541 
C 3200 3232 2765 3590 1920 3590 
C 1440 3590 1056 3469 794 3226 
C 634 3085 550 2950 435 2656 
L 934 2547 
C 998 2739 1050 2829 1133 2918 
C 1312 3104 1574 3194 1926 3194 
C 2458 3194 2733 2970 2733 2534 
L 2733 2163 
C 1946 2144 1638 2106 1261 1997 
C 666 1830 346 1459 346 947 
C 346 339 774 -26 1478 -26 
C 1696 -26 1926 19 2144 102 
C 2362 186 2483 269 2733 493 
L 2733 38 
z
M 2733 1370 
C 2733 1114 2682 979 2534 819 
C 2285 544 1882 365 1510 365 
C 1094 365 832 589 832 941 
C 832 1248 992 1466 1318 1600 
C 1606 1722 1971 1766 2733 1786 
L 2733 1370 
z
" transform="scale(0.015625)"/>
      <path id="HiraginoSansGB-W3-72" d="M 2669 3488 
C 2400 3533 2291 3546 2099 3546 
C 1792 3546 1574 3482 1331 3322 
C 1197 3232 1101 3130 979 2931 
C 986 2976 986 3072 986 3123 
L 986 3488 
L 454 3488 
C 486 3258 499 3085 499 2765 
L 499 762 
C 499 499 486 333 454 38 
L 1030 38 
C 998 288 986 467 986 755 
L 986 2061 
C 1011 2349 1069 2502 1222 2701 
C 1414 2957 1683 3091 2010 3091 
C 2170 3091 2285 3072 2528 2995 
L 2669 3488 
z
" transform="scale(0.015625)"/>
      <path id="HiraginoSansGB-W3-65" d="M 3475 1690 
C 3462 1862 3437 2112 3430 2182 
C 3302 3040 2707 3571 1882 3571 
C 922 3571 294 2854 294 1760 
C 294 653 928 -51 1933 -51 
C 2400 -51 2790 102 3091 397 
C 3238 544 3322 659 3443 928 
L 2995 1107 
C 2816 614 2458 358 1939 358 
C 1555 358 1242 512 1037 794 
C 864 1024 800 1261 781 1690 
L 3475 1690 
z
M 800 2093 
C 838 2336 870 2451 960 2611 
C 1152 2970 1478 3168 1869 3168 
C 2176 3168 2426 3072 2624 2880 
C 2829 2682 2925 2451 2963 2093 
L 800 2093 
z
" transform="scale(0.015625)"/>
      <path id="HiraginoSansGB-W3-20" transform="scale(0.015625)"/>
      <path id="DejaVuSans-3d" d="M 678 2906 
L 4684 2906 
L 4684 2381 
L 678 2381 
L 678 2906 
z
M 678 1631 
L 4684 1631 
L 4684 1100 
L 678 1100 
L 678 1631 
z
" transform="scale(0.015625)"/>
      <path id="DejaVuSans-38" d="M 2034 2216 
Q 1584 2216 1326 1975 
Q 1069 1734 1069 1313 
Q 1069 891 1326 650 
Q 1584 409 2034 409 
Q 2484 409 2743 651 
Q 3003 894 3003 1313 
Q 3003 1734 2745 1975 
Q 2488 2216 2034 2216 
z
M 1403 2484 
Q 997 2584 770 2862 
Q 544 3141 544 3541 
Q 544 4100 942 4425 
Q 1341 4750 2034 4750 
Q 2731 4750 3128 4425 
Q 3525 4100 3525 3541 
Q 3525 3141 3298 2862 
Q 3072 2584 2669 2484 
Q 3125 2378 3379 2068 
Q 3634 1759 3634 1313 
Q 3634 634 3220 271 
Q 2806 -91 2034 -91 
Q 1263 -91 848 271 
Q 434 634 434 1313 
Q 434 1759 690 2068 
Q 947 2378 1403 2484 
z
M 1172 3481 
Q 1172 3119 1398 2916 
Q 1625 2713 2034 2713 
Q 2441 2713 2670 2916 
Q 2900 3119 2900 3481 
Q 2900 3844 2670 4047 
Q 2441 4250 2034 4250 
Q 1625 4250 1398 4047 
Q 1172 3844 1172 3481 
z
" transform="scale(0.015625)"/>
     </defs>
     <use xlink:href="#HiraginoSansGB-W3-61" transform="translate(0 0.16875)"/>
     <use xlink:href="#HiraginoSansGB-W3-72" transform="translate(57.499985 0.16875)"/>
     <use xlink:href="#HiraginoSansGB-W3-65" transform="translate(100.499969 0.16875)"/>
     <use xlink:href="#HiraginoSansGB-W3-61" transform="translate(159.299957 0.16875)"/>
     <use xlink:href="#HiraginoSansGB-W3-20" transform="translate(216.799942 0.16875)"/>
     <use xlink:href="#DejaVuSans-3d" transform="translate(269.582352 0.16875)"/>
     <use xlink:href="#DejaVuSans-31" transform="translate(372.853836 43.965625) scale(0.7)"/>
     <use xlink:href="#DejaVuSans-38" transform="translate(372.853836 -39.2375) scale(0.7)"/>
     <path d="M 372.853836 18.965625 
L 372.853836 25.215625 
L 417.389969 25.215625 
L 417.389969 18.965625 
L 372.853836 18.965625 
z
"/>
    </g>
   </g>
   <g id="patch_7">
    <path d="M 272.154658 202.40699 
Q 240.643509 227.949786 210.00089 252.788556 
" style="fill: none; stroke: #000000; stroke-linecap: round"/>
    <path d="M 214.804318 251.726914 
L 210.00089 252.788556 
L 212.033633 248.308828 
" style="fill: none; stroke: #000000; stroke-linecap: round"/>
   </g>
   <g id="text_10">
    <!-- $(0.5,\,0.3)$:  P $= 0$ -->
    <g transform="translate(236.502663 196.902554) scale(0.11 -0.11)">
     <defs>
      <path id="DejaVuSans-28" d="M 1984 4856 
Q 1566 4138 1362 3434 
Q 1159 2731 1159 2009 
Q 1159 1288 1364 580 
Q 1569 -128 1984 -844 
L 1484 -844 
Q 1016 -109 783 600 
Q 550 1309 550 2009 
Q 550 2706 781 3412 
Q 1013 4119 1484 4856 
L 1984 4856 
z
" transform="scale(0.015625)"/>
      <path id="DejaVuSans-30" d="M 2034 4250 
Q 1547 4250 1301 3770 
Q 1056 3291 1056 2328 
Q 1056 1369 1301 889 
Q 1547 409 2034 409 
Q 2525 409 2770 889 
Q 3016 1369 3016 2328 
Q 3016 3291 2770 3770 
Q 2525 4250 2034 4250 
z
M 2034 4750 
Q 2819 4750 3233 4129 
Q 3647 3509 3647 2328 
Q 3647 1150 3233 529 
Q 2819 -91 2034 -91 
Q 1250 -91 836 529 
Q 422 1150 422 2328 
Q 422 3509 836 4129 
Q 1250 4750 2034 4750 
z
" transform="scale(0.015625)"/>
      <path id="DejaVuSans-2e" d="M 684 794 
L 1344 794 
L 1344 0 
L 684 0 
L 684 794 
z
" transform="scale(0.015625)"/>
      <path id="DejaVuSans-35" d="M 691 4666 
L 3169 4666 
L 3169 4134 
L 1269 4134 
L 1269 2991 
Q 1406 3038 1543 3061 
Q 1681 3084 1819 3084 
Q 2600 3084 3056 2656 
Q 3513 2228 3513 1497 
Q 3513 744 3044 326 
Q 2575 -91 1722 -91 
Q 1428 -91 1123 -41 
Q 819 9 494 109 
L 494 744 
Q 775 591 1075 516 
Q 1375 441 1709 441 
Q 2250 441 2565 725 
Q 2881 1009 2881 1497 
Q 2881 1984 2565 2268 
Q 2250 2553 1709 2553 
Q 1456 2553 1204 2497 
Q 953 2441 691 2322 
L 691 4666 
z
" transform="scale(0.015625)"/>
      <path id="DejaVuSans-2c" d="M 750 794 
L 1409 794 
L 1409 256 
L 897 -744 
L 494 -744 
L 750 256 
L 750 794 
z
" transform="scale(0.015625)"/>
      <path id="DejaVuSans-33" d="M 2597 2516 
Q 3050 2419 3304 2112 
Q 3559 1806 3559 1356 
Q 3559 666 3084 287 
Q 2609 -91 1734 -91 
Q 1441 -91 1130 -33 
Q 819 25 488 141 
L 488 750 
Q 750 597 1062 519 
Q 1375 441 1716 441 
Q 2309 441 2620 675 
Q 2931 909 2931 1356 
Q 2931 1769 2642 2001 
Q 2353 2234 1838 2234 
L 1294 2234 
L 1294 2753 
L 1863 2753 
Q 2328 2753 2575 2939 
Q 2822 3125 2822 3475 
Q 2822 3834 2567 4026 
Q 2313 4219 1838 4219 
Q 1578 4219 1281 4162 
Q 984 4106 628 3988 
L 628 4550 
Q 988 4650 1302 4700 
Q 1616 4750 1894 4750 
Q 2613 4750 3031 4423 
Q 3450 4097 3450 3541 
Q 3450 3153 3228 2886 
Q 3006 2619 2597 2516 
z
" transform="scale(0.015625)"/>
      <path id="DejaVuSans-29" d="M 513 4856 
L 1013 4856 
Q 1481 4119 1714 3412 
Q 1947 2706 1947 2009 
Q 1947 1309 1714 600 
Q 1481 -109 1013 -844 
L 513 -844 
Q 928 -128 1133 580 
Q 1338 1288 1338 2009 
Q 1338 2731 1133 3434 
Q 928 4138 513 4856 
z
" transform="scale(0.015625)"/>
      <path id="HiraginoSansGB-W3-3a" d="M 1082 3488 
L 448 3488 
L 448 2854 
L 1082 2854 
L 1082 3488 
z
M 1082 38 
L 1082 672 
L 448 672 
L 448 38 
L 1082 38 
z
" transform="scale(0.015625)"/>
      <path id="HiraginoSansGB-W3-50" d="M 1094 38 
C 1056 256 1043 454 1043 762 
L 1043 2022 
L 2470 2022 
C 3469 2022 4045 2566 4045 3507 
C 4045 4397 3488 4902 2502 4902 
L 1197 4902 
C 902 4902 723 4909 493 4922 
C 531 4653 544 4454 544 4192 
L 544 755 
C 544 454 531 269 493 38 
L 1094 38 
z
M 1043 2464 
L 1043 4461 
L 2470 4461 
C 3162 4461 3533 4122 3533 3482 
C 3533 2829 3149 2464 2470 2464 
L 1043 2464 
z
" transform="scale(0.015625)"/>
     </defs>
     <use xlink:href="#DejaVuSans-28" transform="translate(0 0.09375)"/>
     <use xlink:href="#DejaVuSans-30" transform="translate(39.013672 0.09375)"/>
     <use xlink:href="#DejaVuSans-2e" transform="translate(102.636719 0.09375)"/>
     <use xlink:href="#DejaVuSans-35" transform="translate(134.423828 0.09375)"/>
     <use xlink:href="#DejaVuSans-2c" transform="translate(198.046875 0.09375)"/>
     <use xlink:href="#DejaVuSans-30" transform="translate(265.552083 0.09375)"/>
     <use xlink:href="#DejaVuSans-2e" transform="translate(329.175129 0.09375)"/>
     <use xlink:href="#DejaVuSans-33" transform="translate(360.962239 0.09375)"/>
     <use xlink:href="#DejaVuSans-29" transform="translate(424.585286 0.09375)"/>
     <use xlink:href="#HiraginoSansGB-W3-3a" transform="translate(463.598958 0.09375)"/>
     <use xlink:href="#HiraginoSansGB-W3-20" transform="translate(487.598942 0.09375)"/>
     <use xlink:href="#HiraginoSansGB-W3-20" transform="translate(520.89893 0.09375)"/>
     <use xlink:href="#HiraginoSansGB-W3-50" transform="translate(554.198918 0.09375)"/>
     <use xlink:href="#HiraginoSansGB-W3-20" transform="translate(620.398915 0.09375)"/>
     <use xlink:href="#DejaVuSans-3d" transform="translate(673.181324 0.09375)"/>
     <use xlink:href="#DejaVuSans-30" transform="translate(776.452809 0.09375)"/>
    </g>
   </g>
   <g id="text_11">
    <!-- Uniform law on $\Omega=[0,1]^2$:  $P(A)=\mathrm{area}(A)$ -->
    <g transform="translate(89.94875 17.35125) scale(0.12 -0.12)">
     <defs>
      <path id="HiraginoSansGB-W3-55" d="M 3866 4902 
C 3904 4678 3917 4486 3917 4166 
L 3917 1824 
C 3917 1414 3802 1056 3597 806 
C 3360 531 2970 378 2477 378 
C 1562 378 1037 902 1037 1824 
L 1037 4166 
C 1037 4506 1050 4698 1088 4902 
L 486 4902 
C 525 4678 538 4493 538 4166 
L 538 1805 
C 538 1242 698 781 1011 454 
C 1331 115 1843 -64 2470 -64 
C 3091 -64 3603 115 3923 442 
C 4243 774 4416 1242 4416 1805 
L 4416 4179 
C 4416 4499 4429 4678 4467 4902 
L 3866 4902 
z
" transform="scale(0.015625)"/>
      <path id="HiraginoSansGB-W3-6e" d="M 1030 38 
C 998 288 986 480 986 762 
L 986 1997 
C 1037 2253 1114 2413 1280 2630 
C 1549 2976 1837 3136 2195 3136 
C 2701 3136 2976 2829 2976 2253 
L 2976 762 
C 2976 480 2963 288 2931 38 
L 3507 38 
C 3475 250 3462 429 3462 755 
L 3462 2336 
C 3462 2650 3405 2886 3283 3072 
C 3078 3386 2720 3552 2259 3552 
C 1683 3552 1267 3302 966 2778 
C 986 2925 986 2976 986 3053 
L 986 3488 
L 454 3488 
C 493 3232 506 3053 506 2765 
L 506 762 
C 506 454 493 282 454 38 
L 1030 38 
z
" transform="scale(0.015625)"/>
      <path id="HiraginoSansGB-W3-69" d="M 448 4902 
L 448 4333 
L 1069 4333 
L 1069 4902 
L 448 4902 
z
M 467 3488 
C 499 3264 512 3072 512 2765 
L 512 762 
C 512 493 499 314 467 38 
L 1043 38 
C 1011 288 998 467 998 762 
L 998 2765 
C 998 3085 1011 3264 1043 3488 
L 467 3488 
z
" transform="scale(0.015625)"/>
      <path id="HiraginoSansGB-W3-66" d="M 915 3078 
L 915 762 
C 915 493 902 275 870 38 
L 1446 38 
C 1414 275 1402 454 1402 755 
L 1402 3078 
L 1722 3078 
C 2035 3078 2182 3072 2400 3040 
L 2400 3526 
C 2163 3494 1997 3488 1722 3488 
L 1402 3488 
L 1402 3840 
C 1402 4141 1427 4275 1498 4378 
C 1581 4493 1728 4550 1933 4550 
C 2131 4550 2291 4506 2464 4403 
L 2598 4832 
C 2368 4922 2170 4960 1920 4960 
C 1562 4960 1267 4845 1114 4646 
C 966 4461 915 4256 915 3866 
L 915 3488 
L 653 3488 
C 397 3488 243 3501 70 3526 
L 70 3040 
C 269 3066 429 3078 653 3078 
L 915 3078 
z
" transform="scale(0.015625)"/>
      <path id="HiraginoSansGB-W3-6f" d="M 2010 -45 
C 3040 -45 3706 672 3706 1766 
C 3706 2867 3046 3571 2003 3571 
C 960 3571 294 2867 294 1760 
C 294 653 960 -45 2010 -45 
z
M 2016 3168 
C 2752 3168 3213 2630 3213 1766 
C 3213 902 2752 371 2003 371 
C 1254 371 787 902 787 1773 
C 787 2637 1254 3168 2016 3168 
z
" transform="scale(0.015625)"/>
      <path id="HiraginoSansGB-W3-6d" d="M 1018 38 
C 986 294 973 467 973 762 
L 973 2016 
C 973 2182 1069 2483 1184 2656 
C 1382 2963 1690 3142 2022 3142 
C 2483 3142 2739 2835 2739 2272 
L 2739 762 
C 2739 435 2726 269 2694 38 
L 3270 38 
C 3238 256 3226 435 3226 755 
L 3226 2016 
C 3226 2208 3315 2490 3437 2675 
C 3622 2970 3923 3142 4243 3142 
C 4755 3142 4979 2880 4979 2272 
L 4979 762 
C 4979 422 4973 275 4934 38 
L 5510 38 
C 5478 262 5466 435 5466 755 
L 5466 2336 
C 5466 2714 5402 2963 5248 3168 
C 5056 3424 4736 3558 4314 3558 
C 3776 3558 3430 3354 3130 2861 
C 3066 3053 3027 3130 2931 3232 
C 2739 3450 2470 3558 2106 3558 
C 1734 3558 1421 3443 1203 3226 
C 1075 3091 1018 3014 960 2906 
C 966 3027 973 3104 973 3136 
L 973 3488 
L 454 3488 
C 486 3258 499 3085 499 2765 
L 499 762 
C 499 461 486 269 454 38 
L 1018 38 
z
" transform="scale(0.015625)"/>
      <path id="HiraginoSansGB-W3-6c" d="M 454 4902 
C 486 4672 499 4499 499 4186 
L 499 755 
C 499 467 486 269 454 38 
L 1030 38 
C 998 294 986 467 986 755 
L 986 4179 
C 986 4499 998 4672 1030 4902 
L 454 4902 
z
" transform="scale(0.015625)"/>
      <path id="HiraginoSansGB-W3-77" d="M 3782 38 
C 3808 166 3834 262 3917 518 
L 4608 2733 
C 4723 3098 4806 3354 4858 3488 
L 4275 3488 
C 4262 3302 4218 3066 4134 2790 
L 3654 1165 
C 3642 1126 3610 979 3552 730 
C 3539 774 3539 774 3514 870 
C 3488 960 3450 1101 3430 1158 
L 2816 3002 
C 2752 3194 2707 3373 2688 3488 
L 2259 3488 
C 2246 3373 2202 3194 2131 3002 
L 1523 1190 
C 1504 1133 1427 877 1389 730 
C 1344 954 1306 1088 1274 1197 
L 806 2790 
C 717 3072 672 3290 659 3488 
L 70 3488 
C 147 3270 250 2970 326 2733 
L 1011 525 
C 1114 211 1114 198 1152 38 
L 1600 38 
C 1619 147 1670 333 1734 518 
L 2355 2368 
C 2374 2432 2426 2605 2477 2784 
C 2541 2547 2573 2413 2586 2381 
L 3213 518 
C 3270 339 3315 173 3341 38 
L 3782 38 
z
" transform="scale(0.015625)"/>
      <path id="DejaVuSans-3a9" d="M 4647 556 
L 4647 0 
L 2772 0 
L 2772 556 
Q 3325 859 3634 1378 
Q 3944 1897 3944 2528 
Q 3944 3278 3531 3731 
Q 3119 4184 2444 4184 
Q 1769 4184 1355 3729 
Q 941 3275 941 2528 
Q 941 1897 1250 1378 
Q 1563 859 2119 556 
L 2119 0 
L 244 0 
L 244 556 
L 1241 556 
Q 747 991 519 1456 
Q 294 1922 294 2497 
Q 294 3491 894 4106 
Q 1491 4722 2444 4722 
Q 3391 4722 3994 4106 
Q 4594 3494 4594 2528 
Q 4594 1922 4372 1459 
Q 4150 997 3647 556 
L 4647 556 
z
" transform="scale(0.015625)"/>
      <path id="DejaVuSans-5b" d="M 550 4863 
L 1875 4863 
L 1875 4416 
L 1125 4416 
L 1125 -397 
L 1875 -397 
L 1875 -844 
L 550 -844 
L 550 4863 
z
" transform="scale(0.015625)"/>
      <path id="DejaVuSans-5d" d="M 1947 4863 
L 1947 -844 
L 622 -844 
L 622 -397 
L 1369 -397 
L 1369 4416 
L 622 4416 
L 622 4863 
L 1947 4863 
z
" transform="scale(0.015625)"/>
      <path id="DejaVuSans-Oblique-50" d="M 1081 4666 
L 2541 4666 
Q 3178 4666 3512 4369 
Q 3847 4072 3847 3500 
Q 3847 2731 3353 2303 
Q 2859 1875 1966 1875 
L 1172 1875 
L 806 0 
L 172 0 
L 1081 4666 
z
M 1613 4147 
L 1275 2394 
L 2069 2394 
Q 2606 2394 2893 2669 
Q 3181 2944 3181 3456 
Q 3181 3784 2986 3965 
Q 2791 4147 2438 4147 
L 1613 4147 
z
" transform="scale(0.015625)"/>
      <path id="DejaVuSans-Oblique-41" d="M 2356 4666 
L 3072 4666 
L 3938 0 
L 3278 0 
L 3084 1197 
L 984 1197 
L 325 0 
L -341 0 
L 2356 4666 
z
M 2584 4044 
L 1275 1722 
L 2988 1722 
L 2584 4044 
z
" transform="scale(0.015625)"/>
      <path id="DejaVuSans-61" d="M 2194 1759 
Q 1497 1759 1228 1600 
Q 959 1441 959 1056 
Q 959 750 1161 570 
Q 1363 391 1709 391 
Q 2188 391 2477 730 
Q 2766 1069 2766 1631 
L 2766 1759 
L 2194 1759 
z
M 3341 1997 
L 3341 0 
L 2766 0 
L 2766 531 
Q 2569 213 2275 61 
Q 1981 -91 1556 -91 
Q 1019 -91 701 211 
Q 384 513 384 1019 
Q 384 1609 779 1909 
Q 1175 2209 1959 2209 
L 2766 2209 
L 2766 2266 
Q 2766 2663 2505 2880 
Q 2244 3097 1772 3097 
Q 1472 3097 1187 3025 
Q 903 2953 641 2809 
L 641 3341 
Q 956 3463 1253 3523 
Q 1550 3584 1831 3584 
Q 2591 3584 2966 3190 
Q 3341 2797 3341 1997 
z
" transform="scale(0.015625)"/>
      <path id="DejaVuSans-72" d="M 2631 2963 
Q 2534 3019 2420 3045 
Q 2306 3072 2169 3072 
Q 1681 3072 1420 2755 
Q 1159 2438 1159 1844 
L 1159 0 
L 581 0 
L 581 3500 
L 1159 3500 
L 1159 2956 
Q 1341 3275 1631 3429 
Q 1922 3584 2338 3584 
Q 2397 3584 2469 3576 
Q 2541 3569 2628 3553 
L 2631 2963 
z
" transform="scale(0.015625)"/>
      <path id="DejaVuSans-65" d="M 3597 1894 
L 3597 1613 
L 953 1613 
Q 991 1019 1311 708 
Q 1631 397 2203 397 
Q 2534 397 2845 478 
Q 3156 559 3463 722 
L 3463 178 
Q 3153 47 2828 -22 
Q 2503 -91 2169 -91 
Q 1331 -91 842 396 
Q 353 884 353 1716 
Q 353 2575 817 3079 
Q 1281 3584 2069 3584 
Q 2775 3584 3186 3129 
Q 3597 2675 3597 1894 
z
M 3022 2063 
Q 3016 2534 2758 2815 
Q 2500 3097 2075 3097 
Q 1594 3097 1305 2825 
Q 1016 2553 972 2059 
L 3022 2063 
z
" transform="scale(0.015625)"/>
     </defs>
     <use xlink:href="#HiraginoSansGB-W3-55" transform="translate(0 0.765625)"/>
     <use xlink:href="#HiraginoSansGB-W3-6e" transform="translate(77.299988 0.765625)"/>
     <use xlink:href="#HiraginoSansGB-W3-69" transform="translate(139.099976 0.765625)"/>
     <use xlink:href="#HiraginoSansGB-W3-66" transform="translate(162.899963 0.765625)"/>
     <use xlink:href="#HiraginoSansGB-W3-6f" transform="translate(204.59996 0.765625)"/>
     <use xlink:href="#HiraginoSansGB-W3-72" transform="translate(267.099945 0.765625)"/>
     <use xlink:href="#HiraginoSansGB-W3-6d" transform="translate(310.09993 0.765625)"/>
     <use xlink:href="#HiraginoSansGB-W3-20" transform="translate(403.199921 0.765625)"/>
     <use xlink:href="#HiraginoSansGB-W3-6c" transform="translate(436.499908 0.765625)"/>
     <use xlink:href="#HiraginoSansGB-W3-61" transform="translate(459.699905 0.765625)"/>
     <use xlink:href="#HiraginoSansGB-W3-77" transform="translate(517.19989 0.765625)"/>
     <use xlink:href="#HiraginoSansGB-W3-20" transform="translate(594.199875 0.765625)"/>
     <use xlink:href="#HiraginoSansGB-W3-6f" transform="translate(627.499863 0.765625)"/>
     <use xlink:href="#HiraginoSansGB-W3-6e" transform="translate(689.999847 0.765625)"/>
     <use xlink:href="#HiraginoSansGB-W3-20" transform="translate(751.799835 0.765625)"/>
     <use xlink:href="#DejaVuSans-3a9" transform="translate(785.099823 0.765625)"/>
     <use xlink:href="#DejaVuSans-3d" transform="translate(880.99826 0.765625)"/>
     <use xlink:href="#DejaVuSans-5b" transform="translate(984.269745 0.765625)"/>
     <use xlink:href="#DejaVuSans-30" transform="translate(1023.283417 0.765625)"/>
     <use xlink:href="#DejaVuSans-2c" transform="translate(1086.906464 0.765625)"/>
     <use xlink:href="#DejaVuSans-31" transform="translate(1138.175995 0.765625)"/>
     <use xlink:href="#DejaVuSans-5d" transform="translate(1201.799042 0.765625)"/>
     <use xlink:href="#DejaVuSans-32" transform="translate(1241.769745 39.046875) scale(0.7)"/>
     <use xlink:href="#HiraginoSansGB-W3-3a" transform="translate(1289.040253 0.765625)"/>
     <use xlink:href="#HiraginoSansGB-W3-20" transform="translate(1313.040237 0.765625)"/>
     <use xlink:href="#HiraginoSansGB-W3-20" transform="translate(1346.340225 0.765625)"/>
     <use xlink:href="#DejaVuSans-Oblique-50" transform="translate(1379.640213 0.765625)"/>
     <use xlink:href="#DejaVuSans-28" transform="translate(1439.942947 0.765625)"/>
     <use xlink:href="#DejaVuSans-Oblique-41" transform="translate(1478.956619 0.765625)"/>
     <use xlink:href="#DejaVuSans-29" transform="translate(1547.364822 0.765625)"/>
     <use xlink:href="#DejaVuSans-3d" transform="translate(1605.860916 0.765625)"/>
     <use xlink:href="#DejaVuSans-61" transform="translate(1709.132401 0.765625)"/>
     <use xlink:href="#DejaVuSans-72" transform="translate(1770.411697 0.765625)"/>
     <use xlink:href="#DejaVuSans-65" transform="translate(1811.524979 0.765625)"/>
     <use xlink:href="#DejaVuSans-61" transform="translate(1873.048416 0.765625)"/>
     <use xlink:href="#DejaVuSans-28" transform="translate(1934.327713 0.765625)"/>
     <use xlink:href="#DejaVuSans-Oblique-41" transform="translate(1973.341385 0.765625)"/>
     <use xlink:href="#DejaVuSans-29" transform="translate(2041.749588 0.765625)"/>
    </g>
   </g>
  </g>
 </g>
 <defs>
  <clipPath id="p7a56aa84d4">
   <rect x="48.48875" y="23.35125" width="332.64" height="332.64"/>
  </clipPath>
 </defs>
</svg>
