<?xml version="1.0" encoding="UTF-8" standalone="no"?>
<!DOCTYPE svg PUBLIC "-//W3C//DTD SVG 1.1//EN"
 "http://www.w3.org/Graphics/SVG/1.1/DTD/svg11.dtd">
<!-- Generated by graphviz version 15.0.0 (20260523.1842)
 -->
<!-- Title: tree Pages: 1 -->
<svg width="168pt" height="854pt"
 viewBox="0.00 0.00 168.00 854.00" xmlns="http://www.w3.org/2000/svg" xmlns:xlink="http://www.w3.org/1999/xlink">
<g id="graph0" class="graph" transform="scale(1 1) rotate(0) translate(4 850)">
<title>tree</title>
<polygon fill="white" stroke="none" points="-4,4 -4,-850 163.84,-850 163.84,4 -4,4"/>
<!-- root -->
<g id="node1" class="node">
<title>root</title>
<ellipse fill="black" stroke="black" cx="4.32" cy="-423" rx="4.32" ry="4.32"/>
</g>
<!-- r1 -->
<g id="node2" class="node">
<title>r1</title>
<ellipse fill="none" stroke="black" cx="57.24" cy="-720" rx="12.6" ry="12.6"/>
<text xml:space="preserve" text-anchor="middle" x="57.24" y="-714.2" font-family="Helvetica,sans-Serif" font-size="14.00">1</text>
</g>
<!-- root&#45;&gt;r1 -->
<g id="edge1" class="edge">
<title>root&#45;&gt;r1</title>
<path fill="none" stroke="black" d="M6.04,-427.2C11.41,-458.5 45.22,-655.7 54.1,-707.53"/>
</g>
<!-- r2 -->
<g id="node7" class="node">
<title>r2</title>
<ellipse fill="none" stroke="black" cx="57.24" cy="-504" rx="12.6" ry="12.6"/>
<text xml:space="preserve" text-anchor="middle" x="57.24" y="-498.2" font-family="Helvetica,sans-Serif" font-size="14.00">2</text>
</g>
<!-- root&#45;&gt;r2 -->
<g id="edge6" class="edge">
<title>root&#45;&gt;r2</title>
<path fill="none" stroke="black" d="M7.51,-426.48C14.74,-437.99 38.08,-475.11 49.64,-493.49"/>
</g>
<!-- r3 -->
<g id="node12" class="node">
<title>r3</title>
<ellipse fill="none" stroke="black" cx="57.24" cy="-342" rx="12.6" ry="12.6"/>
<text xml:space="preserve" text-anchor="middle" x="57.24" y="-336.2" font-family="Helvetica,sans-Serif" font-size="14.00">3</text>
</g>
<!-- root&#45;&gt;r3 -->
<g id="edge11" class="edge">
<title>root&#45;&gt;r3</title>
<path fill="none" stroke="black" d="M7.51,-419.52C14.74,-408.01 38.08,-370.89 49.64,-352.51"/>
</g>
<!-- r4 -->
<g id="node17" class="node">
<title>r4</title>
<ellipse fill="none" stroke="black" cx="57.24" cy="-126" rx="12.6" ry="12.6"/>
<text xml:space="preserve" text-anchor="middle" x="57.24" y="-120.2" font-family="Helvetica,sans-Serif" font-size="14.00">4</text>
</g>
<!-- root&#45;&gt;r4 -->
<g id="edge16" class="edge">
<title>root&#45;&gt;r4</title>
<path fill="none" stroke="black" d="M6.04,-418.8C11.41,-387.5 45.22,-190.3 54.1,-138.47"/>
</g>
<!-- l11 -->
<g id="node3" class="node">
<title>l11</title>
<polygon fill="none" stroke="black" points="159.84,-846 105.84,-846 105.84,-810 159.84,-810 159.84,-846"/>
<text xml:space="preserve" text-anchor="middle" x="132.84" y="-822.2" font-family="Helvetica,sans-Serif" font-size="14.00">(1,1)</text>
</g>
<!-- r1&#45;&gt;l11 -->
<g id="edge2" class="edge">
<title>r1&#45;&gt;l11</title>
<path fill="none" stroke="black" d="M63.78,-731.26C71.95,-747.4 88.2,-777.74 105.84,-801 108.04,-803.9 110.53,-806.83 113.06,-809.63"/>
</g>
<!-- l12 -->
<g id="node4" class="node">
<title>l12</title>
<polygon fill="none" stroke="black" points="159.84,-792 105.84,-792 105.84,-756 159.84,-756 159.84,-792"/>
<text xml:space="preserve" text-anchor="middle" x="132.84" y="-768.2" font-family="Helvetica,sans-Serif" font-size="14.00">(1,2)</text>
</g>
<!-- r1&#45;&gt;l12 -->
<g id="edge3" class="edge">
<title>r1&#45;&gt;l12</title>
<path fill="none" stroke="black" d="M67.86,-727.06C77.68,-734.26 93.33,-745.75 106.7,-755.55"/>
</g>
<!-- l13 -->
<g id="node5" class="node">
<title>l13</title>
<polygon fill="none" stroke="black" points="159.84,-738 105.84,-738 105.84,-702 159.84,-702 159.84,-738"/>
<text xml:space="preserve" text-anchor="middle" x="132.84" y="-714.2" font-family="Helvetica,sans-Serif" font-size="14.00">(1,3)</text>
</g>
<!-- r1&#45;&gt;l13 -->
<g id="edge4" class="edge">
<title>r1&#45;&gt;l13</title>
<path fill="none" stroke="black" d="M70.07,-720C79.57,-720 93.29,-720 105.39,-720"/>
</g>
<!-- l14 -->
<g id="node6" class="node">
<title>l14</title>
<polygon fill="none" stroke="black" points="159.84,-684 105.84,-684 105.84,-648 159.84,-648 159.84,-684"/>
<text xml:space="preserve" text-anchor="middle" x="132.84" y="-660.2" font-family="Helvetica,sans-Serif" font-size="14.00">(1,4)</text>
</g>
<!-- r1&#45;&gt;l14 -->
<g id="edge5" class="edge">
<title>r1&#45;&gt;l14</title>
<path fill="none" stroke="black" d="M67.86,-712.94C77.68,-705.74 93.33,-694.25 106.7,-684.45"/>
</g>
<!-- l21 -->
<g id="node8" class="node">
<title>l21</title>
<polygon fill="none" stroke="black" points="159.84,-630 105.84,-630 105.84,-594 159.84,-594 159.84,-630"/>
<text xml:space="preserve" text-anchor="middle" x="132.84" y="-606.2" font-family="Helvetica,sans-Serif" font-size="14.00">(2,1)</text>
</g>
<!-- r2&#45;&gt;l21 -->
<g id="edge7" class="edge">
<title>r2&#45;&gt;l21</title>
<path fill="none" stroke="black" d="M63.78,-515.26C71.95,-531.4 88.2,-561.74 105.84,-585 108.04,-587.9 110.53,-590.83 113.06,-593.63"/>
</g>
<!-- l22 -->
<g id="node9" class="node">
<title>l22</title>
<polygon fill="none" stroke="black" points="159.84,-576 105.84,-576 105.84,-540 159.84,-540 159.84,-576"/>
<text xml:space="preserve" text-anchor="middle" x="132.84" y="-552.2" font-family="Helvetica,sans-Serif" font-size="14.00">(2,2)</text>
</g>
<!-- r2&#45;&gt;l22 -->
<g id="edge8" class="edge">
<title>r2&#45;&gt;l22</title>
<path fill="none" stroke="black" d="M67.86,-511.06C77.68,-518.26 93.33,-529.75 106.7,-539.55"/>
</g>
<!-- l23 -->
<g id="node10" class="node">
<title>l23</title>
<polygon fill="#ffe08a" stroke="black" points="159.84,-522 105.84,-522 105.84,-486 159.84,-486 159.84,-522"/>
<text xml:space="preserve" text-anchor="middle" x="132.84" y="-498.2" font-family="Helvetica,sans-Serif" font-size="14.00">(2,3)</text>
</g>
<!-- r2&#45;&gt;l23 -->
<g id="edge9" class="edge">
<title>r2&#45;&gt;l23</title>
<path fill="none" stroke="#c0392b" stroke-width="2" d="M70.07,-504C79.57,-504 93.29,-504 105.39,-504"/>
</g>
<!-- l24 -->
<g id="node11" class="node">
<title>l24</title>
<polygon fill="none" stroke="black" points="159.84,-468 105.84,-468 105.84,-432 159.84,-432 159.84,-468"/>
<text xml:space="preserve" text-anchor="middle" x="132.84" y="-444.2" font-family="Helvetica,sans-Serif" font-size="14.00">(2,4)</text>
</g>
<!-- r2&#45;&gt;l24 -->
<g id="edge10" class="edge">
<title>r2&#45;&gt;l24</title>
<path fill="none" stroke="black" d="M67.86,-496.94C77.68,-489.74 93.33,-478.25 106.7,-468.45"/>
</g>
<!-- l31 -->
<g id="node13" class="node">
<title>l31</title>
<polygon fill="none" stroke="black" points="159.84,-414 105.84,-414 105.84,-378 159.84,-378 159.84,-414"/>
<text xml:space="preserve" text-anchor="middle" x="132.84" y="-390.2" font-family="Helvetica,sans-Serif" font-size="14.00">(3,1)</text>
</g>
<!-- r3&#45;&gt;l31 -->
<g id="edge12" class="edge">
<title>r3&#45;&gt;l31</title>
<path fill="none" stroke="black" d="M67.86,-349.06C77.68,-356.26 93.33,-367.75 106.7,-377.55"/>
</g>
<!-- l32 -->
<g id="node14" class="node">
<title>l32</title>
<polygon fill="none" stroke="black" points="159.84,-360 105.84,-360 105.84,-324 159.84,-324 159.84,-360"/>
<text xml:space="preserve" text-anchor="middle" x="132.84" y="-336.2" font-family="Helvetica,sans-Serif" font-size="14.00">(3,2)</text>
</g>
<!-- r3&#45;&gt;l32 -->
<g id="edge13" class="edge">
<title>r3&#45;&gt;l32</title>
<path fill="none" stroke="black" d="M70.07,-342C79.57,-342 93.29,-342 105.39,-342"/>
</g>
<!-- l33 -->
<g id="node15" class="node">
<title>l33</title>
<polygon fill="none" stroke="black" points="159.84,-306 105.84,-306 105.84,-270 159.84,-270 159.84,-306"/>
<text xml:space="preserve" text-anchor="middle" x="132.84" y="-282.2" font-family="Helvetica,sans-Serif" font-size="14.00">(3,3)</text>
</g>
<!-- r3&#45;&gt;l33 -->
<g id="edge14" class="edge">
<title>r3&#45;&gt;l33</title>
<path fill="none" stroke="black" d="M67.86,-334.94C77.68,-327.74 93.33,-316.25 106.7,-306.45"/>
</g>
<!-- l34 -->
<g id="node16" class="node">
<title>l34</title>
<polygon fill="none" stroke="black" points="159.84,-252 105.84,-252 105.84,-216 159.84,-216 159.84,-252"/>
<text xml:space="preserve" text-anchor="middle" x="132.84" y="-228.2" font-family="Helvetica,sans-Serif" font-size="14.00">(3,4)</text>
</g>
<!-- r3&#45;&gt;l34 -->
<g id="edge15" class="edge">
<title>r3&#45;&gt;l34</title>
<path fill="none" stroke="black" d="M63.78,-330.74C71.95,-314.6 88.2,-284.26 105.84,-261 108.04,-258.1 110.53,-255.17 113.06,-252.37"/>
</g>
<!-- l41 -->
<g id="node18" class="node">
<title>l41</title>
<polygon fill="none" stroke="black" points="159.84,-198 105.84,-198 105.84,-162 159.84,-162 159.84,-198"/>
<text xml:space="preserve" text-anchor="middle" x="132.84" y="-174.2" font-family="Helvetica,sans-Serif" font-size="14.00">(4,1)</text>
</g>
<!-- r4&#45;&gt;l41 -->
<g id="edge17" class="edge">
<title>r4&#45;&gt;l41</title>
<path fill="none" stroke="black" d="M67.86,-133.06C77.68,-140.26 93.33,-151.75 106.7,-161.55"/>
</g>
<!-- l42 -->
<g id="node19" class="node">
<title>l42</title>
<polygon fill="none" stroke="black" points="159.84,-144 105.84,-144 105.84,-108 159.84,-108 159.84,-144"/>
<text xml:space="preserve" text-anchor="middle" x="132.84" y="-120.2" font-family="Helvetica,sans-Serif" font-size="14.00">(4,2)</text>
</g>
<!-- r4&#45;&gt;l42 -->
<g id="edge18" class="edge">
<title>r4&#45;&gt;l42</title>
<path fill="none" stroke="black" d="M70.07,-126C79.57,-126 93.29,-126 105.39,-126"/>
</g>
<!-- l43 -->
<g id="node20" class="node">
<title>l43</title>
<polygon fill="none" stroke="black" points="159.84,-90 105.84,-90 105.84,-54 159.84,-54 159.84,-90"/>
<text xml:space="preserve" text-anchor="middle" x="132.84" y="-66.2" font-family="Helvetica,sans-Serif" font-size="14.00">(4,3)</text>
</g>
<!-- r4&#45;&gt;l43 -->
<g id="edge19" class="edge">
<title>r4&#45;&gt;l43</title>
<path fill="none" stroke="black" d="M67.86,-118.94C77.68,-111.74 93.33,-100.25 106.7,-90.45"/>
</g>
<!-- l44 -->
<g id="node21" class="node">
<title>l44</title>
<polygon fill="none" stroke="black" points="159.84,-36 105.84,-36 105.84,0 159.84,0 159.84,-36"/>
<text xml:space="preserve" text-anchor="middle" x="132.84" y="-12.2" font-family="Helvetica,sans-Serif" font-size="14.00">(4,4)</text>
</g>
<!-- r4&#45;&gt;l44 -->
<g id="edge20" class="edge">
<title>r4&#45;&gt;l44</title>
<path fill="none" stroke="black" d="M63.78,-114.74C71.95,-98.6 88.2,-68.26 105.84,-45 108.04,-42.1 110.53,-39.17 113.06,-36.37"/>
</g>
</g>
</svg>
