<?xml version="1.0" encoding="utf-8" standalone="no"?>
<!DOCTYPE svg PUBLIC "-//W3C//DTD SVG 1.1//EN"
  "http://www.w3.org/Graphics/SVG/1.1/DTD/svg11.dtd">
<svg xmlns:xlink="http://www.w3.org/1999/xlink" width="679.331026pt" height="332.39952pt" viewBox="0 0 679.331026 332.39952" xmlns="http://www.w3.org/2000/svg" version="1.1">
 <metadata>
  <rdf:RDF xmlns:dc="http://purl.org/dc/elements/1.1/" xmlns:cc="http://creativecommons.org/ns#" xmlns:rdf="http://www.w3.org/1999/02/22-rdf-syntax-ns#">
   <cc:Work>
    <dc:type rdf:resource="http://purl.org/dc/dcmitype/StillImage"/>
    <dc:format>image/svg+xml</dc:format>
    <dc:creator>
     <cc:Agent>
      <dc:title>Matplotlib v3.11.0, https://matplotlib.org/</dc:title>
     </cc:Agent>
    </dc:creator>
   </cc:Work>
  </rdf:RDF>
 </metadata>
 <defs>
  <style type="text/css">*{stroke-linejoin: round; stroke-linecap: butt}</style>
 </defs>
 <g id="figure_1">
  <g id="patch_1">
   <path d="M 0 332.39952 
L 679.331026 332.39952 
L 679.331026 0 
L 0 0 
z
" style="fill: #ffffff"/>
  </g>
  <g id="axes_1">
   <g id="patch_2">
    <path d="M 45.355625 289.503895 
L 277.587533 289.503895 
L 277.587533 25.24 
L 45.355625 25.24 
z
" style="fill: #ffffff"/>
   </g>
   <g id="matplotlib.axis_1">
    <g id="xtick_1">
     <g id="line2d_1">
      <path d="M 53.363622 289.503895 
L 53.363622 25.24 
" clip-path="url(#p3b457348a6)" style="fill: none; stroke: #dddddd; stroke-width: 0.7; stroke-linecap: square"/>
     </g>
     <g id="line2d_2">
      <defs>
       <path id="mbc1c3fbf6b" d="M 0 0 
L 0 3.5 
" style="stroke: #000000; stroke-width: 0.8"/>
      </defs>
      <g>
       <use xlink:href="#mbc1c3fbf6b" x="53.363622" y="289.503895" style="stroke: #000000; stroke-width: 0.8"/>
      </g>
     </g>
     <g id="text_1">
      <!-- -3 -->
      <g transform="translate(46.133622 306.823895) scale(0.12 -0.12)">
       <defs>
        <path id="PingFangSC-Regular-10" d="M 320 1875 
L 320 1440 
L 3552 1440 
L 3552 1875 
L 320 1875 
z
" transform="scale(0.015625)"/>
        <path id="PingFangSC-Regular-16" d="M 1965 4659 
C 1530 4659 1178 4538 909 4288 
C 627 4038 461 3693 422 3251 
L 941 3251 
C 973 3558 1075 3795 1254 3962 
C 1427 4128 1664 4205 1971 4205 
C 2266 4205 2502 4134 2669 3981 
C 2822 3840 2906 3642 2906 3386 
C 2906 3130 2822 2931 2662 2790 
C 2502 2656 2272 2586 1965 2586 
L 1613 2586 
L 1613 2176 
L 1984 2176 
C 2304 2176 2547 2106 2726 1952 
C 2906 1798 2995 1587 2995 1312 
C 2995 1043 2899 819 2720 640 
C 2522 454 2259 358 1933 358 
C 1645 358 1408 442 1216 595 
C 992 781 870 1056 858 1414 
L 326 1414 
C 365 902 544 512 870 243 
C 1146 26 1498 -90 1933 -90 
C 2406 -90 2790 45 3085 314 
C 3373 576 3520 915 3520 1331 
C 3520 1600 3443 1824 3290 2003 
C 3149 2182 2944 2310 2675 2394 
C 3174 2560 3424 2906 3424 3418 
C 3424 3802 3290 4102 3027 4326 
C 2758 4550 2400 4659 1965 4659 
z
" transform="scale(0.015625)"/>
       </defs>
       <use xlink:href="#PingFangSC-Regular-10"/>
       <use xlink:href="#PingFangSC-Regular-16" transform="translate(60.5 0)"/>
      </g>
     </g>
    </g>
    <g id="xtick_2">
     <g id="line2d_3">
      <path d="M 93.403606 289.503895 
L 93.403606 25.24 
" clip-path="url(#p3b457348a6)" style="fill: none; stroke: #dddddd; stroke-width: 0.7; stroke-linecap: square"/>
     </g>
     <g id="line2d_4">
      <g>
       <use xlink:href="#mbc1c3fbf6b" x="93.403606" y="289.503895" style="stroke: #000000; stroke-width: 0.8"/>
      </g>
     </g>
     <g id="text_2">
      <!-- -2 -->
      <g transform="translate(86.173606 306.823895) scale(0.12 -0.12)">
       <defs>
        <path id="PingFangSC-Regular-15" d="M 1984 4659 
C 1523 4659 1146 4506 864 4198 
C 582 3898 435 3488 435 2976 
L 960 2976 
C 966 3379 1062 3686 1242 3891 
C 1408 4109 1651 4211 1965 4211 
C 2259 4211 2496 4134 2662 3981 
C 2829 3827 2912 3616 2912 3334 
C 2912 3040 2790 2765 2560 2515 
C 2438 2387 2202 2202 1843 1946 
C 1357 1613 1030 1338 851 1133 
C 544 794 397 416 397 0 
L 3443 0 
L 3443 467 
L 1043 467 
C 1126 774 1459 1126 2042 1517 
C 2515 1837 2829 2086 2989 2253 
C 3283 2573 3437 2931 3437 3328 
C 3437 3725 3296 4051 3027 4294 
C 2752 4538 2406 4659 1984 4659 
z
" transform="scale(0.015625)"/>
       </defs>
       <use xlink:href="#PingFangSC-Regular-10"/>
       <use xlink:href="#PingFangSC-Regular-15" transform="translate(60.5 0)"/>
      </g>
     </g>
    </g>
    <g id="xtick_3">
     <g id="line2d_5">
      <path d="M 133.44359 289.503895 
L 133.44359 25.24 
" clip-path="url(#p3b457348a6)" style="fill: none; stroke: #dddddd; stroke-width: 0.7; stroke-linecap: square"/>
     </g>
     <g id="line2d_6">
      <g>
       <use xlink:href="#mbc1c3fbf6b" x="133.44359" y="289.503895" style="stroke: #000000; stroke-width: 0.8"/>
      </g>
     </g>
     <g id="text_3">
      <!-- -1 -->
      <g transform="translate(127.407965 306.823895) scale(0.12 -0.12)">
       <defs>
        <path id="PingFangSC-Regular-14" d="M 1472 4570 
C 1318 4397 1139 4243 922 4102 
C 704 3974 486 3885 282 3827 
L 282 3302 
C 710 3430 1069 3635 1357 3930 
L 1357 0 
L 1882 0 
L 1882 4570 
L 1472 4570 
z
" transform="scale(0.015625)"/>
       </defs>
       <use xlink:href="#PingFangSC-Regular-10"/>
       <use xlink:href="#PingFangSC-Regular-14" transform="translate(60.5 0)"/>
      </g>
     </g>
    </g>
    <g id="xtick_4">
     <g id="line2d_7">
      <path d="M 173.483574 289.503895 
L 173.483574 25.24 
" clip-path="url(#p3b457348a6)" style="fill: none; stroke: #dddddd; stroke-width: 0.7; stroke-linecap: square"/>
     </g>
     <g id="line2d_8">
      <g>
       <use xlink:href="#mbc1c3fbf6b" x="173.483574" y="289.503895" style="stroke: #000000; stroke-width: 0.8"/>
      </g>
     </g>
     <g id="text_4">
      <!-- 0 -->
      <g transform="translate(169.883574 306.823895) scale(0.12 -0.12)">
       <defs>
        <path id="PingFangSC-Regular-13" d="M 1920 4659 
C 1370 4659 960 4422 685 3936 
C 442 3526 320 2976 320 2285 
C 320 1594 442 1043 685 634 
C 960 154 1370 -90 1920 -90 
C 2464 -90 2874 154 3155 634 
C 3398 1043 3520 1594 3520 2285 
C 3520 2976 3398 3526 3155 3936 
C 2874 4422 2464 4659 1920 4659 
z
M 1920 4211 
C 2330 4211 2624 3994 2803 3552 
C 2931 3245 3002 2822 3002 2285 
C 3002 1754 2931 1331 2803 1018 
C 2624 582 2330 358 1920 358 
C 1510 358 1216 582 1037 1018 
C 909 1331 845 1754 845 2285 
C 845 2822 909 3245 1037 3552 
C 1216 3994 1510 4211 1920 4211 
z
" transform="scale(0.015625)"/>
       </defs>
       <use xlink:href="#PingFangSC-Regular-13"/>
      </g>
     </g>
    </g>
    <g id="xtick_5">
     <g id="line2d_9">
      <path d="M 213.523558 289.503895 
L 213.523558 25.24 
" clip-path="url(#p3b457348a6)" style="fill: none; stroke: #dddddd; stroke-width: 0.7; stroke-linecap: square"/>
     </g>
     <g id="line2d_10">
      <g>
       <use xlink:href="#mbc1c3fbf6b" x="213.523558" y="289.503895" style="stroke: #000000; stroke-width: 0.8"/>
      </g>
     </g>
     <g id="text_5">
      <!-- 1 -->
      <g transform="translate(211.117933 306.823895) scale(0.12 -0.12)">
       <use xlink:href="#PingFangSC-Regular-14"/>
      </g>
     </g>
    </g>
    <g id="xtick_6">
     <g id="line2d_11">
      <path d="M 253.563542 289.503895 
L 253.563542 25.24 
" clip-path="url(#p3b457348a6)" style="fill: none; stroke: #dddddd; stroke-width: 0.7; stroke-linecap: square"/>
     </g>
     <g id="line2d_12">
      <g>
       <use xlink:href="#mbc1c3fbf6b" x="253.563542" y="289.503895" style="stroke: #000000; stroke-width: 0.8"/>
      </g>
     </g>
     <g id="text_6">
      <!-- 2 -->
      <g transform="translate(249.963542 306.823895) scale(0.12 -0.12)">
       <use xlink:href="#PingFangSC-Regular-15"/>
      </g>
     </g>
    </g>
    <g id="text_7">
     <!-- x -->
     <g transform="translate(158.417204 322.823895) scale(0.12 -0.12)">
      <defs>
       <path id="PingFangSC-Regular-5b" d="M 173 3309 
L 1344 1754 
L 32 0 
L 640 0 
L 1632 1376 
L 2618 0 
L 3226 0 
L 1914 1754 
L 3085 3309 
L 2483 3309 
L 1632 2131 
L 774 3309 
L 173 3309 
z
" transform="scale(0.015625)"/>
      </defs>
      <use xlink:href="#PingFangSC-Regular-5b"/>
     </g>
    </g>
   </g>
   <g id="matplotlib.axis_2">
    <g id="ytick_1">
     <g id="line2d_13">
      <path d="M 45.355625 273.487901 
L 277.587533 273.487901 
" clip-path="url(#p3b457348a6)" style="fill: none; stroke: #dddddd; stroke-width: 0.7; stroke-linecap: square"/>
     </g>
     <g id="line2d_14">
      <defs>
       <path id="m8ddfac53c4" d="M 0 0 
L -3.5 0 
" style="stroke: #000000; stroke-width: 0.8"/>
      </defs>
      <g>
       <use xlink:href="#m8ddfac53c4" x="45.355625" y="273.487901" style="stroke: #000000; stroke-width: 0.8"/>
      </g>
     </g>
     <g id="text_8">
      <!-- -2 -->
      <g transform="translate(23.895625 278.647901) scale(0.12 -0.12)">
       <use xlink:href="#PingFangSC-Regular-10"/>
       <use xlink:href="#PingFangSC-Regular-15" transform="translate(60.5 0)"/>
      </g>
     </g>
    </g>
    <g id="ytick_2">
     <g id="line2d_15">
      <path d="M 45.355625 233.447917 
L 277.587533 233.447917 
" clip-path="url(#p3b457348a6)" style="fill: none; stroke: #dddddd; stroke-width: 0.7; stroke-linecap: square"/>
     </g>
     <g id="line2d_16">
      <g>
       <use xlink:href="#m8ddfac53c4" x="45.355625" y="233.447917" style="stroke: #000000; stroke-width: 0.8"/>
      </g>
     </g>
     <g id="text_9">
      <!-- -1 -->
      <g transform="translate(26.284375 238.607917) scale(0.12 -0.12)">
       <use xlink:href="#PingFangSC-Regular-10"/>
       <use xlink:href="#PingFangSC-Regular-14" transform="translate(60.5 0)"/>
      </g>
     </g>
    </g>
    <g id="ytick_3">
     <g id="line2d_17">
      <path d="M 45.355625 193.407933 
L 277.587533 193.407933 
" clip-path="url(#p3b457348a6)" style="fill: none; stroke: #dddddd; stroke-width: 0.7; stroke-linecap: square"/>
     </g>
     <g id="line2d_18">
      <g>
       <use xlink:href="#m8ddfac53c4" x="45.355625" y="193.407933" style="stroke: #000000; stroke-width: 0.8"/>
      </g>
     </g>
     <g id="text_10">
      <!-- 0 -->
      <g transform="translate(31.155625 198.567933) scale(0.12 -0.12)">
       <use xlink:href="#PingFangSC-Regular-13"/>
      </g>
     </g>
    </g>
    <g id="ytick_4">
     <g id="line2d_19">
      <path d="M 45.355625 153.367949 
L 277.587533 153.367949 
" clip-path="url(#p3b457348a6)" style="fill: none; stroke: #dddddd; stroke-width: 0.7; stroke-linecap: square"/>
     </g>
     <g id="line2d_20">
      <g>
       <use xlink:href="#m8ddfac53c4" x="45.355625" y="153.367949" style="stroke: #000000; stroke-width: 0.8"/>
      </g>
     </g>
     <g id="text_11">
      <!-- 1 -->
      <g transform="translate(33.544375 158.527949) scale(0.12 -0.12)">
       <use xlink:href="#PingFangSC-Regular-14"/>
      </g>
     </g>
    </g>
    <g id="ytick_5">
     <g id="line2d_21">
      <path d="M 45.355625 113.327965 
L 277.587533 113.327965 
" clip-path="url(#p3b457348a6)" style="fill: none; stroke: #dddddd; stroke-width: 0.7; stroke-linecap: square"/>
     </g>
     <g id="line2d_22">
      <g>
       <use xlink:href="#m8ddfac53c4" x="45.355625" y="113.327965" style="stroke: #000000; stroke-width: 0.8"/>
      </g>
     </g>
     <g id="text_12">
      <!-- 2 -->
      <g transform="translate(31.155625 118.487965) scale(0.12 -0.12)">
       <use xlink:href="#PingFangSC-Regular-15"/>
      </g>
     </g>
    </g>
    <g id="ytick_6">
     <g id="line2d_23">
      <path d="M 45.355625 73.287981 
L 277.587533 73.287981 
" clip-path="url(#p3b457348a6)" style="fill: none; stroke: #dddddd; stroke-width: 0.7; stroke-linecap: square"/>
     </g>
     <g id="line2d_24">
      <g>
       <use xlink:href="#m8ddfac53c4" x="45.355625" y="73.287981" style="stroke: #000000; stroke-width: 0.8"/>
      </g>
     </g>
     <g id="text_13">
      <!-- 3 -->
      <g transform="translate(31.155625 78.447981) scale(0.12 -0.12)">
       <use xlink:href="#PingFangSC-Regular-16"/>
      </g>
     </g>
    </g>
    <g id="ytick_7">
     <g id="line2d_25">
      <path d="M 45.355625 33.247997 
L 277.587533 33.247997 
" clip-path="url(#p3b457348a6)" style="fill: none; stroke: #dddddd; stroke-width: 0.7; stroke-linecap: square"/>
     </g>
     <g id="line2d_26">
      <g>
       <use xlink:href="#m8ddfac53c4" x="45.355625" y="33.247997" style="stroke: #000000; stroke-width: 0.8"/>
      </g>
     </g>
     <g id="text_14">
      <!-- 4 -->
      <g transform="translate(31.155625 38.407997) scale(0.12 -0.12)">
       <defs>
        <path id="PingFangSC-Regular-17" d="M 2458 4570 
L 154 1536 
L 154 1037 
L 2451 1037 
L 2451 0 
L 2950 0 
L 2950 1037 
L 3693 1037 
L 3693 1466 
L 2950 1466 
L 2950 4570 
L 2458 4570 
z
M 2432 3885 
L 2451 3885 
L 2451 1466 
L 595 1466 
L 2432 3885 
z
" transform="scale(0.015625)"/>
       </defs>
       <use xlink:href="#PingFangSC-Regular-17"/>
      </g>
     </g>
    </g>
    <g id="text_15">
     <!-- y -->
     <g transform="translate(17.52 160.347573) rotate(-90) scale(0.12 -0.12)">
      <defs>
       <path id="PingFangSC-Regular-5c" d="M 32 3309 
L 1344 77 
L 774 -1267 
L 1331 -1267 
L 3142 3309 
L 2579 3309 
L 1600 698 
L 589 3309 
L 32 3309 
z
" transform="scale(0.015625)"/>
      </defs>
      <use xlink:href="#PingFangSC-Regular-5c"/>
     </g>
    </g>
   </g>
   <g id="line2d_27">
    <path d="M 103.487781 333.39952 
L 270.687541 -1 
L 270.687541 -1 
" clip-path="url(#p3b457348a6)" style="fill: none; stroke: #2f6f9f; stroke-width: 2.2; stroke-linecap: square"/>
   </g>
   <g id="line2d_28">
    <path d="M 45.355625 197.411932 
L 277.587533 81.295978 
L 277.587533 81.295978 
" clip-path="url(#p3b457348a6)" style="fill: none; stroke: #b65f2a; stroke-width: 2.2; stroke-linecap: square"/>
   </g>
   <g id="line2d_29">
    <path d="M 45.355625 193.407933 
L 277.587533 193.407933 
" clip-path="url(#p3b457348a6)" style="fill: none; stroke: #555555; stroke-width: 0.8; stroke-linecap: square"/>
   </g>
   <g id="line2d_30">
    <path d="M 173.483574 289.503895 
L 173.483574 25.24 
" clip-path="url(#p3b457348a6)" style="fill: none; stroke: #555555; stroke-width: 0.8; stroke-linecap: square"/>
   </g>
   <g id="patch_3">
    <path d="M 45.355625 289.503895 
L 45.355625 25.24 
" style="fill: none; stroke: #000000; stroke-width: 0.8; stroke-linejoin: miter; stroke-linecap: square"/>
   </g>
   <g id="patch_4">
    <path d="M 45.355625 289.503895 
L 277.587533 289.503895 
" style="fill: none; stroke: #000000; stroke-width: 0.8; stroke-linejoin: miter; stroke-linecap: square"/>
   </g>
   <g id="text_16">
    <!-- $(1,2)$ -->
    <g transform="translate(219.529556 99.313971) scale(0.11 -0.11)">
     <defs>
      <path id="DejaVuSans-b" d="M 1984 4856 
Q 1566 4138 1362 3434 
Q 1159 2731 1159 2009 
Q 1159 1288 1364 580 
Q 1569 -128 1984 -844 
L 1484 -844 
Q 1016 -109 783 600 
Q 550 1309 550 2009 
Q 550 2706 781 3412 
Q 1013 4119 1484 4856 
L 1984 4856 
z
" transform="scale(0.015625)"/>
      <path id="DejaVuSans-14" d="M 794 531 
L 1825 531 
L 1825 4091 
L 703 3866 
L 703 4441 
L 1819 4666 
L 2450 4666 
L 2450 531 
L 3481 531 
L 3481 0 
L 794 0 
L 794 531 
z
" transform="scale(0.015625)"/>
      <path id="DejaVuSans-f" d="M 750 794 
L 1409 794 
L 1409 256 
L 897 -744 
L 494 -744 
L 750 256 
L 750 794 
z
" transform="scale(0.015625)"/>
      <path id="DejaVuSans-15" d="M 1228 531 
L 3431 531 
L 3431 0 
L 469 0 
L 469 531 
Q 828 903 1448 1529 
Q 2069 2156 2228 2338 
Q 2531 2678 2651 2914 
Q 2772 3150 2772 3378 
Q 2772 3750 2511 3984 
Q 2250 4219 1831 4219 
Q 1534 4219 1204 4116 
Q 875 4013 500 3803 
L 500 4441 
Q 881 4594 1212 4672 
Q 1544 4750 1819 4750 
Q 2544 4750 2975 4387 
Q 3406 4025 3406 3419 
Q 3406 3131 3298 2873 
Q 3191 2616 2906 2266 
Q 2828 2175 2409 1742 
Q 1991 1309 1228 531 
z
" transform="scale(0.015625)"/>
      <path id="DejaVuSans-c" d="M 513 4856 
L 1013 4856 
Q 1481 4119 1714 3412 
Q 1947 2706 1947 2009 
Q 1947 1309 1714 600 
Q 1481 -109 1013 -844 
L 513 -844 
Q 928 -128 1133 580 
Q 1338 1288 1338 2009 
Q 1338 2731 1133 3434 
Q 928 4138 513 4856 
z
" transform="scale(0.015625)"/>
     </defs>
     <use xlink:href="#DejaVuSans-b" transform="translate(0 0.125)"/>
     <use xlink:href="#DejaVuSans-14" transform="translate(39.013672 0.125)"/>
     <use xlink:href="#DejaVuSans-f" transform="translate(102.636719 0.125)"/>
     <use xlink:href="#DejaVuSans-15" transform="translate(153.90625 0.125)"/>
     <use xlink:href="#DejaVuSans-c" transform="translate(217.529297 0.125)"/>
    </g>
   </g>
   <g id="text_17">
    <!-- Row picture: intersection of lines -->
    <g transform="translate(53.961423 19.24) scale(0.14 -0.14)">
     <defs>
      <path id="PingFangSC-Regular-35" d="M 461 4570 
L 461 0 
L 986 0 
L 986 1965 
L 2368 1965 
C 2656 1965 2874 1914 3027 1798 
C 3194 1683 3290 1485 3315 1216 
L 3373 608 
C 3392 352 3456 154 3558 0 
L 4128 0 
C 3994 166 3910 390 3885 672 
L 3814 1376 
C 3763 1837 3520 2112 3085 2208 
L 3085 2221 
C 3347 2285 3552 2413 3706 2618 
C 3846 2816 3917 3040 3917 3296 
C 3917 3718 3776 4038 3507 4256 
C 3245 4467 2886 4570 2432 4570 
L 461 4570 
z
M 986 4115 
L 2368 4115 
C 2720 4115 2982 4045 3149 3904 
C 3302 3770 3386 3558 3386 3277 
C 3386 3008 3302 2803 3142 2656 
C 2963 2502 2701 2419 2368 2419 
L 986 2419 
L 986 4115 
z
" transform="scale(0.015625)"/>
      <path id="PingFangSC-Regular-52" d="M 1875 3398 
C 1376 3398 986 3232 691 2886 
C 410 2560 269 2150 269 1651 
C 269 1158 410 749 691 429 
C 986 83 1376 -90 1875 -90 
C 2368 -90 2765 83 3066 429 
C 3341 749 3482 1158 3482 1651 
C 3482 2150 3341 2560 3059 2886 
C 2765 3232 2368 3398 1875 3398 
z
M 1875 2970 
C 2221 2970 2496 2835 2701 2566 
C 2874 2323 2963 2022 2963 1651 
C 2963 1293 2874 986 2701 742 
C 2496 474 2221 339 1875 339 
C 1523 339 1248 474 1056 742 
C 877 986 794 1286 794 1651 
C 794 2022 877 2323 1056 2566 
C 1248 2835 1523 2970 1875 2970 
z
" transform="scale(0.015625)"/>
      <path id="PingFangSC-Regular-5a" d="M 32 3309 
L 1158 0 
L 1638 0 
L 2419 2662 
L 3187 0 
L 3674 0 
L 4800 3309 
L 4237 3309 
L 3424 627 
L 2656 3309 
L 2176 3309 
L 1408 627 
L 595 3309 
L 32 3309 
z
" transform="scale(0.015625)"/>
      <path id="PingFangSC-Regular-3" transform="scale(0.015625)"/>
      <path id="PingFangSC-Regular-53" d="M 1978 3398 
C 1478 3398 1114 3187 877 2765 
L 877 3309 
L 397 3309 
L 397 -1267 
L 909 -1267 
L 909 602 
C 1165 141 1530 -90 2003 -90 
C 2477 -90 2842 90 3110 435 
C 3354 755 3482 1158 3482 1645 
C 3482 2144 3354 2547 3104 2867 
C 2829 3226 2451 3398 1978 3398 
z
M 1914 2976 
C 2266 2976 2534 2848 2720 2579 
C 2874 2349 2957 2035 2957 1645 
C 2957 1248 2874 934 2707 704 
C 2522 461 2253 333 1894 333 
C 1587 333 1350 454 1171 685 
C 979 922 890 1229 890 1613 
L 890 1677 
C 890 2048 973 2355 1139 2586 
C 1318 2848 1581 2976 1914 2976 
z
" transform="scale(0.015625)"/>
      <path id="PingFangSC-Regular-4c" d="M 819 4557 
C 710 4557 621 4525 544 4448 
C 467 4384 435 4294 435 4179 
C 435 4070 467 3981 544 3904 
C 621 3834 710 3795 819 3795 
C 928 3795 1018 3834 1094 3904 
C 1171 3981 1210 4070 1210 4179 
C 1210 4294 1171 4384 1094 4448 
C 1018 4525 928 4557 819 4557 
z
M 563 3309 
L 563 0 
L 1075 0 
L 1075 3309 
L 563 3309 
z
" transform="scale(0.015625)"/>
      <path id="PingFangSC-Regular-46" d="M 1824 3398 
C 1331 3398 941 3226 659 2874 
C 397 2554 269 2144 269 1638 
C 269 1133 397 723 659 410 
C 934 77 1318 -90 1818 -90 
C 2227 -90 2554 19 2803 230 
C 3059 448 3219 774 3296 1197 
L 2784 1197 
C 2707 627 2381 339 1818 339 
C 1485 339 1229 461 1056 691 
C 877 922 794 1242 794 1645 
C 794 2048 883 2368 1062 2605 
C 1248 2848 1504 2970 1824 2970 
C 2086 2970 2298 2912 2464 2784 
C 2624 2656 2726 2464 2771 2208 
L 3277 2208 
C 3219 2611 3066 2912 2810 3110 
C 2560 3302 2234 3398 1824 3398 
z
" transform="scale(0.015625)"/>
      <path id="PingFangSC-Regular-57" d="M 1280 4378 
L 774 4166 
L 774 3309 
L 109 3309 
L 109 2880 
L 774 2880 
L 774 774 
C 774 525 826 339 934 211 
C 1050 70 1248 0 1517 0 
L 2016 0 
L 2016 429 
L 1594 429 
C 1478 429 1395 461 1350 512 
C 1299 563 1280 653 1280 774 
L 1280 2880 
L 2099 2880 
L 2099 3309 
L 1280 3309 
L 1280 4378 
z
" transform="scale(0.015625)"/>
      <path id="PingFangSC-Regular-58" d="M 397 3309 
L 397 1261 
C 397 365 794 -90 1600 -90 
C 2048 -90 2406 115 2675 512 
L 2675 0 
L 3187 0 
L 3187 3309 
L 2675 3309 
L 2675 1293 
C 2637 1011 2528 781 2349 602 
C 2176 435 1978 346 1760 346 
C 1459 346 1242 429 1107 582 
C 973 736 909 973 909 1286 
L 909 3309 
L 397 3309 
z
" transform="scale(0.015625)"/>
      <path id="PingFangSC-Regular-55" d="M 1850 3398 
C 1619 3398 1421 3328 1248 3187 
C 1107 3078 992 2925 902 2733 
L 902 3309 
L 397 3309 
L 397 0 
L 902 0 
L 902 1754 
C 902 2061 986 2323 1165 2541 
C 1338 2771 1555 2880 1811 2880 
C 1971 2880 2138 2861 2304 2810 
L 2304 3322 
C 2182 3373 2029 3398 1850 3398 
z
" transform="scale(0.015625)"/>
      <path id="PingFangSC-Regular-48" d="M 1760 3398 
C 1280 3398 902 3226 621 2880 
C 339 2554 205 2144 205 1658 
C 205 1120 346 698 640 378 
C 922 70 1306 -90 1779 -90 
C 2208 -90 2560 38 2835 282 
C 3059 486 3206 742 3283 1062 
L 2771 1062 
C 2688 832 2579 659 2438 544 
C 2272 410 2048 339 1779 339 
C 1466 339 1216 442 1037 646 
C 858 851 762 1139 736 1510 
L 3347 1510 
C 3334 2086 3206 2541 2963 2861 
C 2694 3219 2291 3398 1760 3398 
z
M 1773 2970 
C 2400 2970 2752 2618 2816 1907 
L 749 1907 
C 781 2234 883 2490 1062 2682 
C 1242 2874 1478 2970 1773 2970 
z
" transform="scale(0.015625)"/>
      <path id="PingFangSC-Regular-1d" d="M 845 3117 
C 730 3117 640 3078 570 3002 
C 493 2925 454 2835 454 2726 
C 454 2618 493 2522 570 2445 
C 640 2374 730 2336 845 2336 
C 947 2336 1043 2374 1120 2445 
C 1197 2522 1235 2618 1235 2726 
C 1235 2835 1197 2925 1120 3002 
C 1043 3078 947 3117 845 3117 
z
M 845 774 
C 730 774 640 736 570 659 
C 493 582 454 493 454 384 
C 454 275 493 179 570 102 
C 640 32 730 -6 845 -6 
C 947 -6 1043 32 1120 102 
C 1197 179 1235 275 1235 384 
C 1235 493 1197 582 1120 659 
C 1043 736 947 774 845 774 
z
" transform="scale(0.015625)"/>
      <path id="PingFangSC-Regular-51" d="M 1946 3398 
C 1728 3398 1530 3347 1350 3245 
C 1171 3149 1024 3008 909 2822 
L 909 3309 
L 397 3309 
L 397 0 
L 909 0 
L 909 1997 
C 928 2298 1024 2534 1203 2714 
C 1370 2880 1568 2963 1798 2963 
C 2374 2963 2669 2643 2669 1997 
L 2669 0 
L 3181 0 
L 3181 2035 
C 3181 2944 2765 3398 1946 3398 
z
" transform="scale(0.015625)"/>
      <path id="PingFangSC-Regular-56" d="M 1568 3398 
C 1197 3398 890 3315 659 3149 
C 410 2982 288 2765 288 2483 
C 288 2202 410 1990 666 1837 
C 819 1734 1094 1638 1485 1542 
C 1843 1453 2080 1382 2189 1331 
C 2394 1229 2502 1088 2502 902 
C 2502 531 2202 339 1613 339 
C 1331 339 1120 390 979 493 
C 838 608 742 794 704 1056 
L 205 1056 
C 282 294 755 -90 1626 -90 
C 2560 -90 3027 256 3027 934 
C 3027 1222 2893 1446 2630 1613 
C 2458 1722 2176 1824 1779 1920 
C 1446 2010 1216 2080 1094 2138 
C 902 2234 813 2355 813 2496 
C 813 2643 883 2758 1024 2842 
C 1152 2931 1331 2970 1562 2970 
C 1824 2970 2029 2918 2170 2816 
C 2298 2726 2381 2573 2426 2368 
L 2925 2368 
C 2835 3059 2387 3398 1568 3398 
z
" transform="scale(0.015625)"/>
      <path id="PingFangSC-Regular-49" d="M 1722 4570 
C 1440 4570 1222 4493 1075 4333 
C 934 4179 864 3968 864 3686 
L 864 3309 
L 32 3309 
L 32 2880 
L 864 2880 
L 864 0 
L 1376 0 
L 1376 2880 
L 2310 2880 
L 2310 3309 
L 1376 3309 
L 1376 3674 
C 1376 3834 1408 3949 1472 4019 
C 1536 4096 1645 4128 1786 4128 
L 2355 4128 
L 2355 4570 
L 1722 4570 
z
" transform="scale(0.015625)"/>
      <path id="PingFangSC-Regular-4f" d="M 499 4659 
L 499 0 
L 1005 0 
L 1005 4659 
L 499 4659 
z
" transform="scale(0.015625)"/>
     </defs>
     <use xlink:href="#PingFangSC-Regular-35"/>
     <use xlink:href="#PingFangSC-Regular-52" transform="translate(67.59375 0)"/>
     <use xlink:href="#PingFangSC-Regular-5a" transform="translate(126.1875 0)"/>
     <use xlink:href="#PingFangSC-Regular-3" transform="translate(201.6875 0)"/>
     <use xlink:href="#PingFangSC-Regular-53" transform="translate(234.984375 0)"/>
     <use xlink:href="#PingFangSC-Regular-4c" transform="translate(293.578125 0)"/>
     <use xlink:href="#PingFangSC-Regular-46" transform="translate(319.171875 0)"/>
     <use xlink:href="#PingFangSC-Regular-57" transform="translate(373.875 0)"/>
     <use xlink:href="#PingFangSC-Regular-58" transform="translate(409.375 0)"/>
     <use xlink:href="#PingFangSC-Regular-55" transform="translate(465.375 0)"/>
     <use xlink:href="#PingFangSC-Regular-48" transform="translate(501.875 0)"/>
     <use xlink:href="#PingFangSC-Regular-1d" transform="translate(557.375 0)"/>
     <use xlink:href="#PingFangSC-Regular-3" transform="translate(583.78125 0)"/>
     <use xlink:href="#PingFangSC-Regular-4c" transform="translate(617.078125 0)"/>
     <use xlink:href="#PingFangSC-Regular-51" transform="translate(642.671875 0)"/>
     <use xlink:href="#PingFangSC-Regular-57" transform="translate(698.578125 0)"/>
     <use xlink:href="#PingFangSC-Regular-48" transform="translate(734.078125 0)"/>
     <use xlink:href="#PingFangSC-Regular-55" transform="translate(789.578125 0)"/>
     <use xlink:href="#PingFangSC-Regular-56" transform="translate(826.078125 0)"/>
     <use xlink:href="#PingFangSC-Regular-48" transform="translate(876.578125 0)"/>
     <use xlink:href="#PingFangSC-Regular-46" transform="translate(932.078125 0)"/>
     <use xlink:href="#PingFangSC-Regular-57" transform="translate(986.78125 0)"/>
     <use xlink:href="#PingFangSC-Regular-4c" transform="translate(1022.28125 0)"/>
     <use xlink:href="#PingFangSC-Regular-52" transform="translate(1047.875 0)"/>
     <use xlink:href="#PingFangSC-Regular-51" transform="translate(1106.46875 0)"/>
     <use xlink:href="#PingFangSC-Regular-3" transform="translate(1162.375 0)"/>
     <use xlink:href="#PingFangSC-Regular-52" transform="translate(1195.671875 0)"/>
     <use xlink:href="#PingFangSC-Regular-49" transform="translate(1254.265625 0)"/>
     <use xlink:href="#PingFangSC-Regular-3" transform="translate(1291.5625 0)"/>
     <use xlink:href="#PingFangSC-Regular-4f" transform="translate(1324.859375 0)"/>
     <use xlink:href="#PingFangSC-Regular-4c" transform="translate(1348.359375 0)"/>
     <use xlink:href="#PingFangSC-Regular-51" transform="translate(1373.953125 0)"/>
     <use xlink:href="#PingFangSC-Regular-48" transform="translate(1429.859375 0)"/>
     <use xlink:href="#PingFangSC-Regular-56" transform="translate(1485.359375 0)"/>
    </g>
   </g>
   <g id="PathCollection_1">
    <defs>
     <path id="m448f9b2bf5" d="M 0 3.708099 
C 0.983399 3.708099 1.926654 3.317391 2.622022 2.622022 
C 3.317391 1.926654 3.708099 0.983399 3.708099 0 
C 3.708099 -0.983399 3.317391 -1.926654 2.622022 -2.622022 
C 1.926654 -3.317391 0.983399 -3.708099 0 -3.708099 
C -0.983399 -3.708099 -1.926654 -3.317391 -2.622022 -2.622022 
C -3.317391 -1.926654 -3.708099 -0.983399 -3.708099 0 
C -3.708099 0.983399 -3.317391 1.926654 -2.622022 2.622022 
C -1.926654 3.317391 -0.983399 3.708099 0 3.708099 
z
" style="stroke: #1f1f1f"/>
    </defs>
    <g clip-path="url(#p3b457348a6)">
     <use xlink:href="#m448f9b2bf5" x="213.523558" y="113.327965" style="fill: #1f1f1f; stroke: #1f1f1f"/>
    </g>
   </g>
   <g id="legend_1">
    <g id="line2d_31">
     <path d="M 56.155625 42.16 
L 68.155625 42.16 
L 80.155625 42.16 
" style="fill: none; stroke: #2f6f9f; stroke-width: 2.2; stroke-linecap: square"/>
    </g>
    <g id="text_18">
     <!-- $2x-y=0$ -->
     <g transform="translate(89.755625 46.36) scale(0.12 -0.12)">
      <defs>
       <path id="DejaVuSans-Oblique-5b" d="M 3841 3500 
L 2234 1784 
L 3219 0 
L 2559 0 
L 1819 1388 
L 531 0 
L -166 0 
L 1556 1844 
L 641 3500 
L 1300 3500 
L 1972 2234 
L 3144 3500 
L 3841 3500 
z
" transform="scale(0.015625)"/>
       <path id="DejaVuSans-c9c" d="M 678 2272 
L 4684 2272 
L 4684 1741 
L 678 1741 
L 678 2272 
z
" transform="scale(0.015625)"/>
       <path id="DejaVuSans-Oblique-5c" d="M 1588 -325 
Q 1188 -997 936 -1164 
Q 684 -1331 294 -1331 
L -159 -1331 
L -63 -850 
L 269 -850 
Q 509 -850 678 -719 
Q 847 -588 1056 -206 
L 1234 128 
L 459 3500 
L 1069 3500 
L 1650 819 
L 3256 3500 
L 3859 3500 
L 1588 -325 
z
" transform="scale(0.015625)"/>
       <path id="DejaVuSans-20" d="M 678 2906 
L 4684 2906 
L 4684 2381 
L 678 2381 
L 678 2906 
z
M 678 1631 
L 4684 1631 
L 4684 1100 
L 678 1100 
L 678 1631 
z
" transform="scale(0.015625)"/>
       <path id="DejaVuSans-13" d="M 2034 4250 
Q 1547 4250 1301 3770 
Q 1056 3291 1056 2328 
Q 1056 1369 1301 889 
Q 1547 409 2034 409 
Q 2525 409 2770 889 
Q 3016 1369 3016 2328 
Q 3016 3291 2770 3770 
Q 2525 4250 2034 4250 
z
M 2034 4750 
Q 2819 4750 3233 4129 
Q 3647 3509 3647 2328 
Q 3647 1150 3233 529 
Q 2819 -91 2034 -91 
Q 1250 -91 836 529 
Q 422 1150 422 2328 
Q 422 3509 836 4129 
Q 1250 4750 2034 4750 
z
" transform="scale(0.015625)"/>
      </defs>
      <use xlink:href="#DejaVuSans-15" transform="translate(0 0.78125)"/>
      <use xlink:href="#DejaVuSans-Oblique-5b" transform="translate(63.623047 0.78125)"/>
      <use xlink:href="#DejaVuSans-c9c" transform="translate(142.285156 0.78125)"/>
      <use xlink:href="#DejaVuSans-Oblique-5c" transform="translate(245.556641 0.78125)"/>
      <use xlink:href="#DejaVuSans-20" transform="translate(324.21875 0.78125)"/>
      <use xlink:href="#DejaVuSans-13" transform="translate(427.490234 0.78125)"/>
     </g>
    </g>
    <g id="line2d_32">
     <path d="M 56.155625 61 
L 68.155625 61 
L 80.155625 61 
" style="fill: none; stroke: #b65f2a; stroke-width: 2.2; stroke-linecap: square"/>
    </g>
    <g id="text_19">
     <!-- $-x+2y=3$ -->
     <g transform="translate(89.755625 65.2) scale(0.12 -0.12)">
      <defs>
       <path id="DejaVuSans-e" d="M 2944 4013 
L 2944 2272 
L 4684 2272 
L 4684 1741 
L 2944 1741 
L 2944 0 
L 2419 0 
L 2419 1741 
L 678 1741 
L 678 2272 
L 2419 2272 
L 2419 4013 
L 2944 4013 
z
" transform="scale(0.015625)"/>
       <path id="DejaVuSans-16" d="M 2597 2516 
Q 3050 2419 3304 2112 
Q 3559 1806 3559 1356 
Q 3559 666 3084 287 
Q 2609 -91 1734 -91 
Q 1441 -91 1130 -33 
Q 819 25 488 141 
L 488 750 
Q 750 597 1062 519 
Q 1375 441 1716 441 
Q 2309 441 2620 675 
Q 2931 909 2931 1356 
Q 2931 1769 2642 2001 
Q 2353 2234 1838 2234 
L 1294 2234 
L 1294 2753 
L 1863 2753 
Q 2328 2753 2575 2939 
Q 2822 3125 2822 3475 
Q 2822 3834 2567 4026 
Q 2313 4219 1838 4219 
Q 1578 4219 1281 4162 
Q 984 4106 628 3988 
L 628 4550 
Q 988 4650 1302 4700 
Q 1616 4750 1894 4750 
Q 2613 4750 3031 4423 
Q 3450 4097 3450 3541 
Q 3450 3153 3228 2886 
Q 3006 2619 2597 2516 
z
" transform="scale(0.015625)"/>
      </defs>
      <use xlink:href="#DejaVuSans-c9c" transform="translate(0 0.78125)"/>
      <use xlink:href="#DejaVuSans-Oblique-5b" transform="translate(83.789062 0.78125)"/>
      <use xlink:href="#DejaVuSans-e" transform="translate(162.451172 0.78125)"/>
      <use xlink:href="#DejaVuSans-15" transform="translate(265.722656 0.78125)"/>
      <use xlink:href="#DejaVuSans-Oblique-5c" transform="translate(329.345703 0.78125)"/>
      <use xlink:href="#DejaVuSans-20" transform="translate(408.007812 0.78125)"/>
      <use xlink:href="#DejaVuSans-16" transform="translate(511.279297 0.78125)"/>
     </g>
    </g>
   </g>
  </g>
  <g id="axes_2">
   <g id="patch_5">
    <path d="M 453.723003 289.503895 
L 663.139675 289.503895 
L 663.139675 25.24 
L 453.723003 25.24 
z
" style="fill: #ffffff"/>
   </g>
   <g id="PathCollection_2">
    <defs>
     <path id="m0fc4314deb" d="M 0 2.12132 
C 0.562581 2.12132 1.102195 1.897805 1.5 1.5 
C 1.897805 1.102195 2.12132 0.562581 2.12132 0 
C 2.12132 -0.562581 1.897805 -1.102195 1.5 -1.5 
C 1.102195 -1.897805 0.562581 -2.12132 0 -2.12132 
C -0.562581 -2.12132 -1.102195 -1.897805 -1.5 -1.5 
C -1.897805 -1.102195 -2.12132 -0.562581 -2.12132 0 
C -2.12132 0.562581 -1.897805 1.102195 -1.5 1.5 
C -1.102195 1.897805 -0.562581 2.12132 0 2.12132 
z
" style="stroke: #333333"/>
    </defs>
    <g clip-path="url(#pc37188328b)">
     <use xlink:href="#m0fc4314deb" x="528.514672" y="214.712227" style="fill: #333333; stroke: #333333"/>
    </g>
   </g>
   <g id="PathCollection_3">
    <defs>
     <path id="m5e3ee7b503" d="M 0 3.354102 
C 0.889518 3.354102 1.742724 3.000693 2.371708 2.371708 
C 3.000693 1.742724 3.354102 0.889518 3.354102 0 
C 3.354102 -0.889518 3.000693 -1.742724 2.371708 -2.371708 
C 1.742724 -3.000693 0.889518 -3.354102 0 -3.354102 
C -0.889518 -3.354102 -1.742724 -3.000693 -2.371708 -2.371708 
C -3.000693 -1.742724 -3.354102 -0.889518 -3.354102 0 
C -3.354102 0.889518 -3.000693 1.742724 -2.371708 2.371708 
C -1.742724 3.000693 -0.889518 3.354102 0 3.354102 
z
" style="stroke: #9b1d20"/>
    </defs>
    <g clip-path="url(#pc37188328b)">
     <use xlink:href="#m5e3ee7b503" x="528.514672" y="65.12889" style="fill: #9b1d20; stroke: #9b1d20"/>
    </g>
   </g>
   <g id="matplotlib.axis_3">
    <g id="xtick_7">
     <g id="line2d_33">
      <path d="M 478.653559 289.503895 
L 478.653559 25.24 
" clip-path="url(#pc37188328b)" style="fill: none; stroke: #dddddd; stroke-width: 0.7; stroke-linecap: square"/>
     </g>
     <g id="line2d_34">
      <g>
       <use xlink:href="#mbc1c3fbf6b" x="478.653559" y="289.503895" style="stroke: #000000; stroke-width: 0.8"/>
      </g>
     </g>
     <g id="text_20">
      <!-- -1 -->
      <g transform="translate(472.617934 306.823895) scale(0.12 -0.12)">
       <use xlink:href="#PingFangSC-Regular-10"/>
       <use xlink:href="#PingFangSC-Regular-14" transform="translate(60.5 0)"/>
      </g>
     </g>
    </g>
    <g id="xtick_8">
     <g id="line2d_35">
      <path d="M 528.514672 289.503895 
L 528.514672 25.24 
" clip-path="url(#pc37188328b)" style="fill: none; stroke: #dddddd; stroke-width: 0.7; stroke-linecap: square"/>
     </g>
     <g id="line2d_36">
      <g>
       <use xlink:href="#mbc1c3fbf6b" x="528.514672" y="289.503895" style="stroke: #000000; stroke-width: 0.8"/>
      </g>
     </g>
     <g id="text_21">
      <!-- 0 -->
      <g transform="translate(524.914672 306.823895) scale(0.12 -0.12)">
       <use xlink:href="#PingFangSC-Regular-13"/>
      </g>
     </g>
    </g>
    <g id="xtick_9">
     <g id="line2d_37">
      <path d="M 578.375784 289.503895 
L 578.375784 25.24 
" clip-path="url(#pc37188328b)" style="fill: none; stroke: #dddddd; stroke-width: 0.7; stroke-linecap: square"/>
     </g>
     <g id="line2d_38">
      <g>
       <use xlink:href="#mbc1c3fbf6b" x="578.375784" y="289.503895" style="stroke: #000000; stroke-width: 0.8"/>
      </g>
     </g>
     <g id="text_22">
      <!-- 1 -->
      <g transform="translate(575.970159 306.823895) scale(0.12 -0.12)">
       <use xlink:href="#PingFangSC-Regular-14"/>
      </g>
     </g>
    </g>
    <g id="xtick_10">
     <g id="line2d_39">
      <path d="M 628.236896 289.503895 
L 628.236896 25.24 
" clip-path="url(#pc37188328b)" style="fill: none; stroke: #dddddd; stroke-width: 0.7; stroke-linecap: square"/>
     </g>
     <g id="line2d_40">
      <g>
       <use xlink:href="#mbc1c3fbf6b" x="628.236896" y="289.503895" style="stroke: #000000; stroke-width: 0.8"/>
      </g>
     </g>
     <g id="text_23">
      <!-- 2 -->
      <g transform="translate(624.636896 306.823895) scale(0.12 -0.12)">
       <use xlink:href="#PingFangSC-Regular-15"/>
      </g>
     </g>
    </g>
    <g id="text_24">
     <!-- first component -->
     <g transform="translate(514.307901 322.823895) scale(0.12 -0.12)">
      <defs>
       <path id="PingFangSC-Regular-189" d="M 1722 4570 
C 1440 4570 1222 4493 1075 4333 
C 934 4179 864 3968 864 3686 
L 864 3309 
L 32 3309 
L 32 2880 
L 864 2880 
L 864 0 
L 1376 0 
L 1376 2880 
L 2886 2880 
L 2886 0 
L 3392 0 
L 3392 3309 
L 1376 3309 
L 1376 3674 
C 1376 3834 1408 3949 1472 4019 
C 1536 4096 1645 4128 1786 4128 
L 2355 4128 
L 2355 4570 
L 1722 4570 
z
" transform="scale(0.015625)"/>
       <path id="PingFangSC-Regular-50" d="M 1843 3398 
C 1472 3398 1158 3226 909 2867 
L 909 3309 
L 397 3309 
L 397 0 
L 909 0 
L 909 2016 
C 909 2278 986 2502 1139 2682 
C 1293 2874 1485 2963 1722 2963 
C 2227 2963 2483 2675 2483 2086 
L 2483 0 
L 2995 0 
L 2995 2074 
C 2995 2342 3066 2554 3219 2720 
C 3360 2886 3546 2963 3763 2963 
C 4045 2963 4250 2893 4378 2739 
C 4499 2598 4563 2381 4563 2086 
L 4563 0 
L 5075 0 
L 5075 2170 
C 5075 2547 4966 2848 4762 3072 
C 4544 3290 4269 3398 3923 3398 
C 3693 3398 3501 3347 3341 3245 
C 3162 3149 3008 2989 2880 2771 
C 2694 3194 2349 3398 1843 3398 
z
" transform="scale(0.015625)"/>
      </defs>
      <use xlink:href="#PingFangSC-Regular-189"/>
      <use xlink:href="#PingFangSC-Regular-55" transform="translate(60.796875 0)"/>
      <use xlink:href="#PingFangSC-Regular-56" transform="translate(97.296875 0)"/>
      <use xlink:href="#PingFangSC-Regular-57" transform="translate(147.796875 0)"/>
      <use xlink:href="#PingFangSC-Regular-3" transform="translate(183.296875 0)"/>
      <use xlink:href="#PingFangSC-Regular-46" transform="translate(216.59375 0)"/>
      <use xlink:href="#PingFangSC-Regular-52" transform="translate(271.296875 0)"/>
      <use xlink:href="#PingFangSC-Regular-50" transform="translate(329.890625 0)"/>
      <use xlink:href="#PingFangSC-Regular-53" transform="translate(415.390625 0)"/>
      <use xlink:href="#PingFangSC-Regular-52" transform="translate(473.984375 0)"/>
      <use xlink:href="#PingFangSC-Regular-51" transform="translate(532.578125 0)"/>
      <use xlink:href="#PingFangSC-Regular-48" transform="translate(588.484375 0)"/>
      <use xlink:href="#PingFangSC-Regular-51" transform="translate(643.984375 0)"/>
      <use xlink:href="#PingFangSC-Regular-57" transform="translate(699.890625 0)"/>
     </g>
    </g>
   </g>
   <g id="matplotlib.axis_4">
    <g id="ytick_8">
     <g id="line2d_41">
      <path d="M 453.723003 264.573339 
L 663.139675 264.573339 
" clip-path="url(#pc37188328b)" style="fill: none; stroke: #dddddd; stroke-width: 0.7; stroke-linecap: square"/>
     </g>
     <g id="line2d_42">
      <g>
       <use xlink:href="#m8ddfac53c4" x="453.723003" y="264.573339" style="stroke: #000000; stroke-width: 0.8"/>
      </g>
     </g>
     <g id="text_25">
      <!-- -1 -->
      <g transform="translate(434.651753 269.733339) scale(0.12 -0.12)">
       <use xlink:href="#PingFangSC-Regular-10"/>
       <use xlink:href="#PingFangSC-Regular-14" transform="translate(60.5 0)"/>
      </g>
     </g>
    </g>
    <g id="ytick_9">
     <g id="line2d_43">
      <path d="M 453.723003 214.712227 
L 663.139675 214.712227 
" clip-path="url(#pc37188328b)" style="fill: none; stroke: #dddddd; stroke-width: 0.7; stroke-linecap: square"/>
     </g>
     <g id="line2d_44">
      <g>
       <use xlink:href="#m8ddfac53c4" x="453.723003" y="214.712227" style="stroke: #000000; stroke-width: 0.8"/>
      </g>
     </g>
     <g id="text_26">
      <!-- 0 -->
      <g transform="translate(439.523003 219.872227) scale(0.12 -0.12)">
       <use xlink:href="#PingFangSC-Regular-13"/>
      </g>
     </g>
    </g>
    <g id="ytick_10">
     <g id="line2d_45">
      <path d="M 453.723003 164.851114 
L 663.139675 164.851114 
" clip-path="url(#pc37188328b)" style="fill: none; stroke: #dddddd; stroke-width: 0.7; stroke-linecap: square"/>
     </g>
     <g id="line2d_46">
      <g>
       <use xlink:href="#m8ddfac53c4" x="453.723003" y="164.851114" style="stroke: #000000; stroke-width: 0.8"/>
      </g>
     </g>
     <g id="text_27">
      <!-- 1 -->
      <g transform="translate(441.911753 170.011114) scale(0.12 -0.12)">
       <use xlink:href="#PingFangSC-Regular-14"/>
      </g>
     </g>
    </g>
    <g id="ytick_11">
     <g id="line2d_47">
      <path d="M 453.723003 114.990002 
L 663.139675 114.990002 
" clip-path="url(#pc37188328b)" style="fill: none; stroke: #dddddd; stroke-width: 0.7; stroke-linecap: square"/>
     </g>
     <g id="line2d_48">
      <g>
       <use xlink:href="#m8ddfac53c4" x="453.723003" y="114.990002" style="stroke: #000000; stroke-width: 0.8"/>
      </g>
     </g>
     <g id="text_28">
      <!-- 2 -->
      <g transform="translate(439.523003 120.150002) scale(0.12 -0.12)">
       <use xlink:href="#PingFangSC-Regular-15"/>
      </g>
     </g>
    </g>
    <g id="ytick_12">
     <g id="line2d_49">
      <path d="M 453.723003 65.12889 
L 663.139675 65.12889 
" clip-path="url(#pc37188328b)" style="fill: none; stroke: #dddddd; stroke-width: 0.7; stroke-linecap: square"/>
     </g>
     <g id="line2d_50">
      <g>
       <use xlink:href="#m8ddfac53c4" x="453.723003" y="65.12889" style="stroke: #000000; stroke-width: 0.8"/>
      </g>
     </g>
     <g id="text_29">
      <!-- 3 -->
      <g transform="translate(439.523003 70.28889) scale(0.12 -0.12)">
       <use xlink:href="#PingFangSC-Regular-16"/>
      </g>
     </g>
    </g>
    <g id="text_30">
     <!-- second component -->
     <g transform="translate(428.276128 210.525385) rotate(-90) scale(0.12 -0.12)">
      <defs>
       <path id="PingFangSC-Regular-47" d="M 2842 4659 
L 2842 2701 
C 2586 3168 2221 3398 1747 3398 
C 1274 3398 909 3226 640 2867 
C 390 2547 269 2150 269 1664 
C 269 1165 390 755 640 435 
C 909 90 1286 -90 1773 -90 
C 2272 -90 2643 122 2874 544 
L 2874 0 
L 3354 0 
L 3354 4659 
L 2842 4659 
z
M 1856 2976 
C 2150 2976 2394 2861 2579 2618 
C 2758 2381 2854 2067 2854 1683 
L 2854 1619 
C 2854 1248 2771 947 2611 717 
C 2426 461 2170 333 1837 333 
C 1478 333 1210 467 1030 723 
C 870 954 794 1267 794 1664 
C 794 2061 870 2368 1037 2592 
C 1216 2848 1491 2976 1856 2976 
z
" transform="scale(0.015625)"/>
      </defs>
      <use xlink:href="#PingFangSC-Regular-56"/>
      <use xlink:href="#PingFangSC-Regular-48" transform="translate(50.5 0)"/>
      <use xlink:href="#PingFangSC-Regular-46" transform="translate(106 0)"/>
      <use xlink:href="#PingFangSC-Regular-52" transform="translate(160.703125 0)"/>
      <use xlink:href="#PingFangSC-Regular-51" transform="translate(219.296875 0)"/>
      <use xlink:href="#PingFangSC-Regular-47" transform="translate(275.203125 0)"/>
      <use xlink:href="#PingFangSC-Regular-3" transform="translate(333.796875 0)"/>
      <use xlink:href="#PingFangSC-Regular-46" transform="translate(367.09375 0)"/>
      <use xlink:href="#PingFangSC-Regular-52" transform="translate(421.796875 0)"/>
      <use xlink:href="#PingFangSC-Regular-50" transform="translate(480.390625 0)"/>
      <use xlink:href="#PingFangSC-Regular-53" transform="translate(565.890625 0)"/>
      <use xlink:href="#PingFangSC-Regular-52" transform="translate(624.484375 0)"/>
      <use xlink:href="#PingFangSC-Regular-51" transform="translate(683.078125 0)"/>
      <use xlink:href="#PingFangSC-Regular-48" transform="translate(738.984375 0)"/>
      <use xlink:href="#PingFangSC-Regular-51" transform="translate(794.484375 0)"/>
      <use xlink:href="#PingFangSC-Regular-57" transform="translate(850.390625 0)"/>
     </g>
    </g>
   </g>
   <g id="line2d_51">
    <path d="M 453.723003 214.712227 
L 663.139675 214.712227 
" clip-path="url(#pc37188328b)" style="fill: none; stroke: #555555; stroke-width: 0.8; stroke-linecap: square"/>
   </g>
   <g id="line2d_52">
    <path d="M 528.514672 289.503895 
L 528.514672 25.24 
" clip-path="url(#pc37188328b)" style="fill: none; stroke: #555555; stroke-width: 0.8; stroke-linecap: square"/>
   </g>
   <g id="patch_6">
    <path d="M 453.723003 289.503895 
L 453.723003 25.24 
" style="fill: none; stroke: #000000; stroke-width: 0.8; stroke-linejoin: miter; stroke-linecap: square"/>
   </g>
   <g id="patch_7">
    <path d="M 453.723003 289.503895 
L 663.139675 289.503895 
" style="fill: none; stroke: #000000; stroke-width: 0.8; stroke-linejoin: miter; stroke-linecap: square"/>
   </g>
   <g id="patch_8">
    <path d="M 528.514672 214.712227 
Q 578.375784 239.642783 625.836896 263.373339 
" style="fill: none; stroke: #2f6f9f; stroke-width: 2.4; stroke-linecap: round"/>
    <path d="M 622.616958 259.080088 
L 625.836896 263.373339 
L 620.470333 263.373339 
" style="fill: none; stroke: #2f6f9f; stroke-width: 2.4; stroke-linecap: round"/>
   </g>
   <g id="text_31">
    <!-- $c_1=(2,-1)$ -->
    <g style="fill: #2f6f9f" transform="translate(587.350784 238.146949) scale(0.11 -0.11)">
     <defs>
      <path id="DejaVuSans-Oblique-46" d="M 3431 3366 
L 3316 2797 
Q 3109 2947 2876 3022 
Q 2644 3097 2394 3097 
Q 2119 3097 1870 3000 
Q 1622 2903 1453 2725 
Q 1184 2453 1037 2087 
Q 891 1722 891 1331 
Q 891 859 1127 628 
Q 1363 397 1844 397 
Q 2081 397 2348 469 
Q 2616 541 2906 684 
L 2797 116 
Q 2547 13 2283 -39 
Q 2019 -91 1741 -91 
Q 1044 -91 669 257 
Q 294 606 294 1253 
Q 294 1797 489 2255 
Q 684 2713 1069 3078 
Q 1331 3328 1684 3456 
Q 2038 3584 2456 3584 
Q 2700 3584 2940 3529 
Q 3181 3475 3431 3366 
z
" transform="scale(0.015625)"/>
     </defs>
     <use xlink:href="#DejaVuSans-Oblique-46" transform="translate(0 0.125)"/>
     <use xlink:href="#DejaVuSans-14" transform="translate(54.980469 -14.874951) scale(0.7)"/>
     <use xlink:href="#DejaVuSans-20" transform="translate(121.733398 0.125)"/>
     <use xlink:href="#DejaVuSans-b" transform="translate(225.004883 0.125)"/>
     <use xlink:href="#DejaVuSans-15" transform="translate(264.018555 0.125)"/>
     <use xlink:href="#DejaVuSans-f" transform="translate(327.641602 0.125)"/>
     <use xlink:href="#DejaVuSans-c9c" transform="translate(398.393555 0.125)"/>
     <use xlink:href="#DejaVuSans-14" transform="translate(501.665039 0.125)"/>
     <use xlink:href="#DejaVuSans-c" transform="translate(565.288086 0.125)"/>
    </g>
   </g>
   <g id="patch_9">
    <path d="M 628.236896 264.573339 
Q 603.30634 214.712227 579.375784 166.851114 
" style="fill: none; stroke: #b65f2a; stroke-width: 2; stroke-linecap: round"/>
    <path d="M 579.375784 172.217677 
L 579.375784 166.851114 
L 583.669034 170.071052 
" style="fill: none; stroke: #b65f2a; stroke-width: 2; stroke-linecap: round"/>
   </g>
   <g id="text_32">
    <!-- $c_2$ -->
    <g style="fill: #b65f2a" transform="translate(604.802173 205.737226) scale(0.11 -0.11)">
     <use xlink:href="#DejaVuSans-Oblique-46"/>
     <use xlink:href="#DejaVuSans-15" transform="translate(54.980469 -14.999951) scale(0.7)"/>
    </g>
   </g>
   <g id="patch_10">
    <path d="M 578.375784 164.851114 
Q 553.445228 114.990002 529.514672 67.12889 
" style="fill: none; stroke: #b65f2a; stroke-width: 2; stroke-linecap: round"/>
    <path d="M 529.514672 72.495453 
L 529.514672 67.12889 
L 533.807922 70.348828 
" style="fill: none; stroke: #b65f2a; stroke-width: 2; stroke-linecap: round"/>
   </g>
   <g id="text_33">
    <!-- $c_2$ -->
    <g style="fill: #b65f2a" transform="translate(554.941061 106.015002) scale(0.11 -0.11)">
     <use xlink:href="#DejaVuSans-Oblique-46"/>
     <use xlink:href="#DejaVuSans-15" transform="translate(54.980469 -14.999951) scale(0.7)"/>
    </g>
   </g>
   <g id="patch_11">
    <path d="M 528.514672 214.712227 
Q 528.514672 139.920558 528.514672 68.259385 
" style="fill: none; stroke: #9b1d20; stroke-width: 2.8; stroke-linecap: round"/>
    <path d="M 526.114672 73.059385 
L 528.514672 68.259385 
L 530.914672 73.059385 
" style="fill: none; stroke: #9b1d20; stroke-width: 2.8; stroke-linecap: round"/>
   </g>
   <g id="text_34">
    <!-- $b=(0,3)$ -->
    <g style="fill: #9b1d20" transform="translate(532.50356 128.452502) scale(0.11 -0.11)">
     <defs>
      <path id="DejaVuSans-Oblique-45" d="M 3169 2138 
Q 3169 2591 2961 2847 
Q 2753 3103 2388 3103 
Q 2122 3103 1889 2973 
Q 1656 2844 1484 2597 
Q 1303 2338 1198 1995 
Q 1094 1653 1094 1313 
Q 1094 881 1298 636 
Q 1503 391 1863 391 
Q 2134 391 2365 517 
Q 2597 644 2772 891 
Q 2950 1147 3059 1487 
Q 3169 1828 3169 2138 
z
M 1381 2969 
Q 1594 3256 1914 3420 
Q 2234 3584 2584 3584 
Q 3122 3584 3439 3221 
Q 3756 2859 3756 2241 
Q 3756 1734 3570 1259 
Q 3384 784 3041 416 
Q 2816 172 2522 40 
Q 2228 -91 1906 -91 
Q 1566 -91 1316 65 
Q 1066 222 909 531 
L 806 0 
L 231 0 
L 1178 4863 
L 1753 4863 
L 1381 2969 
z
" transform="scale(0.015625)"/>
     </defs>
     <use xlink:href="#DejaVuSans-Oblique-45" transform="translate(0 0.015625)"/>
     <use xlink:href="#DejaVuSans-20" transform="translate(82.958984 0.015625)"/>
     <use xlink:href="#DejaVuSans-b" transform="translate(186.230469 0.015625)"/>
     <use xlink:href="#DejaVuSans-13" transform="translate(225.244141 0.015625)"/>
     <use xlink:href="#DejaVuSans-f" transform="translate(288.867188 0.015625)"/>
     <use xlink:href="#DejaVuSans-16" transform="translate(340.136719 0.015625)"/>
     <use xlink:href="#DejaVuSans-c" transform="translate(403.759766 0.015625)"/>
    </g>
   </g>
   <g id="text_35">
    <!-- $c_1+2c_2=b$ -->
    <g style="fill: #1f1f1f" transform="translate(471.174392 52.663612) scale(0.12 -0.12)">
     <use xlink:href="#DejaVuSans-Oblique-46" transform="translate(0 0.015625)"/>
     <use xlink:href="#DejaVuSans-14" transform="translate(54.980469 -14.984326) scale(0.7)"/>
     <use xlink:href="#DejaVuSans-e" transform="translate(121.733398 0.015625)"/>
     <use xlink:href="#DejaVuSans-15" transform="translate(225.004883 0.015625)"/>
     <use xlink:href="#DejaVuSans-Oblique-46" transform="translate(288.62793 0.015625)"/>
     <use xlink:href="#DejaVuSans-15" transform="translate(343.608398 -14.984326) scale(0.7)"/>
     <use xlink:href="#DejaVuSans-20" transform="translate(410.361328 0.015625)"/>
     <use xlink:href="#DejaVuSans-Oblique-45" transform="translate(513.632812 0.015625)"/>
    </g>
   </g>
   <g id="text_36">
    <!-- Column picture: linear combination -->
    <g transform="translate(444.731651 19.24) scale(0.14 -0.14)">
     <defs>
      <path id="PingFangSC-Regular-26" d="M 2432 4659 
C 1728 4659 1178 4422 794 3936 
C 442 3501 269 2944 269 2266 
C 269 1587 435 1037 781 614 
C 1158 147 1702 -90 2413 -90 
C 2899 -90 3322 51 3674 326 
C 4051 621 4288 1037 4390 1568 
L 3885 1568 
C 3795 1171 3610 870 3341 666 
C 3085 474 2778 378 2413 378 
C 1875 378 1472 557 1190 909 
C 922 1242 794 1696 794 2266 
C 794 2835 928 3290 1197 3635 
C 1485 4006 1894 4192 2426 4192 
C 2784 4192 3085 4109 3334 3936 
C 3590 3757 3757 3501 3821 3168 
L 4326 3168 
C 4262 3622 4058 3987 3712 4256 
C 3366 4525 2938 4659 2432 4659 
z
" transform="scale(0.015625)"/>
      <path id="PingFangSC-Regular-44" d="M 1837 3398 
C 1440 3398 1126 3322 883 3168 
C 614 3002 442 2739 371 2394 
L 877 2355 
C 928 2566 1037 2726 1210 2829 
C 1363 2931 1562 2976 1805 2976 
C 2381 2976 2669 2701 2669 2144 
L 2669 1971 
L 1875 1958 
C 1376 1952 992 1856 723 1677 
C 416 1485 269 1203 269 826 
C 269 557 371 333 576 160 
C 774 -6 1037 -90 1370 -90 
C 1677 -90 1952 -19 2195 115 
C 2400 230 2573 378 2701 557 
L 2701 0 
L 3181 0 
L 3181 2125 
C 3181 2509 3078 2810 2886 3027 
C 2656 3277 2310 3398 1837 3398 
z
M 2669 1587 
L 2669 1306 
C 2669 1050 2547 819 2310 621 
C 2067 416 1792 314 1478 314 
C 1274 314 1107 365 979 461 
C 851 563 794 685 794 838 
C 794 1318 1165 1562 1907 1574 
L 2669 1587 
z
" transform="scale(0.015625)"/>
      <path id="PingFangSC-Regular-45" d="M 397 4659 
L 397 0 
L 877 0 
L 877 544 
C 1101 122 1466 -90 1978 -90 
C 2458 -90 2835 90 3110 435 
C 3354 755 3482 1165 3482 1664 
C 3482 2150 3354 2547 3110 2867 
C 2842 3226 2470 3398 2003 3398 
C 1530 3398 1165 3168 909 2701 
L 909 4659 
L 397 4659 
z
M 1894 2976 
C 2253 2976 2522 2848 2707 2592 
C 2874 2368 2957 2061 2957 1664 
C 2957 1267 2874 954 2720 723 
C 2541 467 2272 333 1914 333 
C 1581 333 1318 461 1139 717 
C 973 947 890 1248 890 1619 
L 890 1683 
C 890 2067 979 2381 1171 2618 
C 1350 2861 1594 2976 1894 2976 
z
" transform="scale(0.015625)"/>
     </defs>
     <use xlink:href="#PingFangSC-Regular-26"/>
     <use xlink:href="#PingFangSC-Regular-52" transform="translate(72.796875 0)"/>
     <use xlink:href="#PingFangSC-Regular-4f" transform="translate(131.390625 0)"/>
     <use xlink:href="#PingFangSC-Regular-58" transform="translate(154.890625 0)"/>
     <use xlink:href="#PingFangSC-Regular-50" transform="translate(210.890625 0)"/>
     <use xlink:href="#PingFangSC-Regular-51" transform="translate(296.390625 0)"/>
     <use xlink:href="#PingFangSC-Regular-3" transform="translate(352.296875 0)"/>
     <use xlink:href="#PingFangSC-Regular-53" transform="translate(385.59375 0)"/>
     <use xlink:href="#PingFangSC-Regular-4c" transform="translate(444.1875 0)"/>
     <use xlink:href="#PingFangSC-Regular-46" transform="translate(469.78125 0)"/>
     <use xlink:href="#PingFangSC-Regular-57" transform="translate(524.484375 0)"/>
     <use xlink:href="#PingFangSC-Regular-58" transform="translate(559.984375 0)"/>
     <use xlink:href="#PingFangSC-Regular-55" transform="translate(615.984375 0)"/>
     <use xlink:href="#PingFangSC-Regular-48" transform="translate(652.484375 0)"/>
     <use xlink:href="#PingFangSC-Regular-1d" transform="translate(707.984375 0)"/>
     <use xlink:href="#PingFangSC-Regular-3" transform="translate(734.390625 0)"/>
     <use xlink:href="#PingFangSC-Regular-4f" transform="translate(767.6875 0)"/>
     <use xlink:href="#PingFangSC-Regular-4c" transform="translate(791.1875 0)"/>
     <use xlink:href="#PingFangSC-Regular-51" transform="translate(816.78125 0)"/>
     <use xlink:href="#PingFangSC-Regular-48" transform="translate(872.6875 0)"/>
     <use xlink:href="#PingFangSC-Regular-44" transform="translate(928.1875 0)"/>
     <use xlink:href="#PingFangSC-Regular-55" transform="translate(984.09375 0)"/>
     <use xlink:href="#PingFangSC-Regular-3" transform="translate(1020.59375 0)"/>
     <use xlink:href="#PingFangSC-Regular-46" transform="translate(1053.890625 0)"/>
     <use xlink:href="#PingFangSC-Regular-52" transform="translate(1108.59375 0)"/>
     <use xlink:href="#PingFangSC-Regular-50" transform="translate(1167.1875 0)"/>
     <use xlink:href="#PingFangSC-Regular-45" transform="translate(1252.6875 0)"/>
     <use xlink:href="#PingFangSC-Regular-4c" transform="translate(1311.28125 0)"/>
     <use xlink:href="#PingFangSC-Regular-51" transform="translate(1336.875 0)"/>
     <use xlink:href="#PingFangSC-Regular-44" transform="translate(1392.78125 0)"/>
     <use xlink:href="#PingFangSC-Regular-57" transform="translate(1448.6875 0)"/>
     <use xlink:href="#PingFangSC-Regular-4c" transform="translate(1484.1875 0)"/>
     <use xlink:href="#PingFangSC-Regular-52" transform="translate(1509.78125 0)"/>
     <use xlink:href="#PingFangSC-Regular-51" transform="translate(1568.375 0)"/>
    </g>
   </g>
  </g>
 </g>
 <defs>
  <clipPath id="p3b457348a6">
   <rect x="45.355625" y="25.24" width="232.231908" height="264.263895"/>
  </clipPath>
  <clipPath id="pc37188328b">
   <rect x="453.723003" y="25.24" width="209.416672" height="264.263895"/>
  </clipPath>
 </defs>
</svg>
