<?xml version="1.0" encoding="utf-8" standalone="no"?>
<!DOCTYPE svg PUBLIC "-//W3C//DTD SVG 1.1//EN"
  "http://www.w3.org/Graphics/SVG/1.1/DTD/svg11.dtd">
<svg xmlns:xlink="http://www.w3.org/1999/xlink" width="402.253974pt" height="411.59952pt" viewBox="0 0 402.253974 411.59952" xmlns="http://www.w3.org/2000/svg" version="1.1">
 <metadata>
  <rdf:RDF xmlns:dc="http://purl.org/dc/elements/1.1/" xmlns:cc="http://creativecommons.org/ns#" xmlns:rdf="http://www.w3.org/1999/02/22-rdf-syntax-ns#">
   <cc:Work>
    <dc:type rdf:resource="http://purl.org/dc/dcmitype/StillImage"/>
    <dc:format>image/svg+xml</dc:format>
    <dc:creator>
     <cc:Agent>
      <dc:title>Matplotlib v3.11.0, https://matplotlib.org/</dc:title>
     </cc:Agent>
    </dc:creator>
   </cc:Work>
  </rdf:RDF>
 </metadata>
 <defs>
  <style type="text/css">*{stroke-linejoin: round; stroke-linecap: butt}</style>
 </defs>
 <g id="figure_1">
  <g id="patch_1">
   <path d="M 0 411.59952 
L 402.253974 411.59952 
L 402.253974 0 
L 0 0 
z
" style="fill: #ffffff"/>
  </g>
  <g id="patch_2">
   <path d="M 7.2 404.39952 
L 386.35952 404.39952 
L 386.35952 25.24 
L 7.2 25.24 
z
" style="fill: #ffffff"/>
  </g>
  <g id="pane3d_1">
   <g id="patch_3">
    <path d="M 33.658532 309.151044 
L 166.388352 229.700599 
L 165.267 70.166894 
L 27.831481 136.905519 
" style="fill: #f2f2f2; opacity: 0.5; stroke: #f2f2f2; stroke-linejoin: miter"/>
   </g>
  </g>
  <g id="pane3d_2">
   <g id="patch_4">
    <path d="M 166.388352 229.700599 
L 364.436476 277.661217 
L 369.868189 110.406648 
L 165.267 70.166894 
" style="fill: #e6e6e6; opacity: 0.5; stroke: #e6e6e6; stroke-linejoin: miter"/>
   </g>
  </g>
  <g id="pane3d_3">
   <g id="patch_5">
    <path d="M 33.658532 309.151044 
L 243.161214 366.824535 
L 364.436476 277.661217 
L 166.388352 229.700599 
" style="fill: #ececec; opacity: 0.5; stroke: #ececec; stroke-linejoin: miter"/>
   </g>
  </g>
  <g id="grid3d_1">
   <g id="Line3DCollection_1">
    <path d="M 33.658532 309.151044 
L 166.388352 229.700599 
L 165.267 70.166894 
" style="fill: none; stroke: #b0b0b0; stroke-width: 0.8"/>
    <path d="M 58.495054 315.988231 
L 189.977099 235.413003 
L 189.597918 74.952156 
" style="fill: none; stroke: #b0b0b0; stroke-width: 0.8"/>
    <path d="M 83.700463 322.926967 
L 213.885781 241.202885 
L 214.269403 79.804397 
" style="fill: none; stroke: #b0b0b0; stroke-width: 0.8"/>
    <path d="M 109.283037 329.969533 
L 238.120952 247.071831 
L 239.288655 84.725036 
" style="fill: none; stroke: #b0b0b0; stroke-width: 0.8"/>
    <path d="M 135.251307 337.118276 
L 262.689346 253.021472 
L 264.66308 89.715528 
" style="fill: none; stroke: #b0b0b0; stroke-width: 0.8"/>
    <path d="M 161.614062 344.375615 
L 287.597881 259.053484 
L 290.400295 94.777372 
" style="fill: none; stroke: #b0b0b0; stroke-width: 0.8"/>
    <path d="M 188.380358 351.744045 
L 312.853672 265.16959 
L 316.508136 99.912108 
" style="fill: none; stroke: #b0b0b0; stroke-width: 0.8"/>
    <path d="M 215.559533 359.226135 
L 338.46403 271.371561 
L 342.994668 105.121322 
" style="fill: none; stroke: #b0b0b0; stroke-width: 0.8"/>
    <path d="M 243.161214 366.824535 
L 364.436476 277.661217 
L 369.868189 110.406648 
" style="fill: none; stroke: #b0b0b0; stroke-width: 0.8"/>
   </g>
  </g>
  <g id="grid3d_2">
   <g id="Line3DCollection_2">
    <path d="M 27.831481 136.905519 
L 33.658532 309.151044 
L 243.161214 366.824535 
" style="fill: none; stroke: #b0b0b0; stroke-width: 0.8"/>
    <path d="M 44.403786 128.858016 
L 49.621763 299.595649 
L 257.815123 356.050771 
" style="fill: none; stroke: #b0b0b0; stroke-width: 0.8"/>
    <path d="M 60.626651 120.9802 
L 65.259435 290.23513 
L 272.151995 345.510096 
" style="fill: none; stroke: #b0b0b0; stroke-width: 0.8"/>
    <path d="M 76.511014 113.26676 
L 80.581408 281.063585 
L 286.182009 335.195028 
" style="fill: none; stroke: #b0b0b0; stroke-width: 0.8"/>
    <path d="M 92.06736 105.712606 
L 95.597146 272.075348 
L 299.914912 325.0984 
" style="fill: none; stroke: #b0b0b0; stroke-width: 0.8"/>
    <path d="M 107.305747 98.312852 
L 110.31574 263.264978 
L 313.360043 315.213346 
" style="fill: none; stroke: #b0b0b0; stroke-width: 0.8"/>
    <path d="M 122.235822 91.062814 
L 124.745922 254.627248 
L 326.526353 305.533285 
" style="fill: none; stroke: #b0b0b0; stroke-width: 0.8"/>
    <path d="M 136.866851 83.957994 
L 138.896087 246.157132 
L 339.422427 296.051906 
" style="fill: none; stroke: #b0b0b0; stroke-width: 0.8"/>
    <path d="M 151.207728 76.99407 
L 152.774309 237.849799 
L 352.0565 286.763153 
" style="fill: none; stroke: #b0b0b0; stroke-width: 0.8"/>
    <path d="M 165.267 70.166894 
L 166.388352 229.700599 
L 364.436476 277.661217 
" style="fill: none; stroke: #b0b0b0; stroke-width: 0.8"/>
   </g>
  </g>
  <g id="grid3d_3">
   <g id="Line3DCollection_3">
    <path d="M 364.436476 277.661217 
L 166.388352 229.700599 
L 33.658532 309.151044 
" style="fill: none; stroke: #b0b0b0; stroke-width: 0.8"/>
    <path d="M 365.494531 245.081336 
L 166.169607 198.579938 
L 32.524541 275.630702 
" style="fill: none; stroke: #b0b0b0; stroke-width: 0.8"/>
    <path d="M 366.566452 212.0745 
L 165.94815 167.073545 
L 31.375161 241.655432 
" style="fill: none; stroke: #b0b0b0; stroke-width: 0.8"/>
    <path d="M 367.652513 178.632261 
L 165.723932 135.174202 
L 30.210075 207.21591 
" style="fill: none; stroke: #b0b0b0; stroke-width: 0.8"/>
    <path d="M 368.752995 144.745945 
L 165.4969 102.874513 
L 29.02896 172.302555 
" style="fill: none; stroke: #b0b0b0; stroke-width: 0.8"/>
    <path d="M 369.868189 110.406648 
L 165.267 70.166894 
L 27.831481 136.905519 
" style="fill: none; stroke: #b0b0b0; stroke-width: 0.8"/>
   </g>
  </g>
  <g id="axis3d_1">
   <g id="line2d_1">
    <path d="M 33.658532 309.151044 
L 243.161214 366.824535 
" style="fill: none; stroke: #000000; stroke-width: 0.8; stroke-linecap: square"/>
   </g>
   <g id="xtick_1">
    <g id="line2d_2">
     <path d="M 34.818979 308.456415 
L 31.332411 310.543431 
" style="fill: none; stroke: #000000; stroke-width: 0.8; stroke-linecap: square"/>
    </g>
    <g id="text_1">
     <!-- 0 -->
     <g transform="translate(21.90439 334.277922) scale(0.12 -0.12)">
      <defs>
       <path id="PingFangSC-Regular-13" d="M 1920 4659 
C 1370 4659 960 4422 685 3936 
C 442 3526 320 2976 320 2285 
C 320 1594 442 1043 685 634 
C 960 154 1370 -90 1920 -90 
C 2464 -90 2874 154 3155 634 
C 3398 1043 3520 1594 3520 2285 
C 3520 2976 3398 3526 3155 3936 
C 2874 4422 2464 4659 1920 4659 
z
M 1920 4211 
C 2330 4211 2624 3994 2803 3552 
C 2931 3245 3002 2822 3002 2285 
C 3002 1754 2931 1331 2803 1018 
C 2624 582 2330 358 1920 358 
C 1510 358 1216 582 1037 1018 
C 909 1331 845 1754 845 2285 
C 845 2822 909 3245 1037 3552 
C 1216 3994 1510 4211 1920 4211 
z
" transform="scale(0.015625)"/>
      </defs>
      <use xlink:href="#PingFangSC-Regular-13"/>
     </g>
    </g>
   </g>
   <g id="xtick_2">
    <g id="line2d_3">
     <path d="M 59.645311 315.283327 
L 56.189321 317.401237 
" style="fill: none; stroke: #000000; stroke-width: 0.8; stroke-linecap: square"/>
    </g>
    <g id="text_2">
     <!-- 1 -->
     <g transform="translate(47.963003 341.24888) scale(0.12 -0.12)">
      <defs>
       <path id="PingFangSC-Regular-14" d="M 1472 4570 
C 1318 4397 1139 4243 922 4102 
C 704 3974 486 3885 282 3827 
L 282 3302 
C 710 3430 1069 3635 1357 3930 
L 1357 0 
L 1882 0 
L 1882 4570 
L 1472 4570 
z
" transform="scale(0.015625)"/>
      </defs>
      <use xlink:href="#PingFangSC-Regular-14"/>
     </g>
    </g>
   </g>
   <g id="xtick_3">
    <g id="line2d_4">
     <path d="M 84.840099 322.211559 
L 81.415982 324.361055 
" style="fill: none; stroke: #000000; stroke-width: 0.8; stroke-linecap: square"/>
    </g>
    <g id="text_3">
     <!-- 2 -->
     <g transform="translate(72.003481 348.323745) scale(0.12 -0.12)">
      <defs>
       <path id="PingFangSC-Regular-15" d="M 1984 4659 
C 1523 4659 1146 4506 864 4198 
C 582 3898 435 3488 435 2976 
L 960 2976 
C 966 3379 1062 3686 1242 3891 
C 1408 4109 1651 4211 1965 4211 
C 2259 4211 2496 4134 2662 3981 
C 2829 3827 2912 3616 2912 3334 
C 2912 3040 2790 2765 2560 2515 
C 2438 2387 2202 2202 1843 1946 
C 1357 1613 1030 1338 851 1133 
C 544 794 397 416 397 0 
L 3443 0 
L 3443 467 
L 1043 467 
C 1126 774 1459 1126 2042 1517 
C 2515 1837 2829 2086 2989 2253 
C 3283 2573 3437 2931 3437 3328 
C 3437 3725 3296 4051 3027 4294 
C 2752 4538 2406 4659 1984 4659 
z
" transform="scale(0.015625)"/>
      </defs>
      <use xlink:href="#PingFangSC-Regular-15"/>
     </g>
    </g>
   </g>
   <g id="xtick_4">
    <g id="line2d_5">
     <path d="M 110.411604 329.243383 
L 107.020706 331.425176 
" style="fill: none; stroke: #000000; stroke-width: 0.8; stroke-linecap: square"/>
    </g>
    <g id="text_4">
     <!-- 3 -->
     <g transform="translate(97.6173 355.504857) scale(0.12 -0.12)">
      <defs>
       <path id="PingFangSC-Regular-16" d="M 1965 4659 
C 1530 4659 1178 4538 909 4288 
C 627 4038 461 3693 422 3251 
L 941 3251 
C 973 3558 1075 3795 1254 3962 
C 1427 4128 1664 4205 1971 4205 
C 2266 4205 2502 4134 2669 3981 
C 2822 3840 2906 3642 2906 3386 
C 2906 3130 2822 2931 2662 2790 
C 2502 2656 2272 2586 1965 2586 
L 1613 2586 
L 1613 2176 
L 1984 2176 
C 2304 2176 2547 2106 2726 1952 
C 2906 1798 2995 1587 2995 1312 
C 2995 1043 2899 819 2720 640 
C 2522 454 2259 358 1933 358 
C 1645 358 1408 442 1216 595 
C 992 781 870 1056 858 1414 
L 326 1414 
C 365 902 544 512 870 243 
C 1146 26 1498 -90 1933 -90 
C 2406 -90 2790 45 3085 314 
C 3373 576 3520 915 3520 1331 
C 3520 1600 3443 1824 3290 2003 
C 3149 2182 2944 2310 2675 2394 
C 3174 2560 3424 2906 3424 3418 
C 3424 3802 3290 4102 3027 4326 
C 2758 4550 2400 4659 1965 4659 
z
" transform="scale(0.015625)"/>
      </defs>
      <use xlink:href="#PingFangSC-Regular-16"/>
     </g>
    </g>
   </g>
   <g id="xtick_5">
    <g id="line2d_6">
     <path d="M 136.368341 336.381141 
L 133.012057 338.595965 
" style="fill: none; stroke: #000000; stroke-width: 0.8; stroke-linecap: square"/>
    </g>
    <g id="text_5">
     <!-- 4 -->
     <g transform="translate(123.618686 362.794627) scale(0.12 -0.12)">
      <defs>
       <path id="PingFangSC-Regular-17" d="M 2458 4570 
L 154 1536 
L 154 1037 
L 2451 1037 
L 2451 0 
L 2950 0 
L 2950 1037 
L 3693 1037 
L 3693 1466 
L 2950 1466 
L 2950 4570 
L 2458 4570 
z
M 2432 3885 
L 2451 3885 
L 2451 1466 
L 595 1466 
L 2432 3885 
z
" transform="scale(0.015625)"/>
      </defs>
      <use xlink:href="#PingFangSC-Regular-17"/>
     </g>
    </g>
   </g>
   <g id="xtick_6">
    <g id="line2d_7">
     <path d="M 162.719081 343.627245 
L 159.398858 345.875855 
" style="fill: none; stroke: #000000; stroke-width: 0.8; stroke-linecap: square"/>
    </g>
    <g id="text_6">
     <!-- 5 -->
     <g transform="translate(150.016501 370.195541) scale(0.12 -0.12)">
      <defs>
       <path id="PingFangSC-Regular-18" d="M 672 4570 
L 429 2048 
L 928 2048 
C 1018 2227 1158 2368 1338 2458 
C 1510 2554 1702 2598 1920 2598 
C 2253 2598 2515 2502 2701 2298 
C 2893 2099 2995 1818 2995 1453 
C 2995 1133 2886 870 2682 666 
C 2470 461 2208 358 1888 358 
C 1606 358 1370 429 1190 563 
C 986 717 870 941 845 1229 
L 326 1229 
C 358 813 531 480 851 237 
C 1133 19 1478 -90 1882 -90 
C 2330 -90 2714 51 3021 326 
C 3347 621 3514 998 3514 1459 
C 3514 1952 3373 2336 3104 2618 
C 2835 2893 2483 3027 2048 3027 
C 1837 3027 1645 2995 1466 2918 
C 1267 2842 1101 2726 973 2573 
L 947 2573 
L 1101 4102 
L 3328 4102 
L 3328 4570 
L 672 4570 
z
" transform="scale(0.015625)"/>
      </defs>
      <use xlink:href="#PingFangSC-Regular-18"/>
     </g>
    </g>
   </g>
   <g id="xtick_7">
    <g id="line2d_8">
     <path d="M 189.472862 350.984179 
L 186.190203 353.267355 
" style="fill: none; stroke: #000000; stroke-width: 0.8; stroke-linecap: square"/>
    </g>
    <g id="text_7">
     <!-- 6 -->
     <g transform="translate(176.819882 377.71016) scale(0.12 -0.12)">
      <defs>
       <path id="PingFangSC-Regular-19" d="M 1984 4659 
C 1466 4659 1056 4422 755 3942 
C 467 3488 326 2893 326 2163 
C 326 1466 454 922 723 531 
C 1005 122 1421 -90 1978 -90 
C 2426 -90 2790 64 3085 358 
C 3373 653 3520 1030 3520 1478 
C 3520 1926 3386 2285 3123 2566 
C 2854 2848 2502 2989 2067 2989 
C 1798 2989 1562 2925 1357 2790 
C 1139 2662 979 2477 864 2240 
L 838 2240 
C 832 2323 832 2381 832 2406 
C 832 2925 928 3354 1133 3686 
C 1338 4045 1619 4218 1978 4218 
C 2509 4218 2822 3962 2925 3437 
L 3443 3437 
C 3315 4256 2829 4659 1984 4659 
z
M 1965 2554 
C 2278 2554 2528 2458 2720 2253 
C 2906 2061 3002 1805 3002 1478 
C 3002 1152 2906 883 2714 666 
C 2522 461 2272 352 1965 352 
C 1645 352 1395 461 1203 678 
C 1011 883 922 1146 922 1466 
C 922 1786 1018 2042 1216 2246 
C 1414 2451 1664 2554 1965 2554 
z
" transform="scale(0.015625)"/>
      </defs>
      <use xlink:href="#PingFangSC-Regular-19"/>
     </g>
    </g>
   </g>
   <g id="xtick_8">
    <g id="line2d_9">
     <path d="M 216.639004 358.454508 
L 213.395467 360.773052 
" style="fill: none; stroke: #000000; stroke-width: 0.8; stroke-linecap: square"/>
    </g>
    <g id="text_8">
     <!-- 7 -->
     <g transform="translate(204.356061 385.341124) scale(0.12 -0.12)">
      <defs>
       <path id="PingFangSC-Regular-1a" d="M 218 4570 
L 218 4090 
L 2682 4090 
L 979 0 
L 1536 0 
L 3219 4141 
L 3219 4570 
L 218 4570 
z
" transform="scale(0.015625)"/>
      </defs>
      <use xlink:href="#PingFangSC-Regular-1a"/>
     </g>
    </g>
   </g>
   <g id="xtick_9">
    <g id="line2d_10">
     <path d="M 244.227113 366.040871 
L 241.024318 368.395613 
" style="fill: none; stroke: #000000; stroke-width: 0.8; stroke-linecap: square"/>
    </g>
    <g id="text_9">
     <!-- 8 -->
     <g transform="translate(231.681312 393.091156) scale(0.12 -0.12)">
      <defs>
       <path id="PingFangSC-Regular-1b" d="M 1920 4659 
C 1440 4659 1069 4538 800 4288 
C 550 4064 429 3782 429 3450 
C 429 3206 486 3002 602 2835 
C 723 2656 902 2522 1146 2438 
L 1146 2426 
C 902 2368 704 2234 538 2029 
C 358 1811 269 1555 269 1261 
C 269 858 410 531 691 288 
C 979 38 1389 -90 1920 -90 
C 2445 -90 2854 38 3149 288 
C 3430 531 3571 858 3571 1261 
C 3571 1555 3482 1811 3302 2029 
C 3136 2234 2931 2368 2694 2426 
L 2694 2438 
C 2931 2522 3110 2656 3238 2835 
C 3354 3002 3411 3206 3411 3450 
C 3411 3782 3283 4064 3040 4288 
C 2771 4538 2394 4659 1920 4659 
z
M 1920 4230 
C 2240 4230 2496 4147 2682 3981 
C 2835 3840 2918 3654 2918 3430 
C 2918 3200 2848 3008 2707 2867 
C 2534 2701 2272 2611 1920 2611 
C 1562 2611 1299 2701 1133 2867 
C 992 3008 922 3200 922 3430 
C 922 3654 998 3840 1158 3981 
C 1338 4147 1594 4230 1920 4230 
z
M 1920 2202 
C 2285 2202 2573 2112 2778 1926 
C 2957 1760 3053 1536 3053 1261 
C 3053 992 2957 774 2778 608 
C 2573 429 2291 339 1920 339 
C 1549 339 1261 429 1069 602 
C 877 768 787 992 787 1261 
C 787 1536 877 1760 1069 1926 
C 1267 2112 1549 2202 1920 2202 
z
" transform="scale(0.015625)"/>
      </defs>
      <use xlink:href="#PingFangSC-Regular-1b"/>
     </g>
    </g>
   </g>
   <g id="text_10">
    <!-- x -->
    <g transform="translate(114.660083 374.96432) scale(0.12 -0.12)">
     <defs>
      <path id="PingFangSC-Regular-5b" d="M 173 3309 
L 1344 1754 
L 32 0 
L 640 0 
L 1632 1376 
L 2618 0 
L 3226 0 
L 1914 1754 
L 3085 3309 
L 2483 3309 
L 1632 2131 
L 774 3309 
L 173 3309 
z
" transform="scale(0.015625)"/>
     </defs>
     <use xlink:href="#PingFangSC-Regular-5b"/>
    </g>
   </g>
  </g>
  <g id="axis3d_2">
   <g id="line2d_11">
    <path d="M 364.436476 277.661217 
L 243.161214 366.824535 
" style="fill: none; stroke: #000000; stroke-width: 0.8; stroke-linecap: square"/>
   </g>
   <g id="xtick_10">
    <g id="line2d_12">
     <path d="M 241.381862 366.334702 
L 246.725236 367.805666 
" style="fill: none; stroke: #000000; stroke-width: 0.8; stroke-linecap: square"/>
    </g>
    <g id="text_11">
     <!-- 0 -->
     <g transform="translate(252.454589 390.911478) scale(0.12 -0.12)">
      <use xlink:href="#PingFangSC-Regular-13"/>
     </g>
    </g>
   </g>
   <g id="xtick_11">
    <g id="line2d_13">
     <path d="M 256.048013 355.571589 
L 261.354565 357.01055 
" style="fill: none; stroke: #000000; stroke-width: 0.8; stroke-linecap: square"/>
    </g>
    <g id="text_12">
     <!-- 1 -->
     <g transform="translate(268.184163 379.970382) scale(0.12 -0.12)">
      <use xlink:href="#PingFangSC-Regular-14"/>
     </g>
    </g>
   </g>
   <g id="xtick_12">
    <g id="line2d_14">
     <path d="M 270.397017 345.041223 
L 275.667081 346.449212 
" style="fill: none; stroke: #000000; stroke-width: 0.8; stroke-linecap: square"/>
    </g>
    <g id="text_13">
     <!-- 2 -->
     <g transform="translate(281.210041 369.266357) scale(0.12 -0.12)">
      <use xlink:href="#PingFangSC-Regular-15"/>
     </g>
    </g>
   </g>
   <g id="xtick_13">
    <g id="line2d_15">
     <path d="M 284.439052 334.736134 
L 289.672964 336.114142 
" style="fill: none; stroke: #000000; stroke-width: 0.8; stroke-linecap: square"/>
    </g>
    <g id="text_14">
     <!-- 3 -->
     <g transform="translate(295.125475 358.791779) scale(0.12 -0.12)">
      <use xlink:href="#PingFangSC-Regular-16"/>
     </g>
    </g>
   </g>
   <g id="xtick_14">
    <g id="line2d_16">
     <path d="M 298.183862 324.64917 
L 303.381965 325.998144 
" style="fill: none; stroke: #000000; stroke-width: 0.8; stroke-linecap: square"/>
    </g>
    <g id="text_15">
     <!-- 4 -->
     <g transform="translate(308.745786 348.539349) scale(0.12 -0.12)">
      <use xlink:href="#PingFangSC-Regular-17"/>
     </g>
    </g>
   </g>
   <g id="xtick_15">
    <g id="line2d_17">
     <path d="M 311.640786 314.773479 
L 316.803423 316.094326 
" style="fill: none; stroke: #000000; stroke-width: 0.8; stroke-linecap: square"/>
    </g>
    <g id="text_16">
     <!-- 5 -->
     <g transform="translate(322.080264 338.502074) scale(0.12 -0.12)">
      <use xlink:href="#PingFangSC-Regular-18"/>
     </g>
    </g>
   </g>
   <g id="xtick_16">
    <g id="line2d_18">
     <path d="M 324.818776 305.10249 
L 329.946292 306.396082 
" style="fill: none; stroke: #000000; stroke-width: 0.8; stroke-linecap: square"/>
    </g>
    <g id="text_17">
     <!-- 6 -->
     <g transform="translate(335.137813 328.673251) scale(0.12 -0.12)">
      <use xlink:href="#PingFangSC-Regular-19"/>
     </g>
    </g>
   </g>
   <g id="xtick_17">
    <g id="line2d_19">
     <path d="M 337.726414 295.629905 
L 342.819156 296.897077 
" style="fill: none; stroke: #000000; stroke-width: 0.8; stroke-linecap: square"/>
    </g>
    <g id="text_18">
     <!-- 7 -->
     <g transform="translate(348.244785 319.046454) scale(0.12 -0.12)">
      <use xlink:href="#PingFangSC-Regular-1a"/>
     </g>
    </g>
   </g>
   <g id="xtick_18">
    <g id="line2d_20">
     <path d="M 350.371936 286.349681 
L 355.430252 287.591233 
" style="fill: none; stroke: #000000; stroke-width: 0.8; stroke-linecap: square"/>
    </g>
    <g id="text_19">
     <!-- 8 -->
     <g transform="translate(360.455933 309.615518) scale(0.12 -0.12)">
      <use xlink:href="#PingFangSC-Regular-1b"/>
     </g>
    </g>
   </g>
   <g id="xtick_19">
    <g id="line2d_21">
     <path d="M 362.763246 277.256016 
L 367.787483 278.472718 
" style="fill: none; stroke: #000000; stroke-width: 0.8; stroke-linecap: square"/>
    </g>
    <g id="text_20">
     <!-- 9 -->
     <g transform="translate(372.732554 300.374524) scale(0.12 -0.12)">
      <defs>
       <path id="PingFangSC-Regular-1c" d="M 1869 4659 
C 1421 4659 1050 4512 762 4211 
C 467 3917 326 3546 326 3091 
C 326 2650 454 2291 717 2016 
C 986 1728 1338 1581 1779 1581 
C 2048 1581 2285 1651 2490 1779 
C 2701 1914 2867 2099 2982 2330 
L 3008 2330 
C 3008 2253 3014 2195 3014 2163 
C 3014 1651 2912 1222 2714 883 
C 2502 531 2221 352 1869 352 
C 1331 352 1018 614 922 1133 
L 403 1133 
C 525 320 1011 -90 1862 -90 
C 2374 -90 2784 154 3091 627 
C 3373 1088 3520 1677 3520 2406 
C 3520 3110 3386 3661 3117 4045 
C 2835 4454 2419 4659 1869 4659 
z
M 1882 4218 
C 2195 4218 2451 4109 2643 3891 
C 2829 3686 2925 3424 2925 3104 
C 2925 2790 2822 2528 2630 2323 
C 2426 2118 2176 2016 1882 2016 
C 1562 2016 1312 2118 1126 2317 
C 934 2509 845 2771 845 3091 
C 845 3424 934 3693 1126 3904 
C 1318 4115 1568 4218 1882 4218 
z
" transform="scale(0.015625)"/>
      </defs>
      <use xlink:href="#PingFangSC-Regular-1c"/>
     </g>
    </g>
   </g>
   <g id="text_21">
    <!-- y -->
    <g transform="translate(330.646894 352.508744) scale(0.12 -0.12)">
     <defs>
      <path id="PingFangSC-Regular-5c" d="M 32 3309 
L 1344 77 
L 774 -1267 
L 1331 -1267 
L 3142 3309 
L 2579 3309 
L 1600 698 
L 589 3309 
L 32 3309 
z
" transform="scale(0.015625)"/>
     </defs>
     <use xlink:href="#PingFangSC-Regular-5c"/>
    </g>
   </g>
  </g>
  <g id="axis3d_3">
   <g id="line2d_22">
    <path d="M 364.436476 277.661217 
L 369.868189 110.406648 
" style="fill: none; stroke: #000000; stroke-width: 0.8; stroke-linecap: square"/>
   </g>
   <g id="xtick_20">
    <g id="line2d_23">
     <path d="M 362.763246 277.256016 
L 367.787483 278.472718 
" style="fill: none; stroke: #000000; stroke-width: 0.8; stroke-linecap: square"/>
    </g>
    <g id="text_22">
     <!-- 0 -->
     <g transform="translate(379.408322 286.21319) scale(0.12 -0.12)">
      <use xlink:href="#PingFangSC-Regular-13"/>
     </g>
    </g>
   </g>
   <g id="xtick_21">
    <g id="line2d_24">
     <path d="M 363.809932 244.688329 
L 368.868336 245.868426 
" style="fill: none; stroke: #000000; stroke-width: 0.8; stroke-linecap: square"/>
    </g>
    <g id="text_23">
     <!-- 2 -->
     <g transform="translate(380.584934 253.686527) scale(0.12 -0.12)">
      <use xlink:href="#PingFangSC-Regular-15"/>
     </g>
    </g>
   </g>
   <g id="xtick_22">
    <g id="line2d_25">
     <path d="M 364.870329 211.694041 
L 369.963368 212.836467 
" style="fill: none; stroke: #000000; stroke-width: 0.8; stroke-linecap: square"/>
    </g>
    <g id="text_24">
     <!-- 4 -->
     <g transform="translate(381.776935 220.734458) scale(0.12 -0.12)">
      <use xlink:href="#PingFangSC-Regular-17"/>
     </g>
    </g>
   </g>
   <g id="xtick_23">
    <g id="line2d_26">
     <path d="M 365.944707 178.264715 
L 371.072857 179.36837 
" style="fill: none; stroke: #000000; stroke-width: 0.8; stroke-linecap: square"/>
    </g>
    <g id="text_25">
     <!-- 6 -->
     <g transform="translate(382.984628 187.348583) scale(0.12 -0.12)">
      <use xlink:href="#PingFangSC-Regular-19"/>
     </g>
    </g>
   </g>
   <g id="xtick_24">
    <g id="line2d_27">
     <path d="M 367.033345 144.391691 
L 372.197093 145.45544 
" style="fill: none; stroke: #000000; stroke-width: 0.8; stroke-linecap: square"/>
    </g>
    <g id="text_26">
     <!-- 8 -->
     <g transform="translate(384.208326 153.520277) scale(0.12 -0.12)">
      <use xlink:href="#PingFangSC-Regular-1b"/>
     </g>
    </g>
   </g>
   <g id="xtick_25">
    <g id="line2d_28">
     <path d="M 368.136528 110.066075 
L 373.336372 111.08875 
" style="fill: none; stroke: #000000; stroke-width: 0.8; stroke-linecap: square"/>
    </g>
    <g id="text_27">
     <!-- 10 -->
     <g transform="translate(383.042724 119.240689) scale(0.12 -0.12)">
      <use xlink:href="#PingFangSC-Regular-14"/>
      <use xlink:href="#PingFangSC-Regular-13" transform="translate(40.09375 0)"/>
     </g>
    </g>
   </g>
   <g id="text_28">
    <!-- z -->
    <g transform="translate(405.113289 196.188714) scale(0.12 -0.12)">
     <defs>
      <path id="PingFangSC-Regular-5d" d="M 224 3309 
L 224 2880 
L 2182 2880 
L 160 371 
L 160 0 
L 2957 0 
L 2957 429 
L 826 429 
L 2854 2950 
L 2854 3309 
L 224 3309 
z
" transform="scale(0.015625)"/>
     </defs>
     <use xlink:href="#PingFangSC-Regular-5d"/>
    </g>
   </g>
  </g>
  <g id="axes_1">
   <g id="line2d_29">
    <path d="M 88.692163 246.899905 
L 209.07327 188.462457 
L 329.638686 129.935538 
" clip-path="url(#p771595cded)" style="fill: none; stroke-dasharray: 5.18,2.24; stroke-dashoffset: 0; stroke: #444444; stroke-width: 1.4"/>
   </g>
   <g id="Line3DCollection_4">
    <path d="M 88.692163 246.899905 
L 33.658532 309.151044 
" clip-path="url(#p771595cded)" style="fill: none; stroke: #2f6f9f; stroke-width: 2.5"/>
    <path d="M 88.692163 246.899905 
L 86.027337 252.146687 
" clip-path="url(#p771595cded)" style="fill: none; stroke: #2f6f9f; stroke-width: 2.5"/>
    <path d="M 88.692163 246.899905 
L 82.877038 251.242835 
" clip-path="url(#p771595cded)" style="fill: none; stroke: #2f6f9f; stroke-width: 2.5"/>
   </g>
   <g id="text_29">
    <!-- $w_1=(1,2,3)$ -->
    <g style="fill: #2f6f9f" transform="translate(88.559824 241.013646) scale(0.1 -0.1)">
     <defs>
      <path id="DejaVuSans-Oblique-5a" d="M 544 3500 
L 1113 3500 
L 1259 684 
L 2566 3500 
L 3231 3500 
L 3425 684 
L 4666 3500 
L 5241 3500 
L 3641 0 
L 2969 0 
L 2797 2900 
L 1459 0 
L 781 0 
L 544 3500 
z
" transform="scale(0.015625)"/>
      <path id="DejaVuSans-14" d="M 794 531 
L 1825 531 
L 1825 4091 
L 703 3866 
L 703 4441 
L 1819 4666 
L 2450 4666 
L 2450 531 
L 3481 531 
L 3481 0 
L 794 0 
L 794 531 
z
" transform="scale(0.015625)"/>
      <path id="DejaVuSans-20" d="M 678 2906 
L 4684 2906 
L 4684 2381 
L 678 2381 
L 678 2906 
z
M 678 1631 
L 4684 1631 
L 4684 1100 
L 678 1100 
L 678 1631 
z
" transform="scale(0.015625)"/>
      <path id="DejaVuSans-b" d="M 1984 4856 
Q 1566 4138 1362 3434 
Q 1159 2731 1159 2009 
Q 1159 1288 1364 580 
Q 1569 -128 1984 -844 
L 1484 -844 
Q 1016 -109 783 600 
Q 550 1309 550 2009 
Q 550 2706 781 3412 
Q 1013 4119 1484 4856 
L 1984 4856 
z
" transform="scale(0.015625)"/>
      <path id="DejaVuSans-f" d="M 750 794 
L 1409 794 
L 1409 256 
L 897 -744 
L 494 -744 
L 750 256 
L 750 794 
z
" transform="scale(0.015625)"/>
      <path id="DejaVuSans-15" d="M 1228 531 
L 3431 531 
L 3431 0 
L 469 0 
L 469 531 
Q 828 903 1448 1529 
Q 2069 2156 2228 2338 
Q 2531 2678 2651 2914 
Q 2772 3150 2772 3378 
Q 2772 3750 2511 3984 
Q 2250 4219 1831 4219 
Q 1534 4219 1204 4116 
Q 875 4013 500 3803 
L 500 4441 
Q 881 4594 1212 4672 
Q 1544 4750 1819 4750 
Q 2544 4750 2975 4387 
Q 3406 4025 3406 3419 
Q 3406 3131 3298 2873 
Q 3191 2616 2906 2266 
Q 2828 2175 2409 1742 
Q 1991 1309 1228 531 
z
" transform="scale(0.015625)"/>
      <path id="DejaVuSans-16" d="M 2597 2516 
Q 3050 2419 3304 2112 
Q 3559 1806 3559 1356 
Q 3559 666 3084 287 
Q 2609 -91 1734 -91 
Q 1441 -91 1130 -33 
Q 819 25 488 141 
L 488 750 
Q 750 597 1062 519 
Q 1375 441 1716 441 
Q 2309 441 2620 675 
Q 2931 909 2931 1356 
Q 2931 1769 2642 2001 
Q 2353 2234 1838 2234 
L 1294 2234 
L 1294 2753 
L 1863 2753 
Q 2328 2753 2575 2939 
Q 2822 3125 2822 3475 
Q 2822 3834 2567 4026 
Q 2313 4219 1838 4219 
Q 1578 4219 1281 4162 
Q 984 4106 628 3988 
L 628 4550 
Q 988 4650 1302 4700 
Q 1616 4750 1894 4750 
Q 2613 4750 3031 4423 
Q 3450 4097 3450 3541 
Q 3450 3153 3228 2886 
Q 3006 2619 2597 2516 
z
" transform="scale(0.015625)"/>
      <path id="DejaVuSans-c" d="M 513 4856 
L 1013 4856 
Q 1481 4119 1714 3412 
Q 1947 2706 1947 2009 
Q 1947 1309 1714 600 
Q 1481 -109 1013 -844 
L 513 -844 
Q 928 -128 1133 580 
Q 1338 1288 1338 2009 
Q 1338 2731 1133 3434 
Q 928 4138 513 4856 
z
" transform="scale(0.015625)"/>
     </defs>
     <use xlink:href="#DejaVuSans-Oblique-5a" transform="translate(0 0.125)"/>
     <use xlink:href="#DejaVuSans-14" transform="translate(81.787109 -14.874951) scale(0.7)"/>
     <use xlink:href="#DejaVuSans-20" transform="translate(148.540039 0.125)"/>
     <use xlink:href="#DejaVuSans-b" transform="translate(251.811523 0.125)"/>
     <use xlink:href="#DejaVuSans-14" transform="translate(290.825195 0.125)"/>
     <use xlink:href="#DejaVuSans-f" transform="translate(354.448242 0.125)"/>
     <use xlink:href="#DejaVuSans-15" transform="translate(405.717773 0.125)"/>
     <use xlink:href="#DejaVuSans-f" transform="translate(469.34082 0.125)"/>
     <use xlink:href="#DejaVuSans-16" transform="translate(520.610352 0.125)"/>
     <use xlink:href="#DejaVuSans-c" transform="translate(584.233398 0.125)"/>
    </g>
   </g>
   <g id="text_30">
    <!-- $w_2=(4,5,6)$ -->
    <g style="fill: #b65f2a" transform="translate(209.081658 182.503327) scale(0.1 -0.1)">
     <defs>
      <path id="DejaVuSans-17" d="M 2419 4116 
L 825 1625 
L 2419 1625 
L 2419 4116 
z
M 2253 4666 
L 3047 4666 
L 3047 1625 
L 3713 1625 
L 3713 1100 
L 3047 1100 
L 3047 0 
L 2419 0 
L 2419 1100 
L 313 1100 
L 313 1709 
L 2253 4666 
z
" transform="scale(0.015625)"/>
      <path id="DejaVuSans-18" d="M 691 4666 
L 3169 4666 
L 3169 4134 
L 1269 4134 
L 1269 2991 
Q 1406 3038 1543 3061 
Q 1681 3084 1819 3084 
Q 2600 3084 3056 2656 
Q 3513 2228 3513 1497 
Q 3513 744 3044 326 
Q 2575 -91 1722 -91 
Q 1428 -91 1123 -41 
Q 819 9 494 109 
L 494 744 
Q 775 591 1075 516 
Q 1375 441 1709 441 
Q 2250 441 2565 725 
Q 2881 1009 2881 1497 
Q 2881 1984 2565 2268 
Q 2250 2553 1709 2553 
Q 1456 2553 1204 2497 
Q 953 2441 691 2322 
L 691 4666 
z
" transform="scale(0.015625)"/>
      <path id="DejaVuSans-19" d="M 2113 2584 
Q 1688 2584 1439 2293 
Q 1191 2003 1191 1497 
Q 1191 994 1439 701 
Q 1688 409 2113 409 
Q 2538 409 2786 701 
Q 3034 994 3034 1497 
Q 3034 2003 2786 2293 
Q 2538 2584 2113 2584 
z
M 3366 4563 
L 3366 3988 
Q 3128 4100 2886 4159 
Q 2644 4219 2406 4219 
Q 1781 4219 1451 3797 
Q 1122 3375 1075 2522 
Q 1259 2794 1537 2939 
Q 1816 3084 2150 3084 
Q 2853 3084 3261 2657 
Q 3669 2231 3669 1497 
Q 3669 778 3244 343 
Q 2819 -91 2113 -91 
Q 1303 -91 875 529 
Q 447 1150 447 2328 
Q 447 3434 972 4092 
Q 1497 4750 2381 4750 
Q 2619 4750 2861 4703 
Q 3103 4656 3366 4563 
z
" transform="scale(0.015625)"/>
     </defs>
     <use xlink:href="#DejaVuSans-Oblique-5a" transform="translate(0 0.125)"/>
     <use xlink:href="#DejaVuSans-15" transform="translate(81.787109 -14.874951) scale(0.7)"/>
     <use xlink:href="#DejaVuSans-20" transform="translate(148.540039 0.125)"/>
     <use xlink:href="#DejaVuSans-b" transform="translate(251.811523 0.125)"/>
     <use xlink:href="#DejaVuSans-17" transform="translate(290.825195 0.125)"/>
     <use xlink:href="#DejaVuSans-f" transform="translate(354.448242 0.125)"/>
     <use xlink:href="#DejaVuSans-18" transform="translate(405.717773 0.125)"/>
     <use xlink:href="#DejaVuSans-f" transform="translate(469.34082 0.125)"/>
     <use xlink:href="#DejaVuSans-19" transform="translate(520.610352 0.125)"/>
     <use xlink:href="#DejaVuSans-c" transform="translate(584.233398 0.125)"/>
    </g>
   </g>
   <g id="text_31">
    <!-- $w_3=(7,8,9)$ -->
    <g style="fill: #9b1d20" transform="translate(329.788231 123.903322) scale(0.1 -0.1)">
     <defs>
      <path id="DejaVuSans-1a" d="M 525 4666 
L 3525 4666 
L 3525 4397 
L 1831 0 
L 1172 0 
L 2766 4134 
L 525 4134 
L 525 4666 
z
" transform="scale(0.015625)"/>
      <path id="DejaVuSans-1b" d="M 2034 2216 
Q 1584 2216 1326 1975 
Q 1069 1734 1069 1313 
Q 1069 891 1326 650 
Q 1584 409 2034 409 
Q 2484 409 2743 651 
Q 3003 894 3003 1313 
Q 3003 1734 2745 1975 
Q 2488 2216 2034 2216 
z
M 1403 2484 
Q 997 2584 770 2862 
Q 544 3141 544 3541 
Q 544 4100 942 4425 
Q 1341 4750 2034 4750 
Q 2731 4750 3128 4425 
Q 3525 4100 3525 3541 
Q 3525 3141 3298 2862 
Q 3072 2584 2669 2484 
Q 3125 2378 3379 2068 
Q 3634 1759 3634 1313 
Q 3634 634 3220 271 
Q 2806 -91 2034 -91 
Q 1263 -91 848 271 
Q 434 634 434 1313 
Q 434 1759 690 2068 
Q 947 2378 1403 2484 
z
M 1172 3481 
Q 1172 3119 1398 2916 
Q 1625 2713 2034 2713 
Q 2441 2713 2670 2916 
Q 2900 3119 2900 3481 
Q 2900 3844 2670 4047 
Q 2441 4250 2034 4250 
Q 1625 4250 1398 4047 
Q 1172 3844 1172 3481 
z
" transform="scale(0.015625)"/>
      <path id="DejaVuSans-1c" d="M 703 97 
L 703 672 
Q 941 559 1184 500 
Q 1428 441 1663 441 
Q 2288 441 2617 861 
Q 2947 1281 2994 2138 
Q 2813 1869 2534 1725 
Q 2256 1581 1919 1581 
Q 1219 1581 811 2004 
Q 403 2428 403 3163 
Q 403 3881 828 4315 
Q 1253 4750 1959 4750 
Q 2769 4750 3195 4129 
Q 3622 3509 3622 2328 
Q 3622 1225 3098 567 
Q 2575 -91 1691 -91 
Q 1453 -91 1209 -44 
Q 966 3 703 97 
z
M 1959 2075 
Q 2384 2075 2632 2365 
Q 2881 2656 2881 3163 
Q 2881 3666 2632 3958 
Q 2384 4250 1959 4250 
Q 1534 4250 1286 3958 
Q 1038 3666 1038 3163 
Q 1038 2656 1286 2365 
Q 1534 2075 1959 2075 
z
" transform="scale(0.015625)"/>
     </defs>
     <use xlink:href="#DejaVuSans-Oblique-5a" transform="translate(0 0.125)"/>
     <use xlink:href="#DejaVuSans-16" transform="translate(81.787109 -14.874951) scale(0.7)"/>
     <use xlink:href="#DejaVuSans-20" transform="translate(148.540039 0.125)"/>
     <use xlink:href="#DejaVuSans-b" transform="translate(251.811523 0.125)"/>
     <use xlink:href="#DejaVuSans-1a" transform="translate(290.825195 0.125)"/>
     <use xlink:href="#DejaVuSans-f" transform="translate(354.448242 0.125)"/>
     <use xlink:href="#DejaVuSans-1b" transform="translate(405.717773 0.125)"/>
     <use xlink:href="#DejaVuSans-f" transform="translate(469.34082 0.125)"/>
     <use xlink:href="#DejaVuSans-1c" transform="translate(520.610352 0.125)"/>
     <use xlink:href="#DejaVuSans-c" transform="translate(584.233398 0.125)"/>
    </g>
   </g>
   <g id="text_32">
    <!-- $w_1 - 2w_2 + w_3 = 0$ -->
    <g style="fill: #1f1f1f" transform="translate(154.597945 224.981668) scale(0.12 -0.12)">
     <defs>
      <path id="DejaVuSans-c9c" d="M 678 2272 
L 4684 2272 
L 4684 1741 
L 678 1741 
L 678 2272 
z
" transform="scale(0.015625)"/>
      <path id="DejaVuSans-e" d="M 2944 4013 
L 2944 2272 
L 4684 2272 
L 4684 1741 
L 2944 1741 
L 2944 0 
L 2419 0 
L 2419 1741 
L 678 1741 
L 678 2272 
L 2419 2272 
L 2419 4013 
L 2944 4013 
z
" transform="scale(0.015625)"/>
      <path id="DejaVuSans-13" d="M 2034 4250 
Q 1547 4250 1301 3770 
Q 1056 3291 1056 2328 
Q 1056 1369 1301 889 
Q 1547 409 2034 409 
Q 2525 409 2770 889 
Q 3016 1369 3016 2328 
Q 3016 3291 2770 3770 
Q 2525 4250 2034 4250 
z
M 2034 4750 
Q 2819 4750 3233 4129 
Q 3647 3509 3647 2328 
Q 3647 1150 3233 529 
Q 2819 -91 2034 -91 
Q 1250 -91 836 529 
Q 422 1150 422 2328 
Q 422 3509 836 4129 
Q 1250 4750 2034 4750 
z
" transform="scale(0.015625)"/>
     </defs>
     <use xlink:href="#DejaVuSans-Oblique-5a" transform="translate(0 0.78125)"/>
     <use xlink:href="#DejaVuSans-14" transform="translate(81.787109 -14.218701) scale(0.7)"/>
     <use xlink:href="#DejaVuSans-c9c" transform="translate(148.540039 0.78125)"/>
     <use xlink:href="#DejaVuSans-15" transform="translate(251.811523 0.78125)"/>
     <use xlink:href="#DejaVuSans-Oblique-5a" transform="translate(315.43457 0.78125)"/>
     <use xlink:href="#DejaVuSans-15" transform="translate(397.22168 -14.218701) scale(0.7)"/>
     <use xlink:href="#DejaVuSans-e" transform="translate(463.974609 0.78125)"/>
     <use xlink:href="#DejaVuSans-Oblique-5a" transform="translate(567.246094 0.78125)"/>
     <use xlink:href="#DejaVuSans-16" transform="translate(649.033203 -14.218701) scale(0.7)"/>
     <use xlink:href="#DejaVuSans-20" transform="translate(715.786133 0.78125)"/>
     <use xlink:href="#DejaVuSans-13" transform="translate(819.057617 0.78125)"/>
    </g>
   </g>
   <g id="text_33">
    <!-- Dependent columns lie in one plane -->
    <g transform="translate(80.700073 19.24) scale(0.14 -0.14)">
     <defs>
      <path id="PingFangSC-Regular-27" d="M 461 4570 
L 461 0 
L 2048 0 
C 2765 0 3315 211 3699 627 
C 4064 1024 4250 1581 4250 2285 
C 4250 3002 4077 3558 3738 3942 
C 3366 4365 2822 4570 2099 4570 
L 461 4570 
z
M 986 4115 
L 2016 4115 
C 2618 4115 3053 3962 3334 3648 
C 3597 3354 3731 2899 3731 2285 
C 3731 1690 3584 1235 3302 928 
C 3002 614 2554 454 1958 454 
L 986 454 
L 986 4115 
z
" transform="scale(0.015625)"/>
      <path id="PingFangSC-Regular-48" d="M 1760 3398 
C 1280 3398 902 3226 621 2880 
C 339 2554 205 2144 205 1658 
C 205 1120 346 698 640 378 
C 922 70 1306 -90 1779 -90 
C 2208 -90 2560 38 2835 282 
C 3059 486 3206 742 3283 1062 
L 2771 1062 
C 2688 832 2579 659 2438 544 
C 2272 410 2048 339 1779 339 
C 1466 339 1216 442 1037 646 
C 858 851 762 1139 736 1510 
L 3347 1510 
C 3334 2086 3206 2541 2963 2861 
C 2694 3219 2291 3398 1760 3398 
z
M 1773 2970 
C 2400 2970 2752 2618 2816 1907 
L 749 1907 
C 781 2234 883 2490 1062 2682 
C 1242 2874 1478 2970 1773 2970 
z
" transform="scale(0.015625)"/>
      <path id="PingFangSC-Regular-53" d="M 1978 3398 
C 1478 3398 1114 3187 877 2765 
L 877 3309 
L 397 3309 
L 397 -1267 
L 909 -1267 
L 909 602 
C 1165 141 1530 -90 2003 -90 
C 2477 -90 2842 90 3110 435 
C 3354 755 3482 1158 3482 1645 
C 3482 2144 3354 2547 3104 2867 
C 2829 3226 2451 3398 1978 3398 
z
M 1914 2976 
C 2266 2976 2534 2848 2720 2579 
C 2874 2349 2957 2035 2957 1645 
C 2957 1248 2874 934 2707 704 
C 2522 461 2253 333 1894 333 
C 1587 333 1350 454 1171 685 
C 979 922 890 1229 890 1613 
L 890 1677 
C 890 2048 973 2355 1139 2586 
C 1318 2848 1581 2976 1914 2976 
z
" transform="scale(0.015625)"/>
      <path id="PingFangSC-Regular-51" d="M 1946 3398 
C 1728 3398 1530 3347 1350 3245 
C 1171 3149 1024 3008 909 2822 
L 909 3309 
L 397 3309 
L 397 0 
L 909 0 
L 909 1997 
C 928 2298 1024 2534 1203 2714 
C 1370 2880 1568 2963 1798 2963 
C 2374 2963 2669 2643 2669 1997 
L 2669 0 
L 3181 0 
L 3181 2035 
C 3181 2944 2765 3398 1946 3398 
z
" transform="scale(0.015625)"/>
      <path id="PingFangSC-Regular-47" d="M 2842 4659 
L 2842 2701 
C 2586 3168 2221 3398 1747 3398 
C 1274 3398 909 3226 640 2867 
C 390 2547 269 2150 269 1664 
C 269 1165 390 755 640 435 
C 909 90 1286 -90 1773 -90 
C 2272 -90 2643 122 2874 544 
L 2874 0 
L 3354 0 
L 3354 4659 
L 2842 4659 
z
M 1856 2976 
C 2150 2976 2394 2861 2579 2618 
C 2758 2381 2854 2067 2854 1683 
L 2854 1619 
C 2854 1248 2771 947 2611 717 
C 2426 461 2170 333 1837 333 
C 1478 333 1210 467 1030 723 
C 870 954 794 1267 794 1664 
C 794 2061 870 2368 1037 2592 
C 1216 2848 1491 2976 1856 2976 
z
" transform="scale(0.015625)"/>
      <path id="PingFangSC-Regular-57" d="M 1280 4378 
L 774 4166 
L 774 3309 
L 109 3309 
L 109 2880 
L 774 2880 
L 774 774 
C 774 525 826 339 934 211 
C 1050 70 1248 0 1517 0 
L 2016 0 
L 2016 429 
L 1594 429 
C 1478 429 1395 461 1350 512 
C 1299 563 1280 653 1280 774 
L 1280 2880 
L 2099 2880 
L 2099 3309 
L 1280 3309 
L 1280 4378 
z
" transform="scale(0.015625)"/>
      <path id="PingFangSC-Regular-3" transform="scale(0.015625)"/>
      <path id="PingFangSC-Regular-46" d="M 1824 3398 
C 1331 3398 941 3226 659 2874 
C 397 2554 269 2144 269 1638 
C 269 1133 397 723 659 410 
C 934 77 1318 -90 1818 -90 
C 2227 -90 2554 19 2803 230 
C 3059 448 3219 774 3296 1197 
L 2784 1197 
C 2707 627 2381 339 1818 339 
C 1485 339 1229 461 1056 691 
C 877 922 794 1242 794 1645 
C 794 2048 883 2368 1062 2605 
C 1248 2848 1504 2970 1824 2970 
C 2086 2970 2298 2912 2464 2784 
C 2624 2656 2726 2464 2771 2208 
L 3277 2208 
C 3219 2611 3066 2912 2810 3110 
C 2560 3302 2234 3398 1824 3398 
z
" transform="scale(0.015625)"/>
      <path id="PingFangSC-Regular-52" d="M 1875 3398 
C 1376 3398 986 3232 691 2886 
C 410 2560 269 2150 269 1651 
C 269 1158 410 749 691 429 
C 986 83 1376 -90 1875 -90 
C 2368 -90 2765 83 3066 429 
C 3341 749 3482 1158 3482 1651 
C 3482 2150 3341 2560 3059 2886 
C 2765 3232 2368 3398 1875 3398 
z
M 1875 2970 
C 2221 2970 2496 2835 2701 2566 
C 2874 2323 2963 2022 2963 1651 
C 2963 1293 2874 986 2701 742 
C 2496 474 2221 339 1875 339 
C 1523 339 1248 474 1056 742 
C 877 986 794 1286 794 1651 
C 794 2022 877 2323 1056 2566 
C 1248 2835 1523 2970 1875 2970 
z
" transform="scale(0.015625)"/>
      <path id="PingFangSC-Regular-4f" d="M 499 4659 
L 499 0 
L 1005 0 
L 1005 4659 
L 499 4659 
z
" transform="scale(0.015625)"/>
      <path id="PingFangSC-Regular-58" d="M 397 3309 
L 397 1261 
C 397 365 794 -90 1600 -90 
C 2048 -90 2406 115 2675 512 
L 2675 0 
L 3187 0 
L 3187 3309 
L 2675 3309 
L 2675 1293 
C 2637 1011 2528 781 2349 602 
C 2176 435 1978 346 1760 346 
C 1459 346 1242 429 1107 582 
C 973 736 909 973 909 1286 
L 909 3309 
L 397 3309 
z
" transform="scale(0.015625)"/>
      <path id="PingFangSC-Regular-50" d="M 1843 3398 
C 1472 3398 1158 3226 909 2867 
L 909 3309 
L 397 3309 
L 397 0 
L 909 0 
L 909 2016 
C 909 2278 986 2502 1139 2682 
C 1293 2874 1485 2963 1722 2963 
C 2227 2963 2483 2675 2483 2086 
L 2483 0 
L 2995 0 
L 2995 2074 
C 2995 2342 3066 2554 3219 2720 
C 3360 2886 3546 2963 3763 2963 
C 4045 2963 4250 2893 4378 2739 
C 4499 2598 4563 2381 4563 2086 
L 4563 0 
L 5075 0 
L 5075 2170 
C 5075 2547 4966 2848 4762 3072 
C 4544 3290 4269 3398 3923 3398 
C 3693 3398 3501 3347 3341 3245 
C 3162 3149 3008 2989 2880 2771 
C 2694 3194 2349 3398 1843 3398 
z
" transform="scale(0.015625)"/>
      <path id="PingFangSC-Regular-56" d="M 1568 3398 
C 1197 3398 890 3315 659 3149 
C 410 2982 288 2765 288 2483 
C 288 2202 410 1990 666 1837 
C 819 1734 1094 1638 1485 1542 
C 1843 1453 2080 1382 2189 1331 
C 2394 1229 2502 1088 2502 902 
C 2502 531 2202 339 1613 339 
C 1331 339 1120 390 979 493 
C 838 608 742 794 704 1056 
L 205 1056 
C 282 294 755 -90 1626 -90 
C 2560 -90 3027 256 3027 934 
C 3027 1222 2893 1446 2630 1613 
C 2458 1722 2176 1824 1779 1920 
C 1446 2010 1216 2080 1094 2138 
C 902 2234 813 2355 813 2496 
C 813 2643 883 2758 1024 2842 
C 1152 2931 1331 2970 1562 2970 
C 1824 2970 2029 2918 2170 2816 
C 2298 2726 2381 2573 2426 2368 
L 2925 2368 
C 2835 3059 2387 3398 1568 3398 
z
" transform="scale(0.015625)"/>
      <path id="PingFangSC-Regular-4c" d="M 819 4557 
C 710 4557 621 4525 544 4448 
C 467 4384 435 4294 435 4179 
C 435 4070 467 3981 544 3904 
C 621 3834 710 3795 819 3795 
C 928 3795 1018 3834 1094 3904 
C 1171 3981 1210 4070 1210 4179 
C 1210 4294 1171 4384 1094 4448 
C 1018 4525 928 4557 819 4557 
z
M 563 3309 
L 563 0 
L 1075 0 
L 1075 3309 
L 563 3309 
z
" transform="scale(0.015625)"/>
      <path id="PingFangSC-Regular-44" d="M 1837 3398 
C 1440 3398 1126 3322 883 3168 
C 614 3002 442 2739 371 2394 
L 877 2355 
C 928 2566 1037 2726 1210 2829 
C 1363 2931 1562 2976 1805 2976 
C 2381 2976 2669 2701 2669 2144 
L 2669 1971 
L 1875 1958 
C 1376 1952 992 1856 723 1677 
C 416 1485 269 1203 269 826 
C 269 557 371 333 576 160 
C 774 -6 1037 -90 1370 -90 
C 1677 -90 1952 -19 2195 115 
C 2400 230 2573 378 2701 557 
L 2701 0 
L 3181 0 
L 3181 2125 
C 3181 2509 3078 2810 2886 3027 
C 2656 3277 2310 3398 1837 3398 
z
M 2669 1587 
L 2669 1306 
C 2669 1050 2547 819 2310 621 
C 2067 416 1792 314 1478 314 
C 1274 314 1107 365 979 461 
C 851 563 794 685 794 838 
C 794 1318 1165 1562 1907 1574 
L 2669 1587 
z
" transform="scale(0.015625)"/>
     </defs>
     <use xlink:href="#PingFangSC-Regular-27"/>
     <use xlink:href="#PingFangSC-Regular-48" transform="translate(70.59375 0)"/>
     <use xlink:href="#PingFangSC-Regular-53" transform="translate(126.09375 0)"/>
     <use xlink:href="#PingFangSC-Regular-48" transform="translate(184.6875 0)"/>
     <use xlink:href="#PingFangSC-Regular-51" transform="translate(240.1875 0)"/>
     <use xlink:href="#PingFangSC-Regular-47" transform="translate(296.09375 0)"/>
     <use xlink:href="#PingFangSC-Regular-48" transform="translate(354.6875 0)"/>
     <use xlink:href="#PingFangSC-Regular-51" transform="translate(410.1875 0)"/>
     <use xlink:href="#PingFangSC-Regular-57" transform="translate(466.09375 0)"/>
     <use xlink:href="#PingFangSC-Regular-3" transform="translate(501.59375 0)"/>
     <use xlink:href="#PingFangSC-Regular-46" transform="translate(534.890625 0)"/>
     <use xlink:href="#PingFangSC-Regular-52" transform="translate(589.59375 0)"/>
     <use xlink:href="#PingFangSC-Regular-4f" transform="translate(648.1875 0)"/>
     <use xlink:href="#PingFangSC-Regular-58" transform="translate(671.6875 0)"/>
     <use xlink:href="#PingFangSC-Regular-50" transform="translate(727.6875 0)"/>
     <use xlink:href="#PingFangSC-Regular-51" transform="translate(813.1875 0)"/>
     <use xlink:href="#PingFangSC-Regular-56" transform="translate(869.09375 0)"/>
     <use xlink:href="#PingFangSC-Regular-3" transform="translate(919.59375 0)"/>
     <use xlink:href="#PingFangSC-Regular-4f" transform="translate(952.890625 0)"/>
     <use xlink:href="#PingFangSC-Regular-4c" transform="translate(976.390625 0)"/>
     <use xlink:href="#PingFangSC-Regular-48" transform="translate(1001.984375 0)"/>
     <use xlink:href="#PingFangSC-Regular-3" transform="translate(1057.484375 0)"/>
     <use xlink:href="#PingFangSC-Regular-4c" transform="translate(1090.78125 0)"/>
     <use xlink:href="#PingFangSC-Regular-51" transform="translate(1116.375 0)"/>
     <use xlink:href="#PingFangSC-Regular-3" transform="translate(1172.28125 0)"/>
     <use xlink:href="#PingFangSC-Regular-52" transform="translate(1205.578125 0)"/>
     <use xlink:href="#PingFangSC-Regular-51" transform="translate(1264.171875 0)"/>
     <use xlink:href="#PingFangSC-Regular-48" transform="translate(1320.078125 0)"/>
     <use xlink:href="#PingFangSC-Regular-3" transform="translate(1375.578125 0)"/>
     <use xlink:href="#PingFangSC-Regular-53" transform="translate(1408.875 0)"/>
     <use xlink:href="#PingFangSC-Regular-4f" transform="translate(1467.46875 0)"/>
     <use xlink:href="#PingFangSC-Regular-44" transform="translate(1490.96875 0)"/>
     <use xlink:href="#PingFangSC-Regular-51" transform="translate(1546.875 0)"/>
     <use xlink:href="#PingFangSC-Regular-48" transform="translate(1602.78125 0)"/>
    </g>
   </g>
   <g id="Line3DCollection_5">
    <path d="M 209.07327 188.462457 
L 33.658532 309.151044 
" clip-path="url(#p771595cded)" style="fill: none; stroke: #b65f2a; stroke-width: 2.5"/>
    <path d="M 209.07327 188.462457 
L 198.949785 199.655046 
" clip-path="url(#p771595cded)" style="fill: none; stroke: #b65f2a; stroke-width: 2.5"/>
    <path d="M 209.07327 188.462457 
L 192.147895 195.872508 
" clip-path="url(#p771595cded)" style="fill: none; stroke: #b65f2a; stroke-width: 2.5"/>
   </g>
   <g id="Line3DCollection_6">
    <path d="M 329.638686 129.935538 
L 33.658532 309.151044 
" clip-path="url(#p771595cded)" style="fill: none; stroke: #9b1d20; stroke-width: 2.5"/>
    <path d="M 329.638686 129.935538 
L 311.848841 147.107301 
" clip-path="url(#p771595cded)" style="fill: none; stroke: #9b1d20; stroke-width: 2.5"/>
    <path d="M 329.638686 129.935538 
L 301.753362 140.403402 
" clip-path="url(#p771595cded)" style="fill: none; stroke: #9b1d20; stroke-width: 2.5"/>
   </g>
   <g id="Poly3DCollection_1">
    <path d="M 403.40928 31.999392 
L 412.099603 22.090742 
L 459.737834 -10.665674 
L 451.080426 -0.782543 
z
" clip-path="url(#p771595cded)" style="fill: #8fb7d5; fill-opacity: 0.22"/>
    <path d="M 394.709262 41.919096 
L 403.40928 31.999392 
L 451.080426 -0.782543 
L 442.413367 9.111606 
z
" clip-path="url(#p771595cded)" style="fill: #8fb7d5; fill-opacity: 0.22"/>
    <path d="M 355.668077 64.829502 
L 364.391402 54.895269 
L 412.099603 22.090742 
L 403.40928 31.999392 
z
" clip-path="url(#p771595cded)" style="fill: #8fb7d5; fill-opacity: 0.22"/>
    <path d="M 385.999532 51.849873 
L 394.709262 41.919096 
L 442.413367 9.111606 
L 433.73664 19.016791 
z
" clip-path="url(#p771595cded)" style="fill: #8fb7d5; fill-opacity: 0.22"/>
    <path d="M 346.935012 74.774826 
L 355.668077 64.829502 
L 403.40928 31.999392 
L 394.709262 41.919096 
z
" clip-path="url(#p771595cded)" style="fill: #8fb7d5; fill-opacity: 0.22"/>
    <path d="M 307.856662 97.707894 
L 316.613078 87.748014 
L 364.391402 54.895269 
L 355.668077 64.829502 
z
" clip-path="url(#p771595cded)" style="fill: #8fb7d5; fill-opacity: 0.22"/>
    <path d="M 377.280075 61.791741 
L 385.999532 51.849873 
L 433.73664 19.016791 
L 425.05023 28.933031 
z
" clip-path="url(#p771595cded)" style="fill: #8fb7d5; fill-opacity: 0.22"/>
    <path d="M 338.192192 84.731259 
L 346.935012 74.774826 
L 394.709262 41.919096 
L 385.999532 51.849873 
z
" clip-path="url(#p771595cded)" style="fill: #8fb7d5; fill-opacity: 0.22"/>
    <path d="M 299.090463 107.678902 
L 307.856662 97.707894 
L 355.668077 64.829502 
L 346.935012 74.774826 
z
" clip-path="url(#p771595cded)" style="fill: #8fb7d5; fill-opacity: 0.22"/>
    <path d="M 259.974882 130.634675 
L 268.764476 120.649083 
L 316.613078 87.748014 
L 307.856662 97.707894 
z
" clip-path="url(#p771595cded)" style="fill: #8fb7d5; fill-opacity: 0.22"/>
    <path d="M 368.550873 71.74472 
L 377.280075 61.791741 
L 425.05023 28.933031 
L 416.35412 38.860345 
z
" clip-path="url(#p771595cded)" style="fill: #8fb7d5; fill-opacity: 0.22"/>
    <path d="M 329.439599 94.698821 
L 338.192192 84.731259 
L 385.999532 51.849873 
L 377.280075 61.791741 
z
" clip-path="url(#p771595cded)" style="fill: #8fb7d5; fill-opacity: 0.22"/>
    <path d="M 290.314464 117.661057 
L 299.090463 107.678902 
L 346.935012 74.774826 
L 338.192192 84.731259 
z
" clip-path="url(#p771595cded)" style="fill: #8fb7d5; fill-opacity: 0.22"/>
    <path d="M 251.17546 140.631433 
L 259.974882 130.634675 
L 307.856662 97.707894 
L 299.090463 107.678902 
z
" clip-path="url(#p771595cded)" style="fill: #8fb7d5; fill-opacity: 0.22"/>
    <path d="M 359.811912 81.708827 
L 368.550873 71.74472 
L 416.35412 38.860345 
L 407.648293 48.79875 
z
" clip-path="url(#p771595cded)" style="fill: #8fb7d5; fill-opacity: 0.22"/>
    <path d="M 212.022579 163.609952 
L 220.84544 153.598583 
L 268.764476 120.649083 
L 259.974882 130.634675 
z
" clip-path="url(#p771595cded)" style="fill: #8fb7d5; fill-opacity: 0.22"/>
    <path d="M 320.677219 104.677529 
L 329.439599 94.698821 
L 377.280075 61.791741 
L 368.550873 71.74472 
z
" clip-path="url(#p771595cded)" style="fill: #8fb7d5; fill-opacity: 0.22"/>
    <path d="M 281.528649 127.654377 
L 290.314464 117.661057 
L 338.192192 84.731259 
L 329.439599 94.698821 
z
" clip-path="url(#p771595cded)" style="fill: #8fb7d5; fill-opacity: 0.22"/>
    <path d="M 242.366194 150.639373 
L 251.17546 140.631433 
L 299.090463 107.678902 
L 290.314464 117.661057 
z
" clip-path="url(#p771595cded)" style="fill: #8fb7d5; fill-opacity: 0.22"/>
    <path d="M 351.063173 91.684082 
L 359.811912 81.708827 
L 407.648293 48.79875 
L 398.932734 58.748265 
z
" clip-path="url(#p771595cded)" style="fill: #8fb7d5; fill-opacity: 0.22"/>
    <path d="M 203.189846 173.632523 
L 212.022579 163.609952 
L 259.974882 130.634675 
L 251.17546 140.631433 
z
" clip-path="url(#p771595cded)" style="fill: #8fb7d5; fill-opacity: 0.22"/>
    <path d="M 311.905034 114.667404 
L 320.677219 104.677529 
L 368.550873 71.74472 
L 359.811912 81.708827 
z
" clip-path="url(#p771595cded)" style="fill: #8fb7d5; fill-opacity: 0.22"/>
    <path d="M 163.999599 196.633832 
L 172.855815 186.59662 
L 220.84544 153.598583 
L 212.022579 163.609952 
z
" clip-path="url(#p771595cded)" style="fill: #8fb7d5; fill-opacity: 0.22"/>
    <path d="M 272.733001 137.658881 
L 281.528649 127.654377 
L 329.439599 94.698821 
L 320.677219 104.677529 
z
" clip-path="url(#p771595cded)" style="fill: #8fb7d5; fill-opacity: 0.22"/>
    <path d="M 233.547067 160.658516 
L 242.366194 150.639373 
L 290.314464 117.661057 
L 281.528649 127.654377 
z
" clip-path="url(#p771595cded)" style="fill: #8fb7d5; fill-opacity: 0.22"/>
    <path d="M 342.304642 101.670502 
L 351.063173 91.684082 
L 398.932734 58.748265 
L 390.207426 68.70891 
z
" clip-path="url(#p771595cded)" style="fill: #8fb7d5; fill-opacity: 0.22"/>
    <path d="M 194.347225 183.666316 
L 203.189846 173.632523 
L 251.17546 140.631433 
L 242.366194 150.639373 
z
" clip-path="url(#p771595cded)" style="fill: #8fb7d5; fill-opacity: 0.22"/>
    <path d="M 303.123028 124.668463 
L 311.905034 114.667404 
L 359.811912 81.708827 
L 351.063173 91.684082 
z
" clip-path="url(#p771595cded)" style="fill: #8fb7d5; fill-opacity: 0.22"/>
    <path d="M 155.133466 206.682282 
L 163.999599 196.633832 
L 212.022579 163.609952 
L 203.189846 173.632523 
z
" clip-path="url(#p771595cded)" style="fill: #8fb7d5; fill-opacity: 0.22"/>
    <path d="M 263.927504 147.674587 
L 272.733001 137.658881 
L 320.677219 104.677529 
L 311.905034 114.667404 
z
" clip-path="url(#p771595cded)" style="fill: #8fb7d5; fill-opacity: 0.22"/>
    <path d="M 115.905785 229.706421 
L 124.795445 219.643302 
L 172.855815 186.59662 
L 163.999599 196.633832 
z
" clip-path="url(#p771595cded)" style="fill: #8fb7d5; fill-opacity: 0.22"/>
    <path d="M 224.718063 170.688881 
L 233.547067 160.658516 
L 281.528649 127.654377 
L 272.733001 137.658881 
z
" clip-path="url(#p771595cded)" style="fill: #8fb7d5; fill-opacity: 0.22"/>
    <path d="M 185.494698 193.711347 
L 194.347225 183.666316 
L 242.366194 150.639373 
L 233.547067 160.658516 
z
" clip-path="url(#p771595cded)" style="fill: #8fb7d5; fill-opacity: 0.22"/>
    <path d="M 294.331184 134.680725 
L 303.123028 124.668463 
L 351.063173 91.684082 
L 342.304642 101.670502 
z
" clip-path="url(#p771595cded)" style="fill: #8fb7d5; fill-opacity: 0.22"/>
    <path d="M 146.2574 216.741991 
L 155.133466 206.682282 
L 203.189846 173.632523 
L 194.347225 183.666316 
z
" clip-path="url(#p771595cded)" style="fill: #8fb7d5; fill-opacity: 0.22"/>
    <path d="M 255.112141 157.701516 
L 263.927504 147.674587 
L 311.905034 114.667404 
L 303.123028 124.668463 
z
" clip-path="url(#p771595cded)" style="fill: #8fb7d5; fill-opacity: 0.22"/>
    <path d="M 107.006163 239.780817 
L 115.905785 229.706421 
L 163.999599 196.633832 
L 155.133466 206.682282 
z
" clip-path="url(#p771595cded)" style="fill: #8fb7d5; fill-opacity: 0.22"/>
    <path d="M 215.879165 180.730485 
L 224.718063 170.688881 
L 272.733001 137.658881 
L 263.927504 147.674587 
z
" clip-path="url(#p771595cded)" style="fill: #8fb7d5; fill-opacity: 0.22"/>
    <path d="M 67.74098 262.827829 
L 76.664173 252.738737 
L 124.795445 219.643302 
L 115.905785 229.706421 
z
" clip-path="url(#p771595cded)" style="fill: #8fb7d5; fill-opacity: 0.22"/>
    <path d="M 176.632249 203.767637 
L 185.494698 193.711347 
L 233.547067 160.658516 
L 224.718063 170.688881 
z
" clip-path="url(#p771595cded)" style="fill: #8fb7d5; fill-opacity: 0.22"/>
    <path d="M 137.371384 226.812977 
L 146.2574 216.741991 
L 194.347225 183.666316 
L 185.494698 193.711347 
z
" clip-path="url(#p771595cded)" style="fill: #8fb7d5; fill-opacity: 0.22"/>
    <path d="M 246.286896 167.739684 
L 255.112141 157.701516 
L 303.123028 124.668463 
L 294.331184 134.680725 
z
" clip-path="url(#p771595cded)" style="fill: #8fb7d5; fill-opacity: 0.22"/>
    <path d="M 98.096564 249.866509 
L 107.006163 239.780817 
L 155.133466 206.682282 
L 146.2574 216.741991 
z
" clip-path="url(#p771595cded)" style="fill: #8fb7d5; fill-opacity: 0.22"/>
    <path d="M 207.030357 190.783348 
L 215.879165 180.730485 
L 263.927504 147.674587 
L 255.112141 157.701516 
z
" clip-path="url(#p771595cded)" style="fill: #8fb7d5; fill-opacity: 0.22"/>
    <path d="M 58.80778 272.928236 
L 67.74098 262.827829 
L 115.905785 229.706421 
L 107.006163 239.780817 
z
" clip-path="url(#p771595cded)" style="fill: #8fb7d5; fill-opacity: 0.22"/>
    <path d="M 167.759861 213.835205 
L 176.632249 203.767637 
L 224.718063 170.688881 
L 215.879165 180.730485 
z
" clip-path="url(#p771595cded)" style="fill: #8fb7d5; fill-opacity: 0.22"/>
    <path d="M 128.475401 236.895259 
L 137.371384 226.812977 
L 185.494698 193.711347 
L 176.632249 203.767637 
z
" clip-path="url(#p771595cded)" style="fill: #8fb7d5; fill-opacity: 0.22"/>
    <path d="M 89.176969 259.963514 
L 98.096564 249.866509 
L 146.2574 216.741991 
L 137.371384 226.812977 
z
" clip-path="url(#p771595cded)" style="fill: #8fb7d5; fill-opacity: 0.22"/>
    <path d="M 198.171622 200.84749 
L 207.030357 190.783348 
L 255.112141 157.701516 
L 246.286896 167.739684 
z
" clip-path="url(#p771595cded)" style="fill: #8fb7d5; fill-opacity: 0.22"/>
    <path d="M 49.864558 283.039975 
L 58.80778 272.928236 
L 107.006163 239.780817 
L 98.096564 249.866509 
z
" clip-path="url(#p771595cded)" style="fill: #8fb7d5; fill-opacity: 0.22"/>
    <path d="M 158.877519 223.914069 
L 167.759861 213.835205 
L 215.879165 180.730485 
L 207.030357 190.783348 
z
" clip-path="url(#p771595cded)" style="fill: #8fb7d5; fill-opacity: 0.22"/>
    <path d="M 119.569434 246.988856 
L 128.475401 236.895259 
L 176.632249 203.767637 
L 167.759861 213.835205 
z
" clip-path="url(#p771595cded)" style="fill: #8fb7d5; fill-opacity: 0.22"/>
    <path d="M 80.247362 270.071853 
L 89.176969 259.963514 
L 137.371384 226.812977 
L 128.475401 236.895259 
z
" clip-path="url(#p771595cded)" style="fill: #8fb7d5; fill-opacity: 0.22"/>
    <path d="M 40.911295 293.163067 
L 49.864558 283.039975 
L 98.096564 249.866509 
L 89.176969 259.963514 
z
" clip-path="url(#p771595cded)" style="fill: #8fb7d5; fill-opacity: 0.22"/>
    <path d="M 149.985204 234.004249 
L 158.877519 223.914069 
L 207.030357 190.783348 
L 198.171622 200.84749 
z
" clip-path="url(#p771595cded)" style="fill: #8fb7d5; fill-opacity: 0.22"/>
    <path d="M 110.653468 257.093786 
L 119.569434 246.988856 
L 167.759861 213.835205 
L 158.877519 223.914069 
z
" clip-path="url(#p771595cded)" style="fill: #8fb7d5; fill-opacity: 0.22"/>
    <path d="M 71.307727 280.191545 
L 80.247362 270.071853 
L 128.475401 236.895259 
L 119.569434 246.988856 
z
" clip-path="url(#p771595cded)" style="fill: #8fb7d5; fill-opacity: 0.22"/>
    <path d="M 31.947975 303.29753 
L 40.911295 293.163067 
L 89.176969 259.963514 
L 80.247362 270.071853 
z
" clip-path="url(#p771595cded)" style="fill: #8fb7d5; fill-opacity: 0.22"/>
    <path d="M 101.727483 267.21007 
L 110.653468 257.093786 
L 158.877519 223.914069 
L 149.985204 234.004249 
z
" clip-path="url(#p771595cded)" style="fill: #8fb7d5; fill-opacity: 0.22"/>
    <path d="M 62.358046 290.322609 
L 71.307727 280.191545 
L 119.569434 246.988856 
L 110.653468 257.093786 
z
" clip-path="url(#p771595cded)" style="fill: #8fb7d5; fill-opacity: 0.22"/>
    <path d="M 22.974581 313.443383 
L 31.947975 303.29753 
L 80.247362 270.071853 
L 71.307727 280.191545 
z
" clip-path="url(#p771595cded)" style="fill: #8fb7d5; fill-opacity: 0.22"/>
    <path d="M 53.398302 300.465063 
L 62.358046 290.322609 
L 110.653468 257.093786 
L 101.727483 267.21007 
z
" clip-path="url(#p771595cded)" style="fill: #8fb7d5; fill-opacity: 0.22"/>
    <path d="M 13.991095 323.600645 
L 22.974581 313.443383 
L 71.307727 280.191545 
L 62.358046 290.322609 
z
" clip-path="url(#p771595cded)" style="fill: #8fb7d5; fill-opacity: 0.22"/>
    <path d="M 4.997502 333.769337 
L 13.991095 323.600645 
L 62.358046 290.322609 
L 53.398302 300.465063 
z
" clip-path="url(#p771595cded)" style="fill: #8fb7d5; fill-opacity: 0.22"/>
   </g>
  </g>
 </g>
 <defs>
  <clipPath id="p771595cded">
   <rect x="7.2" y="25.24" width="379.15952" height="379.15952"/>
  </clipPath>
 </defs>
</svg>
