<?xml version="1.0" encoding="UTF-8" standalone="no"?>
<!DOCTYPE svg PUBLIC "-//W3C//DTD SVG 1.1//EN"
 "http://www.w3.org/Graphics/SVG/1.1/DTD/svg11.dtd">
<!-- Generated by graphviz version 15.0.0 (20260523.1842)
 -->
<!-- Title: G Pages: 1 -->
<svg width="498pt" height="386pt"
 viewBox="0.00 0.00 498.00 386.00" xmlns="http://www.w3.org/2000/svg" xmlns:xlink="http://www.w3.org/1999/xlink">
<g id="graph0" class="graph" transform="scale(1 1) rotate(0) translate(14.4 371.44)">
<title>G</title>
<polygon fill="white" stroke="none" points="-14.4,14.4 -14.4,-371.44 483.3,-371.44 483.3,14.4 -14.4,14.4"/>
<!-- start -->
<g id="node1" class="node">
<title>start</title>
<path fill="#f7f7f7" stroke="#555555" d="M217.53,-357.04C217.53,-357.04 152.25,-357.04 152.25,-357.04 146.25,-357.04 140.25,-351.04 140.25,-345.04 140.25,-345.04 140.25,-333.04 140.25,-333.04 140.25,-327.04 146.25,-321.04 152.25,-321.04 152.25,-321.04 217.53,-321.04 217.53,-321.04 223.53,-321.04 229.53,-327.04 229.53,-333.04 229.53,-333.04 229.53,-345.04 229.53,-345.04 229.53,-351.04 223.53,-357.04 217.53,-357.04"/>
<text xml:space="preserve" text-anchor="middle" x="184.89" y="-334.01" font-family="Helvetica,sans-Serif" font-size="12.00">Pivot position</text>
</g>
<!-- check -->
<g id="node2" class="node">
<title>check</title>
<path fill="#fff7e6" stroke="#555555" d="M173.02,-278.29C173.02,-278.29 74.67,-263.79 74.67,-263.79 68.73,-262.92 68.73,-261.16 74.67,-260.29 74.67,-260.29 173.02,-245.79 173.02,-245.79 178.95,-244.92 190.83,-244.92 196.76,-245.79 196.76,-245.79 295.11,-260.29 295.11,-260.29 301.05,-261.16 301.05,-262.92 295.11,-263.79 295.11,-263.79 196.76,-278.29 196.76,-278.29 190.83,-279.16 178.95,-279.16 173.02,-278.29"/>
<text xml:space="preserve" text-anchor="middle" x="184.89" y="-257.01" font-family="Helvetica,sans-Serif" font-size="12.00">Is the pivot nonzero?</text>
</g>
<!-- start&#45;&gt;check -->
<g id="edge1" class="edge">
<title>start&#45;&gt;check</title>
<path fill="none" stroke="#555555" d="M184.89,-320.64C184.89,-312.03 184.89,-301.41 184.89,-291.64"/>
<polygon fill="#555555" stroke="#555555" points="188.39,-291.85 184.89,-281.85 181.39,-291.85 188.39,-291.85"/>
</g>
<!-- eliminate -->
<g id="node3" class="node">
<title>eliminate</title>
<path fill="#e8f5e9" stroke="#555555" d="M147.41,-114.02C147.41,-114.02 18.37,-114.02 18.37,-114.02 12.38,-114.02 6.38,-108.02 6.38,-102.02 6.38,-102.02 6.38,-89 6.38,-89 6.38,-83 12.38,-77 18.38,-77 18.38,-77 147.41,-77 147.41,-77 153.41,-77 159.41,-83 159.41,-89 159.41,-89 159.41,-102.02 159.41,-102.02 159.41,-108.02 153.41,-114.02 147.41,-114.02"/>
<text xml:space="preserve" text-anchor="middle" x="82.89" y="-96.86" font-family="Helvetica,sans-Serif" font-size="12.00">Use this pivot row</text>
<text xml:space="preserve" text-anchor="middle" x="82.89" y="-84.11" font-family="Helvetica,sans-Serif" font-size="12.00">to eliminate entries below</text>
</g>
<!-- check&#45;&gt;eliminate -->
<g id="edge2" class="edge">
<title>check&#45;&gt;eliminate</title>
<path fill="none" stroke="#555555" d="M150.65,-248.69C126.22,-237.87 95.17,-219.51 80.39,-192.04 69.47,-171.74 71.14,-145.33 74.95,-125.43"/>
<polygon fill="#555555" stroke="#555555" points="78.35,-126.27 77.1,-115.75 71.51,-124.75 78.35,-126.27"/>
<text xml:space="preserve" text-anchor="middle" x="88.64" y="-169.08" font-family="Helvetica,sans-Serif" font-size="11.00">yes</text>
</g>
<!-- swap -->
<g id="node4" class="node">
<title>swap</title>
<path fill="#e8f0fe" stroke="#555555" d="M245.28,-192.04C245.28,-192.04 124.5,-192.04 124.5,-192.04 118.5,-192.04 112.5,-186.04 112.5,-180.04 112.5,-180.04 112.5,-167.02 112.5,-167.02 112.5,-161.02 118.5,-155.02 124.5,-155.02 124.5,-155.02 245.28,-155.02 245.28,-155.02 251.28,-155.02 257.28,-161.02 257.28,-167.02 257.28,-167.02 257.28,-180.04 257.28,-180.04 257.28,-186.04 251.28,-192.04 245.28,-192.04"/>
<text xml:space="preserve" text-anchor="middle" x="184.89" y="-174.88" font-family="Helvetica,sans-Serif" font-size="12.00">Swap with a lower row</text>
<text xml:space="preserve" text-anchor="middle" x="184.89" y="-162.13" font-family="Helvetica,sans-Serif" font-size="12.00">that has a nonzero entry</text>
</g>
<!-- check&#45;&gt;swap -->
<g id="edge3" class="edge">
<title>check&#45;&gt;swap</title>
<path fill="none" stroke="#555555" d="M184.89,-243.95C184.89,-232.56 184.89,-217.3 184.89,-203.99"/>
<polygon fill="#555555" stroke="#555555" points="188.39,-203.99 184.89,-193.99 181.39,-203.99 188.39,-203.99"/>
<text xml:space="preserve" text-anchor="middle" x="238.14" y="-213.59" font-family="Helvetica,sans-Serif" font-size="11.00">no, but nonzero below</text>
</g>
<!-- fail -->
<g id="node5" class="node">
<title>fail</title>
<path fill="#fce8e6" stroke="#555555" d="M456.9,-192.04C456.9,-192.04 300.88,-192.04 300.88,-192.04 294.88,-192.04 288.88,-186.04 288.88,-180.04 288.88,-180.04 288.88,-167.02 288.88,-167.02 288.88,-161.02 294.88,-155.02 300.88,-155.02 300.88,-155.02 456.9,-155.02 456.9,-155.02 462.9,-155.02 468.9,-161.02 468.9,-167.02 468.9,-167.02 468.9,-180.04 468.9,-180.04 468.9,-186.04 462.9,-192.04 456.9,-192.04"/>
<text xml:space="preserve" text-anchor="middle" x="378.89" y="-174.88" font-family="Helvetica,sans-Serif" font-size="12.00">No full set of pivots</text>
<text xml:space="preserve" text-anchor="middle" x="378.89" y="-162.13" font-family="Helvetica,sans-Serif" font-size="12.00">(square matrix is not invertible)</text>
</g>
<!-- check&#45;&gt;fail -->
<g id="edge4" class="edge">
<title>check&#45;&gt;fail</title>
<path fill="none" stroke="#555555" d="M227.91,-249.96C249.93,-243.6 276.88,-234.75 299.89,-224.04 315.12,-216.95 330.99,-207.47 344.48,-198.7"/>
<polygon fill="#555555" stroke="#555555" points="346.18,-201.78 352.57,-193.33 342.3,-195.95 346.18,-201.78"/>
<text xml:space="preserve" text-anchor="middle" x="373.91" y="-213.59" font-family="Helvetica,sans-Serif" font-size="11.00">no, all below are zero</text>
</g>
<!-- next -->
<g id="node6" class="node">
<title>next</title>
<path fill="#e8f5e9" stroke="#555555" d="M153.78,-36C153.78,-36 12,-36 12,-36 6,-36 0,-30 0,-24 0,-24 0,-12 0,-12 0,-6 6,0 12,0 12,0 153.78,0 153.78,0 159.78,0 165.78,-6 165.78,-12 165.78,-12 165.78,-24 165.78,-24 165.78,-30 159.78,-36 153.78,-36"/>
<text xml:space="preserve" text-anchor="middle" x="82.89" y="-12.97" font-family="Helvetica,sans-Serif" font-size="12.00">Continue to the next column</text>
</g>
<!-- eliminate&#45;&gt;next -->
<g id="edge6" class="edge">
<title>eliminate&#45;&gt;next</title>
<path fill="none" stroke="#555555" d="M82.89,-76.62C82.89,-67.93 82.89,-57.29 82.89,-47.53"/>
<polygon fill="#555555" stroke="#555555" points="86.39,-47.76 82.89,-37.76 79.39,-47.76 86.39,-47.76"/>
</g>
<!-- swap&#45;&gt;eliminate -->
<g id="edge5" class="edge">
<title>swap&#45;&gt;eliminate</title>
<path fill="none" stroke="#555555" d="M160.98,-154.71C147.64,-144.77 130.83,-132.24 116.23,-121.36"/>
<polygon fill="#555555" stroke="#555555" points="118.33,-118.56 108.22,-115.39 114.15,-124.17 118.33,-118.56"/>
</g>
</g>
</svg>
