<?xml version="1.0" encoding="UTF-8" standalone="no"?>
<!DOCTYPE svg PUBLIC "-//W3C//DTD SVG 1.1//EN"
 "http://www.w3.org/Graphics/SVG/1.1/DTD/svg11.dtd">
<!-- Generated by graphviz version 15.0.0 (20260523.1842)
 -->
<!-- Title: G Pages: 1 -->
<svg width="559pt" height="169pt"
 viewBox="0.00 0.00 559.00 169.00" xmlns="http://www.w3.org/2000/svg" xmlns:xlink="http://www.w3.org/1999/xlink">
<g id="graph0" class="graph" transform="scale(1 1) rotate(0) translate(14.4 154.17)">
<title>G</title>
<polygon fill="white" stroke="none" points="-14.4,14.4 -14.4,-154.17 544.63,-154.17 544.63,14.4 -14.4,14.4"/>
<!-- E -->
<g id="node1" class="node">
<title>E</title>
<path fill="#e8f0fe" stroke="#555555" d="M336.69,-62.52C336.69,-62.52 276.79,-62.52 276.79,-62.52 270.79,-62.52 264.79,-56.52 264.79,-50.52 264.79,-50.52 264.79,-12 264.79,-12 264.79,-6 270.79,0 276.79,0 276.79,0 336.69,0 336.69,0 342.69,0 348.69,-6 348.69,-12 348.69,-12 348.69,-50.52 348.69,-50.52 348.69,-56.52 342.69,-62.52 336.69,-62.52"/>
<text xml:space="preserve" text-anchor="middle" x="306.74" y="-45.36" font-family="Helvetica,sans-Serif" font-size="12.00">E21</text>
<text xml:space="preserve" text-anchor="middle" x="306.74" y="-32.61" font-family="Helvetica,sans-Serif" font-size="12.00">rows: [1,0,0]</text>
<text xml:space="preserve" text-anchor="middle" x="306.74" y="-19.86" font-family="Helvetica,sans-Serif" font-size="12.00"> &#160;&#160;&#160;&#160;&#160;[&#45;3,1,0]</text>
<text xml:space="preserve" text-anchor="middle" x="306.74" y="-7.11" font-family="Helvetica,sans-Serif" font-size="12.00"> &#160;&#160;&#160;&#160;&#160;[0,0,1]</text>
</g>
<!-- product -->
<g id="node3" class="node">
<title>product</title>
<path fill="#e8f5e9" stroke="#555555" d="M518.23,-107.52C518.23,-107.52 463.57,-107.52 463.57,-107.52 457.57,-107.52 451.57,-101.52 451.57,-95.52 451.57,-95.52 451.57,-57 451.57,-57 451.57,-51 457.57,-45 463.57,-45 463.57,-45 518.23,-45 518.23,-45 524.23,-45 530.23,-51 530.23,-57 530.23,-57 530.23,-95.52 530.23,-95.52 530.23,-101.52 524.23,-107.52 518.23,-107.52"/>
<text xml:space="preserve" text-anchor="middle" x="490.9" y="-90.36" font-family="Helvetica,sans-Serif" font-size="12.00">E21 A</text>
<text xml:space="preserve" text-anchor="middle" x="490.9" y="-77.61" font-family="Helvetica,sans-Serif" font-size="12.00">rows: r1</text>
<text xml:space="preserve" text-anchor="middle" x="490.9" y="-64.86" font-family="Helvetica,sans-Serif" font-size="12.00"> &#160;&#160;&#160;&#160;&#160;r2 &#45; 3 r1</text>
<text xml:space="preserve" text-anchor="middle" x="490.9" y="-52.11" font-family="Helvetica,sans-Serif" font-size="12.00"> &#160;&#160;&#160;&#160;&#160;r3</text>
</g>
<!-- E&#45;&gt;product -->
<g id="edge1" class="edge">
<title>E&#45;&gt;product</title>
<path fill="none" stroke="#555555" d="M349.03,-40.22C372.67,-45.49 402.87,-52.43 429.57,-59.26 433.1,-60.16 436.74,-61.12 440.4,-62.1"/>
<polygon fill="#555555" stroke="#555555" points="439.33,-65.44 449.89,-64.7 441.17,-58.68 439.33,-65.44"/>
<text xml:space="preserve" text-anchor="middle" x="402.95" y="-60.81" font-family="Helvetica,sans-Serif" font-size="11.00">left multiply</text>
</g>
<!-- A -->
<g id="node2" class="node">
<title>A</title>
<path fill="#fff7e6" stroke="#555555" d="M342.32,-139.77C342.32,-139.77 271.16,-139.77 271.16,-139.77 265.16,-139.77 259.16,-133.77 259.16,-127.77 259.16,-127.77 259.16,-114.75 259.16,-114.75 259.16,-108.75 265.16,-102.75 271.16,-102.75 271.16,-102.75 342.32,-102.75 342.32,-102.75 348.32,-102.75 354.32,-108.75 354.32,-114.75 354.32,-114.75 354.32,-127.77 354.32,-127.77 354.32,-133.77 348.32,-139.77 342.32,-139.77"/>
<text xml:space="preserve" text-anchor="middle" x="306.74" y="-122.61" font-family="Helvetica,sans-Serif" font-size="12.00">A</text>
<text xml:space="preserve" text-anchor="middle" x="306.74" y="-109.86" font-family="Helvetica,sans-Serif" font-size="12.00">rows: r1, r2, r3</text>
</g>
<!-- A&#45;&gt;product -->
<g id="edge2" class="edge">
<title>A&#45;&gt;product</title>
<path fill="none" stroke="#555555" d="M354.65,-109.67C380.85,-103.2 413.47,-95.14 440.12,-88.56"/>
<polygon fill="#555555" stroke="#555555" points="440.8,-92 449.67,-86.2 439.12,-85.2 440.8,-92"/>
<text xml:space="preserve" text-anchor="middle" x="402.95" y="-105.66" font-family="Helvetica,sans-Serif" font-size="11.00">row data</text>
</g>
<!-- idea -->
<g id="node4" class="node">
<title>idea</title>
<path fill="#f3e8ff" stroke="#555555" d="M162.66,-49.77C162.66,-49.77 12,-49.77 12,-49.77 6,-49.77 0,-43.77 0,-37.77 0,-37.77 0,-24.75 0,-24.75 0,-18.75 6,-12.75 12,-12.75 12,-12.75 162.66,-12.75 162.66,-12.75 168.66,-12.75 174.66,-18.75 174.66,-24.75 174.66,-24.75 174.66,-37.77 174.66,-37.77 174.66,-43.77 168.66,-49.77 162.66,-49.77"/>
<text xml:space="preserve" text-anchor="middle" x="87.33" y="-32.61" font-family="Helvetica,sans-Serif" font-size="12.00">Left multiplication</text>
<text xml:space="preserve" text-anchor="middle" x="87.33" y="-19.86" font-family="Helvetica,sans-Serif" font-size="12.00">creates combinations of rows</text>
</g>
<!-- idea&#45;&gt;E -->
<g id="edge3" class="edge">
<title>idea&#45;&gt;E</title>
<path fill="none" stroke="#555555" stroke-dasharray="5,2" d="M174.88,-31.26C201.32,-31.26 229.59,-31.26 253.06,-31.26"/>
<polygon fill="#555555" stroke="#555555" points="253,-34.76 263,-31.26 253,-27.76 253,-34.76"/>
<text xml:space="preserve" text-anchor="middle" x="216.91" y="-32.81" font-family="Helvetica,sans-Serif" font-size="11.00">encodes</text>
</g>
</g>
</svg>
