<?xml version="1.0" encoding="utf-8" standalone="no"?>
<!DOCTYPE svg PUBLIC "-//W3C//DTD SVG 1.1//EN"
  "http://www.w3.org/Graphics/SVG/1.1/DTD/svg11.dtd">
<svg xmlns:xlink="http://www.w3.org/1999/xlink" width="872.39952pt" height="310.79952pt" viewBox="0 0 872.39952 310.79952" xmlns="http://www.w3.org/2000/svg" version="1.1">
 <metadata>
  <rdf:RDF xmlns:dc="http://purl.org/dc/elements/1.1/" xmlns:cc="http://creativecommons.org/ns#" xmlns:rdf="http://www.w3.org/1999/02/22-rdf-syntax-ns#">
   <cc:Work>
    <dc:type rdf:resource="http://purl.org/dc/dcmitype/StillImage"/>
    <dc:format>image/svg+xml</dc:format>
    <dc:creator>
     <cc:Agent>
      <dc:title>Matplotlib v3.11.0, https://matplotlib.org/</dc:title>
     </cc:Agent>
    </dc:creator>
   </cc:Work>
  </rdf:RDF>
 </metadata>
 <defs>
  <style type="text/css">*{stroke-linejoin: round; stroke-linecap: butt}</style>
 </defs>
 <g id="figure_1">
  <g id="patch_1">
   <path d="M 0 310.79952 
L 872.39952 310.79952 
L 872.39952 0 
L 0 0 
z
" style="fill: #ffffff"/>
  </g>
  <g id="axes_1">
   <g id="line2d_1">
    <path d="M 20.069993 216.161662 
L 20.069993 142.061782 
" clip-path="url(#p337a29ae62)" style="fill: none; stroke: #222222; stroke-width: 1.4; stroke-linecap: square"/>
   </g>
   <g id="line2d_2">
    <path d="M 221.69988 216.161662 
L 221.69988 142.061782 
" clip-path="url(#p337a29ae62)" style="fill: none; stroke: #222222; stroke-width: 1.4; stroke-linecap: square"/>
   </g>
   <g id="line2d_3">
    <path d="M 20.069993 142.061782 
L 35.513984 142.061782 
" clip-path="url(#p337a29ae62)" style="fill: none; stroke: #222222; stroke-width: 1.4; stroke-linecap: square"/>
   </g>
   <g id="line2d_4">
    <path d="M 20.069993 216.161662 
L 35.513984 216.161662 
" clip-path="url(#p337a29ae62)" style="fill: none; stroke: #222222; stroke-width: 1.4; stroke-linecap: square"/>
   </g>
   <g id="line2d_5">
    <path d="M 206.255889 142.061782 
L 221.69988 142.061782 
" clip-path="url(#p337a29ae62)" style="fill: none; stroke: #222222; stroke-width: 1.4; stroke-linecap: square"/>
   </g>
   <g id="line2d_6">
    <path d="M 206.255889 216.161662 
L 221.69988 216.161662 
" clip-path="url(#p337a29ae62)" style="fill: none; stroke: #222222; stroke-width: 1.4; stroke-linecap: square"/>
   </g>
   <g id="line2d_7">
    <path d="M 168.07491 216.161662 
L 168.07491 142.061782 
" clip-path="url(#p337a29ae62)" style="fill: none; stroke-dasharray: 4.07,1.76; stroke-dashoffset: 0; stroke: #9b1d20; stroke-width: 1.1"/>
   </g>
   <g id="line2d_8">
    <path d="M 311.78983 216.161662 
L 311.78983 142.061782 
" clip-path="url(#p337a29ae62)" style="fill: none; stroke: #222222; stroke-width: 1.4; stroke-linecap: square"/>
   </g>
   <g id="line2d_9">
    <path d="M 513.419717 216.161662 
L 513.419717 142.061782 
" clip-path="url(#p337a29ae62)" style="fill: none; stroke: #222222; stroke-width: 1.4; stroke-linecap: square"/>
   </g>
   <g id="line2d_10">
    <path d="M 311.78983 142.061782 
L 327.233821 142.061782 
" clip-path="url(#p337a29ae62)" style="fill: none; stroke: #222222; stroke-width: 1.4; stroke-linecap: square"/>
   </g>
   <g id="line2d_11">
    <path d="M 311.78983 216.161662 
L 327.233821 216.161662 
" clip-path="url(#p337a29ae62)" style="fill: none; stroke: #222222; stroke-width: 1.4; stroke-linecap: square"/>
   </g>
   <g id="line2d_12">
    <path d="M 497.975725 142.061782 
L 513.419717 142.061782 
" clip-path="url(#p337a29ae62)" style="fill: none; stroke: #222222; stroke-width: 1.4; stroke-linecap: square"/>
   </g>
   <g id="line2d_13">
    <path d="M 497.975725 216.161662 
L 513.419717 216.161662 
" clip-path="url(#p337a29ae62)" style="fill: none; stroke: #222222; stroke-width: 1.4; stroke-linecap: square"/>
   </g>
   <g id="line2d_14">
    <path d="M 459.794747 216.161662 
L 459.794747 142.061782 
" clip-path="url(#p337a29ae62)" style="fill: none; stroke-dasharray: 4.07,1.76; stroke-dashoffset: 0; stroke: #9b1d20; stroke-width: 1.1"/>
   </g>
   <g id="line2d_15">
    <path d="M 603.509666 216.161662 
L 603.509666 142.061782 
" clip-path="url(#p337a29ae62)" style="fill: none; stroke: #222222; stroke-width: 1.4; stroke-linecap: square"/>
   </g>
   <g id="line2d_16">
    <path d="M 805.139554 216.161662 
L 805.139554 142.061782 
" clip-path="url(#p337a29ae62)" style="fill: none; stroke: #222222; stroke-width: 1.4; stroke-linecap: square"/>
   </g>
   <g id="line2d_17">
    <path d="M 603.509666 142.061782 
L 618.953658 142.061782 
" clip-path="url(#p337a29ae62)" style="fill: none; stroke: #222222; stroke-width: 1.4; stroke-linecap: square"/>
   </g>
   <g id="line2d_18">
    <path d="M 603.509666 216.161662 
L 618.953658 216.161662 
" clip-path="url(#p337a29ae62)" style="fill: none; stroke: #222222; stroke-width: 1.4; stroke-linecap: square"/>
   </g>
   <g id="line2d_19">
    <path d="M 789.695562 142.061782 
L 805.139554 142.061782 
" clip-path="url(#p337a29ae62)" style="fill: none; stroke: #222222; stroke-width: 1.4; stroke-linecap: square"/>
   </g>
   <g id="line2d_20">
    <path d="M 789.695562 216.161662 
L 805.139554 216.161662 
" clip-path="url(#p337a29ae62)" style="fill: none; stroke: #222222; stroke-width: 1.4; stroke-linecap: square"/>
   </g>
   <g id="line2d_21">
    <path d="M 751.514584 216.161662 
L 751.514584 142.061782 
" clip-path="url(#p337a29ae62)" style="fill: none; stroke-dasharray: 4.07,1.76; stroke-dashoffset: 0; stroke: #9b1d20; stroke-width: 1.1"/>
   </g>
   <g id="text_1">
    <!-- Start: augmented matrix [A | b] -->
    <g transform="translate(56.007111 85.187692) scale(0.12 -0.12)">
     <defs>
      <path id="PingFangSC-Semibold-36" d="M 2061 4659 
C 1568 4659 1165 4550 845 4326 
C 499 4096 333 3776 333 3373 
C 333 2970 506 2662 858 2451 
C 992 2374 1344 2246 1907 2067 
C 2413 1914 2707 1811 2797 1766 
C 3078 1626 3226 1434 3226 1190 
C 3226 998 3123 851 2931 736 
C 2739 627 2470 570 2138 570 
C 1760 570 1485 640 1306 768 
C 1107 915 986 1165 934 1510 
L 192 1510 
C 224 928 435 506 819 237 
C 1133 19 1574 -90 2138 -90 
C 2720 -90 3174 32 3494 262 
C 3814 499 3974 826 3974 1235 
C 3974 1658 3776 1984 3379 2221 
C 3200 2323 2803 2477 2182 2669 
C 1760 2803 1498 2899 1402 2950 
C 1184 3066 1082 3226 1082 3418 
C 1082 3635 1171 3795 1363 3891 
C 1517 3974 1734 4013 2022 4013 
C 2355 4013 2611 3955 2778 3827 
C 2944 3706 3066 3501 3130 3219 
L 3872 3219 
C 3827 3718 3642 4090 3322 4326 
C 3021 4550 2598 4659 2061 4659 
z
" transform="scale(0.015625)"/>
      <path id="PingFangSC-Semibold-57" d="M 1421 4378 
L 691 4077 
L 691 3309 
L 96 3309 
L 96 2707 
L 691 2707 
L 691 838 
C 691 570 755 371 883 230 
C 1018 77 1229 0 1517 0 
L 2074 0 
L 2074 602 
L 1638 602 
C 1562 602 1510 621 1472 659 
C 1434 704 1421 762 1421 838 
L 1421 2707 
L 2157 2707 
L 2157 3309 
L 1421 3309 
L 1421 4378 
z
" transform="scale(0.015625)"/>
      <path id="PingFangSC-Semibold-44" d="M 1888 3398 
C 1466 3398 1133 3328 890 3174 
C 602 3008 422 2739 352 2374 
L 1075 2317 
C 1114 2490 1210 2618 1350 2701 
C 1472 2778 1632 2810 1837 2810 
C 2310 2810 2547 2598 2547 2163 
L 2547 2035 
L 1824 2016 
C 1338 2003 960 1901 691 1709 
C 397 1510 256 1222 256 851 
C 256 576 358 352 563 173 
C 762 0 1030 -90 1376 -90 
C 1664 -90 1914 -38 2125 58 
C 2310 147 2470 269 2598 435 
L 2598 0 
L 3277 0 
L 3277 2112 
C 3277 2515 3174 2822 2970 3034 
C 2739 3277 2374 3398 1888 3398 
z
M 2547 1510 
L 2547 1344 
C 2547 1088 2445 877 2253 710 
C 2061 550 1824 467 1542 467 
C 1382 467 1254 512 1152 589 
C 1050 666 1005 762 1005 877 
C 1005 1274 1293 1478 1875 1491 
L 2547 1510 
z
" transform="scale(0.015625)"/>
      <path id="PingFangSC-Semibold-55" d="M 1946 3398 
C 1741 3398 1568 3341 1421 3219 
C 1299 3130 1197 3002 1107 2835 
L 1107 3309 
L 384 3309 
L 384 0 
L 1107 0 
L 1107 1754 
C 1107 2035 1190 2259 1370 2432 
C 1523 2586 1696 2656 1888 2656 
C 2042 2656 2195 2637 2362 2586 
L 2362 3315 
C 2246 3373 2106 3398 1946 3398 
z
" transform="scale(0.015625)"/>
      <path id="PingFangSC-Semibold-1d" d="M 877 3334 
C 736 3334 614 3290 525 3187 
C 422 3091 378 2970 378 2829 
C 378 2688 422 2573 525 2470 
C 614 2381 736 2330 877 2330 
C 1018 2330 1133 2381 1235 2470 
C 1331 2573 1382 2688 1382 2829 
C 1382 2970 1331 3091 1235 3187 
C 1133 3290 1018 3334 877 3334 
z
M 877 992 
C 736 992 614 947 525 845 
C 422 749 378 627 378 486 
C 378 346 422 230 525 128 
C 614 38 736 -13 877 -13 
C 1018 -13 1133 38 1235 128 
C 1331 230 1382 346 1382 486 
C 1382 627 1331 749 1235 845 
C 1133 947 1018 992 877 992 
z
" transform="scale(0.015625)"/>
      <path id="PingFangSC-Semibold-3" transform="scale(0.015625)"/>
      <path id="PingFangSC-Semibold-58" d="M 384 3309 
L 384 1248 
C 384 358 781 -90 1574 -90 
C 1984 -90 2330 83 2611 429 
L 2611 0 
L 3341 0 
L 3341 3309 
L 2611 3309 
L 2611 1286 
C 2547 1050 2438 864 2291 723 
C 2144 589 1990 518 1830 518 
C 1574 518 1395 582 1280 704 
C 1165 832 1114 1024 1114 1293 
L 1114 3309 
L 384 3309 
z
" transform="scale(0.015625)"/>
      <path id="PingFangSC-Semibold-4a" d="M 1760 3398 
C 1312 3398 947 3245 672 2938 
C 390 2630 256 2227 256 1728 
C 256 1229 390 826 672 525 
C 947 230 1312 77 1760 77 
C 2170 77 2496 250 2739 589 
L 2739 102 
C 2739 -486 2464 -781 1914 -781 
C 1658 -781 1472 -742 1357 -672 
C 1235 -595 1158 -467 1120 -282 
L 390 -282 
C 454 -653 608 -922 851 -1101 
C 1094 -1267 1446 -1357 1914 -1357 
C 2950 -1357 3469 -832 3469 211 
L 3469 3309 
L 2739 3309 
L 2739 2906 
C 2496 3238 2170 3398 1760 3398 
z
M 1875 2810 
C 2150 2810 2368 2714 2522 2522 
C 2669 2330 2746 2067 2746 1728 
C 2746 1395 2669 1139 2522 947 
C 2368 768 2150 672 1869 672 
C 1549 672 1325 781 1184 992 
C 1062 1171 1005 1414 1005 1728 
C 1005 2074 1082 2336 1235 2522 
C 1389 2714 1600 2810 1875 2810 
z
" transform="scale(0.015625)"/>
      <path id="PingFangSC-Semibold-50" d="M 2010 3398 
C 1690 3398 1389 3258 1114 2970 
L 1114 3309 
L 384 3309 
L 384 0 
L 1114 0 
L 1114 1984 
C 1114 2202 1178 2394 1306 2547 
C 1434 2714 1600 2790 1811 2790 
C 2246 2790 2464 2541 2464 2035 
L 2464 0 
L 3194 0 
L 3194 2022 
C 3194 2266 3251 2451 3379 2586 
C 3501 2726 3648 2790 3827 2790 
C 4083 2790 4262 2733 4378 2611 
C 4486 2496 4544 2304 4544 2042 
L 4544 0 
L 5274 0 
L 5274 2170 
C 5274 2534 5158 2829 4941 3059 
C 4710 3290 4429 3398 4090 3398 
C 3866 3398 3680 3360 3533 3283 
C 3366 3206 3206 3066 3053 2861 
C 2842 3219 2496 3398 2010 3398 
z
" transform="scale(0.015625)"/>
      <path id="PingFangSC-Semibold-48" d="M 1792 3398 
C 1299 3398 909 3232 627 2893 
C 333 2560 192 2150 192 1658 
C 192 1107 346 678 653 365 
C 941 64 1331 -90 1824 -90 
C 2266 -90 2630 38 2925 288 
C 3155 493 3309 755 3386 1062 
L 2656 1062 
C 2566 877 2470 742 2362 659 
C 2221 557 2042 506 1818 506 
C 1555 506 1350 589 1210 749 
C 1069 909 986 1146 960 1453 
L 3437 1453 
C 3437 2048 3302 2515 3040 2848 
C 2752 3219 2336 3398 1792 3398 
z
M 1811 2803 
C 2323 2803 2611 2541 2675 2003 
L 973 2003 
C 1018 2266 1107 2464 1242 2598 
C 1382 2739 1568 2803 1811 2803 
z
" transform="scale(0.015625)"/>
      <path id="PingFangSC-Semibold-51" d="M 2093 3398 
C 1894 3398 1715 3360 1549 3277 
C 1389 3200 1242 3078 1114 2925 
L 1114 3309 
L 384 3309 
L 384 0 
L 1114 0 
L 1114 1990 
C 1139 2253 1229 2458 1382 2598 
C 1517 2726 1677 2790 1856 2790 
C 2355 2790 2605 2522 2605 1978 
L 2605 0 
L 3334 0 
L 3334 2042 
C 3334 2950 2918 3398 2093 3398 
z
" transform="scale(0.015625)"/>
      <path id="PingFangSC-Semibold-47" d="M 2739 4659 
L 2739 2854 
C 2464 3219 2138 3398 1754 3398 
C 1280 3398 902 3226 634 2880 
C 378 2560 256 2157 256 1670 
C 256 1165 384 749 640 429 
C 915 83 1299 -90 1792 -90 
C 2227 -90 2560 58 2790 352 
L 2790 0 
L 3469 0 
L 3469 4659 
L 2739 4659 
z
M 1926 2810 
C 2157 2810 2355 2714 2509 2522 
C 2675 2317 2765 2035 2765 1683 
L 2765 1632 
C 2765 1312 2694 1043 2560 838 
C 2406 614 2182 499 1901 499 
C 1574 499 1338 614 1190 845 
C 1062 1037 1005 1312 1005 1670 
C 1005 2029 1069 2298 1203 2483 
C 1357 2701 1594 2810 1926 2810 
z
" transform="scale(0.015625)"/>
      <path id="PingFangSC-Semibold-4c" d="M 877 4659 
C 736 4659 621 4614 525 4525 
C 429 4435 384 4320 384 4179 
C 384 4038 429 3923 525 3827 
C 621 3738 736 3693 877 3693 
C 1018 3693 1133 3738 1229 3827 
C 1325 3917 1376 4038 1376 4179 
C 1376 4320 1325 4435 1235 4525 
C 1139 4614 1018 4659 877 4659 
z
M 512 3309 
L 512 0 
L 1242 0 
L 1242 3309 
L 512 3309 
z
" transform="scale(0.015625)"/>
      <path id="PingFangSC-Semibold-5b" d="M 179 3309 
L 1318 1760 
L 32 0 
L 890 0 
L 1722 1222 
L 2547 0 
L 3405 0 
L 2118 1760 
L 3258 3309 
L 2406 3309 
L 1722 2298 
L 1030 3309 
L 179 3309 
z
" transform="scale(0.015625)"/>
      <path id="PingFangSC-Semibold-3e" d="M 224 5293 
L 224 -685 
L 1907 -685 
L 1907 -90 
L 890 -90 
L 890 4698 
L 1907 4698 
L 1907 5293 
L 224 5293 
z
" transform="scale(0.015625)"/>
      <path id="PingFangSC-Semibold-24" d="M 1747 4570 
L 0 0 
L 800 0 
L 1216 1146 
L 3130 1146 
L 3546 0 
L 4346 0 
L 2598 4570 
L 1747 4570 
z
M 1440 1760 
L 2163 3763 
L 2189 3763 
L 2906 1760 
L 1440 1760 
z
" transform="scale(0.015625)"/>
      <path id="PingFangSC-Semibold-5f" d="M 384 5504 
L 384 -896 
L 986 -896 
L 986 5504 
L 384 5504 
z
" transform="scale(0.015625)"/>
      <path id="PingFangSC-Semibold-45" d="M 384 4659 
L 384 0 
L 1062 0 
L 1062 352 
C 1293 58 1626 -90 2061 -90 
C 2547 -90 2931 83 3213 429 
C 3469 749 3597 1165 3597 1670 
C 3597 2157 3469 2560 3219 2880 
C 2944 3226 2573 3398 2099 3398 
C 1715 3398 1382 3219 1114 2854 
L 1114 4659 
L 384 4659 
z
M 1926 2810 
C 2253 2810 2496 2701 2650 2483 
C 2778 2298 2848 2029 2848 1670 
C 2848 1312 2784 1037 2662 845 
C 2509 614 2272 499 1952 499 
C 1664 499 1446 614 1293 838 
C 1152 1043 1088 1312 1088 1632 
L 1088 1683 
C 1088 2035 1171 2317 1344 2522 
C 1498 2714 1690 2810 1926 2810 
z
" transform="scale(0.015625)"/>
      <path id="PingFangSC-Semibold-40" d="M 224 5293 
L 224 4698 
L 1242 4698 
L 1242 -90 
L 224 -90 
L 224 -685 
L 1907 -685 
L 1907 5293 
L 224 5293 
z
" transform="scale(0.015625)"/>
     </defs>
     <use xlink:href="#PingFangSC-Semibold-36"/>
     <use xlink:href="#PingFangSC-Semibold-57" transform="translate(65.09375 0)"/>
     <use xlink:href="#PingFangSC-Semibold-44" transform="translate(101.296875 0)"/>
     <use xlink:href="#PingFangSC-Semibold-55" transform="translate(158.5 0)"/>
     <use xlink:href="#PingFangSC-Semibold-57" transform="translate(195.90625 0)"/>
     <use xlink:href="#PingFangSC-Semibold-1d" transform="translate(232.109375 0)"/>
     <use xlink:href="#PingFangSC-Semibold-3" transform="translate(259.609375 0)"/>
     <use xlink:href="#PingFangSC-Semibold-44" transform="translate(292.90625 0)"/>
     <use xlink:href="#PingFangSC-Semibold-58" transform="translate(350.109375 0)"/>
     <use xlink:href="#PingFangSC-Semibold-4a" transform="translate(408.3125 0)"/>
     <use xlink:href="#PingFangSC-Semibold-50" transform="translate(468.515625 0)"/>
     <use xlink:href="#PingFangSC-Semibold-48" transform="translate(556.921875 0)"/>
     <use xlink:href="#PingFangSC-Semibold-51" transform="translate(613.625 0)"/>
     <use xlink:href="#PingFangSC-Semibold-57" transform="translate(671.71875 0)"/>
     <use xlink:href="#PingFangSC-Semibold-48" transform="translate(707.921875 0)"/>
     <use xlink:href="#PingFangSC-Semibold-47" transform="translate(764.625 0)"/>
     <use xlink:href="#PingFangSC-Semibold-3" transform="translate(824.828125 0)"/>
     <use xlink:href="#PingFangSC-Semibold-50" transform="translate(858.125 0)"/>
     <use xlink:href="#PingFangSC-Semibold-44" transform="translate(946.53125 0)"/>
     <use xlink:href="#PingFangSC-Semibold-57" transform="translate(1003.734375 0)"/>
     <use xlink:href="#PingFangSC-Semibold-55" transform="translate(1039.9375 0)"/>
     <use xlink:href="#PingFangSC-Semibold-4c" transform="translate(1077.34375 0)"/>
     <use xlink:href="#PingFangSC-Semibold-5b" transform="translate(1104.84375 0)"/>
     <use xlink:href="#PingFangSC-Semibold-3" transform="translate(1158.546875 0)"/>
     <use xlink:href="#PingFangSC-Semibold-3e" transform="translate(1191.84375 0)"/>
     <use xlink:href="#PingFangSC-Semibold-24" transform="translate(1225.140625 0)"/>
     <use xlink:href="#PingFangSC-Semibold-3" transform="translate(1293.046875 0)"/>
     <use xlink:href="#PingFangSC-Semibold-5f" transform="translate(1326.34375 0)"/>
     <use xlink:href="#PingFangSC-Semibold-3" transform="translate(1347.75 0)"/>
     <use xlink:href="#PingFangSC-Semibold-45" transform="translate(1381.046875 0)"/>
     <use xlink:href="#PingFangSC-Semibold-40" transform="translate(1441.25 0)"/>
    </g>
   </g>
   <g id="text_2">
    <!-- 1 -->
    <g transform="translate(46.487789 158.516947) scale(0.12 -0.12)">
     <defs>
      <path id="DejaVuSansMono-14" d="M 844 531 
L 1825 531 
L 1825 4097 
L 769 3859 
L 769 4434 
L 1819 4666 
L 2450 4666 
L 2450 531 
L 3419 531 
L 3419 0 
L 844 0 
L 844 531 
z
" transform="scale(0.015625)"/>
     </defs>
     <use xlink:href="#DejaVuSansMono-14"/>
    </g>
   </g>
   <g id="text_3">
    <!-- 2 -->
    <g transform="translate(93.677762 158.516947) scale(0.12 -0.12)">
     <defs>
      <path id="DejaVuSansMono-15" d="M 1166 531 
L 3309 531 
L 3309 0 
L 475 0 
L 475 531 
Q 1059 1147 1496 1619 
Q 1934 2091 2100 2284 
Q 2413 2666 2522 2902 
Q 2631 3138 2631 3384 
Q 2631 3775 2401 3997 
Q 2172 4219 1772 4219 
Q 1488 4219 1175 4116 
Q 863 4013 513 3803 
L 513 4441 
Q 834 4594 1145 4672 
Q 1456 4750 1759 4750 
Q 2444 4750 2861 4386 
Q 3278 4022 3278 3431 
Q 3278 3131 3139 2831 
Q 3000 2531 2688 2169 
Q 2513 1966 2180 1606 
Q 1847 1247 1166 531 
z
" transform="scale(0.015625)"/>
     </defs>
     <use xlink:href="#DejaVuSansMono-15"/>
    </g>
   </g>
   <g id="text_4">
    <!-- 1 -->
    <g transform="translate(140.867736 158.516947) scale(0.12 -0.12)">
     <use xlink:href="#DejaVuSansMono-14"/>
    </g>
   </g>
   <g id="text_5">
    <!-- 2 -->
    <g transform="translate(188.057709 158.516947) scale(0.12 -0.12)">
     <use xlink:href="#DejaVuSansMono-15"/>
    </g>
   </g>
   <g id="text_6">
    <!-- 3 -->
    <g transform="translate(46.487789 182.228909) scale(0.12 -0.12)">
     <defs>
      <path id="DejaVuSansMono-16" d="M 2425 2497 
Q 2884 2375 3128 2064 
Q 3372 1753 3372 1288 
Q 3372 644 2939 276 
Q 2506 -91 1741 -91 
Q 1419 -91 1084 -31 
Q 750 28 428 141 
L 428 769 
Q 747 603 1056 522 
Q 1366 441 1672 441 
Q 2191 441 2469 675 
Q 2747 909 2747 1350 
Q 2747 1756 2469 1995 
Q 2191 2234 1716 2234 
L 1234 2234 
L 1234 2753 
L 1716 2753 
Q 2150 2753 2394 2943 
Q 2638 3134 2638 3475 
Q 2638 3834 2411 4026 
Q 2184 4219 1766 4219 
Q 1488 4219 1191 4156 
Q 894 4094 569 3969 
L 569 4550 
Q 947 4650 1242 4700 
Q 1538 4750 1766 4750 
Q 2447 4750 2855 4408 
Q 3263 4066 3263 3500 
Q 3263 3116 3048 2859 
Q 2834 2603 2425 2497 
z
" transform="scale(0.015625)"/>
     </defs>
     <use xlink:href="#DejaVuSansMono-16"/>
    </g>
   </g>
   <g id="text_7">
    <!-- 8 -->
    <g transform="translate(93.677762 182.228909) scale(0.12 -0.12)">
     <defs>
      <path id="DejaVuSansMono-1b" d="M 1925 2216 
Q 1503 2216 1273 1980 
Q 1044 1744 1044 1313 
Q 1044 881 1276 642 
Q 1509 403 1925 403 
Q 2350 403 2579 639 
Q 2809 875 2809 1313 
Q 2809 1741 2576 1978 
Q 2344 2216 1925 2216 
z
M 1375 2478 
Q 972 2581 745 2862 
Q 519 3144 519 3541 
Q 519 4097 897 4423 
Q 1275 4750 1925 4750 
Q 2578 4750 2956 4423 
Q 3334 4097 3334 3541 
Q 3334 3144 3107 2862 
Q 2881 2581 2478 2478 
Q 2947 2375 3195 2062 
Q 3444 1750 3444 1253 
Q 3444 622 3041 265 
Q 2638 -91 1925 -91 
Q 1213 -91 811 264 
Q 409 619 409 1247 
Q 409 1747 657 2061 
Q 906 2375 1375 2478 
z
M 1147 3481 
Q 1147 3106 1347 2909 
Q 1547 2713 1925 2713 
Q 2306 2713 2506 2909 
Q 2706 3106 2706 3481 
Q 2706 3863 2507 4063 
Q 2309 4263 1925 4263 
Q 1547 4263 1347 4061 
Q 1147 3859 1147 3481 
z
" transform="scale(0.015625)"/>
     </defs>
     <use xlink:href="#DejaVuSansMono-1b"/>
    </g>
   </g>
   <g id="text_8">
    <!-- 1 -->
    <g transform="translate(140.867736 182.228909) scale(0.12 -0.12)">
     <use xlink:href="#DejaVuSansMono-14"/>
    </g>
   </g>
   <g id="text_9">
    <!-- 12 -->
    <g transform="translate(184.445522 182.228909) scale(0.12 -0.12)">
     <use xlink:href="#DejaVuSansMono-14"/>
     <use xlink:href="#DejaVuSansMono-15" transform="translate(60.203125 0)"/>
    </g>
   </g>
   <g id="text_10">
    <!-- 0 -->
    <g transform="translate(46.487789 205.940871) scale(0.12 -0.12)">
     <defs>
      <path id="DejaVuSansMono-13" d="M 1509 2344 
Q 1509 2516 1629 2641 
Q 1750 2766 1919 2766 
Q 2094 2766 2219 2641 
Q 2344 2516 2344 2344 
Q 2344 2169 2220 2047 
Q 2097 1925 1919 1925 
Q 1744 1925 1626 2044 
Q 1509 2163 1509 2344 
z
M 1925 4250 
Q 1484 4250 1267 3775 
Q 1050 3300 1050 2328 
Q 1050 1359 1267 884 
Q 1484 409 1925 409 
Q 2369 409 2586 884 
Q 2803 1359 2803 2328 
Q 2803 3300 2586 3775 
Q 2369 4250 1925 4250 
z
M 1925 4750 
Q 2672 4750 3055 4137 
Q 3438 3525 3438 2328 
Q 3438 1134 3055 521 
Q 2672 -91 1925 -91 
Q 1178 -91 797 521 
Q 416 1134 416 2328 
Q 416 3525 797 4137 
Q 1178 4750 1925 4750 
z
" transform="scale(0.015625)"/>
     </defs>
     <use xlink:href="#DejaVuSansMono-13"/>
    </g>
   </g>
   <g id="text_11">
    <!-- 4 -->
    <g transform="translate(93.677762 205.940871) scale(0.12 -0.12)">
     <defs>
      <path id="DejaVuSansMono-17" d="M 2297 4091 
L 825 1625 
L 2297 1625 
L 2297 4091 
z
M 2194 4666 
L 2925 4666 
L 2925 1625 
L 3547 1625 
L 3547 1113 
L 2925 1113 
L 2925 0 
L 2297 0 
L 2297 1113 
L 319 1113 
L 319 1709 
L 2194 4666 
z
" transform="scale(0.015625)"/>
     </defs>
     <use xlink:href="#DejaVuSansMono-17"/>
    </g>
   </g>
   <g id="text_12">
    <!-- 1 -->
    <g transform="translate(140.867736 205.940871) scale(0.12 -0.12)">
     <use xlink:href="#DejaVuSansMono-14"/>
    </g>
   </g>
   <g id="text_13">
    <!-- 2 -->
    <g transform="translate(188.057709 205.940871) scale(0.12 -0.12)">
     <use xlink:href="#DejaVuSansMono-15"/>
    </g>
   </g>
   <g id="text_14">
    <!-- E21: R2 &lt;- R2 - 3R1 -->
    <g transform="translate(377.951947 85.61988) scale(0.12 -0.12)">
     <defs>
      <path id="PingFangSC-Semibold-28" d="M 448 4570 
L 448 0 
L 3853 0 
L 3853 640 
L 1197 640 
L 1197 2022 
L 3590 2022 
L 3590 2662 
L 1197 2662 
L 1197 3930 
L 3744 3930 
L 3744 4570 
L 448 4570 
z
" transform="scale(0.015625)"/>
      <path id="PingFangSC-Semibold-15" d="M 1990 4659 
C 1498 4659 1101 4493 800 4160 
C 506 3846 358 3437 352 2925 
L 1101 2925 
C 1114 3283 1190 3558 1331 3738 
C 1472 3930 1683 4026 1965 4026 
C 2227 4026 2426 3968 2560 3846 
C 2688 3725 2758 3539 2758 3290 
C 2758 3034 2656 2790 2458 2566 
C 2330 2432 2125 2259 1830 2054 
C 1299 1690 947 1408 781 1216 
C 474 870 326 467 326 0 
L 3514 0 
L 3514 659 
L 1261 659 
C 1363 890 1645 1158 2112 1466 
C 2560 1766 2880 2010 3059 2202 
C 3354 2528 3507 2886 3507 3283 
C 3507 3693 3366 4019 3085 4275 
C 2797 4531 2432 4659 1990 4659 
z
" transform="scale(0.015625)"/>
      <path id="PingFangSC-Semibold-14" d="M 1485 4570 
C 1331 4410 1139 4262 909 4122 
C 678 3994 461 3904 256 3853 
L 256 3110 
C 678 3232 1024 3418 1299 3667 
L 1299 0 
L 2048 0 
L 2048 4570 
L 1485 4570 
z
" transform="scale(0.015625)"/>
      <path id="PingFangSC-Semibold-35" d="M 448 4570 
L 448 0 
L 1197 0 
L 1197 1862 
L 2381 1862 
C 2637 1862 2835 1811 2970 1696 
C 3098 1587 3174 1408 3200 1158 
L 3258 595 
C 3283 339 3347 141 3456 0 
L 4269 0 
C 4115 166 4019 390 3994 672 
L 3917 1408 
C 3866 1856 3642 2118 3245 2208 
L 3245 2221 
C 3488 2285 3686 2419 3827 2624 
C 3955 2810 4019 3021 4019 3258 
C 4019 3693 3872 4026 3590 4256 
C 3322 4467 2950 4570 2483 4570 
L 448 4570 
z
M 1197 3930 
L 2381 3930 
C 2688 3930 2912 3878 3053 3763 
C 3194 3654 3264 3475 3264 3226 
C 3264 2995 3194 2816 3053 2688 
C 2899 2566 2675 2502 2381 2502 
L 1197 2502 
L 1197 3930 
z
" transform="scale(0.015625)"/>
      <path id="PingFangSC-Semibold-1f" d="M 3552 3315 
L 320 1920 
L 320 1382 
L 3552 -13 
L 3552 646 
L 1184 1651 
L 3552 2656 
L 3552 3315 
z
" transform="scale(0.015625)"/>
      <path id="PingFangSC-Semibold-10" d="M 320 1958 
L 320 1357 
L 3552 1357 
L 3552 1958 
L 320 1958 
z
" transform="scale(0.015625)"/>
      <path id="PingFangSC-Semibold-16" d="M 1965 4659 
C 1517 4659 1146 4538 858 4282 
C 550 4026 384 3667 346 3206 
L 1082 3206 
C 1107 3482 1197 3686 1350 3821 
C 1498 3955 1702 4019 1971 4019 
C 2234 4019 2432 3962 2566 3846 
C 2688 3731 2752 3565 2752 3341 
C 2752 3117 2682 2944 2547 2829 
C 2406 2714 2202 2656 1933 2656 
L 1613 2656 
L 1613 2093 
L 1933 2093 
C 2227 2093 2451 2035 2605 1907 
C 2758 1786 2842 1594 2842 1331 
C 2842 1114 2765 934 2618 787 
C 2451 627 2221 544 1933 544 
C 1670 544 1459 621 1299 768 
C 1120 928 1030 1158 1018 1453 
L 256 1453 
C 294 941 474 544 794 275 
C 1082 32 1466 -90 1939 -90 
C 2438 -90 2842 51 3149 326 
C 3443 595 3590 941 3590 1363 
C 3590 1632 3514 1856 3360 2029 
C 3219 2195 3008 2317 2739 2400 
C 3245 2566 3501 2899 3501 3398 
C 3501 3795 3360 4102 3085 4326 
C 2803 4550 2426 4659 1965 4659 
z
" transform="scale(0.015625)"/>
     </defs>
     <use xlink:href="#PingFangSC-Semibold-28"/>
     <use xlink:href="#PingFangSC-Semibold-15" transform="translate(64.203125 0)"/>
     <use xlink:href="#PingFangSC-Semibold-14" transform="translate(124.203125 0)"/>
     <use xlink:href="#PingFangSC-Semibold-1d" transform="translate(165.203125 0)"/>
     <use xlink:href="#PingFangSC-Semibold-3" transform="translate(192.703125 0)"/>
     <use xlink:href="#PingFangSC-Semibold-35" transform="translate(226 0)"/>
     <use xlink:href="#PingFangSC-Semibold-15" transform="translate(295.703125 0)"/>
     <use xlink:href="#PingFangSC-Semibold-3" transform="translate(355.703125 0)"/>
     <use xlink:href="#PingFangSC-Semibold-1f" transform="translate(389 0)"/>
     <use xlink:href="#PingFangSC-Semibold-10" transform="translate(449.5 0)"/>
     <use xlink:href="#PingFangSC-Semibold-3" transform="translate(510 0)"/>
     <use xlink:href="#PingFangSC-Semibold-35" transform="translate(543.296875 0)"/>
     <use xlink:href="#PingFangSC-Semibold-15" transform="translate(613 0)"/>
     <use xlink:href="#PingFangSC-Semibold-3" transform="translate(673 0)"/>
     <use xlink:href="#PingFangSC-Semibold-10" transform="translate(706.296875 0)"/>
     <use xlink:href="#PingFangSC-Semibold-3" transform="translate(766.796875 0)"/>
     <use xlink:href="#PingFangSC-Semibold-16" transform="translate(800.09375 0)"/>
     <use xlink:href="#PingFangSC-Semibold-35" transform="translate(860.09375 0)"/>
     <use xlink:href="#PingFangSC-Semibold-14" transform="translate(929.796875 0)"/>
    </g>
   </g>
   <g id="text_15">
    <!-- multiplier 3 -->
    <g style="fill: #555555" transform="translate(410.245854 105.358003) scale(0.1 -0.1)">
     <defs>
      <path id="PingFangSC-Regular-50" d="M 1843 3398 
C 1472 3398 1158 3226 909 2867 
L 909 3309 
L 397 3309 
L 397 0 
L 909 0 
L 909 2016 
C 909 2278 986 2502 1139 2682 
C 1293 2874 1485 2963 1722 2963 
C 2227 2963 2483 2675 2483 2086 
L 2483 0 
L 2995 0 
L 2995 2074 
C 2995 2342 3066 2554 3219 2720 
C 3360 2886 3546 2963 3763 2963 
C 4045 2963 4250 2893 4378 2739 
C 4499 2598 4563 2381 4563 2086 
L 4563 0 
L 5075 0 
L 5075 2170 
C 5075 2547 4966 2848 4762 3072 
C 4544 3290 4269 3398 3923 3398 
C 3693 3398 3501 3347 3341 3245 
C 3162 3149 3008 2989 2880 2771 
C 2694 3194 2349 3398 1843 3398 
z
" transform="scale(0.015625)"/>
      <path id="PingFangSC-Regular-58" d="M 397 3309 
L 397 1261 
C 397 365 794 -90 1600 -90 
C 2048 -90 2406 115 2675 512 
L 2675 0 
L 3187 0 
L 3187 3309 
L 2675 3309 
L 2675 1293 
C 2637 1011 2528 781 2349 602 
C 2176 435 1978 346 1760 346 
C 1459 346 1242 429 1107 582 
C 973 736 909 973 909 1286 
L 909 3309 
L 397 3309 
z
" transform="scale(0.015625)"/>
      <path id="PingFangSC-Regular-4f" d="M 499 4659 
L 499 0 
L 1005 0 
L 1005 4659 
L 499 4659 
z
" transform="scale(0.015625)"/>
      <path id="PingFangSC-Regular-57" d="M 1280 4378 
L 774 4166 
L 774 3309 
L 109 3309 
L 109 2880 
L 774 2880 
L 774 774 
C 774 525 826 339 934 211 
C 1050 70 1248 0 1517 0 
L 2016 0 
L 2016 429 
L 1594 429 
C 1478 429 1395 461 1350 512 
C 1299 563 1280 653 1280 774 
L 1280 2880 
L 2099 2880 
L 2099 3309 
L 1280 3309 
L 1280 4378 
z
" transform="scale(0.015625)"/>
      <path id="PingFangSC-Regular-4c" d="M 819 4557 
C 710 4557 621 4525 544 4448 
C 467 4384 435 4294 435 4179 
C 435 4070 467 3981 544 3904 
C 621 3834 710 3795 819 3795 
C 928 3795 1018 3834 1094 3904 
C 1171 3981 1210 4070 1210 4179 
C 1210 4294 1171 4384 1094 4448 
C 1018 4525 928 4557 819 4557 
z
M 563 3309 
L 563 0 
L 1075 0 
L 1075 3309 
L 563 3309 
z
" transform="scale(0.015625)"/>
      <path id="PingFangSC-Regular-53" d="M 1978 3398 
C 1478 3398 1114 3187 877 2765 
L 877 3309 
L 397 3309 
L 397 -1267 
L 909 -1267 
L 909 602 
C 1165 141 1530 -90 2003 -90 
C 2477 -90 2842 90 3110 435 
C 3354 755 3482 1158 3482 1645 
C 3482 2144 3354 2547 3104 2867 
C 2829 3226 2451 3398 1978 3398 
z
M 1914 2976 
C 2266 2976 2534 2848 2720 2579 
C 2874 2349 2957 2035 2957 1645 
C 2957 1248 2874 934 2707 704 
C 2522 461 2253 333 1894 333 
C 1587 333 1350 454 1171 685 
C 979 922 890 1229 890 1613 
L 890 1677 
C 890 2048 973 2355 1139 2586 
C 1318 2848 1581 2976 1914 2976 
z
" transform="scale(0.015625)"/>
      <path id="PingFangSC-Regular-48" d="M 1760 3398 
C 1280 3398 902 3226 621 2880 
C 339 2554 205 2144 205 1658 
C 205 1120 346 698 640 378 
C 922 70 1306 -90 1779 -90 
C 2208 -90 2560 38 2835 282 
C 3059 486 3206 742 3283 1062 
L 2771 1062 
C 2688 832 2579 659 2438 544 
C 2272 410 2048 339 1779 339 
C 1466 339 1216 442 1037 646 
C 858 851 762 1139 736 1510 
L 3347 1510 
C 3334 2086 3206 2541 2963 2861 
C 2694 3219 2291 3398 1760 3398 
z
M 1773 2970 
C 2400 2970 2752 2618 2816 1907 
L 749 1907 
C 781 2234 883 2490 1062 2682 
C 1242 2874 1478 2970 1773 2970 
z
" transform="scale(0.015625)"/>
      <path id="PingFangSC-Regular-55" d="M 1850 3398 
C 1619 3398 1421 3328 1248 3187 
C 1107 3078 992 2925 902 2733 
L 902 3309 
L 397 3309 
L 397 0 
L 902 0 
L 902 1754 
C 902 2061 986 2323 1165 2541 
C 1338 2771 1555 2880 1811 2880 
C 1971 2880 2138 2861 2304 2810 
L 2304 3322 
C 2182 3373 2029 3398 1850 3398 
z
" transform="scale(0.015625)"/>
      <path id="PingFangSC-Regular-3" transform="scale(0.015625)"/>
      <path id="PingFangSC-Regular-16" d="M 1965 4659 
C 1530 4659 1178 4538 909 4288 
C 627 4038 461 3693 422 3251 
L 941 3251 
C 973 3558 1075 3795 1254 3962 
C 1427 4128 1664 4205 1971 4205 
C 2266 4205 2502 4134 2669 3981 
C 2822 3840 2906 3642 2906 3386 
C 2906 3130 2822 2931 2662 2790 
C 2502 2656 2272 2586 1965 2586 
L 1613 2586 
L 1613 2176 
L 1984 2176 
C 2304 2176 2547 2106 2726 1952 
C 2906 1798 2995 1587 2995 1312 
C 2995 1043 2899 819 2720 640 
C 2522 454 2259 358 1933 358 
C 1645 358 1408 442 1216 595 
C 992 781 870 1056 858 1414 
L 326 1414 
C 365 902 544 512 870 243 
C 1146 26 1498 -90 1933 -90 
C 2406 -90 2790 45 3085 314 
C 3373 576 3520 915 3520 1331 
C 3520 1600 3443 1824 3290 2003 
C 3149 2182 2944 2310 2675 2394 
C 3174 2560 3424 2906 3424 3418 
C 3424 3802 3290 4102 3027 4326 
C 2758 4550 2400 4659 1965 4659 
z
" transform="scale(0.015625)"/>
     </defs>
     <use xlink:href="#PingFangSC-Regular-50"/>
     <use xlink:href="#PingFangSC-Regular-58" transform="translate(85.5 0)"/>
     <use xlink:href="#PingFangSC-Regular-4f" transform="translate(141.5 0)"/>
     <use xlink:href="#PingFangSC-Regular-57" transform="translate(165 0)"/>
     <use xlink:href="#PingFangSC-Regular-4c" transform="translate(200.5 0)"/>
     <use xlink:href="#PingFangSC-Regular-53" transform="translate(226.09375 0)"/>
     <use xlink:href="#PingFangSC-Regular-4f" transform="translate(284.6875 0)"/>
     <use xlink:href="#PingFangSC-Regular-4c" transform="translate(308.1875 0)"/>
     <use xlink:href="#PingFangSC-Regular-48" transform="translate(333.78125 0)"/>
     <use xlink:href="#PingFangSC-Regular-55" transform="translate(389.28125 0)"/>
     <use xlink:href="#PingFangSC-Regular-3" transform="translate(425.78125 0)"/>
     <use xlink:href="#PingFangSC-Regular-16" transform="translate(459.078125 0)"/>
    </g>
   </g>
   <g id="text_16">
    <!-- 1 -->
    <g transform="translate(338.207625 158.516947) scale(0.12 -0.12)">
     <use xlink:href="#DejaVuSansMono-14"/>
    </g>
   </g>
   <g id="text_17">
    <!-- 2 -->
    <g transform="translate(385.397599 158.516947) scale(0.12 -0.12)">
     <use xlink:href="#DejaVuSansMono-15"/>
    </g>
   </g>
   <g id="text_18">
    <!-- 1 -->
    <g transform="translate(432.587572 158.516947) scale(0.12 -0.12)">
     <use xlink:href="#DejaVuSansMono-14"/>
    </g>
   </g>
   <g id="text_19">
    <!-- 2 -->
    <g transform="translate(479.777546 158.516947) scale(0.12 -0.12)">
     <use xlink:href="#DejaVuSansMono-15"/>
    </g>
   </g>
   <g id="text_20">
    <!-- 0 -->
    <g transform="translate(338.207625 182.228909) scale(0.12 -0.12)">
     <use xlink:href="#DejaVuSansMono-13"/>
    </g>
   </g>
   <g id="text_21">
    <!-- 2 -->
    <g transform="translate(385.397599 182.228909) scale(0.12 -0.12)">
     <use xlink:href="#DejaVuSansMono-15"/>
    </g>
   </g>
   <g id="text_22">
    <!-- -2 -->
    <g transform="translate(428.975385 182.228909) scale(0.12 -0.12)">
     <defs>
      <path id="DejaVuSansMono-10" d="M 1113 2009 
L 2741 2009 
L 2741 1497 
L 1113 1497 
L 1113 2009 
z
" transform="scale(0.015625)"/>
     </defs>
     <use xlink:href="#DejaVuSansMono-10"/>
     <use xlink:href="#DejaVuSansMono-15" transform="translate(60.203125 0)"/>
    </g>
   </g>
   <g id="text_23">
    <!-- 6 -->
    <g transform="translate(479.777546 182.228909) scale(0.12 -0.12)">
     <defs>
      <path id="DejaVuSansMono-19" d="M 3097 4563 
L 3097 3981 
Q 2900 4097 2678 4158 
Q 2456 4219 2216 4219 
Q 1616 4219 1306 3767 
Q 997 3316 997 2438 
Q 1147 2750 1412 2917 
Q 1678 3084 2022 3084 
Q 2697 3084 3067 2670 
Q 3438 2256 3438 1497 
Q 3438 741 3056 325 
Q 2675 -91 1984 -91 
Q 1172 -91 794 492 
Q 416 1075 416 2328 
Q 416 3509 870 4129 
Q 1325 4750 2188 4750 
Q 2419 4750 2650 4701 
Q 2881 4653 3097 4563 
z
M 1972 2591 
Q 1569 2591 1337 2300 
Q 1106 2009 1106 1497 
Q 1106 984 1337 693 
Q 1569 403 1972 403 
Q 2391 403 2603 679 
Q 2816 956 2816 1497 
Q 2816 2041 2603 2316 
Q 2391 2591 1972 2591 
z
" transform="scale(0.015625)"/>
     </defs>
     <use xlink:href="#DejaVuSansMono-19"/>
    </g>
   </g>
   <g id="text_24">
    <!-- 0 -->
    <g transform="translate(338.207625 205.940871) scale(0.12 -0.12)">
     <use xlink:href="#DejaVuSansMono-13"/>
    </g>
   </g>
   <g id="text_25">
    <!-- 4 -->
    <g transform="translate(385.397599 205.940871) scale(0.12 -0.12)">
     <use xlink:href="#DejaVuSansMono-17"/>
    </g>
   </g>
   <g id="text_26">
    <!-- 1 -->
    <g transform="translate(432.587572 205.940871) scale(0.12 -0.12)">
     <use xlink:href="#DejaVuSansMono-14"/>
    </g>
   </g>
   <g id="text_27">
    <!-- 2 -->
    <g transform="translate(479.777546 205.940871) scale(0.12 -0.12)">
     <use xlink:href="#DejaVuSansMono-15"/>
    </g>
   </g>
   <g id="text_28">
    <!-- E32: R3 &lt;- R3 - 2R2 -->
    <g transform="translate(667.391784 85.61988) scale(0.12 -0.12)">
     <use xlink:href="#PingFangSC-Semibold-28"/>
     <use xlink:href="#PingFangSC-Semibold-16" transform="translate(64.203125 0)"/>
     <use xlink:href="#PingFangSC-Semibold-15" transform="translate(124.203125 0)"/>
     <use xlink:href="#PingFangSC-Semibold-1d" transform="translate(184.203125 0)"/>
     <use xlink:href="#PingFangSC-Semibold-3" transform="translate(211.703125 0)"/>
     <use xlink:href="#PingFangSC-Semibold-35" transform="translate(245 0)"/>
     <use xlink:href="#PingFangSC-Semibold-16" transform="translate(314.703125 0)"/>
     <use xlink:href="#PingFangSC-Semibold-3" transform="translate(374.703125 0)"/>
     <use xlink:href="#PingFangSC-Semibold-1f" transform="translate(408 0)"/>
     <use xlink:href="#PingFangSC-Semibold-10" transform="translate(468.5 0)"/>
     <use xlink:href="#PingFangSC-Semibold-3" transform="translate(529 0)"/>
     <use xlink:href="#PingFangSC-Semibold-35" transform="translate(562.296875 0)"/>
     <use xlink:href="#PingFangSC-Semibold-16" transform="translate(632 0)"/>
     <use xlink:href="#PingFangSC-Semibold-3" transform="translate(692 0)"/>
     <use xlink:href="#PingFangSC-Semibold-10" transform="translate(725.296875 0)"/>
     <use xlink:href="#PingFangSC-Semibold-3" transform="translate(785.796875 0)"/>
     <use xlink:href="#PingFangSC-Semibold-15" transform="translate(819.09375 0)"/>
     <use xlink:href="#PingFangSC-Semibold-35" transform="translate(879.09375 0)"/>
     <use xlink:href="#PingFangSC-Semibold-15" transform="translate(948.796875 0)"/>
    </g>
   </g>
   <g id="text_29">
    <!-- U | c -->
    <g style="fill: #555555" transform="translate(717.309441 105.647846) scale(0.1 -0.1)">
     <defs>
      <path id="PingFangSC-Regular-38" d="M 461 4570 
L 461 1754 
C 461 1158 614 704 922 384 
C 1229 70 1683 -90 2285 -90 
C 2886 -90 3341 70 3654 390 
C 3955 704 4109 1158 4109 1754 
L 4109 4570 
L 3584 4570 
L 3584 1747 
C 3584 1299 3482 960 3283 730 
C 3066 493 2733 371 2285 371 
C 1830 371 1498 493 1286 730 
C 1082 960 986 1299 986 1747 
L 986 4570 
L 461 4570 
z
" transform="scale(0.015625)"/>
      <path id="PingFangSC-Regular-5f" d="M 410 5504 
L 410 -896 
L 838 -896 
L 838 5504 
L 410 5504 
z
" transform="scale(0.015625)"/>
      <path id="PingFangSC-Regular-46" d="M 1824 3398 
C 1331 3398 941 3226 659 2874 
C 397 2554 269 2144 269 1638 
C 269 1133 397 723 659 410 
C 934 77 1318 -90 1818 -90 
C 2227 -90 2554 19 2803 230 
C 3059 448 3219 774 3296 1197 
L 2784 1197 
C 2707 627 2381 339 1818 339 
C 1485 339 1229 461 1056 691 
C 877 922 794 1242 794 1645 
C 794 2048 883 2368 1062 2605 
C 1248 2848 1504 2970 1824 2970 
C 2086 2970 2298 2912 2464 2784 
C 2624 2656 2726 2464 2771 2208 
L 3277 2208 
C 3219 2611 3066 2912 2810 3110 
C 2560 3302 2234 3398 1824 3398 
z
" transform="scale(0.015625)"/>
     </defs>
     <use xlink:href="#PingFangSC-Regular-38"/>
     <use xlink:href="#PingFangSC-Regular-3" transform="translate(71.40625 0)"/>
     <use xlink:href="#PingFangSC-Regular-5f" transform="translate(104.703125 0)"/>
     <use xlink:href="#PingFangSC-Regular-3" transform="translate(124.203125 0)"/>
     <use xlink:href="#PingFangSC-Regular-46" transform="translate(157.5 0)"/>
    </g>
   </g>
   <g id="text_30">
    <!-- 1 -->
    <g transform="translate(629.927462 158.516947) scale(0.12 -0.12)">
     <use xlink:href="#DejaVuSansMono-14"/>
    </g>
   </g>
   <g id="text_31">
    <!-- 2 -->
    <g transform="translate(677.117436 158.516947) scale(0.12 -0.12)">
     <use xlink:href="#DejaVuSansMono-15"/>
    </g>
   </g>
   <g id="text_32">
    <!-- 1 -->
    <g transform="translate(724.307409 158.516947) scale(0.12 -0.12)">
     <use xlink:href="#DejaVuSansMono-14"/>
    </g>
   </g>
   <g id="text_33">
    <!-- 2 -->
    <g transform="translate(771.497383 158.516947) scale(0.12 -0.12)">
     <use xlink:href="#DejaVuSansMono-15"/>
    </g>
   </g>
   <g id="text_34">
    <!-- 0 -->
    <g transform="translate(629.927462 182.228909) scale(0.12 -0.12)">
     <use xlink:href="#DejaVuSansMono-13"/>
    </g>
   </g>
   <g id="text_35">
    <!-- 2 -->
    <g transform="translate(677.117436 182.228909) scale(0.12 -0.12)">
     <use xlink:href="#DejaVuSansMono-15"/>
    </g>
   </g>
   <g id="text_36">
    <!-- -2 -->
    <g transform="translate(720.695222 182.228909) scale(0.12 -0.12)">
     <use xlink:href="#DejaVuSansMono-10"/>
     <use xlink:href="#DejaVuSansMono-15" transform="translate(60.203125 0)"/>
    </g>
   </g>
   <g id="text_37">
    <!-- 6 -->
    <g transform="translate(771.497383 182.228909) scale(0.12 -0.12)">
     <use xlink:href="#DejaVuSansMono-19"/>
    </g>
   </g>
   <g id="text_38">
    <!-- 0 -->
    <g transform="translate(629.927462 205.940871) scale(0.12 -0.12)">
     <use xlink:href="#DejaVuSansMono-13"/>
    </g>
   </g>
   <g id="text_39">
    <!-- 0 -->
    <g transform="translate(677.117436 205.940871) scale(0.12 -0.12)">
     <use xlink:href="#DejaVuSansMono-13"/>
    </g>
   </g>
   <g id="text_40">
    <!-- 5 -->
    <g transform="translate(724.307409 205.940871) scale(0.12 -0.12)">
     <defs>
      <path id="DejaVuSansMono-18" d="M 647 4666 
L 3009 4666 
L 3009 4134 
L 1222 4134 
L 1222 2988 
Q 1356 3038 1492 3061 
Q 1628 3084 1766 3084 
Q 2491 3084 2916 2656 
Q 3341 2228 3341 1497 
Q 3341 759 2895 334 
Q 2450 -91 1678 -91 
Q 1306 -91 998 -41 
Q 691 9 447 109 
L 447 750 
Q 734 594 1025 517 
Q 1316 441 1619 441 
Q 2141 441 2423 716 
Q 2706 991 2706 1497 
Q 2706 1997 2414 2275 
Q 2122 2553 1600 2553 
Q 1347 2553 1106 2495 
Q 866 2438 647 2322 
L 647 4666 
z
" transform="scale(0.015625)"/>
     </defs>
     <use xlink:href="#DejaVuSansMono-18"/>
    </g>
   </g>
   <g id="text_41">
    <!-- -10 -->
    <g transform="translate(764.273008 205.940871) scale(0.12 -0.12)">
     <use xlink:href="#DejaVuSansMono-10"/>
     <use xlink:href="#DejaVuSansMono-14" transform="translate(60.203125 0)"/>
     <use xlink:href="#DejaVuSansMono-13" transform="translate(120.40625 0)"/>
    </g>
   </g>
   <g id="patch_2">
    <path d="M 266.601366 179.111722 
Q 290.339491 179.111722 311.841549 179.111722 
" style="fill: none; stroke: #2f6f9f; stroke-width: 2; stroke-linecap: round"/>
    <path d="M 307.041549 176.711722 
L 311.841549 179.111722 
L 307.041549 181.511722 
" style="fill: none; stroke: #2f6f9f; stroke-width: 2; stroke-linecap: round"/>
   </g>
   <g id="patch_3">
    <path d="M 558.321203 179.111722 
Q 582.059328 179.111722 603.561385 179.111722 
" style="fill: none; stroke: #2f6f9f; stroke-width: 2; stroke-linecap: round"/>
    <path d="M 598.761385 176.711722 
L 603.561385 179.111722 
L 598.761385 181.511722 
" style="fill: none; stroke: #2f6f9f; stroke-width: 2; stroke-linecap: round"/>
   </g>
   <g id="text_42">
    <!-- Back substitution from Ux = c gives z=-2, y=1, x=2. -->
    <g style="fill: #1f1f1f" transform="translate(292.230697 289.703361) scale(0.12 -0.12)">
     <defs>
      <path id="PingFangSC-Regular-25" d="M 461 4570 
L 461 0 
L 2490 0 
C 2957 0 3328 96 3597 275 
C 3910 493 4070 826 4070 1274 
C 4070 1581 3981 1824 3814 2016 
C 3648 2208 3418 2336 3117 2387 
C 3347 2464 3533 2586 3674 2752 
C 3808 2938 3878 3162 3878 3418 
C 3878 3776 3757 4058 3514 4262 
C 3264 4467 2925 4570 2502 4570 
L 461 4570 
z
M 986 4128 
L 2381 4128 
C 2701 4128 2944 4070 3110 3942 
C 3277 3814 3360 3622 3360 3366 
C 3360 3104 3270 2906 3104 2771 
C 2938 2643 2694 2573 2374 2573 
L 986 2573 
L 986 4128 
z
M 986 2138 
L 2445 2138 
C 2797 2138 3066 2074 3251 1933 
C 3443 1792 3546 1574 3546 1280 
C 3546 986 3430 762 3206 621 
C 3014 506 2765 442 2445 442 
L 986 442 
L 986 2138 
z
" transform="scale(0.015625)"/>
      <path id="PingFangSC-Regular-44" d="M 1837 3398 
C 1440 3398 1126 3322 883 3168 
C 614 3002 442 2739 371 2394 
L 877 2355 
C 928 2566 1037 2726 1210 2829 
C 1363 2931 1562 2976 1805 2976 
C 2381 2976 2669 2701 2669 2144 
L 2669 1971 
L 1875 1958 
C 1376 1952 992 1856 723 1677 
C 416 1485 269 1203 269 826 
C 269 557 371 333 576 160 
C 774 -6 1037 -90 1370 -90 
C 1677 -90 1952 -19 2195 115 
C 2400 230 2573 378 2701 557 
L 2701 0 
L 3181 0 
L 3181 2125 
C 3181 2509 3078 2810 2886 3027 
C 2656 3277 2310 3398 1837 3398 
z
M 2669 1587 
L 2669 1306 
C 2669 1050 2547 819 2310 621 
C 2067 416 1792 314 1478 314 
C 1274 314 1107 365 979 461 
C 851 563 794 685 794 838 
C 794 1318 1165 1562 1907 1574 
L 2669 1587 
z
" transform="scale(0.015625)"/>
      <path id="PingFangSC-Regular-4e" d="M 397 4659 
L 397 0 
L 909 0 
L 909 1171 
L 1434 1645 
L 2726 0 
L 3386 0 
L 1786 1978 
L 3245 3309 
L 2566 3309 
L 909 1773 
L 909 4659 
L 397 4659 
z
" transform="scale(0.015625)"/>
      <path id="PingFangSC-Regular-56" d="M 1568 3398 
C 1197 3398 890 3315 659 3149 
C 410 2982 288 2765 288 2483 
C 288 2202 410 1990 666 1837 
C 819 1734 1094 1638 1485 1542 
C 1843 1453 2080 1382 2189 1331 
C 2394 1229 2502 1088 2502 902 
C 2502 531 2202 339 1613 339 
C 1331 339 1120 390 979 493 
C 838 608 742 794 704 1056 
L 205 1056 
C 282 294 755 -90 1626 -90 
C 2560 -90 3027 256 3027 934 
C 3027 1222 2893 1446 2630 1613 
C 2458 1722 2176 1824 1779 1920 
C 1446 2010 1216 2080 1094 2138 
C 902 2234 813 2355 813 2496 
C 813 2643 883 2758 1024 2842 
C 1152 2931 1331 2970 1562 2970 
C 1824 2970 2029 2918 2170 2816 
C 2298 2726 2381 2573 2426 2368 
L 2925 2368 
C 2835 3059 2387 3398 1568 3398 
z
" transform="scale(0.015625)"/>
      <path id="PingFangSC-Regular-45" d="M 397 4659 
L 397 0 
L 877 0 
L 877 544 
C 1101 122 1466 -90 1978 -90 
C 2458 -90 2835 90 3110 435 
C 3354 755 3482 1165 3482 1664 
C 3482 2150 3354 2547 3110 2867 
C 2842 3226 2470 3398 2003 3398 
C 1530 3398 1165 3168 909 2701 
L 909 4659 
L 397 4659 
z
M 1894 2976 
C 2253 2976 2522 2848 2707 2592 
C 2874 2368 2957 2061 2957 1664 
C 2957 1267 2874 954 2720 723 
C 2541 467 2272 333 1914 333 
C 1581 333 1318 461 1139 717 
C 973 947 890 1248 890 1619 
L 890 1683 
C 890 2067 979 2381 1171 2618 
C 1350 2861 1594 2976 1894 2976 
z
" transform="scale(0.015625)"/>
      <path id="PingFangSC-Regular-52" d="M 1875 3398 
C 1376 3398 986 3232 691 2886 
C 410 2560 269 2150 269 1651 
C 269 1158 410 749 691 429 
C 986 83 1376 -90 1875 -90 
C 2368 -90 2765 83 3066 429 
C 3341 749 3482 1158 3482 1651 
C 3482 2150 3341 2560 3059 2886 
C 2765 3232 2368 3398 1875 3398 
z
M 1875 2970 
C 2221 2970 2496 2835 2701 2566 
C 2874 2323 2963 2022 2963 1651 
C 2963 1293 2874 986 2701 742 
C 2496 474 2221 339 1875 339 
C 1523 339 1248 474 1056 742 
C 877 986 794 1286 794 1651 
C 794 2022 877 2323 1056 2566 
C 1248 2835 1523 2970 1875 2970 
z
" transform="scale(0.015625)"/>
      <path id="PingFangSC-Regular-51" d="M 1946 3398 
C 1728 3398 1530 3347 1350 3245 
C 1171 3149 1024 3008 909 2822 
L 909 3309 
L 397 3309 
L 397 0 
L 909 0 
L 909 1997 
C 928 2298 1024 2534 1203 2714 
C 1370 2880 1568 2963 1798 2963 
C 2374 2963 2669 2643 2669 1997 
L 2669 0 
L 3181 0 
L 3181 2035 
C 3181 2944 2765 3398 1946 3398 
z
" transform="scale(0.015625)"/>
      <path id="PingFangSC-Regular-49" d="M 1722 4570 
C 1440 4570 1222 4493 1075 4333 
C 934 4179 864 3968 864 3686 
L 864 3309 
L 32 3309 
L 32 2880 
L 864 2880 
L 864 0 
L 1376 0 
L 1376 2880 
L 2310 2880 
L 2310 3309 
L 1376 3309 
L 1376 3674 
C 1376 3834 1408 3949 1472 4019 
C 1536 4096 1645 4128 1786 4128 
L 2355 4128 
L 2355 4570 
L 1722 4570 
z
" transform="scale(0.015625)"/>
      <path id="PingFangSC-Regular-5b" d="M 173 3309 
L 1344 1754 
L 32 0 
L 640 0 
L 1632 1376 
L 2618 0 
L 3226 0 
L 1914 1754 
L 3085 3309 
L 2483 3309 
L 1632 2131 
L 774 3309 
L 173 3309 
z
" transform="scale(0.015625)"/>
      <path id="PingFangSC-Regular-20" d="M 320 2528 
L 320 2099 
L 3552 2099 
L 3552 2528 
L 320 2528 
z
M 320 1216 
L 320 781 
L 3552 781 
L 3552 1216 
L 320 1216 
z
" transform="scale(0.015625)"/>
      <path id="PingFangSC-Regular-4a" d="M 1760 3398 
C 1299 3398 934 3238 666 2912 
C 397 2605 269 2214 269 1728 
C 269 1248 397 858 666 550 
C 934 237 1299 77 1760 77 
C 2259 77 2630 301 2874 742 
L 2874 160 
C 2874 -570 2541 -941 1875 -941 
C 1574 -941 1350 -883 1203 -774 
C 1056 -672 960 -506 922 -282 
L 410 -282 
C 467 -640 614 -909 851 -1088 
C 1082 -1267 1427 -1357 1875 -1357 
C 2880 -1357 3386 -826 3386 230 
L 3386 3309 
L 2874 3309 
L 2874 2739 
C 2630 3181 2259 3398 1760 3398 
z
M 1837 2976 
C 2163 2976 2419 2861 2611 2618 
C 2790 2400 2880 2099 2880 1728 
C 2880 1370 2790 1075 2611 851 
C 2419 621 2163 506 1830 506 
C 1472 506 1210 634 1030 877 
C 870 1094 794 1382 794 1728 
C 794 2099 883 2400 1062 2618 
C 1248 2861 1504 2976 1837 2976 
z
" transform="scale(0.015625)"/>
      <path id="PingFangSC-Regular-59" d="M 32 3309 
L 1280 0 
L 1798 0 
L 3053 3309 
L 2490 3309 
L 1542 640 
L 595 3309 
L 32 3309 
z
" transform="scale(0.015625)"/>
      <path id="PingFangSC-Regular-5d" d="M 224 3309 
L 224 2880 
L 2182 2880 
L 160 371 
L 160 0 
L 2957 0 
L 2957 429 
L 826 429 
L 2854 2950 
L 2854 3309 
L 224 3309 
z
" transform="scale(0.015625)"/>
      <path id="PingFangSC-Regular-10" d="M 320 1875 
L 320 1440 
L 3552 1440 
L 3552 1875 
L 320 1875 
z
" transform="scale(0.015625)"/>
      <path id="PingFangSC-Regular-15" d="M 1984 4659 
C 1523 4659 1146 4506 864 4198 
C 582 3898 435 3488 435 2976 
L 960 2976 
C 966 3379 1062 3686 1242 3891 
C 1408 4109 1651 4211 1965 4211 
C 2259 4211 2496 4134 2662 3981 
C 2829 3827 2912 3616 2912 3334 
C 2912 3040 2790 2765 2560 2515 
C 2438 2387 2202 2202 1843 1946 
C 1357 1613 1030 1338 851 1133 
C 544 794 397 416 397 0 
L 3443 0 
L 3443 467 
L 1043 467 
C 1126 774 1459 1126 2042 1517 
C 2515 1837 2829 2086 2989 2253 
C 3283 2573 3437 2931 3437 3328 
C 3437 3725 3296 4051 3027 4294 
C 2752 4538 2406 4659 1984 4659 
z
" transform="scale(0.015625)"/>
      <path id="PingFangSC-Regular-f" d="M 845 762 
C 717 762 621 730 550 653 
C 467 582 429 486 429 365 
C 429 256 467 160 544 83 
C 621 6 710 -32 819 -32 
C 883 -32 928 -19 960 -6 
C 960 -160 909 -301 819 -435 
C 717 -563 576 -659 410 -717 
L 410 -1030 
C 685 -960 909 -819 1075 -614 
C 1242 -397 1325 -147 1325 134 
C 1325 320 1280 467 1197 582 
C 1107 704 986 762 845 762 
z
" transform="scale(0.015625)"/>
      <path id="PingFangSC-Regular-5c" d="M 32 3309 
L 1344 77 
L 774 -1267 
L 1331 -1267 
L 3142 3309 
L 2579 3309 
L 1600 698 
L 589 3309 
L 32 3309 
z
" transform="scale(0.015625)"/>
      <path id="PingFangSC-Regular-14" d="M 1472 4570 
C 1318 4397 1139 4243 922 4102 
C 704 3974 486 3885 282 3827 
L 282 3302 
C 710 3430 1069 3635 1357 3930 
L 1357 0 
L 1882 0 
L 1882 4570 
L 1472 4570 
z
" transform="scale(0.015625)"/>
      <path id="PingFangSC-Regular-11" d="M 845 762 
C 730 762 640 723 570 646 
C 493 570 454 480 454 365 
C 454 256 493 166 570 90 
C 640 13 730 -26 845 -26 
C 947 -26 1043 13 1120 90 
C 1197 166 1235 256 1235 365 
C 1235 480 1197 570 1120 646 
C 1043 723 947 762 845 762 
z
" transform="scale(0.015625)"/>
     </defs>
     <use xlink:href="#PingFangSC-Regular-25"/>
     <use xlink:href="#PingFangSC-Regular-44" transform="translate(67.703125 0)"/>
     <use xlink:href="#PingFangSC-Regular-46" transform="translate(123.609375 0)"/>
     <use xlink:href="#PingFangSC-Regular-4e" transform="translate(178.3125 0)"/>
     <use xlink:href="#PingFangSC-Regular-3" transform="translate(231.21875 0)"/>
     <use xlink:href="#PingFangSC-Regular-56" transform="translate(264.515625 0)"/>
     <use xlink:href="#PingFangSC-Regular-58" transform="translate(315.015625 0)"/>
     <use xlink:href="#PingFangSC-Regular-45" transform="translate(371.015625 0)"/>
     <use xlink:href="#PingFangSC-Regular-56" transform="translate(429.609375 0)"/>
     <use xlink:href="#PingFangSC-Regular-57" transform="translate(480.109375 0)"/>
     <use xlink:href="#PingFangSC-Regular-4c" transform="translate(515.609375 0)"/>
     <use xlink:href="#PingFangSC-Regular-57" transform="translate(541.203125 0)"/>
     <use xlink:href="#PingFangSC-Regular-58" transform="translate(576.703125 0)"/>
     <use xlink:href="#PingFangSC-Regular-57" transform="translate(632.703125 0)"/>
     <use xlink:href="#PingFangSC-Regular-4c" transform="translate(668.203125 0)"/>
     <use xlink:href="#PingFangSC-Regular-52" transform="translate(693.796875 0)"/>
     <use xlink:href="#PingFangSC-Regular-51" transform="translate(752.390625 0)"/>
     <use xlink:href="#PingFangSC-Regular-3" transform="translate(808.296875 0)"/>
     <use xlink:href="#PingFangSC-Regular-49" transform="translate(841.59375 0)"/>
     <use xlink:href="#PingFangSC-Regular-55" transform="translate(878.890625 0)"/>
     <use xlink:href="#PingFangSC-Regular-52" transform="translate(915.390625 0)"/>
     <use xlink:href="#PingFangSC-Regular-50" transform="translate(973.984375 0)"/>
     <use xlink:href="#PingFangSC-Regular-3" transform="translate(1059.484375 0)"/>
     <use xlink:href="#PingFangSC-Regular-38" transform="translate(1092.78125 0)"/>
     <use xlink:href="#PingFangSC-Regular-5b" transform="translate(1164.1875 0)"/>
     <use xlink:href="#PingFangSC-Regular-3" transform="translate(1215.09375 0)"/>
     <use xlink:href="#PingFangSC-Regular-20" transform="translate(1248.390625 0)"/>
     <use xlink:href="#PingFangSC-Regular-3" transform="translate(1308.890625 0)"/>
     <use xlink:href="#PingFangSC-Regular-46" transform="translate(1342.1875 0)"/>
     <use xlink:href="#PingFangSC-Regular-3" transform="translate(1396.890625 0)"/>
     <use xlink:href="#PingFangSC-Regular-4a" transform="translate(1430.1875 0)"/>
     <use xlink:href="#PingFangSC-Regular-4c" transform="translate(1489.28125 0)"/>
     <use xlink:href="#PingFangSC-Regular-59" transform="translate(1514.875 0)"/>
     <use xlink:href="#PingFangSC-Regular-48" transform="translate(1563.078125 0)"/>
     <use xlink:href="#PingFangSC-Regular-56" transform="translate(1618.578125 0)"/>
     <use xlink:href="#PingFangSC-Regular-3" transform="translate(1669.078125 0)"/>
     <use xlink:href="#PingFangSC-Regular-5d" transform="translate(1702.375 0)"/>
     <use xlink:href="#PingFangSC-Regular-20" transform="translate(1751.078125 0)"/>
     <use xlink:href="#PingFangSC-Regular-10" transform="translate(1811.578125 0)"/>
     <use xlink:href="#PingFangSC-Regular-15" transform="translate(1872.078125 0)"/>
     <use xlink:href="#PingFangSC-Regular-f" transform="translate(1932.078125 0)"/>
     <use xlink:href="#PingFangSC-Regular-3" transform="translate(1958.484375 0)"/>
     <use xlink:href="#PingFangSC-Regular-5c" transform="translate(1991.78125 0)"/>
     <use xlink:href="#PingFangSC-Regular-20" transform="translate(2041.375 0)"/>
     <use xlink:href="#PingFangSC-Regular-14" transform="translate(2101.875 0)"/>
     <use xlink:href="#PingFangSC-Regular-f" transform="translate(2141.96875 0)"/>
     <use xlink:href="#PingFangSC-Regular-3" transform="translate(2168.375 0)"/>
     <use xlink:href="#PingFangSC-Regular-5b" transform="translate(2201.671875 0)"/>
     <use xlink:href="#PingFangSC-Regular-20" transform="translate(2252.578125 0)"/>
     <use xlink:href="#PingFangSC-Regular-15" transform="translate(2313.078125 0)"/>
     <use xlink:href="#PingFangSC-Regular-11" transform="translate(2373.078125 0)"/>
    </g>
   </g>
  </g>
 </g>
 <defs>
  <clipPath id="p337a29ae62">
   <rect x="7.2" y="7.2" width="857.99952" height="296.39952"/>
  </clipPath>
 </defs>
</svg>
