<?xml version="1.0" encoding="UTF-8" standalone="no"?>
<!DOCTYPE svg PUBLIC "-//W3C//DTD SVG 1.1//EN"
 "http://www.w3.org/Graphics/SVG/1.1/DTD/svg11.dtd">
<!-- Generated by graphviz version 15.0.0 (20260523.1842)
 -->
<!-- Title: G Pages: 1 -->
<svg width="862pt" height="155pt"
 viewBox="0.00 0.00 862.00 155.00" xmlns="http://www.w3.org/2000/svg" xmlns:xlink="http://www.w3.org/1999/xlink">
<g id="graph0" class="graph" transform="scale(1 1) rotate(0) translate(14.4 140.79)">
<title>G</title>
<polygon fill="white" stroke="none" points="-14.4,14.4 -14.4,-140.79 847.63,-140.79 847.63,14.4 -14.4,14.4"/>
<!-- start -->
<g id="node1" class="node">
<title>start</title>
<path fill="#fff7e6" stroke="#555555" d="M155.16,-126.39C155.16,-126.39 12,-126.39 12,-126.39 6,-126.39 0,-120.39 0,-114.39 0,-114.39 0,-101.38 0,-101.38 0,-95.38 6,-89.38 12,-89.38 12,-89.38 155.16,-89.38 155.16,-89.38 161.16,-89.38 167.16,-95.38 167.16,-101.38 167.16,-101.38 167.16,-114.39 167.16,-114.39 167.16,-120.39 161.16,-126.39 155.16,-126.39"/>
<text xml:space="preserve" text-anchor="middle" x="83.58" y="-109.23" font-family="Helvetica,sans-Serif" font-size="12.00">[A | I]</text>
<text xml:space="preserve" text-anchor="middle" x="83.58" y="-96.48" font-family="Helvetica,sans-Serif" font-size="12.00">start with matrix and identity</text>
</g>
<!-- gauss -->
<g id="node2" class="node">
<title>gauss</title>
<path fill="#e8f0fe" stroke="#555555" d="M475.07,-126.39C475.07,-126.39 319.91,-126.39 319.91,-126.39 313.91,-126.39 307.91,-120.39 307.91,-114.39 307.91,-114.39 307.91,-101.38 307.91,-101.38 307.91,-95.38 313.91,-89.38 319.91,-89.38 319.91,-89.38 475.07,-89.38 475.07,-89.38 481.07,-89.38 487.07,-95.38 487.07,-101.38 487.07,-101.38 487.07,-114.39 487.07,-114.39 487.07,-120.39 481.07,-126.39 475.07,-126.39"/>
<text xml:space="preserve" text-anchor="middle" x="397.49" y="-109.23" font-family="Helvetica,sans-Serif" font-size="12.00">[U | *]</text>
<text xml:space="preserve" text-anchor="middle" x="397.49" y="-96.48" font-family="Helvetica,sans-Serif" font-size="12.00">Gauss: eliminate below pivots</text>
</g>
<!-- start&#45;&gt;gauss -->
<g id="edge1" class="edge">
<title>start&#45;&gt;gauss</title>
<path fill="none" stroke="#555555" d="M167.35,-107.88C206.94,-107.88 254.68,-107.88 296.3,-107.88"/>
<polygon fill="#555555" stroke="#555555" points="296.08,-111.39 306.08,-107.89 296.08,-104.39 296.08,-111.39"/>
<text xml:space="preserve" text-anchor="middle" x="237.53" y="-109.43" font-family="Helvetica,sans-Serif" font-size="11.00">forward elimination</text>
</g>
<!-- jordan -->
<g id="node3" class="node">
<title>jordan</title>
<path fill="#e8f5e9" stroke="#555555" d="M821.23,-71.39C821.23,-71.39 663.07,-71.39 663.07,-71.39 657.07,-71.39 651.07,-65.39 651.07,-59.39 651.07,-59.39 651.07,-46.38 651.07,-46.38 651.07,-40.38 657.07,-34.38 663.07,-34.38 663.07,-34.38 821.23,-34.38 821.23,-34.38 827.23,-34.38 833.23,-40.38 833.23,-46.38 833.23,-46.38 833.23,-59.39 833.23,-59.39 833.23,-65.39 827.23,-71.39 821.23,-71.39"/>
<text xml:space="preserve" text-anchor="middle" x="742.15" y="-54.23" font-family="Helvetica,sans-Serif" font-size="12.00">[I | A^&#45;1]</text>
<text xml:space="preserve" text-anchor="middle" x="742.15" y="-41.48" font-family="Helvetica,sans-Serif" font-size="12.00">Jordan: eliminate above pivots</text>
</g>
<!-- gauss&#45;&gt;jordan -->
<g id="edge2" class="edge">
<title>gauss&#45;&gt;jordan</title>
<path fill="none" stroke="#555555" d="M487.18,-93.65C533.82,-86.16 591.19,-76.95 639.61,-69.18"/>
<polygon fill="#555555" stroke="#555555" points="639.93,-72.68 649.25,-67.64 638.82,-65.76 639.93,-72.68"/>
<text xml:space="preserve" text-anchor="middle" x="569.07" y="-90.08" font-family="Helvetica,sans-Serif" font-size="11.00">continue upward</text>
</g>
<!-- reason -->
<g id="node4" class="node">
<title>reason</title>
<path fill="#f3e8ff" stroke="#555555" d="M444.32,-49.77C444.32,-49.77 350.66,-49.77 350.66,-49.77 344.66,-49.77 338.66,-43.77 338.66,-37.77 338.66,-37.77 338.66,-12 338.66,-12 338.66,-6 344.66,0 350.66,0 350.66,0 444.32,0 444.32,0 450.32,0 456.32,-6 456.32,-12 456.32,-12 456.32,-37.77 456.32,-37.77 456.32,-43.77 450.32,-49.77 444.32,-49.77"/>
<text xml:space="preserve" text-anchor="middle" x="397.49" y="-32.61" font-family="Helvetica,sans-Serif" font-size="12.00">If E[A | I] = [EA | EI]</text>
<text xml:space="preserve" text-anchor="middle" x="397.49" y="-19.86" font-family="Helvetica,sans-Serif" font-size="12.00">and EA = I,</text>
<text xml:space="preserve" text-anchor="middle" x="397.49" y="-7.11" font-family="Helvetica,sans-Serif" font-size="12.00">then E = A^&#45;1</text>
</g>
<!-- reason&#45;&gt;jordan -->
<g id="edge3" class="edge">
<title>reason&#45;&gt;jordan</title>
<path fill="none" stroke="#555555" stroke-dasharray="5,2" d="M456.64,-24.74C502.71,-25.15 568.66,-26.92 626.07,-32.88 630.48,-33.34 634.98,-33.87 639.52,-34.45"/>
<polygon fill="#555555" stroke="#555555" points="638.97,-37.91 649.35,-35.79 639.91,-30.97 638.97,-37.91"/>
<text xml:space="preserve" text-anchor="middle" x="569.07" y="-34.43" font-family="Helvetica,sans-Serif" font-size="11.00">why right side is inverse</text>
</g>
</g>
</svg>
