<?xml version="1.0" encoding="UTF-8" standalone="no"?>
<!DOCTYPE svg PUBLIC "-//W3C//DTD SVG 1.1//EN"
 "http://www.w3.org/Graphics/SVG/1.1/DTD/svg11.dtd">
<!-- Generated by graphviz version 15.0.0 (20260523.1842)
 -->
<!-- Title: G Pages: 1 -->
<svg width="376pt" height="412pt"
 viewBox="0.00 0.00 376.00 412.00" xmlns="http://www.w3.org/2000/svg" xmlns:xlink="http://www.w3.org/1999/xlink">
<g id="graph0" class="graph" transform="scale(1 1) rotate(0) translate(14.4 397.42)">
<title>G</title>
<polygon fill="white" stroke="none" points="-14.4,14.4 -14.4,-397.42 361.97,-397.42 361.97,14.4 -14.4,14.4"/>
<!-- center -->
<g id="node1" class="node">
<title>center</title>
<path fill="#fff7e6" stroke="#555555" stroke-width="1.4" d="M335.57,-216.39C335.57,-216.39 250.91,-216.39 250.91,-216.39 244.91,-216.39 238.91,-210.39 238.91,-204.39 238.91,-204.39 238.91,-178.62 238.91,-178.62 238.91,-172.62 244.91,-166.62 250.91,-166.62 250.91,-166.62 335.57,-166.62 335.57,-166.62 341.57,-166.62 347.57,-172.62 347.57,-178.62 347.57,-178.62 347.57,-204.39 347.57,-204.39 347.57,-210.39 341.57,-216.39 335.57,-216.39"/>
<text xml:space="preserve" text-anchor="middle" x="293.24" y="-199.23" font-family="Helvetica,sans-Serif" font-size="12.00">AB = C</text>
<text xml:space="preserve" text-anchor="middle" x="293.24" y="-186.48" font-family="Helvetica,sans-Serif" font-size="12.00">A: m x n, B: n x p</text>
<text xml:space="preserve" text-anchor="middle" x="293.24" y="-173.73" font-family="Helvetica,sans-Serif" font-size="12.00">C: m x p</text>
</g>
<!-- entry -->
<g id="node2" class="node">
<title>entry</title>
<path fill="#e8f0fe" stroke="#555555" d="M162.66,-383.02C162.66,-383.02 26.25,-383.02 26.25,-383.02 20.25,-383.02 14.25,-377.02 14.25,-371.02 14.25,-371.02 14.25,-358 14.25,-358 14.25,-352 20.25,-346 26.25,-346 26.25,-346 162.66,-346 162.66,-346 168.66,-346 174.66,-352 174.66,-358 174.66,-358 174.66,-371.02 174.66,-371.02 174.66,-377.02 168.66,-383.02 162.66,-383.02"/>
<text xml:space="preserve" text-anchor="middle" x="94.45" y="-365.86" font-family="Helvetica,sans-Serif" font-size="12.00">Entry view</text>
<text xml:space="preserve" text-anchor="middle" x="94.45" y="-353.11" font-family="Helvetica,sans-Serif" font-size="12.00">c_ij = row_i(A) dot col_j(B)</text>
</g>
<!-- entry&#45;&gt;center -->
<g id="edge1" class="edge">
<title>entry&#45;&gt;center</title>
<path fill="none" stroke="#555555" d="M155.35,-345.69C167.11,-340.51 178.88,-334.16 188.91,-326.51 224.64,-299.24 254.43,-256.64 272.7,-226.6"/>
<polygon fill="#555555" stroke="#555555" points="275.57,-228.62 277.67,-218.24 269.55,-225.05 275.57,-228.62"/>
</g>
<!-- columns -->
<g id="node3" class="node">
<title>columns</title>
<path fill="#e8f5e9" stroke="#555555" d="M160.41,-306.39C160.41,-306.39 28.5,-306.39 28.5,-306.39 22.5,-306.39 16.5,-300.39 16.5,-294.39 16.5,-294.39 16.5,-268.62 16.5,-268.62 16.5,-262.62 22.5,-256.62 28.5,-256.62 28.5,-256.62 160.41,-256.62 160.41,-256.62 166.41,-256.62 172.41,-262.62 172.41,-268.62 172.41,-268.62 172.41,-294.39 172.41,-294.39 172.41,-300.39 166.41,-306.39 160.41,-306.39"/>
<text xml:space="preserve" text-anchor="middle" x="94.45" y="-289.24" font-family="Helvetica,sans-Serif" font-size="12.00">Column view</text>
<text xml:space="preserve" text-anchor="middle" x="94.45" y="-276.49" font-family="Helvetica,sans-Serif" font-size="12.00">col_j(C) = A col_j(B)</text>
<text xml:space="preserve" text-anchor="middle" x="94.45" y="-263.74" font-family="Helvetica,sans-Serif" font-size="12.00">columns of C lie in Col(A)</text>
</g>
<!-- columns&#45;&gt;center -->
<g id="edge2" class="edge">
<title>columns&#45;&gt;center</title>
<path fill="none" stroke="#555555" d="M150.79,-256.2C174.77,-245.24 202.99,-232.33 227.89,-220.94"/>
<polygon fill="#555555" stroke="#555555" points="229.32,-224.14 236.96,-216.79 226.41,-217.77 229.32,-224.14"/>
</g>
<!-- rows -->
<g id="node4" class="node">
<title>rows</title>
<path fill="#e8f5e9" stroke="#555555" d="M153.66,-216.39C153.66,-216.39 35.25,-216.39 35.25,-216.39 29.25,-216.39 23.25,-210.39 23.25,-204.39 23.25,-204.39 23.25,-178.62 23.25,-178.62 23.25,-172.62 29.25,-166.62 35.25,-166.62 35.25,-166.62 153.66,-166.62 153.66,-166.62 159.66,-166.62 165.66,-172.62 165.66,-178.62 165.66,-178.62 165.66,-204.39 165.66,-204.39 165.66,-210.39 159.66,-216.39 153.66,-216.39"/>
<text xml:space="preserve" text-anchor="middle" x="94.45" y="-199.23" font-family="Helvetica,sans-Serif" font-size="12.00">Row view</text>
<text xml:space="preserve" text-anchor="middle" x="94.45" y="-186.48" font-family="Helvetica,sans-Serif" font-size="12.00">row_i(C) = row_i(A) B</text>
<text xml:space="preserve" text-anchor="middle" x="94.45" y="-173.73" font-family="Helvetica,sans-Serif" font-size="12.00">rows of C lie in Row(B)</text>
</g>
<!-- rows&#45;&gt;center -->
<g id="edge3" class="edge">
<title>rows&#45;&gt;center</title>
<path fill="none" stroke="#555555" d="M165.94,-191.51C185.86,-191.51 207.43,-191.51 227.02,-191.51"/>
<polygon fill="#555555" stroke="#555555" points="226.78,-195.01 236.78,-191.51 226.78,-188.01 226.78,-195.01"/>
</g>
<!-- outer -->
<g id="node5" class="node">
<title>outer</title>
<path fill="#f3e8ff" stroke="#555555" d="M160.78,-126.39C160.78,-126.39 28.12,-126.39 28.12,-126.39 22.12,-126.39 16.12,-120.39 16.12,-114.39 16.12,-114.39 16.12,-88.62 16.12,-88.62 16.12,-82.62 22.12,-76.62 28.12,-76.62 28.12,-76.62 160.78,-76.62 160.78,-76.62 166.78,-76.62 172.78,-82.62 172.78,-88.62 172.78,-88.62 172.78,-114.39 172.78,-114.39 172.78,-120.39 166.78,-126.39 160.78,-126.39"/>
<text xml:space="preserve" text-anchor="middle" x="94.45" y="-109.23" font-family="Helvetica,sans-Serif" font-size="12.00">Outer&#45;product view</text>
<text xml:space="preserve" text-anchor="middle" x="94.45" y="-96.48" font-family="Helvetica,sans-Serif" font-size="12.00">AB = sum of</text>
<text xml:space="preserve" text-anchor="middle" x="94.45" y="-83.73" font-family="Helvetica,sans-Serif" font-size="12.00">columns(A) times rows(B)</text>
</g>
<!-- outer&#45;&gt;center -->
<g id="edge4" class="edge">
<title>outer&#45;&gt;center</title>
<path fill="none" stroke="#555555" d="M150.79,-126.82C174.77,-137.78 202.99,-150.69 227.89,-162.08"/>
<polygon fill="#555555" stroke="#555555" points="226.41,-165.25 236.96,-166.23 229.32,-158.88 226.41,-165.25"/>
</g>
<!-- blocks -->
<g id="node6" class="node">
<title>blocks</title>
<path fill="#fce8e6" stroke="#555555" d="M176.91,-37.02C176.91,-37.02 12,-37.02 12,-37.02 6,-37.02 0,-31.02 0,-25.02 0,-25.02 0,-12 0,-12 0,-6 6,0 12,0 12,0 176.91,0 176.91,0 182.91,0 188.91,-6 188.91,-12 188.91,-12 188.91,-25.02 188.91,-25.02 188.91,-31.02 182.91,-37.02 176.91,-37.02"/>
<text xml:space="preserve" text-anchor="middle" x="94.45" y="-19.86" font-family="Helvetica,sans-Serif" font-size="12.00">Block view</text>
<text xml:space="preserve" text-anchor="middle" x="94.45" y="-7.11" font-family="Helvetica,sans-Serif" font-size="12.00">C_11 = A_11 B_11 + A_12 B_21</text>
</g>
<!-- blocks&#45;&gt;center -->
<g id="edge5" class="edge">
<title>blocks&#45;&gt;center</title>
<path fill="none" stroke="#555555" d="M155.35,-37.33C167.11,-42.51 178.88,-48.86 188.91,-56.51 224.64,-83.78 254.43,-126.38 272.7,-156.42"/>
<polygon fill="#555555" stroke="#555555" points="269.55,-157.97 277.67,-164.78 275.57,-154.4 269.55,-157.97"/>
</g>
</g>
</svg>
