<?xml version="1.0" encoding="UTF-8" standalone="no"?>
<!DOCTYPE svg PUBLIC "-//W3C//DTD SVG 1.1//EN"
 "http://www.w3.org/Graphics/SVG/1.1/DTD/svg11.dtd">
<!-- Generated by graphviz version 15.0.0 (20260523.1842)
 -->
<!-- Title: G Pages: 1 -->
<svg width="940pt" height="169pt"
 viewBox="0.00 0.00 940.00 169.00" xmlns="http://www.w3.org/2000/svg" xmlns:xlink="http://www.w3.org/1999/xlink">
<g id="graph0" class="graph" transform="scale(1 1) rotate(0) translate(14.4 154.17)">
<title>G</title>
<polygon fill="white" stroke="none" points="-14.4,14.4 -14.4,-154.17 925.29,-154.17 925.29,14.4 -14.4,14.4"/>
<!-- A -->
<g id="node1" class="node">
<title>A</title>
<path fill="#fff7e6" stroke="#555555" d="M83.16,-133.39C83.16,-133.39 12,-133.39 12,-133.39 6,-133.39 0,-127.39 0,-121.39 0,-121.39 0,-108.38 0,-108.38 0,-102.38 6,-96.38 12,-96.38 12,-96.38 83.16,-96.38 83.16,-96.38 89.16,-96.38 95.16,-102.38 95.16,-108.38 95.16,-108.38 95.16,-121.39 95.16,-121.39 95.16,-127.39 89.16,-133.39 83.16,-133.39"/>
<text xml:space="preserve" text-anchor="middle" x="47.58" y="-116.23" font-family="Helvetica,sans-Serif" font-size="12.00">A</text>
<text xml:space="preserve" text-anchor="middle" x="47.58" y="-103.48" font-family="Helvetica,sans-Serif" font-size="12.00">original matrix</text>
</g>
<!-- elim -->
<g id="node2" class="node">
<title>elim</title>
<path fill="#e8f0fe" stroke="#555555" d="M344.07,-133.39C344.07,-133.39 266.16,-133.39 266.16,-133.39 260.16,-133.39 254.16,-127.39 254.16,-121.39 254.16,-121.39 254.16,-108.38 254.16,-108.38 254.16,-102.38 260.16,-96.38 266.16,-96.38 266.16,-96.38 344.07,-96.38 344.07,-96.38 350.07,-96.38 356.07,-102.38 356.07,-108.38 356.07,-108.38 356.07,-121.39 356.07,-121.39 356.07,-127.39 350.07,-133.39 344.07,-133.39"/>
<text xml:space="preserve" text-anchor="middle" x="305.12" y="-116.23" font-family="Helvetica,sans-Serif" font-size="12.00">E32 E31 E21 A</text>
<text xml:space="preserve" text-anchor="middle" x="305.12" y="-103.48" font-family="Helvetica,sans-Serif" font-size="12.00">row operations</text>
</g>
<!-- A&#45;&gt;elim -->
<g id="edge1" class="edge">
<title>A&#45;&gt;elim</title>
<path fill="none" stroke="#555555" d="M95.45,-114.88C136.8,-114.88 197.37,-114.88 242.61,-114.88"/>
<polygon fill="#555555" stroke="#555555" points="242.54,-118.39 252.54,-114.89 242.53,-111.39 242.54,-118.39"/>
<text xml:space="preserve" text-anchor="middle" x="174.66" y="-116.43" font-family="Helvetica,sans-Serif" font-size="11.00">eliminate below pivots</text>
</g>
<!-- U -->
<g id="node3" class="node">
<title>U</title>
<path fill="#e8f5e9" stroke="#555555" d="M572.36,-139.77C572.36,-139.77 478.7,-139.77 478.7,-139.77 472.7,-139.77 466.7,-133.77 466.7,-127.77 466.7,-127.77 466.7,-102 466.7,-102 466.7,-96 472.7,-90 478.7,-90 478.7,-90 572.36,-90 572.36,-90 578.36,-90 584.36,-96 584.36,-102 584.36,-102 584.36,-127.77 584.36,-127.77 584.36,-133.77 578.36,-139.77 572.36,-139.77"/>
<text xml:space="preserve" text-anchor="middle" x="525.53" y="-122.61" font-family="Helvetica,sans-Serif" font-size="12.00">U</text>
<text xml:space="preserve" text-anchor="middle" x="525.53" y="-109.86" font-family="Helvetica,sans-Serif" font-size="12.00">upper triangular</text>
<text xml:space="preserve" text-anchor="middle" x="525.53" y="-97.11" font-family="Helvetica,sans-Serif" font-size="12.00">pivots on diagonal</text>
</g>
<!-- elim&#45;&gt;U -->
<g id="edge2" class="edge">
<title>elim&#45;&gt;U</title>
<path fill="none" stroke="#555555" d="M356.5,-114.88C385.67,-114.88 422.82,-114.88 454.77,-114.88"/>
<polygon fill="#555555" stroke="#555555" points="454.77,-118.39 464.77,-114.89 454.77,-111.39 454.77,-118.39"/>
<text xml:space="preserve" text-anchor="middle" x="400.7" y="-116.43" font-family="Helvetica,sans-Serif" font-size="11.00">EA = U</text>
</g>
<!-- LU -->
<g id="node5" class="node">
<title>LU</title>
<path fill="#fff0f0" stroke="#555555" d="M898.89,-71.39C898.89,-71.39 780.48,-71.39 780.48,-71.39 774.48,-71.39 768.48,-65.39 768.48,-59.39 768.48,-59.39 768.48,-46.38 768.48,-46.38 768.48,-40.38 774.48,-34.38 780.48,-34.38 780.48,-34.38 898.89,-34.38 898.89,-34.38 904.89,-34.38 910.89,-40.38 910.89,-46.38 910.89,-46.38 910.89,-59.39 910.89,-59.39 910.89,-65.39 904.89,-71.39 898.89,-71.39"/>
<text xml:space="preserve" text-anchor="middle" x="839.69" y="-54.23" font-family="Helvetica,sans-Serif" font-size="12.00">A = L U</text>
<text xml:space="preserve" text-anchor="middle" x="839.69" y="-41.48" font-family="Helvetica,sans-Serif" font-size="12.00">without row exchanges</text>
</g>
<!-- U&#45;&gt;LU -->
<g id="edge3" class="edge">
<title>U&#45;&gt;LU</title>
<path fill="none" stroke="#555555" d="M584.51,-103.37C633.09,-93.72 702.99,-79.84 757.19,-69.07"/>
<polygon fill="#555555" stroke="#555555" points="757.55,-72.57 766.68,-67.19 756.19,-65.7 757.55,-72.57"/>
<text xml:space="preserve" text-anchor="middle" x="687.11" y="-94.61" font-family="Helvetica,sans-Serif" font-size="11.00">move E&#39;s to other side</text>
</g>
<!-- inv -->
<g id="node4" class="node">
<title>inv</title>
<path fill="#f3e8ff" stroke="#555555" d="M593.73,-49.77C593.73,-49.77 457.32,-49.77 457.32,-49.77 451.32,-49.77 445.32,-43.77 445.32,-37.77 445.32,-37.77 445.32,-12 445.32,-12 445.32,-6 451.32,0 457.32,0 457.32,0 593.73,0 593.73,0 599.73,0 605.73,-6 605.73,-12 605.73,-12 605.73,-37.77 605.73,-37.77 605.73,-43.77 599.73,-49.77 593.73,-49.77"/>
<text xml:space="preserve" text-anchor="middle" x="525.53" y="-32.61" font-family="Helvetica,sans-Serif" font-size="12.00">L = E21^&#45;1 E31^&#45;1 E32^&#45;1</text>
<text xml:space="preserve" text-anchor="middle" x="525.53" y="-19.86" font-family="Helvetica,sans-Serif" font-size="12.00">lower triangular</text>
<text xml:space="preserve" text-anchor="middle" x="525.53" y="-7.11" font-family="Helvetica,sans-Serif" font-size="12.00">store multipliers</text>
</g>
<!-- inv&#45;&gt;LU -->
<g id="edge4" class="edge">
<title>inv&#45;&gt;LU</title>
<path fill="none" stroke="#555555" d="M606.08,-26.64C646.7,-28.13 696.83,-30.86 741.48,-35.88 746.5,-36.45 751.65,-37.11 756.84,-37.84"/>
<polygon fill="#555555" stroke="#555555" points="756.32,-41.3 766.72,-39.3 757.34,-34.37 756.32,-41.3"/>
<text xml:space="preserve" text-anchor="middle" x="687.11" y="-37.43" font-family="Helvetica,sans-Serif" font-size="11.00">inverse row operations</text>
</g>
</g>
</svg>
