<?xml version="1.0" encoding="utf-8" standalone="no"?>
<!DOCTYPE svg PUBLIC "-//W3C//DTD SVG 1.1//EN"
  "http://www.w3.org/Graphics/SVG/1.1/DTD/svg11.dtd">
<svg xmlns:xlink="http://www.w3.org/1999/xlink" width="600.48pt" height="211.206913pt" viewBox="0 0 600.48 211.206913" xmlns="http://www.w3.org/2000/svg" version="1.1">
 <metadata>
  <rdf:RDF xmlns:dc="http://purl.org/dc/elements/1.1/" xmlns:cc="http://creativecommons.org/ns#" xmlns:rdf="http://www.w3.org/1999/02/22-rdf-syntax-ns#">
   <cc:Work>
    <dc:type rdf:resource="http://purl.org/dc/dcmitype/StillImage"/>
    <dc:format>image/svg+xml</dc:format>
    <dc:creator>
     <cc:Agent>
      <dc:title>Matplotlib v3.11.0, https://matplotlib.org/</dc:title>
     </cc:Agent>
    </dc:creator>
   </cc:Work>
  </rdf:RDF>
 </metadata>
 <defs>
  <style type="text/css">*{stroke-linejoin: round; stroke-linecap: butt}</style>
 </defs>
 <g id="figure_1">
  <g id="patch_1">
   <path d="M 0 211.206913 
L 600.48 211.206913 
L 600.48 0 
L 0 0 
z
" style="fill: #ffffff"/>
  </g>
  <g id="axes_1">
   <g id="table_1">
    <g id="patch_2">
     <path d="M 37.00224 135.889557 
L 112.65408 135.889557 
L 112.65408 125.888936 
L 37.00224 125.888936 
z
" style="fill: #f8f9fb; stroke: #555555; stroke-linejoin: miter"/>
    </g>
    <g id="text_1">
     <!-- 1 -->
     <g transform="translate(72.222066 135.569247) scale(0.13 -0.13)">
      <defs>
       <path id="PingFangSC-Regular-14" d="M 1472 4570 
C 1318 4397 1139 4243 922 4102 
C 704 3974 486 3885 282 3827 
L 282 3302 
C 710 3430 1069 3635 1357 3930 
L 1357 0 
L 1882 0 
L 1882 4570 
L 1472 4570 
z
" transform="scale(0.015625)"/>
      </defs>
      <use xlink:href="#PingFangSC-Regular-14"/>
     </g>
    </g>
    <g id="patch_3">
     <path d="M 112.65408 135.889557 
L 188.30592 135.889557 
L 188.30592 125.888936 
L 112.65408 125.888936 
z
" style="fill: #f8f9fb; stroke: #555555; stroke-linejoin: miter"/>
    </g>
    <g id="text_2">
     <!-- 0 -->
     <g transform="translate(146.58 135.569247) scale(0.13 -0.13)">
      <defs>
       <path id="PingFangSC-Regular-13" d="M 1920 4659 
C 1370 4659 960 4422 685 3936 
C 442 3526 320 2976 320 2285 
C 320 1594 442 1043 685 634 
C 960 154 1370 -90 1920 -90 
C 2464 -90 2874 154 3155 634 
C 3398 1043 3520 1594 3520 2285 
C 3520 2976 3398 3526 3155 3936 
C 2874 4422 2464 4659 1920 4659 
z
M 1920 4211 
C 2330 4211 2624 3994 2803 3552 
C 2931 3245 3002 2822 3002 2285 
C 3002 1754 2931 1331 2803 1018 
C 2624 582 2330 358 1920 358 
C 1510 358 1216 582 1037 1018 
C 909 1331 845 1754 845 2285 
C 845 2822 909 3245 1037 3552 
C 1216 3994 1510 4211 1920 4211 
z
" transform="scale(0.015625)"/>
      </defs>
      <use xlink:href="#PingFangSC-Regular-13"/>
     </g>
    </g>
    <g id="patch_4">
     <path d="M 188.30592 135.889557 
L 263.95776 135.889557 
L 263.95776 125.888936 
L 188.30592 125.888936 
z
" style="fill: #f8f9fb; stroke: #555555; stroke-linejoin: miter"/>
    </g>
    <g id="text_3">
     <!-- 0 -->
     <g transform="translate(222.23184 135.569247) scale(0.13 -0.13)">
      <use xlink:href="#PingFangSC-Regular-13"/>
     </g>
    </g>
    <g id="patch_5">
     <path d="M 37.00224 145.890178 
L 112.65408 145.890178 
L 112.65408 135.889557 
L 37.00224 135.889557 
z
" style="fill: #fff2cc; stroke: #555555; stroke-linejoin: miter"/>
    </g>
    <g id="text_4">
     <!-- -2 -->
     <g transform="translate(66.99566 145.569867) scale(0.13 -0.13)">
      <defs>
       <path id="PingFangSC-Regular-10" d="M 320 1875 
L 320 1440 
L 3552 1440 
L 3552 1875 
L 320 1875 
z
" transform="scale(0.015625)"/>
       <path id="PingFangSC-Regular-15" d="M 1984 4659 
C 1523 4659 1146 4506 864 4198 
C 582 3898 435 3488 435 2976 
L 960 2976 
C 966 3379 1062 3686 1242 3891 
C 1408 4109 1651 4211 1965 4211 
C 2259 4211 2496 4134 2662 3981 
C 2829 3827 2912 3616 2912 3334 
C 2912 3040 2790 2765 2560 2515 
C 2438 2387 2202 2202 1843 1946 
C 1357 1613 1030 1338 851 1133 
C 544 794 397 416 397 0 
L 3443 0 
L 3443 467 
L 1043 467 
C 1126 774 1459 1126 2042 1517 
C 2515 1837 2829 2086 2989 2253 
C 3283 2573 3437 2931 3437 3328 
C 3437 3725 3296 4051 3027 4294 
C 2752 4538 2406 4659 1984 4659 
z
" transform="scale(0.015625)"/>
      </defs>
      <use xlink:href="#PingFangSC-Regular-10"/>
      <use xlink:href="#PingFangSC-Regular-15" transform="translate(60.5 0)"/>
     </g>
    </g>
    <g id="patch_6">
     <path d="M 112.65408 145.890178 
L 188.30592 145.890178 
L 188.30592 135.889557 
L 112.65408 135.889557 
z
" style="fill: #f8f9fb; stroke: #555555; stroke-linejoin: miter"/>
    </g>
    <g id="text_5">
     <!-- 1 -->
     <g transform="translate(147.873906 145.569867) scale(0.13 -0.13)">
      <use xlink:href="#PingFangSC-Regular-14"/>
     </g>
    </g>
    <g id="patch_7">
     <path d="M 188.30592 145.890178 
L 263.95776 145.890178 
L 263.95776 135.889557 
L 188.30592 135.889557 
z
" style="fill: #f8f9fb; stroke: #555555; stroke-linejoin: miter"/>
    </g>
    <g id="text_6">
     <!-- 0 -->
     <g transform="translate(222.23184 145.569867) scale(0.13 -0.13)">
      <use xlink:href="#PingFangSC-Regular-13"/>
     </g>
    </g>
    <g id="patch_8">
     <path d="M 37.00224 155.890799 
L 112.65408 155.890799 
L 112.65408 145.890178 
L 37.00224 145.890178 
z
" style="fill: #fff2cc; stroke: #555555; stroke-linejoin: miter"/>
    </g>
    <g id="text_7">
     <!-- 10 -->
     <g transform="translate(68.322066 155.570488) scale(0.13 -0.13)">
      <use xlink:href="#PingFangSC-Regular-14"/>
      <use xlink:href="#PingFangSC-Regular-13" transform="translate(40.09375 0)"/>
     </g>
    </g>
    <g id="patch_9">
     <path d="M 112.65408 155.890799 
L 188.30592 155.890799 
L 188.30592 145.890178 
L 112.65408 145.890178 
z
" style="fill: #fff2cc; stroke: #555555; stroke-linejoin: miter"/>
    </g>
    <g id="text_8">
     <!-- -5 -->
     <g transform="translate(142.6475 155.570488) scale(0.13 -0.13)">
      <defs>
       <path id="PingFangSC-Regular-18" d="M 672 4570 
L 429 2048 
L 928 2048 
C 1018 2227 1158 2368 1338 2458 
C 1510 2554 1702 2598 1920 2598 
C 2253 2598 2515 2502 2701 2298 
C 2893 2099 2995 1818 2995 1453 
C 2995 1133 2886 870 2682 666 
C 2470 461 2208 358 1888 358 
C 1606 358 1370 429 1190 563 
C 986 717 870 941 845 1229 
L 326 1229 
C 358 813 531 480 851 237 
C 1133 19 1478 -90 1882 -90 
C 2330 -90 2714 51 3021 326 
C 3347 621 3514 998 3514 1459 
C 3514 1952 3373 2336 3104 2618 
C 2835 2893 2483 3027 2048 3027 
C 1837 3027 1645 2995 1466 2918 
C 1267 2842 1101 2726 973 2573 
L 947 2573 
L 1101 4102 
L 3328 4102 
L 3328 4570 
L 672 4570 
z
" transform="scale(0.015625)"/>
      </defs>
      <use xlink:href="#PingFangSC-Regular-10"/>
      <use xlink:href="#PingFangSC-Regular-18" transform="translate(60.5 0)"/>
     </g>
    </g>
    <g id="patch_10">
     <path d="M 188.30592 155.890799 
L 263.95776 155.890799 
L 263.95776 145.890178 
L 188.30592 145.890178 
z
" style="fill: #f8f9fb; stroke: #555555; stroke-linejoin: miter"/>
    </g>
    <g id="text_9">
     <!-- 1 -->
     <g transform="translate(223.525746 155.570488) scale(0.13 -0.13)">
      <use xlink:href="#PingFangSC-Regular-14"/>
     </g>
    </g>
   </g>
   <g id="text_10">
    <!-- E32 E21 contains interaction term 10 -->
    <g style="fill: #444444" transform="translate(73.309922 202.225194) scale(0.09 -0.09)">
     <defs>
      <path id="PingFangSC-Regular-28" d="M 461 4570 
L 461 0 
L 3808 0 
L 3808 454 
L 986 454 
L 986 2131 
L 3546 2131 
L 3546 2586 
L 986 2586 
L 986 4115 
L 3699 4115 
L 3699 4570 
L 461 4570 
z
" transform="scale(0.015625)"/>
      <path id="PingFangSC-Regular-16" d="M 1965 4659 
C 1530 4659 1178 4538 909 4288 
C 627 4038 461 3693 422 3251 
L 941 3251 
C 973 3558 1075 3795 1254 3962 
C 1427 4128 1664 4205 1971 4205 
C 2266 4205 2502 4134 2669 3981 
C 2822 3840 2906 3642 2906 3386 
C 2906 3130 2822 2931 2662 2790 
C 2502 2656 2272 2586 1965 2586 
L 1613 2586 
L 1613 2176 
L 1984 2176 
C 2304 2176 2547 2106 2726 1952 
C 2906 1798 2995 1587 2995 1312 
C 2995 1043 2899 819 2720 640 
C 2522 454 2259 358 1933 358 
C 1645 358 1408 442 1216 595 
C 992 781 870 1056 858 1414 
L 326 1414 
C 365 902 544 512 870 243 
C 1146 26 1498 -90 1933 -90 
C 2406 -90 2790 45 3085 314 
C 3373 576 3520 915 3520 1331 
C 3520 1600 3443 1824 3290 2003 
C 3149 2182 2944 2310 2675 2394 
C 3174 2560 3424 2906 3424 3418 
C 3424 3802 3290 4102 3027 4326 
C 2758 4550 2400 4659 1965 4659 
z
" transform="scale(0.015625)"/>
      <path id="PingFangSC-Regular-3" transform="scale(0.015625)"/>
      <path id="PingFangSC-Regular-46" d="M 1824 3398 
C 1331 3398 941 3226 659 2874 
C 397 2554 269 2144 269 1638 
C 269 1133 397 723 659 410 
C 934 77 1318 -90 1818 -90 
C 2227 -90 2554 19 2803 230 
C 3059 448 3219 774 3296 1197 
L 2784 1197 
C 2707 627 2381 339 1818 339 
C 1485 339 1229 461 1056 691 
C 877 922 794 1242 794 1645 
C 794 2048 883 2368 1062 2605 
C 1248 2848 1504 2970 1824 2970 
C 2086 2970 2298 2912 2464 2784 
C 2624 2656 2726 2464 2771 2208 
L 3277 2208 
C 3219 2611 3066 2912 2810 3110 
C 2560 3302 2234 3398 1824 3398 
z
" transform="scale(0.015625)"/>
      <path id="PingFangSC-Regular-52" d="M 1875 3398 
C 1376 3398 986 3232 691 2886 
C 410 2560 269 2150 269 1651 
C 269 1158 410 749 691 429 
C 986 83 1376 -90 1875 -90 
C 2368 -90 2765 83 3066 429 
C 3341 749 3482 1158 3482 1651 
C 3482 2150 3341 2560 3059 2886 
C 2765 3232 2368 3398 1875 3398 
z
M 1875 2970 
C 2221 2970 2496 2835 2701 2566 
C 2874 2323 2963 2022 2963 1651 
C 2963 1293 2874 986 2701 742 
C 2496 474 2221 339 1875 339 
C 1523 339 1248 474 1056 742 
C 877 986 794 1286 794 1651 
C 794 2022 877 2323 1056 2566 
C 1248 2835 1523 2970 1875 2970 
z
" transform="scale(0.015625)"/>
      <path id="PingFangSC-Regular-51" d="M 1946 3398 
C 1728 3398 1530 3347 1350 3245 
C 1171 3149 1024 3008 909 2822 
L 909 3309 
L 397 3309 
L 397 0 
L 909 0 
L 909 1997 
C 928 2298 1024 2534 1203 2714 
C 1370 2880 1568 2963 1798 2963 
C 2374 2963 2669 2643 2669 1997 
L 2669 0 
L 3181 0 
L 3181 2035 
C 3181 2944 2765 3398 1946 3398 
z
" transform="scale(0.015625)"/>
      <path id="PingFangSC-Regular-57" d="M 1280 4378 
L 774 4166 
L 774 3309 
L 109 3309 
L 109 2880 
L 774 2880 
L 774 774 
C 774 525 826 339 934 211 
C 1050 70 1248 0 1517 0 
L 2016 0 
L 2016 429 
L 1594 429 
C 1478 429 1395 461 1350 512 
C 1299 563 1280 653 1280 774 
L 1280 2880 
L 2099 2880 
L 2099 3309 
L 1280 3309 
L 1280 4378 
z
" transform="scale(0.015625)"/>
      <path id="PingFangSC-Regular-44" d="M 1837 3398 
C 1440 3398 1126 3322 883 3168 
C 614 3002 442 2739 371 2394 
L 877 2355 
C 928 2566 1037 2726 1210 2829 
C 1363 2931 1562 2976 1805 2976 
C 2381 2976 2669 2701 2669 2144 
L 2669 1971 
L 1875 1958 
C 1376 1952 992 1856 723 1677 
C 416 1485 269 1203 269 826 
C 269 557 371 333 576 160 
C 774 -6 1037 -90 1370 -90 
C 1677 -90 1952 -19 2195 115 
C 2400 230 2573 378 2701 557 
L 2701 0 
L 3181 0 
L 3181 2125 
C 3181 2509 3078 2810 2886 3027 
C 2656 3277 2310 3398 1837 3398 
z
M 2669 1587 
L 2669 1306 
C 2669 1050 2547 819 2310 621 
C 2067 416 1792 314 1478 314 
C 1274 314 1107 365 979 461 
C 851 563 794 685 794 838 
C 794 1318 1165 1562 1907 1574 
L 2669 1587 
z
" transform="scale(0.015625)"/>
      <path id="PingFangSC-Regular-4c" d="M 819 4557 
C 710 4557 621 4525 544 4448 
C 467 4384 435 4294 435 4179 
C 435 4070 467 3981 544 3904 
C 621 3834 710 3795 819 3795 
C 928 3795 1018 3834 1094 3904 
C 1171 3981 1210 4070 1210 4179 
C 1210 4294 1171 4384 1094 4448 
C 1018 4525 928 4557 819 4557 
z
M 563 3309 
L 563 0 
L 1075 0 
L 1075 3309 
L 563 3309 
z
" transform="scale(0.015625)"/>
      <path id="PingFangSC-Regular-56" d="M 1568 3398 
C 1197 3398 890 3315 659 3149 
C 410 2982 288 2765 288 2483 
C 288 2202 410 1990 666 1837 
C 819 1734 1094 1638 1485 1542 
C 1843 1453 2080 1382 2189 1331 
C 2394 1229 2502 1088 2502 902 
C 2502 531 2202 339 1613 339 
C 1331 339 1120 390 979 493 
C 838 608 742 794 704 1056 
L 205 1056 
C 282 294 755 -90 1626 -90 
C 2560 -90 3027 256 3027 934 
C 3027 1222 2893 1446 2630 1613 
C 2458 1722 2176 1824 1779 1920 
C 1446 2010 1216 2080 1094 2138 
C 902 2234 813 2355 813 2496 
C 813 2643 883 2758 1024 2842 
C 1152 2931 1331 2970 1562 2970 
C 1824 2970 2029 2918 2170 2816 
C 2298 2726 2381 2573 2426 2368 
L 2925 2368 
C 2835 3059 2387 3398 1568 3398 
z
" transform="scale(0.015625)"/>
      <path id="PingFangSC-Regular-48" d="M 1760 3398 
C 1280 3398 902 3226 621 2880 
C 339 2554 205 2144 205 1658 
C 205 1120 346 698 640 378 
C 922 70 1306 -90 1779 -90 
C 2208 -90 2560 38 2835 282 
C 3059 486 3206 742 3283 1062 
L 2771 1062 
C 2688 832 2579 659 2438 544 
C 2272 410 2048 339 1779 339 
C 1466 339 1216 442 1037 646 
C 858 851 762 1139 736 1510 
L 3347 1510 
C 3334 2086 3206 2541 2963 2861 
C 2694 3219 2291 3398 1760 3398 
z
M 1773 2970 
C 2400 2970 2752 2618 2816 1907 
L 749 1907 
C 781 2234 883 2490 1062 2682 
C 1242 2874 1478 2970 1773 2970 
z
" transform="scale(0.015625)"/>
      <path id="PingFangSC-Regular-55" d="M 1850 3398 
C 1619 3398 1421 3328 1248 3187 
C 1107 3078 992 2925 902 2733 
L 902 3309 
L 397 3309 
L 397 0 
L 902 0 
L 902 1754 
C 902 2061 986 2323 1165 2541 
C 1338 2771 1555 2880 1811 2880 
C 1971 2880 2138 2861 2304 2810 
L 2304 3322 
C 2182 3373 2029 3398 1850 3398 
z
" transform="scale(0.015625)"/>
      <path id="PingFangSC-Regular-50" d="M 1843 3398 
C 1472 3398 1158 3226 909 2867 
L 909 3309 
L 397 3309 
L 397 0 
L 909 0 
L 909 2016 
C 909 2278 986 2502 1139 2682 
C 1293 2874 1485 2963 1722 2963 
C 2227 2963 2483 2675 2483 2086 
L 2483 0 
L 2995 0 
L 2995 2074 
C 2995 2342 3066 2554 3219 2720 
C 3360 2886 3546 2963 3763 2963 
C 4045 2963 4250 2893 4378 2739 
C 4499 2598 4563 2381 4563 2086 
L 4563 0 
L 5075 0 
L 5075 2170 
C 5075 2547 4966 2848 4762 3072 
C 4544 3290 4269 3398 3923 3398 
C 3693 3398 3501 3347 3341 3245 
C 3162 3149 3008 2989 2880 2771 
C 2694 3194 2349 3398 1843 3398 
z
" transform="scale(0.015625)"/>
     </defs>
     <use xlink:href="#PingFangSC-Regular-28"/>
     <use xlink:href="#PingFangSC-Regular-16" transform="translate(63.703125 0)"/>
     <use xlink:href="#PingFangSC-Regular-15" transform="translate(123.703125 0)"/>
     <use xlink:href="#PingFangSC-Regular-3" transform="translate(183.703125 0)"/>
     <use xlink:href="#PingFangSC-Regular-28" transform="translate(217 0)"/>
     <use xlink:href="#PingFangSC-Regular-15" transform="translate(280.703125 0)"/>
     <use xlink:href="#PingFangSC-Regular-14" transform="translate(340.703125 0)"/>
     <use xlink:href="#PingFangSC-Regular-3" transform="translate(380.796875 0)"/>
     <use xlink:href="#PingFangSC-Regular-46" transform="translate(414.09375 0)"/>
     <use xlink:href="#PingFangSC-Regular-52" transform="translate(468.796875 0)"/>
     <use xlink:href="#PingFangSC-Regular-51" transform="translate(527.390625 0)"/>
     <use xlink:href="#PingFangSC-Regular-57" transform="translate(583.296875 0)"/>
     <use xlink:href="#PingFangSC-Regular-44" transform="translate(618.796875 0)"/>
     <use xlink:href="#PingFangSC-Regular-4c" transform="translate(674.703125 0)"/>
     <use xlink:href="#PingFangSC-Regular-51" transform="translate(700.296875 0)"/>
     <use xlink:href="#PingFangSC-Regular-56" transform="translate(756.203125 0)"/>
     <use xlink:href="#PingFangSC-Regular-3" transform="translate(806.703125 0)"/>
     <use xlink:href="#PingFangSC-Regular-4c" transform="translate(840 0)"/>
     <use xlink:href="#PingFangSC-Regular-51" transform="translate(865.59375 0)"/>
     <use xlink:href="#PingFangSC-Regular-57" transform="translate(921.5 0)"/>
     <use xlink:href="#PingFangSC-Regular-48" transform="translate(957 0)"/>
     <use xlink:href="#PingFangSC-Regular-55" transform="translate(1012.5 0)"/>
     <use xlink:href="#PingFangSC-Regular-44" transform="translate(1049 0)"/>
     <use xlink:href="#PingFangSC-Regular-46" transform="translate(1104.90625 0)"/>
     <use xlink:href="#PingFangSC-Regular-57" transform="translate(1159.609375 0)"/>
     <use xlink:href="#PingFangSC-Regular-4c" transform="translate(1195.109375 0)"/>
     <use xlink:href="#PingFangSC-Regular-52" transform="translate(1220.703125 0)"/>
     <use xlink:href="#PingFangSC-Regular-51" transform="translate(1279.296875 0)"/>
     <use xlink:href="#PingFangSC-Regular-3" transform="translate(1335.203125 0)"/>
     <use xlink:href="#PingFangSC-Regular-57" transform="translate(1368.5 0)"/>
     <use xlink:href="#PingFangSC-Regular-48" transform="translate(1404 0)"/>
     <use xlink:href="#PingFangSC-Regular-55" transform="translate(1459.5 0)"/>
     <use xlink:href="#PingFangSC-Regular-50" transform="translate(1496 0)"/>
     <use xlink:href="#PingFangSC-Regular-3" transform="translate(1581.5 0)"/>
     <use xlink:href="#PingFangSC-Regular-14" transform="translate(1614.796875 0)"/>
     <use xlink:href="#PingFangSC-Regular-13" transform="translate(1654.890625 0)"/>
    </g>
   </g>
   <g id="text_11">
    <!-- Combined elimination matrix E -->
    <g transform="translate(64.819688 76.687) scale(0.12 -0.12)">
     <defs>
      <path id="PingFangSC-Regular-26" d="M 2432 4659 
C 1728 4659 1178 4422 794 3936 
C 442 3501 269 2944 269 2266 
C 269 1587 435 1037 781 614 
C 1158 147 1702 -90 2413 -90 
C 2899 -90 3322 51 3674 326 
C 4051 621 4288 1037 4390 1568 
L 3885 1568 
C 3795 1171 3610 870 3341 666 
C 3085 474 2778 378 2413 378 
C 1875 378 1472 557 1190 909 
C 922 1242 794 1696 794 2266 
C 794 2835 928 3290 1197 3635 
C 1485 4006 1894 4192 2426 4192 
C 2784 4192 3085 4109 3334 3936 
C 3590 3757 3757 3501 3821 3168 
L 4326 3168 
C 4262 3622 4058 3987 3712 4256 
C 3366 4525 2938 4659 2432 4659 
z
" transform="scale(0.015625)"/>
      <path id="PingFangSC-Regular-45" d="M 397 4659 
L 397 0 
L 877 0 
L 877 544 
C 1101 122 1466 -90 1978 -90 
C 2458 -90 2835 90 3110 435 
C 3354 755 3482 1165 3482 1664 
C 3482 2150 3354 2547 3110 2867 
C 2842 3226 2470 3398 2003 3398 
C 1530 3398 1165 3168 909 2701 
L 909 4659 
L 397 4659 
z
M 1894 2976 
C 2253 2976 2522 2848 2707 2592 
C 2874 2368 2957 2061 2957 1664 
C 2957 1267 2874 954 2720 723 
C 2541 467 2272 333 1914 333 
C 1581 333 1318 461 1139 717 
C 973 947 890 1248 890 1619 
L 890 1683 
C 890 2067 979 2381 1171 2618 
C 1350 2861 1594 2976 1894 2976 
z
" transform="scale(0.015625)"/>
      <path id="PingFangSC-Regular-47" d="M 2842 4659 
L 2842 2701 
C 2586 3168 2221 3398 1747 3398 
C 1274 3398 909 3226 640 2867 
C 390 2547 269 2150 269 1664 
C 269 1165 390 755 640 435 
C 909 90 1286 -90 1773 -90 
C 2272 -90 2643 122 2874 544 
L 2874 0 
L 3354 0 
L 3354 4659 
L 2842 4659 
z
M 1856 2976 
C 2150 2976 2394 2861 2579 2618 
C 2758 2381 2854 2067 2854 1683 
L 2854 1619 
C 2854 1248 2771 947 2611 717 
C 2426 461 2170 333 1837 333 
C 1478 333 1210 467 1030 723 
C 870 954 794 1267 794 1664 
C 794 2061 870 2368 1037 2592 
C 1216 2848 1491 2976 1856 2976 
z
" transform="scale(0.015625)"/>
      <path id="PingFangSC-Regular-4f" d="M 499 4659 
L 499 0 
L 1005 0 
L 1005 4659 
L 499 4659 
z
" transform="scale(0.015625)"/>
      <path id="PingFangSC-Regular-5b" d="M 173 3309 
L 1344 1754 
L 32 0 
L 640 0 
L 1632 1376 
L 2618 0 
L 3226 0 
L 1914 1754 
L 3085 3309 
L 2483 3309 
L 1632 2131 
L 774 3309 
L 173 3309 
z
" transform="scale(0.015625)"/>
     </defs>
     <use xlink:href="#PingFangSC-Regular-26"/>
     <use xlink:href="#PingFangSC-Regular-52" transform="translate(72.796875 0)"/>
     <use xlink:href="#PingFangSC-Regular-50" transform="translate(131.390625 0)"/>
     <use xlink:href="#PingFangSC-Regular-45" transform="translate(216.890625 0)"/>
     <use xlink:href="#PingFangSC-Regular-4c" transform="translate(275.484375 0)"/>
     <use xlink:href="#PingFangSC-Regular-51" transform="translate(301.078125 0)"/>
     <use xlink:href="#PingFangSC-Regular-48" transform="translate(356.984375 0)"/>
     <use xlink:href="#PingFangSC-Regular-47" transform="translate(412.484375 0)"/>
     <use xlink:href="#PingFangSC-Regular-3" transform="translate(471.078125 0)"/>
     <use xlink:href="#PingFangSC-Regular-48" transform="translate(504.375 0)"/>
     <use xlink:href="#PingFangSC-Regular-4f" transform="translate(559.875 0)"/>
     <use xlink:href="#PingFangSC-Regular-4c" transform="translate(583.375 0)"/>
     <use xlink:href="#PingFangSC-Regular-50" transform="translate(608.96875 0)"/>
     <use xlink:href="#PingFangSC-Regular-4c" transform="translate(694.46875 0)"/>
     <use xlink:href="#PingFangSC-Regular-51" transform="translate(720.0625 0)"/>
     <use xlink:href="#PingFangSC-Regular-44" transform="translate(775.96875 0)"/>
     <use xlink:href="#PingFangSC-Regular-57" transform="translate(831.875 0)"/>
     <use xlink:href="#PingFangSC-Regular-4c" transform="translate(867.375 0)"/>
     <use xlink:href="#PingFangSC-Regular-52" transform="translate(892.96875 0)"/>
     <use xlink:href="#PingFangSC-Regular-51" transform="translate(951.5625 0)"/>
     <use xlink:href="#PingFangSC-Regular-3" transform="translate(1007.46875 0)"/>
     <use xlink:href="#PingFangSC-Regular-50" transform="translate(1040.765625 0)"/>
     <use xlink:href="#PingFangSC-Regular-44" transform="translate(1126.265625 0)"/>
     <use xlink:href="#PingFangSC-Regular-57" transform="translate(1182.171875 0)"/>
     <use xlink:href="#PingFangSC-Regular-55" transform="translate(1217.671875 0)"/>
     <use xlink:href="#PingFangSC-Regular-4c" transform="translate(1254.171875 0)"/>
     <use xlink:href="#PingFangSC-Regular-5b" transform="translate(1279.765625 0)"/>
     <use xlink:href="#PingFangSC-Regular-3" transform="translate(1330.671875 0)"/>
     <use xlink:href="#PingFangSC-Regular-28" transform="translate(1363.96875 0)"/>
    </g>
   </g>
  </g>
  <g id="axes_2">
   <g id="table_2">
    <g id="patch_11">
     <path d="M 336.52224 135.889557 
L 412.17408 135.889557 
L 412.17408 125.888936 
L 336.52224 125.888936 
z
" style="fill: #f8f9fb; stroke: #555555; stroke-linejoin: miter"/>
    </g>
    <g id="text_12">
     <!-- 1 -->
     <g transform="translate(371.742066 135.569247) scale(0.13 -0.13)">
      <use xlink:href="#PingFangSC-Regular-14"/>
     </g>
    </g>
    <g id="patch_12">
     <path d="M 412.17408 135.889557 
L 487.82592 135.889557 
L 487.82592 125.888936 
L 412.17408 125.888936 
z
" style="fill: #f8f9fb; stroke: #555555; stroke-linejoin: miter"/>
    </g>
    <g id="text_13">
     <!-- 0 -->
     <g transform="translate(446.1 135.569247) scale(0.13 -0.13)">
      <use xlink:href="#PingFangSC-Regular-13"/>
     </g>
    </g>
    <g id="patch_13">
     <path d="M 487.82592 135.889557 
L 563.47776 135.889557 
L 563.47776 125.888936 
L 487.82592 125.888936 
z
" style="fill: #f8f9fb; stroke: #555555; stroke-linejoin: miter"/>
    </g>
    <g id="text_14">
     <!-- 0 -->
     <g transform="translate(521.75184 135.569247) scale(0.13 -0.13)">
      <use xlink:href="#PingFangSC-Regular-13"/>
     </g>
    </g>
    <g id="patch_14">
     <path d="M 336.52224 145.890178 
L 412.17408 145.890178 
L 412.17408 135.889557 
L 336.52224 135.889557 
z
" style="fill: #fff2cc; stroke: #555555; stroke-linejoin: miter"/>
    </g>
    <g id="text_15">
     <!-- 2 -->
     <g transform="translate(370.44816 145.569867) scale(0.13 -0.13)">
      <use xlink:href="#PingFangSC-Regular-15"/>
     </g>
    </g>
    <g id="patch_15">
     <path d="M 412.17408 145.890178 
L 487.82592 145.890178 
L 487.82592 135.889557 
L 412.17408 135.889557 
z
" style="fill: #f8f9fb; stroke: #555555; stroke-linejoin: miter"/>
    </g>
    <g id="text_16">
     <!-- 1 -->
     <g transform="translate(447.393906 145.569867) scale(0.13 -0.13)">
      <use xlink:href="#PingFangSC-Regular-14"/>
     </g>
    </g>
    <g id="patch_16">
     <path d="M 487.82592 145.890178 
L 563.47776 145.890178 
L 563.47776 135.889557 
L 487.82592 135.889557 
z
" style="fill: #f8f9fb; stroke: #555555; stroke-linejoin: miter"/>
    </g>
    <g id="text_17">
     <!-- 0 -->
     <g transform="translate(521.75184 145.569867) scale(0.13 -0.13)">
      <use xlink:href="#PingFangSC-Regular-13"/>
     </g>
    </g>
    <g id="patch_17">
     <path d="M 336.52224 155.890799 
L 412.17408 155.890799 
L 412.17408 145.890178 
L 336.52224 145.890178 
z
" style="fill: #f8f9fb; stroke: #555555; stroke-linejoin: miter"/>
    </g>
    <g id="text_18">
     <!-- 0 -->
     <g transform="translate(370.44816 155.570488) scale(0.13 -0.13)">
      <use xlink:href="#PingFangSC-Regular-13"/>
     </g>
    </g>
    <g id="patch_18">
     <path d="M 412.17408 155.890799 
L 487.82592 155.890799 
L 487.82592 145.890178 
L 412.17408 145.890178 
z
" style="fill: #fff2cc; stroke: #555555; stroke-linejoin: miter"/>
    </g>
    <g id="text_19">
     <!-- 5 -->
     <g transform="translate(446.1 155.570488) scale(0.13 -0.13)">
      <use xlink:href="#PingFangSC-Regular-18"/>
     </g>
    </g>
    <g id="patch_19">
     <path d="M 487.82592 155.890799 
L 563.47776 155.890799 
L 563.47776 145.890178 
L 487.82592 145.890178 
z
" style="fill: #f8f9fb; stroke: #555555; stroke-linejoin: miter"/>
    </g>
    <g id="text_20">
     <!-- 1 -->
     <g transform="translate(523.045746 155.570488) scale(0.13 -0.13)">
      <use xlink:href="#PingFangSC-Regular-14"/>
     </g>
    </g>
   </g>
   <g id="text_21">
    <!-- L records the direct multipliers 2 and 5 -->
    <g style="fill: #444444" transform="translate(367.990313 202.225194) scale(0.09 -0.09)">
     <defs>
      <path id="PingFangSC-Regular-2f" d="M 461 4570 
L 461 0 
L 3622 0 
L 3622 454 
L 979 454 
L 979 4570 
L 461 4570 
z
" transform="scale(0.015625)"/>
      <path id="PingFangSC-Regular-4b" d="M 397 4659 
L 397 0 
L 909 0 
L 909 1888 
C 909 2195 992 2458 1165 2662 
C 1331 2867 1542 2970 1798 2970 
C 2074 2970 2285 2886 2438 2720 
C 2579 2554 2656 2317 2656 2010 
L 2656 0 
L 3168 0 
L 3168 2086 
C 3168 2509 3066 2835 2861 3059 
C 2656 3290 2355 3398 1971 3398 
C 1747 3398 1549 3347 1370 3245 
C 1178 3136 1024 2976 909 2765 
L 909 4659 
L 397 4659 
z
" transform="scale(0.015625)"/>
      <path id="PingFangSC-Regular-58" d="M 397 3309 
L 397 1261 
C 397 365 794 -90 1600 -90 
C 2048 -90 2406 115 2675 512 
L 2675 0 
L 3187 0 
L 3187 3309 
L 2675 3309 
L 2675 1293 
C 2637 1011 2528 781 2349 602 
C 2176 435 1978 346 1760 346 
C 1459 346 1242 429 1107 582 
C 973 736 909 973 909 1286 
L 909 3309 
L 397 3309 
z
" transform="scale(0.015625)"/>
      <path id="PingFangSC-Regular-53" d="M 1978 3398 
C 1478 3398 1114 3187 877 2765 
L 877 3309 
L 397 3309 
L 397 -1267 
L 909 -1267 
L 909 602 
C 1165 141 1530 -90 2003 -90 
C 2477 -90 2842 90 3110 435 
C 3354 755 3482 1158 3482 1645 
C 3482 2144 3354 2547 3104 2867 
C 2829 3226 2451 3398 1978 3398 
z
M 1914 2976 
C 2266 2976 2534 2848 2720 2579 
C 2874 2349 2957 2035 2957 1645 
C 2957 1248 2874 934 2707 704 
C 2522 461 2253 333 1894 333 
C 1587 333 1350 454 1171 685 
C 979 922 890 1229 890 1613 
L 890 1677 
C 890 2048 973 2355 1139 2586 
C 1318 2848 1581 2976 1914 2976 
z
" transform="scale(0.015625)"/>
     </defs>
     <use xlink:href="#PingFangSC-Regular-2f"/>
     <use xlink:href="#PingFangSC-Regular-3" transform="translate(58.796875 0)"/>
     <use xlink:href="#PingFangSC-Regular-55" transform="translate(92.09375 0)"/>
     <use xlink:href="#PingFangSC-Regular-48" transform="translate(128.59375 0)"/>
     <use xlink:href="#PingFangSC-Regular-46" transform="translate(184.09375 0)"/>
     <use xlink:href="#PingFangSC-Regular-52" transform="translate(238.796875 0)"/>
     <use xlink:href="#PingFangSC-Regular-55" transform="translate(297.390625 0)"/>
     <use xlink:href="#PingFangSC-Regular-47" transform="translate(333.890625 0)"/>
     <use xlink:href="#PingFangSC-Regular-56" transform="translate(392.484375 0)"/>
     <use xlink:href="#PingFangSC-Regular-3" transform="translate(442.984375 0)"/>
     <use xlink:href="#PingFangSC-Regular-57" transform="translate(476.28125 0)"/>
     <use xlink:href="#PingFangSC-Regular-4b" transform="translate(511.78125 0)"/>
     <use xlink:href="#PingFangSC-Regular-48" transform="translate(567.375 0)"/>
     <use xlink:href="#PingFangSC-Regular-3" transform="translate(622.875 0)"/>
     <use xlink:href="#PingFangSC-Regular-47" transform="translate(656.171875 0)"/>
     <use xlink:href="#PingFangSC-Regular-4c" transform="translate(714.765625 0)"/>
     <use xlink:href="#PingFangSC-Regular-55" transform="translate(740.359375 0)"/>
     <use xlink:href="#PingFangSC-Regular-48" transform="translate(776.859375 0)"/>
     <use xlink:href="#PingFangSC-Regular-46" transform="translate(832.359375 0)"/>
     <use xlink:href="#PingFangSC-Regular-57" transform="translate(887.0625 0)"/>
     <use xlink:href="#PingFangSC-Regular-3" transform="translate(922.5625 0)"/>
     <use xlink:href="#PingFangSC-Regular-50" transform="translate(955.859375 0)"/>
     <use xlink:href="#PingFangSC-Regular-58" transform="translate(1041.359375 0)"/>
     <use xlink:href="#PingFangSC-Regular-4f" transform="translate(1097.359375 0)"/>
     <use xlink:href="#PingFangSC-Regular-57" transform="translate(1120.859375 0)"/>
     <use xlink:href="#PingFangSC-Regular-4c" transform="translate(1156.359375 0)"/>
     <use xlink:href="#PingFangSC-Regular-53" transform="translate(1181.953125 0)"/>
     <use xlink:href="#PingFangSC-Regular-4f" transform="translate(1240.546875 0)"/>
     <use xlink:href="#PingFangSC-Regular-4c" transform="translate(1264.046875 0)"/>
     <use xlink:href="#PingFangSC-Regular-48" transform="translate(1289.640625 0)"/>
     <use xlink:href="#PingFangSC-Regular-55" transform="translate(1345.140625 0)"/>
     <use xlink:href="#PingFangSC-Regular-56" transform="translate(1381.640625 0)"/>
     <use xlink:href="#PingFangSC-Regular-3" transform="translate(1432.140625 0)"/>
     <use xlink:href="#PingFangSC-Regular-15" transform="translate(1465.4375 0)"/>
     <use xlink:href="#PingFangSC-Regular-3" transform="translate(1525.4375 0)"/>
     <use xlink:href="#PingFangSC-Regular-44" transform="translate(1558.734375 0)"/>
     <use xlink:href="#PingFangSC-Regular-51" transform="translate(1614.640625 0)"/>
     <use xlink:href="#PingFangSC-Regular-47" transform="translate(1670.546875 0)"/>
     <use xlink:href="#PingFangSC-Regular-3" transform="translate(1729.140625 0)"/>
     <use xlink:href="#PingFangSC-Regular-18" transform="translate(1762.4375 0)"/>
    </g>
   </g>
   <g id="text_22">
    <!-- LU multiplier matrix L -->
    <g transform="translate(389.725313 76.687) scale(0.12 -0.12)">
     <defs>
      <path id="PingFangSC-Regular-38" d="M 461 4570 
L 461 1754 
C 461 1158 614 704 922 384 
C 1229 70 1683 -90 2285 -90 
C 2886 -90 3341 70 3654 390 
C 3955 704 4109 1158 4109 1754 
L 4109 4570 
L 3584 4570 
L 3584 1747 
C 3584 1299 3482 960 3283 730 
C 3066 493 2733 371 2285 371 
C 1830 371 1498 493 1286 730 
C 1082 960 986 1299 986 1747 
L 986 4570 
L 461 4570 
z
" transform="scale(0.015625)"/>
     </defs>
     <use xlink:href="#PingFangSC-Regular-2f"/>
     <use xlink:href="#PingFangSC-Regular-38" transform="translate(58.796875 0)"/>
     <use xlink:href="#PingFangSC-Regular-3" transform="translate(130.203125 0)"/>
     <use xlink:href="#PingFangSC-Regular-50" transform="translate(163.5 0)"/>
     <use xlink:href="#PingFangSC-Regular-58" transform="translate(249 0)"/>
     <use xlink:href="#PingFangSC-Regular-4f" transform="translate(305 0)"/>
     <use xlink:href="#PingFangSC-Regular-57" transform="translate(328.5 0)"/>
     <use xlink:href="#PingFangSC-Regular-4c" transform="translate(364 0)"/>
     <use xlink:href="#PingFangSC-Regular-53" transform="translate(389.59375 0)"/>
     <use xlink:href="#PingFangSC-Regular-4f" transform="translate(448.1875 0)"/>
     <use xlink:href="#PingFangSC-Regular-4c" transform="translate(471.6875 0)"/>
     <use xlink:href="#PingFangSC-Regular-48" transform="translate(497.28125 0)"/>
     <use xlink:href="#PingFangSC-Regular-55" transform="translate(552.78125 0)"/>
     <use xlink:href="#PingFangSC-Regular-3" transform="translate(589.28125 0)"/>
     <use xlink:href="#PingFangSC-Regular-50" transform="translate(622.578125 0)"/>
     <use xlink:href="#PingFangSC-Regular-44" transform="translate(708.078125 0)"/>
     <use xlink:href="#PingFangSC-Regular-57" transform="translate(763.984375 0)"/>
     <use xlink:href="#PingFangSC-Regular-55" transform="translate(799.484375 0)"/>
     <use xlink:href="#PingFangSC-Regular-4c" transform="translate(835.984375 0)"/>
     <use xlink:href="#PingFangSC-Regular-5b" transform="translate(861.578125 0)"/>
     <use xlink:href="#PingFangSC-Regular-3" transform="translate(912.484375 0)"/>
     <use xlink:href="#PingFangSC-Regular-2f" transform="translate(945.78125 0)"/>
    </g>
   </g>
  </g>
  <g id="text_23">
   <!-- Why L is easier to store than the combined E -->
   <g transform="translate(152.60125 19.24) scale(0.14 -0.14)">
    <defs>
     <path id="PingFangSC-Regular-3a" d="M 32 4570 
L 1344 0 
L 1926 0 
L 2970 3808 
L 2989 3808 
L 4026 0 
L 4608 0 
L 5920 4570 
L 5331 4570 
L 4326 736 
L 4301 736 
L 3264 4570 
L 2694 4570 
L 1651 736 
L 1626 736 
L 621 4570 
L 32 4570 
z
" transform="scale(0.015625)"/>
     <path id="PingFangSC-Regular-5c" d="M 32 3309 
L 1344 77 
L 774 -1267 
L 1331 -1267 
L 3142 3309 
L 2579 3309 
L 1600 698 
L 589 3309 
L 32 3309 
z
" transform="scale(0.015625)"/>
    </defs>
    <use xlink:href="#PingFangSC-Regular-3a"/>
    <use xlink:href="#PingFangSC-Regular-4b" transform="translate(93 0)"/>
    <use xlink:href="#PingFangSC-Regular-5c" transform="translate(148.59375 0)"/>
    <use xlink:href="#PingFangSC-Regular-3" transform="translate(198.1875 0)"/>
    <use xlink:href="#PingFangSC-Regular-2f" transform="translate(231.484375 0)"/>
    <use xlink:href="#PingFangSC-Regular-3" transform="translate(290.28125 0)"/>
    <use xlink:href="#PingFangSC-Regular-4c" transform="translate(323.578125 0)"/>
    <use xlink:href="#PingFangSC-Regular-56" transform="translate(349.171875 0)"/>
    <use xlink:href="#PingFangSC-Regular-3" transform="translate(399.671875 0)"/>
    <use xlink:href="#PingFangSC-Regular-48" transform="translate(432.96875 0)"/>
    <use xlink:href="#PingFangSC-Regular-44" transform="translate(488.46875 0)"/>
    <use xlink:href="#PingFangSC-Regular-56" transform="translate(544.375 0)"/>
    <use xlink:href="#PingFangSC-Regular-4c" transform="translate(594.875 0)"/>
    <use xlink:href="#PingFangSC-Regular-48" transform="translate(620.46875 0)"/>
    <use xlink:href="#PingFangSC-Regular-55" transform="translate(675.96875 0)"/>
    <use xlink:href="#PingFangSC-Regular-3" transform="translate(712.46875 0)"/>
    <use xlink:href="#PingFangSC-Regular-57" transform="translate(745.765625 0)"/>
    <use xlink:href="#PingFangSC-Regular-52" transform="translate(781.265625 0)"/>
    <use xlink:href="#PingFangSC-Regular-3" transform="translate(839.859375 0)"/>
    <use xlink:href="#PingFangSC-Regular-56" transform="translate(873.15625 0)"/>
    <use xlink:href="#PingFangSC-Regular-57" transform="translate(923.65625 0)"/>
    <use xlink:href="#PingFangSC-Regular-52" transform="translate(959.15625 0)"/>
    <use xlink:href="#PingFangSC-Regular-55" transform="translate(1017.75 0)"/>
    <use xlink:href="#PingFangSC-Regular-48" transform="translate(1054.25 0)"/>
    <use xlink:href="#PingFangSC-Regular-3" transform="translate(1109.75 0)"/>
    <use xlink:href="#PingFangSC-Regular-57" transform="translate(1143.046875 0)"/>
    <use xlink:href="#PingFangSC-Regular-4b" transform="translate(1178.546875 0)"/>
    <use xlink:href="#PingFangSC-Regular-44" transform="translate(1234.140625 0)"/>
    <use xlink:href="#PingFangSC-Regular-51" transform="translate(1290.046875 0)"/>
    <use xlink:href="#PingFangSC-Regular-3" transform="translate(1345.953125 0)"/>
    <use xlink:href="#PingFangSC-Regular-57" transform="translate(1379.25 0)"/>
    <use xlink:href="#PingFangSC-Regular-4b" transform="translate(1414.75 0)"/>
    <use xlink:href="#PingFangSC-Regular-48" transform="translate(1470.34375 0)"/>
    <use xlink:href="#PingFangSC-Regular-3" transform="translate(1525.84375 0)"/>
    <use xlink:href="#PingFangSC-Regular-46" transform="translate(1559.140625 0)"/>
    <use xlink:href="#PingFangSC-Regular-52" transform="translate(1613.84375 0)"/>
    <use xlink:href="#PingFangSC-Regular-50" transform="translate(1672.4375 0)"/>
    <use xlink:href="#PingFangSC-Regular-45" transform="translate(1757.9375 0)"/>
    <use xlink:href="#PingFangSC-Regular-4c" transform="translate(1816.53125 0)"/>
    <use xlink:href="#PingFangSC-Regular-51" transform="translate(1842.125 0)"/>
    <use xlink:href="#PingFangSC-Regular-48" transform="translate(1898.03125 0)"/>
    <use xlink:href="#PingFangSC-Regular-47" transform="translate(1953.53125 0)"/>
    <use xlink:href="#PingFangSC-Regular-3" transform="translate(2012.125 0)"/>
    <use xlink:href="#PingFangSC-Regular-28" transform="translate(2045.421875 0)"/>
   </g>
  </g>
 </g>
</svg>
