<?xml version="1.0" encoding="utf-8" standalone="no"?>
<!DOCTYPE svg PUBLIC "-//W3C//DTD SVG 1.1//EN"
  "http://www.w3.org/Graphics/SVG/1.1/DTD/svg11.dtd">
<svg xmlns:xlink="http://www.w3.org/1999/xlink" width="528.474375pt" height="290.88pt" viewBox="0 0 528.474375 290.88" xmlns="http://www.w3.org/2000/svg" version="1.1">
 <metadata>
  <rdf:RDF xmlns:dc="http://purl.org/dc/elements/1.1/" xmlns:cc="http://creativecommons.org/ns#" xmlns:rdf="http://www.w3.org/1999/02/22-rdf-syntax-ns#">
   <cc:Work>
    <dc:type rdf:resource="http://purl.org/dc/dcmitype/StillImage"/>
    <dc:format>image/svg+xml</dc:format>
    <dc:creator>
     <cc:Agent>
      <dc:title>Matplotlib v3.11.0, https://matplotlib.org/</dc:title>
     </cc:Agent>
    </dc:creator>
   </cc:Work>
  </rdf:RDF>
 </metadata>
 <defs>
  <style type="text/css">*{stroke-linejoin: round; stroke-linecap: butt}</style>
 </defs>
 <g id="figure_1">
  <g id="patch_1">
   <path d="M 0 290.88 
L 528.474375 290.88 
L 528.474375 0 
L 0 0 
z
" style="fill: #ffffff"/>
  </g>
  <g id="axes_1">
   <g id="patch_2">
    <path d="M 74.095625 248.68 
L 521.274375 248.68 
L 521.274375 25.24 
L 74.095625 25.24 
z
" style="fill: #ffffff"/>
   </g>
   <g id="matplotlib.axis_1">
    <g id="xtick_1">
     <g id="line2d_1">
      <path d="M 86.12548 248.68 
L 86.12548 25.24 
" clip-path="url(#pc59ce2860b)" style="fill: none; stroke: #b0b0b0; stroke-opacity: 0.25; stroke-width: 0.8; stroke-linecap: square"/>
     </g>
     <g id="line2d_2">
      <defs>
       <path id="mbc1c3fbf6b" d="M 0 0 
L 0 3.5 
" style="stroke: #000000; stroke-width: 0.8"/>
      </defs>
      <g>
       <use xlink:href="#mbc1c3fbf6b" x="86.12548" y="248.68" style="stroke: #000000; stroke-width: 0.8"/>
      </g>
     </g>
     <g id="text_1">
      <!-- 0 -->
      <g transform="translate(82.52548 266) scale(0.12 -0.12)">
       <defs>
        <path id="PingFangSC-Regular-13" d="M 1920 4659 
C 1370 4659 960 4422 685 3936 
C 442 3526 320 2976 320 2285 
C 320 1594 442 1043 685 634 
C 960 154 1370 -90 1920 -90 
C 2464 -90 2874 154 3155 634 
C 3398 1043 3520 1594 3520 2285 
C 3520 2976 3398 3526 3155 3936 
C 2874 4422 2464 4659 1920 4659 
z
M 1920 4211 
C 2330 4211 2624 3994 2803 3552 
C 2931 3245 3002 2822 3002 2285 
C 3002 1754 2931 1331 2803 1018 
C 2624 582 2330 358 1920 358 
C 1510 358 1216 582 1037 1018 
C 909 1331 845 1754 845 2285 
C 845 2822 909 3245 1037 3552 
C 1216 3994 1510 4211 1920 4211 
z
" transform="scale(0.015625)"/>
       </defs>
       <use xlink:href="#PingFangSC-Regular-13"/>
      </g>
     </g>
    </g>
    <g id="xtick_2">
     <g id="line2d_3">
      <path d="M 169.089998 248.68 
L 169.089998 25.24 
" clip-path="url(#pc59ce2860b)" style="fill: none; stroke: #b0b0b0; stroke-opacity: 0.25; stroke-width: 0.8; stroke-linecap: square"/>
     </g>
     <g id="line2d_4">
      <g>
       <use xlink:href="#mbc1c3fbf6b" x="169.089998" y="248.68" style="stroke: #000000; stroke-width: 0.8"/>
      </g>
     </g>
     <g id="text_2">
      <!-- 20 -->
      <g transform="translate(161.889998 266) scale(0.12 -0.12)">
       <defs>
        <path id="PingFangSC-Regular-15" d="M 1984 4659 
C 1523 4659 1146 4506 864 4198 
C 582 3898 435 3488 435 2976 
L 960 2976 
C 966 3379 1062 3686 1242 3891 
C 1408 4109 1651 4211 1965 4211 
C 2259 4211 2496 4134 2662 3981 
C 2829 3827 2912 3616 2912 3334 
C 2912 3040 2790 2765 2560 2515 
C 2438 2387 2202 2202 1843 1946 
C 1357 1613 1030 1338 851 1133 
C 544 794 397 416 397 0 
L 3443 0 
L 3443 467 
L 1043 467 
C 1126 774 1459 1126 2042 1517 
C 2515 1837 2829 2086 2989 2253 
C 3283 2573 3437 2931 3437 3328 
C 3437 3725 3296 4051 3027 4294 
C 2752 4538 2406 4659 1984 4659 
z
" transform="scale(0.015625)"/>
       </defs>
       <use xlink:href="#PingFangSC-Regular-15"/>
       <use xlink:href="#PingFangSC-Regular-13" transform="translate(60 0)"/>
      </g>
     </g>
    </g>
    <g id="xtick_3">
     <g id="line2d_5">
      <path d="M 252.054515 248.68 
L 252.054515 25.24 
" clip-path="url(#pc59ce2860b)" style="fill: none; stroke: #b0b0b0; stroke-opacity: 0.25; stroke-width: 0.8; stroke-linecap: square"/>
     </g>
     <g id="line2d_6">
      <g>
       <use xlink:href="#mbc1c3fbf6b" x="252.054515" y="248.68" style="stroke: #000000; stroke-width: 0.8"/>
      </g>
     </g>
     <g id="text_3">
      <!-- 40 -->
      <g transform="translate(244.854515 266) scale(0.12 -0.12)">
       <defs>
        <path id="PingFangSC-Regular-17" d="M 2458 4570 
L 154 1536 
L 154 1037 
L 2451 1037 
L 2451 0 
L 2950 0 
L 2950 1037 
L 3693 1037 
L 3693 1466 
L 2950 1466 
L 2950 4570 
L 2458 4570 
z
M 2432 3885 
L 2451 3885 
L 2451 1466 
L 595 1466 
L 2432 3885 
z
" transform="scale(0.015625)"/>
       </defs>
       <use xlink:href="#PingFangSC-Regular-17"/>
       <use xlink:href="#PingFangSC-Regular-13" transform="translate(60 0)"/>
      </g>
     </g>
    </g>
    <g id="xtick_4">
     <g id="line2d_7">
      <path d="M 335.019033 248.68 
L 335.019033 25.24 
" clip-path="url(#pc59ce2860b)" style="fill: none; stroke: #b0b0b0; stroke-opacity: 0.25; stroke-width: 0.8; stroke-linecap: square"/>
     </g>
     <g id="line2d_8">
      <g>
       <use xlink:href="#mbc1c3fbf6b" x="335.019033" y="248.68" style="stroke: #000000; stroke-width: 0.8"/>
      </g>
     </g>
     <g id="text_4">
      <!-- 60 -->
      <g transform="translate(327.819033 266) scale(0.12 -0.12)">
       <defs>
        <path id="PingFangSC-Regular-19" d="M 1984 4659 
C 1466 4659 1056 4422 755 3942 
C 467 3488 326 2893 326 2163 
C 326 1466 454 922 723 531 
C 1005 122 1421 -90 1978 -90 
C 2426 -90 2790 64 3085 358 
C 3373 653 3520 1030 3520 1478 
C 3520 1926 3386 2285 3123 2566 
C 2854 2848 2502 2989 2067 2989 
C 1798 2989 1562 2925 1357 2790 
C 1139 2662 979 2477 864 2240 
L 838 2240 
C 832 2323 832 2381 832 2406 
C 832 2925 928 3354 1133 3686 
C 1338 4045 1619 4218 1978 4218 
C 2509 4218 2822 3962 2925 3437 
L 3443 3437 
C 3315 4256 2829 4659 1984 4659 
z
M 1965 2554 
C 2278 2554 2528 2458 2720 2253 
C 2906 2061 3002 1805 3002 1478 
C 3002 1152 2906 883 2714 666 
C 2522 461 2272 352 1965 352 
C 1645 352 1395 461 1203 678 
C 1011 883 922 1146 922 1466 
C 922 1786 1018 2042 1216 2246 
C 1414 2451 1664 2554 1965 2554 
z
" transform="scale(0.015625)"/>
       </defs>
       <use xlink:href="#PingFangSC-Regular-19"/>
       <use xlink:href="#PingFangSC-Regular-13" transform="translate(60 0)"/>
      </g>
     </g>
    </g>
    <g id="xtick_5">
     <g id="line2d_9">
      <path d="M 417.983551 248.68 
L 417.983551 25.24 
" clip-path="url(#pc59ce2860b)" style="fill: none; stroke: #b0b0b0; stroke-opacity: 0.25; stroke-width: 0.8; stroke-linecap: square"/>
     </g>
     <g id="line2d_10">
      <g>
       <use xlink:href="#mbc1c3fbf6b" x="417.983551" y="248.68" style="stroke: #000000; stroke-width: 0.8"/>
      </g>
     </g>
     <g id="text_5">
      <!-- 80 -->
      <g transform="translate(410.783551 266) scale(0.12 -0.12)">
       <defs>
        <path id="PingFangSC-Regular-1b" d="M 1920 4659 
C 1440 4659 1069 4538 800 4288 
C 550 4064 429 3782 429 3450 
C 429 3206 486 3002 602 2835 
C 723 2656 902 2522 1146 2438 
L 1146 2426 
C 902 2368 704 2234 538 2029 
C 358 1811 269 1555 269 1261 
C 269 858 410 531 691 288 
C 979 38 1389 -90 1920 -90 
C 2445 -90 2854 38 3149 288 
C 3430 531 3571 858 3571 1261 
C 3571 1555 3482 1811 3302 2029 
C 3136 2234 2931 2368 2694 2426 
L 2694 2438 
C 2931 2522 3110 2656 3238 2835 
C 3354 3002 3411 3206 3411 3450 
C 3411 3782 3283 4064 3040 4288 
C 2771 4538 2394 4659 1920 4659 
z
M 1920 4230 
C 2240 4230 2496 4147 2682 3981 
C 2835 3840 2918 3654 2918 3430 
C 2918 3200 2848 3008 2707 2867 
C 2534 2701 2272 2611 1920 2611 
C 1562 2611 1299 2701 1133 2867 
C 992 3008 922 3200 922 3430 
C 922 3654 998 3840 1158 3981 
C 1338 4147 1594 4230 1920 4230 
z
M 1920 2202 
C 2285 2202 2573 2112 2778 1926 
C 2957 1760 3053 1536 3053 1261 
C 3053 992 2957 774 2778 608 
C 2573 429 2291 339 1920 339 
C 1549 339 1261 429 1069 602 
C 877 768 787 992 787 1261 
C 787 1536 877 1760 1069 1926 
C 1267 2112 1549 2202 1920 2202 
z
" transform="scale(0.015625)"/>
       </defs>
       <use xlink:href="#PingFangSC-Regular-1b"/>
       <use xlink:href="#PingFangSC-Regular-13" transform="translate(60 0)"/>
      </g>
     </g>
    </g>
    <g id="xtick_6">
     <g id="line2d_11">
      <path d="M 500.948068 248.68 
L 500.948068 25.24 
" clip-path="url(#pc59ce2860b)" style="fill: none; stroke: #b0b0b0; stroke-opacity: 0.25; stroke-width: 0.8; stroke-linecap: square"/>
     </g>
     <g id="line2d_12">
      <g>
       <use xlink:href="#mbc1c3fbf6b" x="500.948068" y="248.68" style="stroke: #000000; stroke-width: 0.8"/>
      </g>
     </g>
     <g id="text_6">
      <!-- 100 -->
      <g transform="translate(491.342443 266) scale(0.12 -0.12)">
       <defs>
        <path id="PingFangSC-Regular-14" d="M 1472 4570 
C 1318 4397 1139 4243 922 4102 
C 704 3974 486 3885 282 3827 
L 282 3302 
C 710 3430 1069 3635 1357 3930 
L 1357 0 
L 1882 0 
L 1882 4570 
L 1472 4570 
z
" transform="scale(0.015625)"/>
       </defs>
       <use xlink:href="#PingFangSC-Regular-14"/>
       <use xlink:href="#PingFangSC-Regular-13" transform="translate(40.09375 0)"/>
       <use xlink:href="#PingFangSC-Regular-13" transform="translate(100.09375 0)"/>
      </g>
     </g>
    </g>
    <g id="text_7">
     <!-- matrix size n -->
     <g transform="translate(262.122813 282) scale(0.12 -0.12)">
      <defs>
       <path id="PingFangSC-Regular-50" d="M 1843 3398 
C 1472 3398 1158 3226 909 2867 
L 909 3309 
L 397 3309 
L 397 0 
L 909 0 
L 909 2016 
C 909 2278 986 2502 1139 2682 
C 1293 2874 1485 2963 1722 2963 
C 2227 2963 2483 2675 2483 2086 
L 2483 0 
L 2995 0 
L 2995 2074 
C 2995 2342 3066 2554 3219 2720 
C 3360 2886 3546 2963 3763 2963 
C 4045 2963 4250 2893 4378 2739 
C 4499 2598 4563 2381 4563 2086 
L 4563 0 
L 5075 0 
L 5075 2170 
C 5075 2547 4966 2848 4762 3072 
C 4544 3290 4269 3398 3923 3398 
C 3693 3398 3501 3347 3341 3245 
C 3162 3149 3008 2989 2880 2771 
C 2694 3194 2349 3398 1843 3398 
z
" transform="scale(0.015625)"/>
       <path id="PingFangSC-Regular-44" d="M 1837 3398 
C 1440 3398 1126 3322 883 3168 
C 614 3002 442 2739 371 2394 
L 877 2355 
C 928 2566 1037 2726 1210 2829 
C 1363 2931 1562 2976 1805 2976 
C 2381 2976 2669 2701 2669 2144 
L 2669 1971 
L 1875 1958 
C 1376 1952 992 1856 723 1677 
C 416 1485 269 1203 269 826 
C 269 557 371 333 576 160 
C 774 -6 1037 -90 1370 -90 
C 1677 -90 1952 -19 2195 115 
C 2400 230 2573 378 2701 557 
L 2701 0 
L 3181 0 
L 3181 2125 
C 3181 2509 3078 2810 2886 3027 
C 2656 3277 2310 3398 1837 3398 
z
M 2669 1587 
L 2669 1306 
C 2669 1050 2547 819 2310 621 
C 2067 416 1792 314 1478 314 
C 1274 314 1107 365 979 461 
C 851 563 794 685 794 838 
C 794 1318 1165 1562 1907 1574 
L 2669 1587 
z
" transform="scale(0.015625)"/>
       <path id="PingFangSC-Regular-57" d="M 1280 4378 
L 774 4166 
L 774 3309 
L 109 3309 
L 109 2880 
L 774 2880 
L 774 774 
C 774 525 826 339 934 211 
C 1050 70 1248 0 1517 0 
L 2016 0 
L 2016 429 
L 1594 429 
C 1478 429 1395 461 1350 512 
C 1299 563 1280 653 1280 774 
L 1280 2880 
L 2099 2880 
L 2099 3309 
L 1280 3309 
L 1280 4378 
z
" transform="scale(0.015625)"/>
       <path id="PingFangSC-Regular-55" d="M 1850 3398 
C 1619 3398 1421 3328 1248 3187 
C 1107 3078 992 2925 902 2733 
L 902 3309 
L 397 3309 
L 397 0 
L 902 0 
L 902 1754 
C 902 2061 986 2323 1165 2541 
C 1338 2771 1555 2880 1811 2880 
C 1971 2880 2138 2861 2304 2810 
L 2304 3322 
C 2182 3373 2029 3398 1850 3398 
z
" transform="scale(0.015625)"/>
       <path id="PingFangSC-Regular-4c" d="M 819 4557 
C 710 4557 621 4525 544 4448 
C 467 4384 435 4294 435 4179 
C 435 4070 467 3981 544 3904 
C 621 3834 710 3795 819 3795 
C 928 3795 1018 3834 1094 3904 
C 1171 3981 1210 4070 1210 4179 
C 1210 4294 1171 4384 1094 4448 
C 1018 4525 928 4557 819 4557 
z
M 563 3309 
L 563 0 
L 1075 0 
L 1075 3309 
L 563 3309 
z
" transform="scale(0.015625)"/>
       <path id="PingFangSC-Regular-5b" d="M 173 3309 
L 1344 1754 
L 32 0 
L 640 0 
L 1632 1376 
L 2618 0 
L 3226 0 
L 1914 1754 
L 3085 3309 
L 2483 3309 
L 1632 2131 
L 774 3309 
L 173 3309 
z
" transform="scale(0.015625)"/>
       <path id="PingFangSC-Regular-3" transform="scale(0.015625)"/>
       <path id="PingFangSC-Regular-56" d="M 1568 3398 
C 1197 3398 890 3315 659 3149 
C 410 2982 288 2765 288 2483 
C 288 2202 410 1990 666 1837 
C 819 1734 1094 1638 1485 1542 
C 1843 1453 2080 1382 2189 1331 
C 2394 1229 2502 1088 2502 902 
C 2502 531 2202 339 1613 339 
C 1331 339 1120 390 979 493 
C 838 608 742 794 704 1056 
L 205 1056 
C 282 294 755 -90 1626 -90 
C 2560 -90 3027 256 3027 934 
C 3027 1222 2893 1446 2630 1613 
C 2458 1722 2176 1824 1779 1920 
C 1446 2010 1216 2080 1094 2138 
C 902 2234 813 2355 813 2496 
C 813 2643 883 2758 1024 2842 
C 1152 2931 1331 2970 1562 2970 
C 1824 2970 2029 2918 2170 2816 
C 2298 2726 2381 2573 2426 2368 
L 2925 2368 
C 2835 3059 2387 3398 1568 3398 
z
" transform="scale(0.015625)"/>
       <path id="PingFangSC-Regular-5d" d="M 224 3309 
L 224 2880 
L 2182 2880 
L 160 371 
L 160 0 
L 2957 0 
L 2957 429 
L 826 429 
L 2854 2950 
L 2854 3309 
L 224 3309 
z
" transform="scale(0.015625)"/>
       <path id="PingFangSC-Regular-48" d="M 1760 3398 
C 1280 3398 902 3226 621 2880 
C 339 2554 205 2144 205 1658 
C 205 1120 346 698 640 378 
C 922 70 1306 -90 1779 -90 
C 2208 -90 2560 38 2835 282 
C 3059 486 3206 742 3283 1062 
L 2771 1062 
C 2688 832 2579 659 2438 544 
C 2272 410 2048 339 1779 339 
C 1466 339 1216 442 1037 646 
C 858 851 762 1139 736 1510 
L 3347 1510 
C 3334 2086 3206 2541 2963 2861 
C 2694 3219 2291 3398 1760 3398 
z
M 1773 2970 
C 2400 2970 2752 2618 2816 1907 
L 749 1907 
C 781 2234 883 2490 1062 2682 
C 1242 2874 1478 2970 1773 2970 
z
" transform="scale(0.015625)"/>
       <path id="PingFangSC-Regular-51" d="M 1946 3398 
C 1728 3398 1530 3347 1350 3245 
C 1171 3149 1024 3008 909 2822 
L 909 3309 
L 397 3309 
L 397 0 
L 909 0 
L 909 1997 
C 928 2298 1024 2534 1203 2714 
C 1370 2880 1568 2963 1798 2963 
C 2374 2963 2669 2643 2669 1997 
L 2669 0 
L 3181 0 
L 3181 2035 
C 3181 2944 2765 3398 1946 3398 
z
" transform="scale(0.015625)"/>
      </defs>
      <use xlink:href="#PingFangSC-Regular-50"/>
      <use xlink:href="#PingFangSC-Regular-44" transform="translate(85.5 0)"/>
      <use xlink:href="#PingFangSC-Regular-57" transform="translate(141.40625 0)"/>
      <use xlink:href="#PingFangSC-Regular-55" transform="translate(176.90625 0)"/>
      <use xlink:href="#PingFangSC-Regular-4c" transform="translate(213.40625 0)"/>
      <use xlink:href="#PingFangSC-Regular-5b" transform="translate(239 0)"/>
      <use xlink:href="#PingFangSC-Regular-3" transform="translate(289.90625 0)"/>
      <use xlink:href="#PingFangSC-Regular-56" transform="translate(323.203125 0)"/>
      <use xlink:href="#PingFangSC-Regular-4c" transform="translate(373.703125 0)"/>
      <use xlink:href="#PingFangSC-Regular-5d" transform="translate(399.296875 0)"/>
      <use xlink:href="#PingFangSC-Regular-48" transform="translate(448 0)"/>
      <use xlink:href="#PingFangSC-Regular-3" transform="translate(503.5 0)"/>
      <use xlink:href="#PingFangSC-Regular-51" transform="translate(536.796875 0)"/>
     </g>
    </g>
   </g>
   <g id="matplotlib.axis_2">
    <g id="ytick_1">
     <g id="line2d_13">
      <path d="M 74.095625 238.525237 
L 521.274375 238.525237 
" clip-path="url(#pc59ce2860b)" style="fill: none; stroke: #b0b0b0; stroke-opacity: 0.25; stroke-width: 0.8; stroke-linecap: square"/>
     </g>
     <g id="line2d_14">
      <defs>
       <path id="m8ddfac53c4" d="M 0 0 
L -3.5 0 
" style="stroke: #000000; stroke-width: 0.8"/>
      </defs>
      <g>
       <use xlink:href="#m8ddfac53c4" x="74.095625" y="238.525237" style="stroke: #000000; stroke-width: 0.8"/>
      </g>
     </g>
     <g id="text_8">
      <!-- 0 -->
      <g transform="translate(59.895625 243.685237) scale(0.12 -0.12)">
       <use xlink:href="#PingFangSC-Regular-13"/>
      </g>
     </g>
    </g>
    <g id="ytick_2">
     <g id="line2d_15">
      <path d="M 74.095625 208.507671 
L 521.274375 208.507671 
" clip-path="url(#pc59ce2860b)" style="fill: none; stroke: #b0b0b0; stroke-opacity: 0.25; stroke-width: 0.8; stroke-linecap: square"/>
     </g>
     <g id="line2d_16">
      <g>
       <use xlink:href="#m8ddfac53c4" x="74.095625" y="208.507671" style="stroke: #000000; stroke-width: 0.8"/>
      </g>
     </g>
     <g id="text_9">
      <!-- 50000 -->
      <g transform="translate(31.095625 213.667671) scale(0.12 -0.12)">
       <defs>
        <path id="PingFangSC-Regular-18" d="M 672 4570 
L 429 2048 
L 928 2048 
C 1018 2227 1158 2368 1338 2458 
C 1510 2554 1702 2598 1920 2598 
C 2253 2598 2515 2502 2701 2298 
C 2893 2099 2995 1818 2995 1453 
C 2995 1133 2886 870 2682 666 
C 2470 461 2208 358 1888 358 
C 1606 358 1370 429 1190 563 
C 986 717 870 941 845 1229 
L 326 1229 
C 358 813 531 480 851 237 
C 1133 19 1478 -90 1882 -90 
C 2330 -90 2714 51 3021 326 
C 3347 621 3514 998 3514 1459 
C 3514 1952 3373 2336 3104 2618 
C 2835 2893 2483 3027 2048 3027 
C 1837 3027 1645 2995 1466 2918 
C 1267 2842 1101 2726 973 2573 
L 947 2573 
L 1101 4102 
L 3328 4102 
L 3328 4570 
L 672 4570 
z
" transform="scale(0.015625)"/>
       </defs>
       <use xlink:href="#PingFangSC-Regular-18"/>
       <use xlink:href="#PingFangSC-Regular-13" transform="translate(60 0)"/>
       <use xlink:href="#PingFangSC-Regular-13" transform="translate(120 0)"/>
       <use xlink:href="#PingFangSC-Regular-13" transform="translate(180 0)"/>
       <use xlink:href="#PingFangSC-Regular-13" transform="translate(240 0)"/>
      </g>
     </g>
    </g>
    <g id="ytick_3">
     <g id="line2d_17">
      <path d="M 74.095625 178.490104 
L 521.274375 178.490104 
" clip-path="url(#pc59ce2860b)" style="fill: none; stroke: #b0b0b0; stroke-opacity: 0.25; stroke-width: 0.8; stroke-linecap: square"/>
     </g>
     <g id="line2d_18">
      <g>
       <use xlink:href="#m8ddfac53c4" x="74.095625" y="178.490104" style="stroke: #000000; stroke-width: 0.8"/>
      </g>
     </g>
     <g id="text_10">
      <!-- 100000 -->
      <g transform="translate(26.284375 183.650104) scale(0.12 -0.12)">
       <use xlink:href="#PingFangSC-Regular-14"/>
       <use xlink:href="#PingFangSC-Regular-13" transform="translate(40.09375 0)"/>
       <use xlink:href="#PingFangSC-Regular-13" transform="translate(100.09375 0)"/>
       <use xlink:href="#PingFangSC-Regular-13" transform="translate(160.09375 0)"/>
       <use xlink:href="#PingFangSC-Regular-13" transform="translate(220.09375 0)"/>
       <use xlink:href="#PingFangSC-Regular-13" transform="translate(280.09375 0)"/>
      </g>
     </g>
    </g>
    <g id="ytick_4">
     <g id="line2d_19">
      <path d="M 74.095625 148.472537 
L 521.274375 148.472537 
" clip-path="url(#pc59ce2860b)" style="fill: none; stroke: #b0b0b0; stroke-opacity: 0.25; stroke-width: 0.8; stroke-linecap: square"/>
     </g>
     <g id="line2d_20">
      <g>
       <use xlink:href="#m8ddfac53c4" x="74.095625" y="148.472537" style="stroke: #000000; stroke-width: 0.8"/>
      </g>
     </g>
     <g id="text_11">
      <!-- 150000 -->
      <g transform="translate(26.284375 153.632537) scale(0.12 -0.12)">
       <use xlink:href="#PingFangSC-Regular-14"/>
       <use xlink:href="#PingFangSC-Regular-18" transform="translate(40.09375 0)"/>
       <use xlink:href="#PingFangSC-Regular-13" transform="translate(100.09375 0)"/>
       <use xlink:href="#PingFangSC-Regular-13" transform="translate(160.09375 0)"/>
       <use xlink:href="#PingFangSC-Regular-13" transform="translate(220.09375 0)"/>
       <use xlink:href="#PingFangSC-Regular-13" transform="translate(280.09375 0)"/>
      </g>
     </g>
    </g>
    <g id="ytick_5">
     <g id="line2d_21">
      <path d="M 74.095625 118.454971 
L 521.274375 118.454971 
" clip-path="url(#pc59ce2860b)" style="fill: none; stroke: #b0b0b0; stroke-opacity: 0.25; stroke-width: 0.8; stroke-linecap: square"/>
     </g>
     <g id="line2d_22">
      <g>
       <use xlink:href="#m8ddfac53c4" x="74.095625" y="118.454971" style="stroke: #000000; stroke-width: 0.8"/>
      </g>
     </g>
     <g id="text_12">
      <!-- 200000 -->
      <g transform="translate(23.895625 123.614971) scale(0.12 -0.12)">
       <use xlink:href="#PingFangSC-Regular-15"/>
       <use xlink:href="#PingFangSC-Regular-13" transform="translate(60 0)"/>
       <use xlink:href="#PingFangSC-Regular-13" transform="translate(120 0)"/>
       <use xlink:href="#PingFangSC-Regular-13" transform="translate(180 0)"/>
       <use xlink:href="#PingFangSC-Regular-13" transform="translate(240 0)"/>
       <use xlink:href="#PingFangSC-Regular-13" transform="translate(300 0)"/>
      </g>
     </g>
    </g>
    <g id="ytick_6">
     <g id="line2d_23">
      <path d="M 74.095625 88.437404 
L 521.274375 88.437404 
" clip-path="url(#pc59ce2860b)" style="fill: none; stroke: #b0b0b0; stroke-opacity: 0.25; stroke-width: 0.8; stroke-linecap: square"/>
     </g>
     <g id="line2d_24">
      <g>
       <use xlink:href="#m8ddfac53c4" x="74.095625" y="88.437404" style="stroke: #000000; stroke-width: 0.8"/>
      </g>
     </g>
     <g id="text_13">
      <!-- 250000 -->
      <g transform="translate(23.895625 93.597404) scale(0.12 -0.12)">
       <use xlink:href="#PingFangSC-Regular-15"/>
       <use xlink:href="#PingFangSC-Regular-18" transform="translate(60 0)"/>
       <use xlink:href="#PingFangSC-Regular-13" transform="translate(120 0)"/>
       <use xlink:href="#PingFangSC-Regular-13" transform="translate(180 0)"/>
       <use xlink:href="#PingFangSC-Regular-13" transform="translate(240 0)"/>
       <use xlink:href="#PingFangSC-Regular-13" transform="translate(300 0)"/>
      </g>
     </g>
    </g>
    <g id="ytick_7">
     <g id="line2d_25">
      <path d="M 74.095625 58.419837 
L 521.274375 58.419837 
" clip-path="url(#pc59ce2860b)" style="fill: none; stroke: #b0b0b0; stroke-opacity: 0.25; stroke-width: 0.8; stroke-linecap: square"/>
     </g>
     <g id="line2d_26">
      <g>
       <use xlink:href="#m8ddfac53c4" x="74.095625" y="58.419837" style="stroke: #000000; stroke-width: 0.8"/>
      </g>
     </g>
     <g id="text_14">
      <!-- 300000 -->
      <g transform="translate(23.895625 63.579837) scale(0.12 -0.12)">
       <defs>
        <path id="PingFangSC-Regular-16" d="M 1965 4659 
C 1530 4659 1178 4538 909 4288 
C 627 4038 461 3693 422 3251 
L 941 3251 
C 973 3558 1075 3795 1254 3962 
C 1427 4128 1664 4205 1971 4205 
C 2266 4205 2502 4134 2669 3981 
C 2822 3840 2906 3642 2906 3386 
C 2906 3130 2822 2931 2662 2790 
C 2502 2656 2272 2586 1965 2586 
L 1613 2586 
L 1613 2176 
L 1984 2176 
C 2304 2176 2547 2106 2726 1952 
C 2906 1798 2995 1587 2995 1312 
C 2995 1043 2899 819 2720 640 
C 2522 454 2259 358 1933 358 
C 1645 358 1408 442 1216 595 
C 992 781 870 1056 858 1414 
L 326 1414 
C 365 902 544 512 870 243 
C 1146 26 1498 -90 1933 -90 
C 2406 -90 2790 45 3085 314 
C 3373 576 3520 915 3520 1331 
C 3520 1600 3443 1824 3290 2003 
C 3149 2182 2944 2310 2675 2394 
C 3174 2560 3424 2906 3424 3418 
C 3424 3802 3290 4102 3027 4326 
C 2758 4550 2400 4659 1965 4659 
z
" transform="scale(0.015625)"/>
       </defs>
       <use xlink:href="#PingFangSC-Regular-16"/>
       <use xlink:href="#PingFangSC-Regular-13" transform="translate(60 0)"/>
       <use xlink:href="#PingFangSC-Regular-13" transform="translate(120 0)"/>
       <use xlink:href="#PingFangSC-Regular-13" transform="translate(180 0)"/>
       <use xlink:href="#PingFangSC-Regular-13" transform="translate(240 0)"/>
       <use xlink:href="#PingFangSC-Regular-13" transform="translate(300 0)"/>
      </g>
     </g>
    </g>
    <g id="ytick_8">
     <g id="line2d_27">
      <path d="M 74.095625 28.402271 
L 521.274375 28.402271 
" clip-path="url(#pc59ce2860b)" style="fill: none; stroke: #b0b0b0; stroke-opacity: 0.25; stroke-width: 0.8; stroke-linecap: square"/>
     </g>
     <g id="line2d_28">
      <g>
       <use xlink:href="#m8ddfac53c4" x="74.095625" y="28.402271" style="stroke: #000000; stroke-width: 0.8"/>
      </g>
     </g>
     <g id="text_15">
      <!-- 350000 -->
      <g transform="translate(23.895625 33.562271) scale(0.12 -0.12)">
       <use xlink:href="#PingFangSC-Regular-16"/>
       <use xlink:href="#PingFangSC-Regular-18" transform="translate(60 0)"/>
       <use xlink:href="#PingFangSC-Regular-13" transform="translate(120 0)"/>
       <use xlink:href="#PingFangSC-Regular-13" transform="translate(180 0)"/>
       <use xlink:href="#PingFangSC-Regular-13" transform="translate(240 0)"/>
       <use xlink:href="#PingFangSC-Regular-13" transform="translate(300 0)"/>
      </g>
     </g>
    </g>
    <g id="text_16">
     <!-- relative operation count -->
     <g transform="translate(17.52 203.21125) rotate(-90) scale(0.12 -0.12)">
      <defs>
       <path id="PingFangSC-Regular-4f" d="M 499 4659 
L 499 0 
L 1005 0 
L 1005 4659 
L 499 4659 
z
" transform="scale(0.015625)"/>
       <path id="PingFangSC-Regular-59" d="M 32 3309 
L 1280 0 
L 1798 0 
L 3053 3309 
L 2490 3309 
L 1542 640 
L 595 3309 
L 32 3309 
z
" transform="scale(0.015625)"/>
       <path id="PingFangSC-Regular-52" d="M 1875 3398 
C 1376 3398 986 3232 691 2886 
C 410 2560 269 2150 269 1651 
C 269 1158 410 749 691 429 
C 986 83 1376 -90 1875 -90 
C 2368 -90 2765 83 3066 429 
C 3341 749 3482 1158 3482 1651 
C 3482 2150 3341 2560 3059 2886 
C 2765 3232 2368 3398 1875 3398 
z
M 1875 2970 
C 2221 2970 2496 2835 2701 2566 
C 2874 2323 2963 2022 2963 1651 
C 2963 1293 2874 986 2701 742 
C 2496 474 2221 339 1875 339 
C 1523 339 1248 474 1056 742 
C 877 986 794 1286 794 1651 
C 794 2022 877 2323 1056 2566 
C 1248 2835 1523 2970 1875 2970 
z
" transform="scale(0.015625)"/>
       <path id="PingFangSC-Regular-53" d="M 1978 3398 
C 1478 3398 1114 3187 877 2765 
L 877 3309 
L 397 3309 
L 397 -1267 
L 909 -1267 
L 909 602 
C 1165 141 1530 -90 2003 -90 
C 2477 -90 2842 90 3110 435 
C 3354 755 3482 1158 3482 1645 
C 3482 2144 3354 2547 3104 2867 
C 2829 3226 2451 3398 1978 3398 
z
M 1914 2976 
C 2266 2976 2534 2848 2720 2579 
C 2874 2349 2957 2035 2957 1645 
C 2957 1248 2874 934 2707 704 
C 2522 461 2253 333 1894 333 
C 1587 333 1350 454 1171 685 
C 979 922 890 1229 890 1613 
L 890 1677 
C 890 2048 973 2355 1139 2586 
C 1318 2848 1581 2976 1914 2976 
z
" transform="scale(0.015625)"/>
       <path id="PingFangSC-Regular-46" d="M 1824 3398 
C 1331 3398 941 3226 659 2874 
C 397 2554 269 2144 269 1638 
C 269 1133 397 723 659 410 
C 934 77 1318 -90 1818 -90 
C 2227 -90 2554 19 2803 230 
C 3059 448 3219 774 3296 1197 
L 2784 1197 
C 2707 627 2381 339 1818 339 
C 1485 339 1229 461 1056 691 
C 877 922 794 1242 794 1645 
C 794 2048 883 2368 1062 2605 
C 1248 2848 1504 2970 1824 2970 
C 2086 2970 2298 2912 2464 2784 
C 2624 2656 2726 2464 2771 2208 
L 3277 2208 
C 3219 2611 3066 2912 2810 3110 
C 2560 3302 2234 3398 1824 3398 
z
" transform="scale(0.015625)"/>
       <path id="PingFangSC-Regular-58" d="M 397 3309 
L 397 1261 
C 397 365 794 -90 1600 -90 
C 2048 -90 2406 115 2675 512 
L 2675 0 
L 3187 0 
L 3187 3309 
L 2675 3309 
L 2675 1293 
C 2637 1011 2528 781 2349 602 
C 2176 435 1978 346 1760 346 
C 1459 346 1242 429 1107 582 
C 973 736 909 973 909 1286 
L 909 3309 
L 397 3309 
z
" transform="scale(0.015625)"/>
      </defs>
      <use xlink:href="#PingFangSC-Regular-55"/>
      <use xlink:href="#PingFangSC-Regular-48" transform="translate(36.5 0)"/>
      <use xlink:href="#PingFangSC-Regular-4f" transform="translate(92 0)"/>
      <use xlink:href="#PingFangSC-Regular-44" transform="translate(115.5 0)"/>
      <use xlink:href="#PingFangSC-Regular-57" transform="translate(171.40625 0)"/>
      <use xlink:href="#PingFangSC-Regular-4c" transform="translate(206.90625 0)"/>
      <use xlink:href="#PingFangSC-Regular-59" transform="translate(232.5 0)"/>
      <use xlink:href="#PingFangSC-Regular-48" transform="translate(280.703125 0)"/>
      <use xlink:href="#PingFangSC-Regular-3" transform="translate(336.203125 0)"/>
      <use xlink:href="#PingFangSC-Regular-52" transform="translate(369.5 0)"/>
      <use xlink:href="#PingFangSC-Regular-53" transform="translate(428.09375 0)"/>
      <use xlink:href="#PingFangSC-Regular-48" transform="translate(486.6875 0)"/>
      <use xlink:href="#PingFangSC-Regular-55" transform="translate(542.1875 0)"/>
      <use xlink:href="#PingFangSC-Regular-44" transform="translate(578.6875 0)"/>
      <use xlink:href="#PingFangSC-Regular-57" transform="translate(634.59375 0)"/>
      <use xlink:href="#PingFangSC-Regular-4c" transform="translate(670.09375 0)"/>
      <use xlink:href="#PingFangSC-Regular-52" transform="translate(695.6875 0)"/>
      <use xlink:href="#PingFangSC-Regular-51" transform="translate(754.28125 0)"/>
      <use xlink:href="#PingFangSC-Regular-3" transform="translate(810.1875 0)"/>
      <use xlink:href="#PingFangSC-Regular-46" transform="translate(843.484375 0)"/>
      <use xlink:href="#PingFangSC-Regular-52" transform="translate(898.1875 0)"/>
      <use xlink:href="#PingFangSC-Regular-58" transform="translate(956.78125 0)"/>
      <use xlink:href="#PingFangSC-Regular-51" transform="translate(1012.78125 0)"/>
      <use xlink:href="#PingFangSC-Regular-57" transform="translate(1068.6875 0)"/>
     </g>
    </g>
   </g>
   <g id="line2d_29">
    <path d="M 94.421932 238.522236 
L 98.570158 238.516832 
L 102.718384 238.507227 
L 106.866609 238.492218 
L 111.014835 238.470605 
L 115.163061 238.441188 
L 119.311287 238.402766 
L 123.459513 238.354137 
L 127.607739 238.294102 
L 131.755965 238.22146 
L 135.904191 238.135009 
L 140.052417 238.03355 
L 144.200642 237.915881 
L 148.348868 237.780802 
L 152.497094 237.627112 
L 156.64532 237.45361 
L 160.793546 237.259096 
L 164.941772 237.04237 
L 169.089998 236.802229 
L 173.238224 236.537474 
L 177.386449 236.246904 
L 181.534675 235.929318 
L 185.682901 235.583516 
L 189.831127 235.208296 
L 193.979353 234.802459 
L 198.127579 234.364803 
L 202.275805 233.894127 
L 206.424031 233.389232 
L 210.572256 232.848915 
L 214.720482 232.271978 
L 218.868708 231.657218 
L 223.016934 231.003435 
L 227.16516 230.309429 
L 231.313386 229.573999 
L 235.461612 228.795944 
L 239.609838 227.974063 
L 243.758064 227.107155 
L 247.906289 226.194021 
L 252.054515 225.233459 
L 256.202741 224.224268 
L 260.350967 223.165248 
L 264.499193 222.055199 
L 268.647419 220.892919 
L 272.795645 219.677207 
L 276.943871 218.406864 
L 281.092096 217.080688 
L 285.240322 215.697478 
L 289.388548 214.256035 
L 293.536774 212.755156 
L 297.685 211.193642 
L 301.833226 209.570292 
L 305.981452 207.883906 
L 310.129678 206.133281 
L 314.277904 204.317218 
L 318.426129 202.434517 
L 322.574355 200.483975 
L 326.722581 198.464393 
L 330.870807 196.37457 
L 335.019033 194.213305 
L 339.167259 191.979398 
L 343.315485 189.671648 
L 347.463711 187.288853 
L 351.611936 184.829814 
L 355.760162 182.29333 
L 359.908388 179.678199 
L 364.056614 176.983222 
L 368.20484 174.207198 
L 372.353066 171.348925 
L 376.501292 168.407203 
L 380.649518 165.380832 
L 384.797744 162.268611 
L 388.945969 159.069339 
L 393.094195 155.781815 
L 397.242421 152.404839 
L 401.390647 148.937209 
L 405.538873 145.377726 
L 409.687099 141.725189 
L 413.835325 137.978396 
L 417.983551 134.136147 
L 422.131776 130.197242 
L 426.280002 126.16048 
L 430.428228 122.02466 
L 434.576454 117.788581 
L 438.72468 113.451042 
L 442.872906 109.010844 
L 447.021132 104.466785 
L 451.169358 99.817664 
L 455.317583 95.062281 
L 459.465809 90.199435 
L 463.614035 85.227926 
L 467.762261 80.146552 
L 471.910487 74.954113 
L 476.058713 69.649409 
L 480.206939 64.231238 
L 484.355165 58.6984 
L 488.503391 53.049695 
L 492.651616 47.28392 
L 496.799842 41.399877 
L 500.948068 35.396364 
" clip-path="url(#pc59ce2860b)" style="fill: none; stroke: #1f77b4; stroke-width: 2.2; stroke-linecap: square"/>
   </g>
   <g id="line2d_30">
    <path d="M 94.421932 238.523636 
L 98.570158 238.519834 
L 102.718384 238.51243 
L 106.866609 238.500223 
L 111.014835 238.482012 
L 115.163061 238.456597 
L 119.311287 238.422777 
L 123.459513 238.379352 
L 127.607739 238.32512 
L 131.755965 238.258881 
L 135.904191 238.179435 
L 140.052417 238.08558 
L 144.200642 237.976116 
L 148.348868 237.849842 
L 152.497094 237.705558 
L 156.64532 237.542062 
L 160.793546 237.358154 
L 164.941772 237.152634 
L 169.089998 236.9243 
L 173.238224 236.671953 
L 177.386449 236.39439 
L 181.534675 236.090412 
L 185.682901 235.758818 
L 189.831127 235.398407 
L 193.979353 235.007979 
L 198.127579 234.586332 
L 202.275805 234.132266 
L 206.424031 233.644581 
L 210.572256 233.122075 
L 214.720482 232.563548 
L 218.868708 231.9678 
L 223.016934 231.333629 
L 227.16516 230.659834 
L 231.313386 229.945216 
L 235.461612 229.188573 
L 239.609838 228.388705 
L 243.758064 227.544411 
L 247.906289 226.65449 
L 252.054515 225.717742 
L 256.202741 224.732966 
L 260.350967 223.698961 
L 264.499193 222.614526 
L 268.647419 221.478461 
L 272.795645 220.289566 
L 276.943871 219.046638 
L 281.092096 217.748478 
L 285.240322 216.393886 
L 289.388548 214.981659 
L 293.536774 213.510598 
L 297.685 211.979502 
L 301.833226 210.387171 
L 305.981452 208.732402 
L 310.129678 207.013997 
L 314.277904 205.230753 
L 318.426129 203.381471 
L 322.574355 201.464949 
L 326.722581 199.479988 
L 330.870807 197.425385 
L 335.019033 195.299941 
L 339.167259 193.102455 
L 343.315485 190.831726 
L 347.463711 188.486554 
L 351.611936 186.065737 
L 355.760162 183.568076 
L 359.908388 180.992368 
L 364.056614 178.337415 
L 368.20484 175.602014 
L 372.353066 172.784965 
L 376.501292 169.885068 
L 380.649518 166.901122 
L 384.797744 163.831926 
L 388.945969 160.676279 
L 393.094195 157.432981 
L 397.242421 154.100831 
L 401.390647 150.678628 
L 405.538873 147.165172 
L 409.687099 143.559262 
L 413.835325 139.859697 
L 417.983551 136.065276 
L 422.131776 132.1748 
L 426.280002 128.187066 
L 430.428228 124.100875 
L 434.576454 119.915025 
L 438.72468 115.628316 
L 442.872906 111.239548 
L 447.021132 106.747519 
L 451.169358 102.151029 
L 455.317583 97.448878 
L 459.465809 92.639863 
L 463.614035 87.722786 
L 467.762261 82.696444 
L 471.910487 77.559638 
L 476.058713 72.311167 
L 480.206939 66.949829 
L 484.355165 61.474425 
L 488.503391 55.883753 
L 492.651616 50.176613 
L 496.799842 44.351804 
L 500.948068 38.408126 
" clip-path="url(#pc59ce2860b)" style="fill: none; stroke-dasharray: 7.4,3.2; stroke-dashoffset: 0; stroke: #d62728; stroke-width: 2"/>
   </g>
   <g id="patch_3">
    <path d="M 74.095625 248.68 
L 74.095625 25.24 
" style="fill: none; stroke: #000000; stroke-width: 0.8; stroke-linejoin: miter; stroke-linecap: square"/>
   </g>
   <g id="patch_4">
    <path d="M 74.095625 248.68 
L 521.274375 248.68 
" style="fill: none; stroke: #000000; stroke-width: 0.8; stroke-linejoin: miter; stroke-linecap: square"/>
   </g>
   <g id="patch_5">
    <path d="M 272.549467 97.530914 
Q 293.050115 149.993662 313.143839 201.415058 
" style="fill: none; stroke: #555555; stroke-linecap: round"/>
    <path d="M 313.550807 196.961478 
L 313.143839 201.415058 
L 309.825156 198.417335 
" style="fill: none; stroke: #555555; stroke-linecap: round"/>
   </g>
   <g id="text_17">
    <!-- later columns are smaller -->
    <g transform="translate(210.572256 92.272448) scale(0.1 -0.1)">
     <use xlink:href="#PingFangSC-Regular-4f"/>
     <use xlink:href="#PingFangSC-Regular-44" transform="translate(23.5 0)"/>
     <use xlink:href="#PingFangSC-Regular-57" transform="translate(79.40625 0)"/>
     <use xlink:href="#PingFangSC-Regular-48" transform="translate(114.90625 0)"/>
     <use xlink:href="#PingFangSC-Regular-55" transform="translate(170.40625 0)"/>
     <use xlink:href="#PingFangSC-Regular-3" transform="translate(206.90625 0)"/>
     <use xlink:href="#PingFangSC-Regular-46" transform="translate(240.203125 0)"/>
     <use xlink:href="#PingFangSC-Regular-52" transform="translate(294.90625 0)"/>
     <use xlink:href="#PingFangSC-Regular-4f" transform="translate(353.5 0)"/>
     <use xlink:href="#PingFangSC-Regular-58" transform="translate(377 0)"/>
     <use xlink:href="#PingFangSC-Regular-50" transform="translate(433 0)"/>
     <use xlink:href="#PingFangSC-Regular-51" transform="translate(518.5 0)"/>
     <use xlink:href="#PingFangSC-Regular-56" transform="translate(574.40625 0)"/>
     <use xlink:href="#PingFangSC-Regular-3" transform="translate(624.90625 0)"/>
     <use xlink:href="#PingFangSC-Regular-44" transform="translate(658.203125 0)"/>
     <use xlink:href="#PingFangSC-Regular-55" transform="translate(714.109375 0)"/>
     <use xlink:href="#PingFangSC-Regular-48" transform="translate(750.609375 0)"/>
     <use xlink:href="#PingFangSC-Regular-3" transform="translate(806.109375 0)"/>
     <use xlink:href="#PingFangSC-Regular-56" transform="translate(839.40625 0)"/>
     <use xlink:href="#PingFangSC-Regular-50" transform="translate(889.90625 0)"/>
     <use xlink:href="#PingFangSC-Regular-44" transform="translate(975.40625 0)"/>
     <use xlink:href="#PingFangSC-Regular-4f" transform="translate(1031.3125 0)"/>
     <use xlink:href="#PingFangSC-Regular-4f" transform="translate(1054.8125 0)"/>
     <use xlink:href="#PingFangSC-Regular-48" transform="translate(1078.3125 0)"/>
     <use xlink:href="#PingFangSC-Regular-55" transform="translate(1133.8125 0)"/>
    </g>
   </g>
   <g id="text_18">
    <!-- Elimination cost grows like one third of n cubed -->
    <g transform="translate(141.47125 19.24) scale(0.14 -0.14)">
     <defs>
      <path id="PingFangSC-Regular-28" d="M 461 4570 
L 461 0 
L 3808 0 
L 3808 454 
L 986 454 
L 986 2131 
L 3546 2131 
L 3546 2586 
L 986 2586 
L 986 4115 
L 3699 4115 
L 3699 4570 
L 461 4570 
z
" transform="scale(0.015625)"/>
      <path id="PingFangSC-Regular-4a" d="M 1760 3398 
C 1299 3398 934 3238 666 2912 
C 397 2605 269 2214 269 1728 
C 269 1248 397 858 666 550 
C 934 237 1299 77 1760 77 
C 2259 77 2630 301 2874 742 
L 2874 160 
C 2874 -570 2541 -941 1875 -941 
C 1574 -941 1350 -883 1203 -774 
C 1056 -672 960 -506 922 -282 
L 410 -282 
C 467 -640 614 -909 851 -1088 
C 1082 -1267 1427 -1357 1875 -1357 
C 2880 -1357 3386 -826 3386 230 
L 3386 3309 
L 2874 3309 
L 2874 2739 
C 2630 3181 2259 3398 1760 3398 
z
M 1837 2976 
C 2163 2976 2419 2861 2611 2618 
C 2790 2400 2880 2099 2880 1728 
C 2880 1370 2790 1075 2611 851 
C 2419 621 2163 506 1830 506 
C 1472 506 1210 634 1030 877 
C 870 1094 794 1382 794 1728 
C 794 2099 883 2400 1062 2618 
C 1248 2861 1504 2976 1837 2976 
z
" transform="scale(0.015625)"/>
      <path id="PingFangSC-Regular-5a" d="M 32 3309 
L 1158 0 
L 1638 0 
L 2419 2662 
L 3187 0 
L 3674 0 
L 4800 3309 
L 4237 3309 
L 3424 627 
L 2656 3309 
L 2176 3309 
L 1408 627 
L 595 3309 
L 32 3309 
z
" transform="scale(0.015625)"/>
      <path id="PingFangSC-Regular-4e" d="M 397 4659 
L 397 0 
L 909 0 
L 909 1171 
L 1434 1645 
L 2726 0 
L 3386 0 
L 1786 1978 
L 3245 3309 
L 2566 3309 
L 909 1773 
L 909 4659 
L 397 4659 
z
" transform="scale(0.015625)"/>
      <path id="PingFangSC-Regular-4b" d="M 397 4659 
L 397 0 
L 909 0 
L 909 1888 
C 909 2195 992 2458 1165 2662 
C 1331 2867 1542 2970 1798 2970 
C 2074 2970 2285 2886 2438 2720 
C 2579 2554 2656 2317 2656 2010 
L 2656 0 
L 3168 0 
L 3168 2086 
C 3168 2509 3066 2835 2861 3059 
C 2656 3290 2355 3398 1971 3398 
C 1747 3398 1549 3347 1370 3245 
C 1178 3136 1024 2976 909 2765 
L 909 4659 
L 397 4659 
z
" transform="scale(0.015625)"/>
      <path id="PingFangSC-Regular-47" d="M 2842 4659 
L 2842 2701 
C 2586 3168 2221 3398 1747 3398 
C 1274 3398 909 3226 640 2867 
C 390 2547 269 2150 269 1664 
C 269 1165 390 755 640 435 
C 909 90 1286 -90 1773 -90 
C 2272 -90 2643 122 2874 544 
L 2874 0 
L 3354 0 
L 3354 4659 
L 2842 4659 
z
M 1856 2976 
C 2150 2976 2394 2861 2579 2618 
C 2758 2381 2854 2067 2854 1683 
L 2854 1619 
C 2854 1248 2771 947 2611 717 
C 2426 461 2170 333 1837 333 
C 1478 333 1210 467 1030 723 
C 870 954 794 1267 794 1664 
C 794 2061 870 2368 1037 2592 
C 1216 2848 1491 2976 1856 2976 
z
" transform="scale(0.015625)"/>
      <path id="PingFangSC-Regular-49" d="M 1722 4570 
C 1440 4570 1222 4493 1075 4333 
C 934 4179 864 3968 864 3686 
L 864 3309 
L 32 3309 
L 32 2880 
L 864 2880 
L 864 0 
L 1376 0 
L 1376 2880 
L 2310 2880 
L 2310 3309 
L 1376 3309 
L 1376 3674 
C 1376 3834 1408 3949 1472 4019 
C 1536 4096 1645 4128 1786 4128 
L 2355 4128 
L 2355 4570 
L 1722 4570 
z
" transform="scale(0.015625)"/>
      <path id="PingFangSC-Regular-45" d="M 397 4659 
L 397 0 
L 877 0 
L 877 544 
C 1101 122 1466 -90 1978 -90 
C 2458 -90 2835 90 3110 435 
C 3354 755 3482 1165 3482 1664 
C 3482 2150 3354 2547 3110 2867 
C 2842 3226 2470 3398 2003 3398 
C 1530 3398 1165 3168 909 2701 
L 909 4659 
L 397 4659 
z
M 1894 2976 
C 2253 2976 2522 2848 2707 2592 
C 2874 2368 2957 2061 2957 1664 
C 2957 1267 2874 954 2720 723 
C 2541 467 2272 333 1914 333 
C 1581 333 1318 461 1139 717 
C 973 947 890 1248 890 1619 
L 890 1683 
C 890 2067 979 2381 1171 2618 
C 1350 2861 1594 2976 1894 2976 
z
" transform="scale(0.015625)"/>
     </defs>
     <use xlink:href="#PingFangSC-Regular-28"/>
     <use xlink:href="#PingFangSC-Regular-4f" transform="translate(63.703125 0)"/>
     <use xlink:href="#PingFangSC-Regular-4c" transform="translate(87.203125 0)"/>
     <use xlink:href="#PingFangSC-Regular-50" transform="translate(112.796875 0)"/>
     <use xlink:href="#PingFangSC-Regular-4c" transform="translate(198.296875 0)"/>
     <use xlink:href="#PingFangSC-Regular-51" transform="translate(223.890625 0)"/>
     <use xlink:href="#PingFangSC-Regular-44" transform="translate(279.796875 0)"/>
     <use xlink:href="#PingFangSC-Regular-57" transform="translate(335.703125 0)"/>
     <use xlink:href="#PingFangSC-Regular-4c" transform="translate(371.203125 0)"/>
     <use xlink:href="#PingFangSC-Regular-52" transform="translate(396.796875 0)"/>
     <use xlink:href="#PingFangSC-Regular-51" transform="translate(455.390625 0)"/>
     <use xlink:href="#PingFangSC-Regular-3" transform="translate(511.296875 0)"/>
     <use xlink:href="#PingFangSC-Regular-46" transform="translate(544.59375 0)"/>
     <use xlink:href="#PingFangSC-Regular-52" transform="translate(599.296875 0)"/>
     <use xlink:href="#PingFangSC-Regular-56" transform="translate(657.890625 0)"/>
     <use xlink:href="#PingFangSC-Regular-57" transform="translate(708.390625 0)"/>
     <use xlink:href="#PingFangSC-Regular-3" transform="translate(743.890625 0)"/>
     <use xlink:href="#PingFangSC-Regular-4a" transform="translate(777.1875 0)"/>
     <use xlink:href="#PingFangSC-Regular-55" transform="translate(836.28125 0)"/>
     <use xlink:href="#PingFangSC-Regular-52" transform="translate(872.78125 0)"/>
     <use xlink:href="#PingFangSC-Regular-5a" transform="translate(931.375 0)"/>
     <use xlink:href="#PingFangSC-Regular-56" transform="translate(1006.875 0)"/>
     <use xlink:href="#PingFangSC-Regular-3" transform="translate(1057.375 0)"/>
     <use xlink:href="#PingFangSC-Regular-4f" transform="translate(1090.671875 0)"/>
     <use xlink:href="#PingFangSC-Regular-4c" transform="translate(1114.171875 0)"/>
     <use xlink:href="#PingFangSC-Regular-4e" transform="translate(1139.765625 0)"/>
     <use xlink:href="#PingFangSC-Regular-48" transform="translate(1192.671875 0)"/>
     <use xlink:href="#PingFangSC-Regular-3" transform="translate(1248.171875 0)"/>
     <use xlink:href="#PingFangSC-Regular-52" transform="translate(1281.46875 0)"/>
     <use xlink:href="#PingFangSC-Regular-51" transform="translate(1340.0625 0)"/>
     <use xlink:href="#PingFangSC-Regular-48" transform="translate(1395.96875 0)"/>
     <use xlink:href="#PingFangSC-Regular-3" transform="translate(1451.46875 0)"/>
     <use xlink:href="#PingFangSC-Regular-57" transform="translate(1484.765625 0)"/>
     <use xlink:href="#PingFangSC-Regular-4b" transform="translate(1520.265625 0)"/>
     <use xlink:href="#PingFangSC-Regular-4c" transform="translate(1575.859375 0)"/>
     <use xlink:href="#PingFangSC-Regular-55" transform="translate(1601.453125 0)"/>
     <use xlink:href="#PingFangSC-Regular-47" transform="translate(1637.953125 0)"/>
     <use xlink:href="#PingFangSC-Regular-3" transform="translate(1696.546875 0)"/>
     <use xlink:href="#PingFangSC-Regular-52" transform="translate(1729.84375 0)"/>
     <use xlink:href="#PingFangSC-Regular-49" transform="translate(1788.4375 0)"/>
     <use xlink:href="#PingFangSC-Regular-3" transform="translate(1825.734375 0)"/>
     <use xlink:href="#PingFangSC-Regular-51" transform="translate(1859.03125 0)"/>
     <use xlink:href="#PingFangSC-Regular-3" transform="translate(1914.9375 0)"/>
     <use xlink:href="#PingFangSC-Regular-46" transform="translate(1948.234375 0)"/>
     <use xlink:href="#PingFangSC-Regular-58" transform="translate(2002.9375 0)"/>
     <use xlink:href="#PingFangSC-Regular-45" transform="translate(2058.9375 0)"/>
     <use xlink:href="#PingFangSC-Regular-48" transform="translate(2117.53125 0)"/>
     <use xlink:href="#PingFangSC-Regular-47" transform="translate(2173.03125 0)"/>
    </g>
   </g>
   <g id="legend_1">
    <g id="line2d_31">
     <path d="M 84.895625 43.12 
L 96.895625 43.12 
L 108.895625 43.12 
" style="fill: none; stroke: #1f77b4; stroke-width: 2.2; stroke-linecap: square"/>
    </g>
    <g id="text_19">
     <!-- $1^2+2^2+\cdots+n^2$ -->
     <g transform="translate(118.495625 47.32) scale(0.12 -0.12)">
      <defs>
       <path id="DejaVuSans-14" d="M 794 531 
L 1825 531 
L 1825 4091 
L 703 3866 
L 703 4441 
L 1819 4666 
L 2450 4666 
L 2450 531 
L 3481 531 
L 3481 0 
L 794 0 
L 794 531 
z
" transform="scale(0.015625)"/>
       <path id="DejaVuSans-15" d="M 1228 531 
L 3431 531 
L 3431 0 
L 469 0 
L 469 531 
Q 828 903 1448 1529 
Q 2069 2156 2228 2338 
Q 2531 2678 2651 2914 
Q 2772 3150 2772 3378 
Q 2772 3750 2511 3984 
Q 2250 4219 1831 4219 
Q 1534 4219 1204 4116 
Q 875 4013 500 3803 
L 500 4441 
Q 881 4594 1212 4672 
Q 1544 4750 1819 4750 
Q 2544 4750 2975 4387 
Q 3406 4025 3406 3419 
Q 3406 3131 3298 2873 
Q 3191 2616 2906 2266 
Q 2828 2175 2409 1742 
Q 1991 1309 1228 531 
z
" transform="scale(0.015625)"/>
       <path id="DejaVuSans-e" d="M 2944 4013 
L 2944 2272 
L 4684 2272 
L 4684 1741 
L 2944 1741 
L 2944 0 
L 2419 0 
L 2419 1741 
L 678 1741 
L 678 2272 
L 2419 2272 
L 2419 4013 
L 2944 4013 
z
" transform="scale(0.015625)"/>
       <path id="DejaVuSans-d79" d="M 737 2388 
L 1397 2388 
L 1397 1594 
L 737 1594 
L 737 2388 
z
M 2868 2388 
L 3528 2388 
L 3528 1594 
L 2868 1594 
L 2868 2388 
z
M 5000 2388 
L 5660 2388 
L 5660 1594 
L 5000 1594 
L 5000 2388 
z
" transform="scale(0.015625)"/>
       <path id="DejaVuSans-Oblique-51" d="M 3566 2113 
L 3156 0 
L 2578 0 
L 2988 2091 
Q 3016 2238 3031 2350 
Q 3047 2463 3047 2528 
Q 3047 2791 2881 2937 
Q 2716 3084 2419 3084 
Q 1956 3084 1622 2776 
Q 1288 2469 1184 1941 
L 800 0 
L 225 0 
L 903 3500 
L 1478 3500 
L 1363 2950 
Q 1603 3253 1940 3418 
Q 2278 3584 2650 3584 
Q 3113 3584 3367 3334 
Q 3622 3084 3622 2631 
Q 3622 2519 3608 2391 
Q 3594 2263 3566 2113 
z
" transform="scale(0.015625)"/>
      </defs>
      <use xlink:href="#DejaVuSans-14" transform="translate(0 0.746875)"/>
      <use xlink:href="#DejaVuSans-15" transform="translate(64.580078 42.046875) scale(0.7)"/>
      <use xlink:href="#DejaVuSans-e" transform="translate(131.333008 0.746875)"/>
      <use xlink:href="#DejaVuSans-15" transform="translate(234.604492 0.746875)"/>
      <use xlink:href="#DejaVuSans-15" transform="translate(299.18457 42.046875) scale(0.7)"/>
      <use xlink:href="#DejaVuSans-e" transform="translate(365.9375 0.746875)"/>
      <use xlink:href="#DejaVuSans-d79" transform="translate(469.208984 0.746875)"/>
      <use xlink:href="#DejaVuSans-e" transform="translate(588.691406 0.746875)"/>
      <use xlink:href="#DejaVuSans-Oblique-51" transform="translate(691.962891 0.746875)"/>
      <use xlink:href="#DejaVuSans-15" transform="translate(759.991693 42.046875) scale(0.7)"/>
     </g>
    </g>
    <g id="line2d_32">
     <path d="M 84.895625 62.08 
L 96.895625 62.08 
L 108.895625 62.08 
" style="fill: none; stroke-dasharray: 7.4,3.2; stroke-dashoffset: 0; stroke: #d62728; stroke-width: 2"/>
    </g>
    <g id="text_20">
     <!-- $n^3/3$ leading term -->
     <g transform="translate(118.495625 66.28) scale(0.12 -0.12)">
      <defs>
       <path id="DejaVuSans-16" d="M 2597 2516 
Q 3050 2419 3304 2112 
Q 3559 1806 3559 1356 
Q 3559 666 3084 287 
Q 2609 -91 1734 -91 
Q 1441 -91 1130 -33 
Q 819 25 488 141 
L 488 750 
Q 750 597 1062 519 
Q 1375 441 1716 441 
Q 2309 441 2620 675 
Q 2931 909 2931 1356 
Q 2931 1769 2642 2001 
Q 2353 2234 1838 2234 
L 1294 2234 
L 1294 2753 
L 1863 2753 
Q 2328 2753 2575 2939 
Q 2822 3125 2822 3475 
Q 2822 3834 2567 4026 
Q 2313 4219 1838 4219 
Q 1578 4219 1281 4162 
Q 984 4106 628 3988 
L 628 4550 
Q 988 4650 1302 4700 
Q 1616 4750 1894 4750 
Q 2613 4750 3031 4423 
Q 3450 4097 3450 3541 
Q 3450 3153 3228 2886 
Q 3006 2619 2597 2516 
z
" transform="scale(0.015625)"/>
       <path id="DejaVuSans-12" d="M 1625 4666 
L 2156 4666 
L 531 -594 
L 0 -594 
L 1625 4666 
z
" transform="scale(0.015625)"/>
      </defs>
      <use xlink:href="#DejaVuSans-Oblique-51" transform="translate(0 0.746875)"/>
      <use xlink:href="#DejaVuSans-16" transform="translate(68.028802 42.046875) scale(0.7)"/>
      <use xlink:href="#DejaVuSans-12" transform="translate(115.29931 0.746875)"/>
      <use xlink:href="#DejaVuSans-16" transform="translate(148.990716 0.746875)"/>
      <use xlink:href="#PingFangSC-Regular-3" transform="translate(212.613763 0.746875)"/>
      <use xlink:href="#PingFangSC-Regular-4f" transform="translate(245.913736 0.746875)"/>
      <use xlink:href="#PingFangSC-Regular-48" transform="translate(269.41372 0.746875)"/>
      <use xlink:href="#PingFangSC-Regular-44" transform="translate(324.913675 0.746875)"/>
      <use xlink:href="#PingFangSC-Regular-47" transform="translate(380.813623 0.746875)"/>
      <use xlink:href="#PingFangSC-Regular-4c" transform="translate(439.413568 0.746875)"/>
      <use xlink:href="#PingFangSC-Regular-51" transform="translate(465.013543 0.746875)"/>
      <use xlink:href="#PingFangSC-Regular-4a" transform="translate(520.913491 0.746875)"/>
      <use xlink:href="#PingFangSC-Regular-3" transform="translate(580.013436 0.746875)"/>
      <use xlink:href="#PingFangSC-Regular-57" transform="translate(613.313409 0.746875)"/>
      <use xlink:href="#PingFangSC-Regular-48" transform="translate(648.813378 0.746875)"/>
      <use xlink:href="#PingFangSC-Regular-55" transform="translate(704.313333 0.746875)"/>
      <use xlink:href="#PingFangSC-Regular-50" transform="translate(740.813302 0.746875)"/>
     </g>
    </g>
   </g>
  </g>
 </g>
 <defs>
  <clipPath id="pc59ce2860b">
   <rect x="74.095625" y="25.24" width="447.17875" height="223.44"/>
  </clipPath>
 </defs>
</svg>
