<?xml version="1.0" encoding="UTF-8" standalone="no"?>
<!DOCTYPE svg PUBLIC "-//W3C//DTD SVG 1.1//EN"
 "http://www.w3.org/Graphics/SVG/1.1/DTD/svg11.dtd">
<!-- Generated by graphviz version 15.0.0 (20260523.1842)
 -->
<!-- Title: G Pages: 1 -->
<svg width="578pt" height="500pt"
 viewBox="0.00 0.00 578.00 500.00" xmlns="http://www.w3.org/2000/svg" xmlns:xlink="http://www.w3.org/1999/xlink">
<g id="graph0" class="graph" transform="scale(1 1) rotate(0) translate(18 482.33)">
<title>G</title>
<!-- R3 -->
<g id="node1" class="node">
<title>R3</title>
<path fill="#eef7ff" stroke="#30363d" d="M284.15,-363.58C284.15,-363.58 146.88,-363.58 146.88,-363.58 140.88,-363.58 134.88,-357.58 134.88,-351.58 134.88,-351.58 134.88,-334.06 134.88,-334.06 134.88,-328.06 140.88,-322.06 146.88,-322.06 146.88,-322.06 284.15,-322.06 284.15,-322.06 290.15,-322.06 296.15,-328.06 296.15,-334.06 296.15,-334.06 296.15,-351.58 296.15,-351.58 296.15,-357.58 290.15,-363.58 284.15,-363.58"/>
<text xml:space="preserve" text-anchor="middle" x="215.51" y="-344.52" font-family="Helvetica,sans-Serif" font-size="14.00">R^3</text>
<text xml:space="preserve" text-anchor="middle" x="215.51" y="-329.52" font-family="Helvetica,sans-Serif" font-size="14.00">all 3&#45;component vectors</text>
</g>
<!-- plane -->
<g id="node2" class="node">
<title>plane</title>
<path fill="#ecfdf3" stroke="#30363d" d="M312.28,-257.31C312.28,-257.31 172.75,-257.31 172.75,-257.31 166.75,-257.31 160.75,-251.31 160.75,-245.31 160.75,-245.31 160.75,-227.79 160.75,-227.79 160.75,-221.79 166.75,-215.79 172.75,-215.79 172.75,-215.79 312.28,-215.79 312.28,-215.79 318.28,-215.79 324.28,-221.79 324.28,-227.79 324.28,-227.79 324.28,-245.31 324.28,-245.31 324.28,-251.31 318.28,-257.31 312.28,-257.31"/>
<text xml:space="preserve" text-anchor="middle" x="242.51" y="-238.25" font-family="Helvetica,sans-Serif" font-size="14.00">Plane through origin</text>
<text xml:space="preserve" text-anchor="middle" x="242.51" y="-223.25" font-family="Helvetica,sans-Serif" font-size="14.00">2&#45;dimensional subspace</text>
</g>
<!-- R3&#45;&gt;plane -->
<g id="edge1" class="edge">
<title>R3&#45;&gt;plane</title>
<path fill="none" stroke="#65717c" stroke-width="1.4" d="M220.72,-321.72C224.72,-306.28 230.3,-284.73 234.81,-267.3"/>
<polygon fill="#65717c" stroke="#65717c" stroke-width="1.4" points="237.5,-268.09 236.79,-259.64 232.08,-266.69 237.5,-268.09"/>
</g>
<!-- line -->
<g id="node3" class="node">
<title>line</title>
<path fill="#fff7e6" stroke="#30363d" d="M312.28,-162.79C312.28,-162.79 172.75,-162.79 172.75,-162.79 166.75,-162.79 160.75,-156.79 160.75,-150.79 160.75,-150.79 160.75,-133.27 160.75,-133.27 160.75,-127.27 166.75,-121.27 172.75,-121.27 172.75,-121.27 312.28,-121.27 312.28,-121.27 318.28,-121.27 324.28,-127.27 324.28,-133.27 324.28,-133.27 324.28,-150.79 324.28,-150.79 324.28,-156.79 318.28,-162.79 312.28,-162.79"/>
<text xml:space="preserve" text-anchor="middle" x="242.51" y="-143.73" font-family="Helvetica,sans-Serif" font-size="14.00">Line through origin</text>
<text xml:space="preserve" text-anchor="middle" x="242.51" y="-128.73" font-family="Helvetica,sans-Serif" font-size="14.00">1&#45;dimensional subspace</text>
</g>
<!-- plane&#45;&gt;line -->
<g id="edge2" class="edge">
<title>plane&#45;&gt;line</title>
<path fill="none" stroke="#65717c" stroke-width="1.4" d="M242.51,-215.47C242.51,-203.11 242.51,-187.02 242.51,-173.15"/>
<polygon fill="#65717c" stroke="#65717c" stroke-width="1.4" points="245.32,-173.19 242.52,-165.19 239.72,-173.19 245.32,-173.19"/>
</g>
<!-- zero -->
<g id="node4" class="node">
<title>zero</title>
<path fill="#f6f8fa" stroke="#30363d" d="M117.03,-49.02C117.03,-49.02 12,-49.02 12,-49.02 6,-49.02 0,-43.02 0,-37.02 0,-37.02 0,-19.5 0,-19.5 0,-13.5 6,-7.5 12,-7.5 12,-7.5 117.03,-7.5 117.03,-7.5 123.03,-7.5 129.03,-13.5 129.03,-19.5 129.03,-19.5 129.03,-37.02 129.03,-37.02 129.03,-43.02 123.03,-49.02 117.03,-49.02"/>
<text xml:space="preserve" text-anchor="middle" x="64.51" y="-29.96" font-family="Helvetica,sans-Serif" font-size="14.00">Z = {0}</text>
<text xml:space="preserve" text-anchor="middle" x="64.51" y="-14.96" font-family="Helvetica,sans-Serif" font-size="14.00">smallest subspace</text>
</g>
<!-- line&#45;&gt;zero -->
<g id="edge3" class="edge">
<title>line&#45;&gt;zero</title>
<path fill="none" stroke="#65717c" stroke-width="1.4" d="M210.28,-120.79C180.67,-102.19 136.66,-74.56 104.76,-54.53"/>
<polygon fill="#65717c" stroke="#65717c" stroke-width="1.4" points="106.57,-52.36 98.3,-50.48 103.59,-57.1 106.57,-52.36"/>
</g>
<!-- union -->
<g id="node7" class="node">
<title>union</title>
<path fill="#fff0f0" stroke="#30363d" d="M312.28,-56.52C312.28,-56.52 172.75,-56.52 172.75,-56.52 166.75,-56.52 160.75,-50.52 160.75,-44.52 160.75,-44.52 160.75,-12 160.75,-12 160.75,-6 166.75,0 172.75,0 172.75,0 312.28,0 312.28,0 318.28,0 324.28,-6 324.28,-12 324.28,-12 324.28,-44.52 324.28,-44.52 324.28,-50.52 318.28,-56.52 312.28,-56.52"/>
<text xml:space="preserve" text-anchor="middle" x="242.51" y="-37.46" font-family="Helvetica,sans-Serif" font-size="14.00">V1 union V2</text>
<text xml:space="preserve" text-anchor="middle" x="242.51" y="-22.46" font-family="Helvetica,sans-Serif" font-size="14.00">usually not a subspace</text>
<text xml:space="preserve" text-anchor="middle" x="242.51" y="-7.46" font-family="Helvetica,sans-Serif" font-size="14.00">x1 + x2 leaves the union</text>
</g>
<!-- line&#45;&gt;union -->
<g id="edge6" class="edge">
<title>line&#45;&gt;union</title>
<path fill="none" stroke="#65717c" stroke-width="1.4" d="M242.51,-120.79C242.51,-105.78 242.51,-84.9 242.51,-66.86"/>
<polygon fill="#65717c" stroke="#65717c" stroke-width="1.4" points="245.32,-67.04 242.52,-59.04 239.72,-67.04 245.32,-67.04"/>
<text xml:space="preserve" text-anchor="middle" x="266.14" y="-83.87" font-family="Helvetica,sans-Serif" font-size="12.00">two lines</text>
</g>
<!-- inter -->
<g id="node8" class="node">
<title>inter</title>
<path fill="#eef7ff" stroke="#30363d" d="M470.9,-56.52C470.9,-56.52 368.12,-56.52 368.12,-56.52 362.12,-56.52 356.12,-50.52 356.12,-44.52 356.12,-44.52 356.12,-12 356.12,-12 356.12,-6 362.12,0 368.12,0 368.12,0 470.9,0 470.9,0 476.9,0 482.9,-6 482.9,-12 482.9,-12 482.9,-44.52 482.9,-44.52 482.9,-50.52 476.9,-56.52 470.9,-56.52"/>
<text xml:space="preserve" text-anchor="middle" x="419.51" y="-37.46" font-family="Helvetica,sans-Serif" font-size="14.00">V1 intersection V2</text>
<text xml:space="preserve" text-anchor="middle" x="419.51" y="-22.46" font-family="Helvetica,sans-Serif" font-size="14.00">can be {0}</text>
<text xml:space="preserve" text-anchor="middle" x="419.51" y="-7.46" font-family="Helvetica,sans-Serif" font-size="14.00">subspace</text>
</g>
<!-- line&#45;&gt;inter -->
<g id="edge7" class="edge">
<title>line&#45;&gt;inter</title>
<path fill="none" stroke="#65717c" stroke-width="1.4" d="M274.57,-120.79C300.43,-104.46 337.33,-81.16 367.42,-62.15"/>
<polygon fill="#65717c" stroke="#65717c" stroke-width="1.4" points="368.66,-64.69 373.92,-58.05 365.67,-59.95 368.66,-64.69"/>
<text xml:space="preserve" text-anchor="middle" x="374.51" y="-83.87" font-family="Helvetica,sans-Serif" font-size="12.00">common vectors</text>
</g>
<!-- cols -->
<g id="node5" class="node">
<title>cols</title>
<path fill="#f6f8fa" stroke="#30363d" d="M461.78,-464.33C461.78,-464.33 331.25,-464.33 331.25,-464.33 325.25,-464.33 319.25,-458.33 319.25,-452.33 319.25,-452.33 319.25,-440.33 319.25,-440.33 319.25,-434.33 325.25,-428.33 331.25,-428.33 331.25,-428.33 461.78,-428.33 461.78,-428.33 467.78,-428.33 473.78,-434.33 473.78,-440.33 473.78,-440.33 473.78,-452.33 473.78,-452.33 473.78,-458.33 467.78,-464.33 461.78,-464.33"/>
<text xml:space="preserve" text-anchor="middle" x="396.51" y="-440.53" font-family="Helvetica,sans-Serif" font-size="14.00">Columns a1, a2 in R^3</text>
</g>
<!-- span -->
<g id="node6" class="node">
<title>span</title>
<path fill="#ecfdf3" stroke="#30363d" d="M452.78,-363.58C452.78,-363.58 340.25,-363.58 340.25,-363.58 334.25,-363.58 328.25,-357.58 328.25,-351.58 328.25,-351.58 328.25,-334.06 328.25,-334.06 328.25,-328.06 334.25,-322.06 340.25,-322.06 340.25,-322.06 452.78,-322.06 452.78,-322.06 458.78,-322.06 464.78,-328.06 464.78,-334.06 464.78,-334.06 464.78,-351.58 464.78,-351.58 464.78,-357.58 458.78,-363.58 452.78,-363.58"/>
<text xml:space="preserve" text-anchor="middle" x="396.51" y="-344.52" font-family="Helvetica,sans-Serif" font-size="14.00">C(A) = span(a1, a2)</text>
<text xml:space="preserve" text-anchor="middle" x="396.51" y="-329.52" font-family="Helvetica,sans-Serif" font-size="14.00">all c1 a1 + c2 a2</text>
</g>
<!-- cols&#45;&gt;span -->
<g id="edge4" class="edge">
<title>cols&#45;&gt;span</title>
<path fill="none" stroke="#65717c" stroke-width="1.4" d="M396.51,-428.11C396.51,-413.26 396.51,-391.49 396.51,-373.79"/>
<polygon fill="#65717c" stroke="#65717c" stroke-width="1.4" points="399.32,-374.04 396.52,-366.04 393.72,-374.04 399.32,-374.04"/>
<text xml:space="preserve" text-anchor="middle" x="469.26" y="-390.93" font-family="Helvetica,sans-Serif" font-size="12.00">take all linear combinations</text>
</g>
<!-- span&#45;&gt;plane -->
<g id="edge5" class="edge">
<title>span&#45;&gt;plane</title>
<path fill="none" stroke="#65717c" stroke-width="1.4" d="M366.82,-321.72C342.29,-305.11 307.31,-281.42 280.7,-263.4"/>
<polygon fill="#65717c" stroke="#65717c" stroke-width="1.4" points="282.33,-261.12 274.13,-258.96 279.19,-265.76 282.33,-261.12"/>
<text xml:space="preserve" text-anchor="middle" x="390.99" y="-284.66" font-family="Helvetica,sans-Serif" font-size="12.00">if a1, a2 are not parallel</text>
</g>
</g>
</svg>
