<?xml version="1.0" encoding="UTF-8" standalone="no"?>
<!DOCTYPE svg PUBLIC "-//W3C//DTD SVG 1.1//EN"
 "http://www.w3.org/Graphics/SVG/1.1/DTD/svg11.dtd">
<!-- Generated by graphviz version 15.0.0 (20260523.1842)
 -->
<!-- Title: G Pages: 1 -->
<svg width="530pt" height="415pt"
 viewBox="0.00 0.00 530.00 415.00" xmlns="http://www.w3.org/2000/svg" xmlns:xlink="http://www.w3.org/1999/xlink">
<g id="graph0" class="graph" transform="scale(1 1) rotate(0) translate(18 397.06)">
<title>G</title>
<!-- test -->
<g id="node1" class="node">
<title>test</title>
<path fill="#eef7ff" stroke="#30363d" d="M249.85,-379.06C249.85,-379.06 39.88,-379.06 39.88,-379.06 33.87,-379.06 27.88,-373.06 27.88,-367.06 27.88,-367.06 27.88,-349.54 27.88,-349.54 27.88,-343.54 33.88,-337.54 39.88,-337.54 39.88,-337.54 249.85,-337.54 249.85,-337.54 255.85,-337.54 261.85,-343.54 261.85,-349.54 261.85,-349.54 261.85,-367.06 261.85,-367.06 261.85,-373.06 255.85,-379.06 249.85,-379.06"/>
<text xml:space="preserve" text-anchor="middle" x="144.86" y="-360" font-family="Helvetica,sans-Serif" font-size="14.00">Vector space test</text>
<text xml:space="preserve" text-anchor="middle" x="144.86" y="-345" font-family="Helvetica,sans-Serif" font-size="14.00">closed under all linear combinations</text>
</g>
<!-- add -->
<g id="node2" class="node">
<title>add</title>
<path fill="#f6f8fa" stroke="#30363d" d="M175.35,-282.54C175.35,-282.54 76.38,-282.54 76.38,-282.54 70.38,-282.54 64.38,-276.54 64.38,-270.54 64.38,-270.54 64.38,-258.54 64.38,-258.54 64.38,-252.54 70.38,-246.54 76.38,-246.54 76.38,-246.54 175.35,-246.54 175.35,-246.54 181.35,-246.54 187.35,-252.54 187.35,-258.54 187.35,-258.54 187.35,-270.54 187.35,-270.54 187.35,-276.54 181.35,-282.54 175.35,-282.54"/>
<text xml:space="preserve" text-anchor="middle" x="125.86" y="-258.74" font-family="Helvetica,sans-Serif" font-size="14.00">u + v stays inside</text>
</g>
<!-- test&#45;&gt;add -->
<g id="edge1" class="edge">
<title>test&#45;&gt;add</title>
<path fill="none" stroke="#65717c" stroke-width="1.4" d="M140.74,-337.39C138.03,-324.33 134.46,-307.07 131.49,-292.75"/>
<polygon fill="#65717c" stroke="#65717c" stroke-width="1.4" points="134.26,-292.28 129.89,-285.01 128.77,-293.41 134.26,-292.28"/>
</g>
<!-- scalar -->
<g id="node3" class="node">
<title>scalar</title>
<path fill="#f6f8fa" stroke="#30363d" d="M410.47,-282.54C410.47,-282.54 231.25,-282.54 231.25,-282.54 225.25,-282.54 219.25,-276.54 219.25,-270.54 219.25,-270.54 219.25,-258.54 219.25,-258.54 219.25,-252.54 225.25,-246.54 231.25,-246.54 231.25,-246.54 410.47,-246.54 410.47,-246.54 416.47,-246.54 422.47,-252.54 422.47,-258.54 422.47,-258.54 422.47,-270.54 422.47,-270.54 422.47,-276.54 416.47,-282.54 410.47,-282.54"/>
<text xml:space="preserve" text-anchor="middle" x="320.86" y="-258.74" font-family="Helvetica,sans-Serif" font-size="14.00">c v stays inside for every real c</text>
</g>
<!-- test&#45;&gt;scalar -->
<g id="edge2" class="edge">
<title>test&#45;&gt;scalar</title>
<path fill="none" stroke="#65717c" stroke-width="1.4" d="M183.48,-337.16C211.64,-322.49 249.76,-302.61 278.7,-287.52"/>
<polygon fill="#65717c" stroke="#65717c" stroke-width="1.4" points="279.69,-290.16 285.49,-283.98 277.1,-285.2 279.69,-290.16"/>
</g>
<!-- zero -->
<g id="node4" class="node">
<title>zero</title>
<path fill="#fff7e6" stroke="#30363d" d="M229.72,-172.29C229.72,-172.29 136,-172.29 136,-172.29 130,-172.29 124,-166.29 124,-160.29 124,-160.29 124,-142.77 124,-142.77 124,-136.77 130,-130.77 136,-130.77 136,-130.77 229.72,-130.77 229.72,-130.77 235.72,-130.77 241.72,-136.77 241.72,-142.77 241.72,-142.77 241.72,-160.29 241.72,-160.29 241.72,-166.29 235.72,-172.29 229.72,-172.29"/>
<text xml:space="preserve" text-anchor="middle" x="182.86" y="-153.23" font-family="Helvetica,sans-Serif" font-size="14.00">0 must be inside</text>
<text xml:space="preserve" text-anchor="middle" x="182.86" y="-138.23" font-family="Helvetica,sans-Serif" font-size="14.00">use c = 0</text>
</g>
<!-- scalar&#45;&gt;zero -->
<g id="edge3" class="edge">
<title>scalar&#45;&gt;zero</title>
<path fill="none" stroke="#65717c" stroke-width="1.4" d="M299.3,-246.19C276.9,-228.18 241.58,-199.77 215.71,-178.96"/>
<polygon fill="#65717c" stroke="#65717c" stroke-width="1.4" points="217.65,-176.92 209.66,-174.09 214.14,-181.29 217.65,-176.92"/>
</g>
<!-- bad1 -->
<g id="node6" class="node">
<title>bad1</title>
<path fill="#fff0f0" stroke="#30363d" d="M481.72,-179.79C481.72,-179.79 286,-179.79 286,-179.79 280,-179.79 274,-173.79 274,-167.79 274,-167.79 274,-135.27 274,-135.27 274,-129.27 280,-123.27 286,-123.27 286,-123.27 481.72,-123.27 481.72,-123.27 487.72,-123.27 493.72,-129.27 493.72,-135.27 493.72,-135.27 493.72,-167.79 493.72,-167.79 493.72,-173.79 487.72,-179.79 481.72,-179.79"/>
<text xml:space="preserve" text-anchor="middle" x="383.86" y="-160.73" font-family="Helvetica,sans-Serif" font-size="14.00">Positive quadrant</text>
<text xml:space="preserve" text-anchor="middle" x="383.86" y="-145.73" font-family="Helvetica,sans-Serif" font-size="14.00">closed under addition</text>
<text xml:space="preserve" text-anchor="middle" x="383.86" y="-130.73" font-family="Helvetica,sans-Serif" font-size="14.00">not closed under negative scalars</text>
</g>
<!-- scalar&#45;&gt;bad1 -->
<g id="edge6" class="edge">
<title>scalar&#45;&gt;bad1</title>
<path fill="none" stroke="#65717c" stroke-width="1.4" d="M330.7,-246.19C339.41,-230.86 352.38,-207.99 363.34,-188.69"/>
<polygon fill="#65717c" stroke="#65717c" stroke-width="1.4" points="365.65,-190.3 367.16,-181.96 360.78,-187.53 365.65,-190.3"/>
<text xml:space="preserve" text-anchor="middle" x="363.24" y="-208.14" font-family="Helvetica,sans-Serif" font-size="12.00">fails</text>
</g>
<!-- good -->
<g id="node5" class="node">
<title>good</title>
<path fill="#ecfdf3" stroke="#30363d" d="M159.72,-56.52C159.72,-56.52 12,-56.52 12,-56.52 6,-56.52 0,-50.52 0,-44.52 0,-44.52 0,-12 0,-12 0,-6 6,0 12,0 12,0 159.72,0 159.72,0 165.72,0 171.72,-6 171.72,-12 171.72,-12 171.72,-44.52 171.72,-44.52 171.72,-50.52 165.72,-56.52 159.72,-56.52"/>
<text xml:space="preserve" text-anchor="middle" x="85.86" y="-37.46" font-family="Helvetica,sans-Serif" font-size="14.00">Line through origin</text>
<text xml:space="preserve" text-anchor="middle" x="85.86" y="-22.46" font-family="Helvetica,sans-Serif" font-size="14.00">all multiples of one vector</text>
<text xml:space="preserve" text-anchor="middle" x="85.86" y="-7.46" font-family="Helvetica,sans-Serif" font-size="14.00">subspace</text>
</g>
<!-- zero&#45;&gt;good -->
<g id="edge4" class="edge">
<title>zero&#45;&gt;good</title>
<path fill="none" stroke="#65717c" stroke-width="1.4" d="M166.84,-130.5C152.47,-112.53 131.04,-85.74 113.84,-64.24"/>
<polygon fill="#65717c" stroke="#65717c" stroke-width="1.4" points="116.22,-62.73 109.04,-58.23 111.85,-66.23 116.22,-62.73"/>
</g>
<!-- bad2 -->
<g id="node7" class="node">
<title>bad2</title>
<path fill="#fff0f0" stroke="#30363d" d="M344.35,-56.52C344.35,-56.52 215.38,-56.52 215.38,-56.52 209.38,-56.52 203.38,-50.52 203.38,-44.52 203.38,-44.52 203.38,-12 203.38,-12 203.38,-6 209.38,0 215.38,0 215.38,0 344.35,0 344.35,0 350.35,0 356.35,-6 356.35,-12 356.35,-12 356.35,-44.52 356.35,-44.52 356.35,-50.52 350.35,-56.52 344.35,-56.52"/>
<text xml:space="preserve" text-anchor="middle" x="279.86" y="-37.46" font-family="Helvetica,sans-Serif" font-size="14.00">Line not through origin</text>
<text xml:space="preserve" text-anchor="middle" x="279.86" y="-22.46" font-family="Helvetica,sans-Serif" font-size="14.00">0 is missing</text>
<text xml:space="preserve" text-anchor="middle" x="279.86" y="-7.46" font-family="Helvetica,sans-Serif" font-size="14.00">not a subspace</text>
</g>
<!-- zero&#45;&gt;bad2 -->
<g id="edge5" class="edge">
<title>zero&#45;&gt;bad2</title>
<path fill="none" stroke="#65717c" stroke-width="1.4" d="M198.88,-130.5C213.25,-112.53 234.68,-85.74 251.88,-64.24"/>
<polygon fill="#65717c" stroke="#65717c" stroke-width="1.4" points="253.87,-66.23 256.68,-58.23 249.5,-62.73 253.87,-66.23"/>
<text xml:space="preserve" text-anchor="middle" x="245.14" y="-84.87" font-family="Helvetica,sans-Serif" font-size="12.00">fails</text>
</g>
</g>
</svg>
