<?xml version="1.0" encoding="UTF-8" standalone="no"?>
<!DOCTYPE svg PUBLIC "-//W3C//DTD SVG 1.1//EN"
 "http://www.w3.org/Graphics/SVG/1.1/DTD/svg11.dtd">
<!-- Generated by graphviz version 15.0.0 (20260523.1842)
 -->
<!-- Title: G Pages: 1 -->
<svg width="515pt" height="226pt"
 viewBox="0.00 0.00 515.00 226.00" xmlns="http://www.w3.org/2000/svg" xmlns:xlink="http://www.w3.org/1999/xlink">
<g id="graph0" class="graph" transform="scale(1 1) rotate(0) translate(18 207.52)">
<title>G</title>
<!-- A -->
<g id="node1" class="node">
<title>A</title>
<path fill="#f7f9fb" stroke="#2f3a45" d="M89.28,-41.52C89.28,-41.52 36,-41.52 36,-41.52 30,-41.52 24,-35.52 24,-29.52 24,-29.52 24,-12 24,-12 24,-6 30,0 36,0 36,0 89.28,0 89.28,0 95.28,0 101.28,-6 101.28,-12 101.28,-12 101.28,-29.52 101.28,-29.52 101.28,-35.52 95.28,-41.52 89.28,-41.52"/>
<text xml:space="preserve" text-anchor="middle" x="62.64" y="-22.46" font-family="Helvetica,sans-Serif" font-size="14.00">A is m x n</text>
<text xml:space="preserve" text-anchor="middle" x="62.64" y="-7.46" font-family="Helvetica,sans-Serif" font-size="14.00">entry a_ij</text>
</g>
<!-- AT -->
<g id="node2" class="node">
<title>AT</title>
<path fill="#eef7ff" stroke="#2f3a45" d="M447.81,-41.52C447.81,-41.52 337.53,-41.52 337.53,-41.52 331.53,-41.52 325.53,-35.52 325.53,-29.52 325.53,-29.52 325.53,-12 325.53,-12 325.53,-6 331.53,0 337.53,0 337.53,0 447.81,0 447.81,0 453.81,0 459.81,-6 459.81,-12 459.81,-12 459.81,-29.52 459.81,-29.52 459.81,-35.52 453.81,-41.52 447.81,-41.52"/>
<text xml:space="preserve" text-anchor="middle" x="392.67" y="-22.46" font-family="Helvetica,sans-Serif" font-size="14.00">A^T is n x m</text>
<text xml:space="preserve" text-anchor="middle" x="392.67" y="-7.46" font-family="Helvetica,sans-Serif" font-size="14.00">entry (A^T)_ij = a_ji</text>
</g>
<!-- A&#45;&gt;AT -->
<g id="edge1" class="edge">
<title>A&#45;&gt;AT</title>
<path fill="none" stroke="#6a737d" stroke-width="1.4" d="M101.59,-20.76C153.56,-20.76 248.07,-20.76 315.07,-20.76"/>
<polygon fill="#6a737d" stroke="#6a737d" stroke-width="1.4" points="315.04,-23.56 323.04,-20.76 315.04,-17.96 315.04,-23.56"/>
<text xml:space="preserve" text-anchor="middle" x="216.03" y="-22.11" font-family="Helvetica,sans-Serif" font-size="12.00">flip across diagonal</text>
</g>
<!-- product -->
<g id="node3" class="node">
<title>product</title>
<path fill="#f7f9fb" stroke="#2f3a45" d="M93.4,-112.76C93.4,-112.76 31.87,-112.76 31.87,-112.76 25.87,-112.76 19.87,-106.76 19.87,-100.76 19.87,-100.76 19.87,-88.76 19.87,-88.76 19.87,-82.76 25.87,-76.76 31.87,-76.76 31.87,-76.76 93.4,-76.76 93.4,-76.76 99.4,-76.76 105.4,-82.76 105.4,-88.76 105.4,-88.76 105.4,-100.76 105.4,-100.76 105.4,-106.76 99.4,-112.76 93.4,-112.76"/>
<text xml:space="preserve" text-anchor="middle" x="62.64" y="-88.96" font-family="Helvetica,sans-Serif" font-size="14.00">Product AB</text>
</g>
<!-- reverse -->
<g id="node4" class="node">
<title>reverse</title>
<path fill="#fff7e6" stroke="#2f3a45" d="M466.56,-115.52C466.56,-115.52 318.78,-115.52 318.78,-115.52 312.78,-115.52 306.78,-109.52 306.78,-103.52 306.78,-103.52 306.78,-86 306.78,-86 306.78,-80 312.78,-74 318.78,-74 318.78,-74 466.56,-74 466.56,-74 472.56,-74 478.56,-80 478.56,-86 478.56,-86 478.56,-103.52 478.56,-103.52 478.56,-109.52 472.56,-115.52 466.56,-115.52"/>
<text xml:space="preserve" text-anchor="middle" x="392.67" y="-96.46" font-family="Helvetica,sans-Serif" font-size="14.00">Transpose reverses order</text>
<text xml:space="preserve" text-anchor="middle" x="392.67" y="-81.46" font-family="Helvetica,sans-Serif" font-size="14.00">(AB)^T = B^T A^T</text>
</g>
<!-- product&#45;&gt;reverse -->
<g id="edge2" class="edge">
<title>product&#45;&gt;reverse</title>
<path fill="none" stroke="#6a737d" stroke-width="1.4" d="M105.85,-94.76C153.73,-94.76 233.34,-94.76 296.39,-94.76"/>
<polygon fill="#6a737d" stroke="#6a737d" stroke-width="1.4" points="296.24,-97.56 304.24,-94.76 296.24,-91.96 296.24,-97.56"/>
<text xml:space="preserve" text-anchor="middle" x="216.03" y="-96.11" font-family="Helvetica,sans-Serif" font-size="12.00">transpose</text>
</g>
<!-- R -->
<g id="node5" class="node">
<title>R</title>
<path fill="#f7f9fb" stroke="#2f3a45" d="M113.28,-186.76C113.28,-186.76 12,-186.76 12,-186.76 6,-186.76 0,-180.76 0,-174.76 0,-174.76 0,-162.76 0,-162.76 0,-156.76 6,-150.76 12,-150.76 12,-150.76 113.28,-150.76 113.28,-150.76 119.28,-150.76 125.28,-156.76 125.28,-162.76 125.28,-162.76 125.28,-174.76 125.28,-174.76 125.28,-180.76 119.28,-186.76 113.28,-186.76"/>
<text xml:space="preserve" text-anchor="middle" x="62.64" y="-162.96" font-family="Helvetica,sans-Serif" font-size="14.00">Any rectangular R</text>
</g>
<!-- RTR -->
<g id="node6" class="node">
<title>RTR</title>
<path fill="#ecfdf3" stroke="#2f3a45" d="M448.56,-189.52C448.56,-189.52 336.78,-189.52 336.78,-189.52 330.78,-189.52 324.78,-183.52 324.78,-177.52 324.78,-177.52 324.78,-160 324.78,-160 324.78,-154 330.78,-148 336.78,-148 336.78,-148 448.56,-148 448.56,-148 454.56,-148 460.56,-154 460.56,-160 460.56,-160 460.56,-177.52 460.56,-177.52 460.56,-183.52 454.56,-189.52 448.56,-189.52"/>
<text xml:space="preserve" text-anchor="middle" x="392.67" y="-170.46" font-family="Helvetica,sans-Serif" font-size="14.00">R^T R is symmetric</text>
<text xml:space="preserve" text-anchor="middle" x="392.67" y="-155.46" font-family="Helvetica,sans-Serif" font-size="14.00">(R^T R)^T = R^T R</text>
</g>
<!-- R&#45;&gt;RTR -->
<g id="edge3" class="edge">
<title>R&#45;&gt;RTR</title>
<path fill="none" stroke="#6a737d" stroke-width="1.4" d="M125.73,-168.76C179.37,-168.76 257.11,-168.76 314.69,-168.76"/>
<polygon fill="#6a737d" stroke="#6a737d" stroke-width="1.4" points="314.36,-171.56 322.36,-168.76 314.36,-165.96 314.36,-171.56"/>
<text xml:space="preserve" text-anchor="middle" x="216.03" y="-170.11" font-family="Helvetica,sans-Serif" font-size="12.00">multiply by its transpose</text>
</g>
</g>
</svg>
