<?xml version="1.0" encoding="UTF-8" standalone="no"?>
<!DOCTYPE svg PUBLIC "-//W3C//DTD SVG 1.1//EN"
 "http://www.w3.org/Graphics/SVG/1.1/DTD/svg11.dtd">
<!-- Generated by graphviz version 15.0.0 (20260523.1842)
 -->
<!-- Title: G Pages: 1 -->
<svg width="816pt" height="190pt"
 viewBox="0.00 0.00 816.00 190.00" xmlns="http://www.w3.org/2000/svg" xmlns:xlink="http://www.w3.org/1999/xlink">
<g id="graph0" class="graph" transform="scale(1 1) rotate(0) translate(18 171.52)">
<title>G</title>
<!-- A -->
<g id="node1" class="node">
<title>A</title>
<path fill="#f6f8fa" stroke="#30363d" d="M92.28,-153.52C92.28,-153.52 12,-153.52 12,-153.52 6,-153.52 0,-147.52 0,-141.52 0,-141.52 0,-124 0,-124 0,-118 6,-112 12,-112 12,-112 92.28,-112 92.28,-112 98.28,-112 104.28,-118 104.28,-124 104.28,-124 104.28,-141.52 104.28,-141.52 104.28,-147.52 98.28,-153.52 92.28,-153.52"/>
<text xml:space="preserve" text-anchor="middle" x="52.14" y="-134.46" font-family="Helvetica,sans-Serif" font-size="14.00">A</text>
<text xml:space="preserve" text-anchor="middle" x="52.14" y="-119.46" font-family="Helvetica,sans-Serif" font-size="14.00">rows: r1, r2, r3</text>
</g>
<!-- PA -->
<g id="node3" class="node">
<title>PA</title>
<path fill="#fff7e6" stroke="#30363d" d="M357.56,-104.52C357.56,-104.52 277.28,-104.52 277.28,-104.52 271.28,-104.52 265.28,-98.52 265.28,-92.52 265.28,-92.52 265.28,-75 265.28,-75 265.28,-69 271.28,-63 277.28,-63 277.28,-63 357.56,-63 357.56,-63 363.56,-63 369.56,-69 369.56,-75 369.56,-75 369.56,-92.52 369.56,-92.52 369.56,-98.52 363.56,-104.52 357.56,-104.52"/>
<text xml:space="preserve" text-anchor="middle" x="317.42" y="-85.46" font-family="Helvetica,sans-Serif" font-size="14.00">P12 A</text>
<text xml:space="preserve" text-anchor="middle" x="317.42" y="-70.46" font-family="Helvetica,sans-Serif" font-size="14.00">rows: r2, r1, r3</text>
</g>
<!-- A&#45;&gt;PA -->
<g id="edge2" class="edge">
<title>A&#45;&gt;PA</title>
<path fill="none" stroke="#59636e" stroke-width="1.5" d="M104.53,-123.2C147.66,-115.17 209.37,-103.68 255.08,-95.18"/>
<polygon fill="#59636e" stroke="#59636e" stroke-width="1.5" points="255.58,-97.93 262.93,-93.72 254.55,-92.43 255.58,-97.93"/>
<text xml:space="preserve" text-anchor="middle" x="184.78" y="-118.26" font-family="Helvetica,sans-Serif" font-size="12.00">row order changes</text>
</g>
<!-- P -->
<g id="node2" class="node">
<title>P</title>
<path fill="#eef7ff" stroke="#30363d" d="M67.53,-71.52C67.53,-71.52 36.75,-71.52 36.75,-71.52 30.75,-71.52 24.75,-65.52 24.75,-59.52 24.75,-59.52 24.75,-12 24.75,-12 24.75,-6 30.75,0 36.75,0 36.75,0 67.53,0 67.53,0 73.53,0 79.53,-6 79.53,-12 79.53,-12 79.53,-59.52 79.53,-59.52 79.53,-65.52 73.53,-71.52 67.53,-71.52"/>
<text xml:space="preserve" text-anchor="middle" x="52.14" y="-52.46" font-family="Helvetica,sans-Serif" font-size="14.00">P12 =</text>
<text xml:space="preserve" text-anchor="middle" x="52.14" y="-37.46" font-family="Helvetica,sans-Serif" font-size="14.00">[0 1 0]</text>
<text xml:space="preserve" text-anchor="middle" x="52.14" y="-22.46" font-family="Helvetica,sans-Serif" font-size="14.00">[1 0 0]</text>
<text xml:space="preserve" text-anchor="middle" x="52.14" y="-7.46" font-family="Helvetica,sans-Serif" font-size="14.00">[0 0 1]</text>
</g>
<!-- P&#45;&gt;PA -->
<g id="edge1" class="edge">
<title>P&#45;&gt;PA</title>
<path fill="none" stroke="#59636e" stroke-width="1.5" d="M79.83,-40.63C120.57,-48.05 199.35,-62.42 254.78,-72.52"/>
<polygon fill="#59636e" stroke="#59636e" stroke-width="1.5" points="254.24,-75.27 262.61,-73.95 255.25,-69.76 254.24,-75.27"/>
<text xml:space="preserve" text-anchor="middle" x="184.78" y="-69.58" font-family="Helvetica,sans-Serif" font-size="12.00">left multiply</text>
</g>
<!-- inv -->
<g id="node4" class="node">
<title>inv</title>
<path fill="#f6f8fa" stroke="#30363d" d="M719.59,-145.52C719.59,-145.52 636.31,-145.52 636.31,-145.52 630.31,-145.52 624.31,-139.52 624.31,-133.52 624.31,-133.52 624.31,-116 624.31,-116 624.31,-110 630.31,-104 636.31,-104 636.31,-104 719.59,-104 719.59,-104 725.59,-104 731.59,-110 731.59,-116 731.59,-116 731.59,-133.52 731.59,-133.52 731.59,-139.52 725.59,-145.52 719.59,-145.52"/>
<text xml:space="preserve" text-anchor="middle" x="677.95" y="-126.46" font-family="Helvetica,sans-Serif" font-size="14.00">Undo the swap</text>
<text xml:space="preserve" text-anchor="middle" x="677.95" y="-111.46" font-family="Helvetica,sans-Serif" font-size="14.00">P^(&#45;1) = P^T</text>
</g>
<!-- PA&#45;&gt;inv -->
<g id="edge3" class="edge">
<title>PA&#45;&gt;inv</title>
<path fill="none" stroke="#59636e" stroke-width="1.5" d="M369.79,-89.63C434.2,-97 544.57,-109.62 613.99,-117.56"/>
<polygon fill="#59636e" stroke="#59636e" stroke-width="1.5" points="613.4,-120.31 621.67,-118.44 614.04,-114.75 613.4,-120.31"/>
<text xml:space="preserve" text-anchor="middle" x="472.56" y="-110.49" font-family="Helvetica,sans-Serif" font-size="12.00">same swap reverses itself</text>
</g>
<!-- lu -->
<g id="node5" class="node">
<title>lu</title>
<path fill="#ecfdf3" stroke="#30363d" d="M768.34,-63.52C768.34,-63.52 587.56,-63.52 587.56,-63.52 581.56,-63.52 575.56,-57.52 575.56,-51.52 575.56,-51.52 575.56,-34 575.56,-34 575.56,-28 581.56,-22 587.56,-22 587.56,-22 768.34,-22 768.34,-22 774.34,-22 780.34,-28 780.34,-34 780.34,-34 780.34,-51.52 780.34,-51.52 780.34,-57.52 774.34,-63.52 768.34,-63.52"/>
<text xml:space="preserve" text-anchor="middle" x="677.95" y="-44.46" font-family="Helvetica,sans-Serif" font-size="14.00">General elimination with swaps</text>
<text xml:space="preserve" text-anchor="middle" x="677.95" y="-29.46" font-family="Helvetica,sans-Serif" font-size="14.00">PA = LU</text>
</g>
<!-- PA&#45;&gt;lu -->
<g id="edge4" class="edge">
<title>PA&#45;&gt;lu</title>
<path fill="none" stroke="#59636e" stroke-width="1.5" d="M369.63,-75.39C379.86,-73.84 390.54,-72.3 400.56,-71.01 454.6,-64.06 514.77,-57.74 565.14,-52.85"/>
<polygon fill="#59636e" stroke="#59636e" stroke-width="1.5" points="565.12,-55.67 572.81,-52.11 564.58,-50.09 565.12,-55.67"/>
<text xml:space="preserve" text-anchor="middle" x="472.56" y="-72.36" font-family="Helvetica,sans-Serif" font-size="12.00">after rows are in pivot order</text>
</g>
</g>
</svg>
